%TF.GenerationSoftware,KiCad,Pcbnew,(5.1.8)-1*%
%TF.CreationDate,2021-02-17T15:09:59-03:00*%
%TF.ProjectId,esquema,65737175-656d-4612-9e6b-696361645f70,rev?*%
%TF.SameCoordinates,Original*%
%TF.FileFunction,Copper,L2,Bot*%
%TF.FilePolarity,Positive*%
%FSLAX46Y46*%
G04 Gerber Fmt 4.6, Leading zero omitted, Abs format (unit mm)*
G04 Created by KiCad (PCBNEW (5.1.8)-1) date 2021-02-17 15:09:59*
%MOMM*%
%LPD*%
G01*
G04 APERTURE LIST*
%TA.AperFunction,ComponentPad*%
%ADD10R,1.600000X1.600000*%
%TD*%
%TA.AperFunction,ComponentPad*%
%ADD11O,1.600000X1.600000*%
%TD*%
%TA.AperFunction,ComponentPad*%
%ADD12R,1.800000X2.600000*%
%TD*%
%TA.AperFunction,ComponentPad*%
%ADD13O,1.800000X2.600000*%
%TD*%
%TA.AperFunction,ComponentPad*%
%ADD14C,3.000000*%
%TD*%
%TA.AperFunction,ComponentPad*%
%ADD15C,0.500000*%
%TD*%
%TA.AperFunction,ComponentPad*%
%ADD16C,1.508000*%
%TD*%
%TA.AperFunction,ComponentPad*%
%ADD17R,1.050000X1.500000*%
%TD*%
%TA.AperFunction,ComponentPad*%
%ADD18O,1.050000X1.500000*%
%TD*%
%TA.AperFunction,ComponentPad*%
%ADD19C,1.600000*%
%TD*%
%TA.AperFunction,ComponentPad*%
%ADD20R,3.500000X3.500000*%
%TD*%
%TA.AperFunction,ComponentPad*%
%ADD21R,1.700000X1.700000*%
%TD*%
%TA.AperFunction,ComponentPad*%
%ADD22O,1.700000X1.700000*%
%TD*%
%TA.AperFunction,ComponentPad*%
%ADD23R,3.000000X3.000000*%
%TD*%
%TA.AperFunction,ComponentPad*%
%ADD24C,1.550000*%
%TD*%
%TA.AperFunction,ComponentPad*%
%ADD25R,1.550000X1.550000*%
%TD*%
%TA.AperFunction,ComponentPad*%
%ADD26R,2.000000X1.905000*%
%TD*%
%TA.AperFunction,ComponentPad*%
%ADD27O,2.000000X1.905000*%
%TD*%
%TA.AperFunction,ComponentPad*%
%ADD28C,1.500000*%
%TD*%
%TA.AperFunction,Conductor*%
%ADD29C,0.500000*%
%TD*%
%TA.AperFunction,Conductor*%
%ADD30C,0.700000*%
%TD*%
%TA.AperFunction,NonConductor*%
%ADD31C,0.254000*%
%TD*%
%TA.AperFunction,NonConductor*%
%ADD32C,0.500000*%
%TD*%
G04 APERTURE END LIST*
D10*
%TO.P,U1,1*%
%TO.N,vcc*%
X86360000Y-112776000D03*
D11*
%TO.P,U1,15*%
%TO.N,Pino_9*%
X119380000Y-105156000D03*
%TO.P,U1,2*%
%TO.N,Net-(U1-Pad2)*%
X88900000Y-112776000D03*
%TO.P,U1,16*%
%TO.N,Pino_10*%
X116840000Y-105156000D03*
%TO.P,U1,3*%
%TO.N,Net-(U1-Pad3)*%
X91440000Y-112776000D03*
%TO.P,U1,17*%
%TO.N,Pino_11*%
X114300000Y-105156000D03*
%TO.P,U1,4*%
%TO.N,Pino_2_int*%
X93980000Y-112776000D03*
%TO.P,U1,18*%
%TO.N,Pino_12*%
X111760000Y-105156000D03*
%TO.P,U1,5*%
%TO.N,Pino_3*%
X96520000Y-112776000D03*
%TO.P,U1,19*%
%TO.N,Pino_13*%
X109220000Y-105156000D03*
%TO.P,U1,6*%
%TO.N,Pino_4*%
X99060000Y-112776000D03*
%TO.P,U1,20*%
%TO.N,vcc*%
X106680000Y-105156000D03*
%TO.P,U1,7*%
X101600000Y-112776000D03*
%TO.P,U1,21*%
%TO.N,Net-(U1-Pad21)*%
X104140000Y-105156000D03*
%TO.P,U1,8*%
%TO.N,GND*%
X104140000Y-112776000D03*
%TO.P,U1,22*%
X101600000Y-105156000D03*
%TO.P,U1,9*%
%TO.N,Net-(C1-Pad2)*%
X106680000Y-112776000D03*
%TO.P,U1,23*%
%TO.N,Net-(U1-Pad23)*%
X99060000Y-105156000D03*
%TO.P,U1,10*%
%TO.N,Net-(C2-Pad2)*%
X109220000Y-112776000D03*
%TO.P,U1,24*%
%TO.N,Net-(U1-Pad24)*%
X96520000Y-105156000D03*
%TO.P,U1,11*%
%TO.N,Pino_5*%
X111760000Y-112776000D03*
%TO.P,U1,25*%
%TO.N,Pino_16_A2*%
X93980000Y-105156000D03*
%TO.P,U1,12*%
%TO.N,Pino_6*%
X114300000Y-112776000D03*
%TO.P,U1,26*%
%TO.N,Pino_17_A3*%
X91440000Y-105156000D03*
%TO.P,U1,13*%
%TO.N,Pino_7*%
X116840000Y-112776000D03*
%TO.P,U1,27*%
%TO.N,Pino_18_A4*%
X88900000Y-105156000D03*
%TO.P,U1,14*%
%TO.N,Pino_8*%
X119380000Y-112776000D03*
%TO.P,U1,28*%
%TO.N,Pino_19_A5*%
X86360000Y-105156000D03*
%TD*%
D12*
%TO.P,DS1,1*%
%TO.N,GND*%
X146812000Y-65786000D03*
D13*
%TO.P,DS1,2*%
%TO.N,vcc*%
X144272000Y-65786000D03*
%TO.P,DS1,3*%
%TO.N,GND*%
X141732000Y-65786000D03*
%TO.P,DS1,4*%
%TO.N,vcc*%
X139192000Y-65786000D03*
%TO.P,DS1,5*%
%TO.N,Net-(DS1-Pad5)*%
X136652000Y-65786000D03*
%TO.P,DS1,6*%
%TO.N,Pino_12*%
X134112000Y-65786000D03*
%TO.P,DS1,7*%
%TO.N,GND*%
X131572000Y-65786000D03*
%TO.P,DS1,8*%
%TO.N,Pino_11*%
X129032000Y-65786000D03*
%TO.P,DS1,9*%
%TO.N,Net-(DS1-Pad9)*%
X126492000Y-65786000D03*
%TO.P,DS1,10*%
%TO.N,Net-(DS1-Pad10)*%
X123952000Y-65786000D03*
%TO.P,DS1,11*%
%TO.N,Net-(DS1-Pad11)*%
X121412000Y-65786000D03*
%TO.P,DS1,12*%
%TO.N,Net-(DS1-Pad12)*%
X118872000Y-65786000D03*
%TO.P,DS1,13*%
%TO.N,Pino_16_A2*%
X116332000Y-65786000D03*
%TO.P,DS1,14*%
%TO.N,Pino_17_A3*%
X113792000Y-65786000D03*
%TO.P,DS1,15*%
%TO.N,Pino_18_A4*%
X111252000Y-65786000D03*
%TO.P,DS1,16*%
%TO.N,Pino_19_A5*%
X108712000Y-65786000D03*
D14*
%TO.P,DS1,*%
%TO.N,*%
X152311100Y-65786000D03*
X152311100Y-96786700D03*
X77312520Y-96786700D03*
X77312000Y-65786000D03*
%TD*%
%TA.AperFunction,ComponentPad*%
D15*
%TO.P,K1,1*%
%TO.N,Net-(J3-Pad2)*%
G36*
X151177513Y-111386539D02*
G01*
X149942232Y-110521586D01*
X150807185Y-109286305D01*
X152042466Y-110151258D01*
X151177513Y-111386539D01*
G37*
%TD.AperFunction*%
D16*
%TO.P,K1,2*%
%TO.N,Net-(J3-Pad1)*%
X146621697Y-116578361D03*
%TO.P,K1,3*%
%TO.N,Pino_13*%
X140794160Y-124900946D03*
%TO.P,K1,4*%
%TO.N,GND*%
X139337276Y-126981592D03*
%TD*%
D17*
%TO.P,Q1,1*%
%TO.N,Pino_2_int*%
X119634000Y-120142000D03*
D18*
%TO.P,Q1,3*%
%TO.N,vcc*%
X117094000Y-120142000D03*
%TO.P,Q1,2*%
%TO.N,Net-(J4-Pad2)*%
X118364000Y-120142000D03*
%TD*%
D19*
%TO.P,C1,1*%
%TO.N,GND*%
X104394000Y-121920000D03*
%TO.P,C1,2*%
%TO.N,Net-(C1-Pad2)*%
X104394000Y-116920000D03*
%TD*%
%TO.P,C2,2*%
%TO.N,Net-(C2-Pad2)*%
X88900000Y-116666000D03*
%TO.P,C2,1*%
%TO.N,GND*%
X88900000Y-121666000D03*
%TD*%
D10*
%TO.P,C3,1*%
%TO.N,vcc_12v*%
X127254000Y-108966000D03*
D19*
%TO.P,C3,2*%
%TO.N,GND*%
X127254000Y-110966000D03*
%TD*%
%TO.P,C4,2*%
%TO.N,GND*%
X110268000Y-119420000D03*
D10*
%TO.P,C4,1*%
%TO.N,vcc*%
X112268000Y-119420000D03*
%TD*%
D20*
%TO.P,J1,1*%
%TO.N,vcc_12v*%
X82804000Y-81534000D03*
%TO.P,J1,2*%
%TO.N,GND*%
%TA.AperFunction,ComponentPad*%
G36*
G01*
X75304000Y-82534000D02*
X75304000Y-80534000D01*
G75*
G02*
X76054000Y-79784000I750000J0D01*
G01*
X77554000Y-79784000D01*
G75*
G02*
X78304000Y-80534000I0J-750000D01*
G01*
X78304000Y-82534000D01*
G75*
G02*
X77554000Y-83284000I-750000J0D01*
G01*
X76054000Y-83284000D01*
G75*
G02*
X75304000Y-82534000I0J750000D01*
G01*
G37*
%TD.AperFunction*%
%TO.P,J1,3*%
%TO.N,N/C*%
%TA.AperFunction,ComponentPad*%
G36*
G01*
X78054000Y-87109000D02*
X78054000Y-85359000D01*
G75*
G02*
X78929000Y-84484000I875000J0D01*
G01*
X80679000Y-84484000D01*
G75*
G02*
X81554000Y-85359000I0J-875000D01*
G01*
X81554000Y-87109000D01*
G75*
G02*
X80679000Y-87984000I-875000J0D01*
G01*
X78929000Y-87984000D01*
G75*
G02*
X78054000Y-87109000I0J875000D01*
G01*
G37*
%TD.AperFunction*%
%TD*%
D21*
%TO.P,J2,1*%
%TO.N,Pino_10*%
X110236000Y-128524000D03*
D22*
%TO.P,J2,2*%
%TO.N,Pino_9*%
X112776000Y-128524000D03*
%TO.P,J2,3*%
%TO.N,Pino_8*%
X115316000Y-128524000D03*
%TO.P,J2,4*%
%TO.N,Pino_7*%
X117856000Y-128524000D03*
%TO.P,J2,5*%
%TO.N,Pino_6*%
X120396000Y-128524000D03*
%TO.P,J2,6*%
%TO.N,Pino_5*%
X122936000Y-128524000D03*
%TO.P,J2,7*%
%TO.N,Pino_4*%
X125476000Y-128524000D03*
%TO.P,J2,8*%
%TO.N,Pino_3*%
X128016000Y-128524000D03*
%TD*%
D23*
%TO.P,J3,1*%
%TO.N,Net-(J3-Pad1)*%
X103886000Y-67056000D03*
D14*
%TO.P,J3,2*%
%TO.N,Net-(J3-Pad2)*%
X98806000Y-67056000D03*
%TD*%
D23*
%TO.P,J4,1*%
%TO.N,vcc_12v*%
X92710000Y-67056000D03*
D14*
%TO.P,J4,2*%
%TO.N,Net-(J4-Pad2)*%
X87630000Y-67056000D03*
%TO.P,J4,3*%
%TO.N,GND*%
X82550000Y-67056000D03*
%TD*%
D19*
%TO.P,R1,1*%
%TO.N,Pino_2_int*%
X124714000Y-117348000D03*
D11*
%TO.P,R1,2*%
%TO.N,GND*%
X132334000Y-117348000D03*
%TD*%
D24*
%TO.P,RV1,3*%
%TO.N,GND*%
X148082000Y-82470000D03*
D25*
%TO.P,RV1,1*%
%TO.N,vcc*%
X148082000Y-77470000D03*
D24*
%TO.P,RV1,2*%
%TO.N,Net-(DS1-Pad5)*%
X143082000Y-79970000D03*
%TD*%
D26*
%TO.P,U2,1*%
%TO.N,vcc_12v*%
X134874000Y-106172000D03*
D27*
%TO.P,U2,2*%
%TO.N,GND*%
X134874000Y-108712000D03*
%TO.P,U2,3*%
%TO.N,vcc*%
X134874000Y-111252000D03*
%TD*%
D28*
%TO.P,Y1,1*%
%TO.N,Net-(C1-Pad2)*%
X99097000Y-119420000D03*
%TO.P,Y1,2*%
%TO.N,Net-(C2-Pad2)*%
X94197000Y-119420000D03*
%TD*%
D29*
%TO.N,Pino_2_int*%
X119634000Y-121592000D02*
X119634000Y-120142000D01*
X94234000Y-124460000D02*
X116766000Y-124460000D01*
X84582000Y-114808000D02*
X94234000Y-124460000D01*
X84582000Y-111506000D02*
X84582000Y-114808000D01*
X85090000Y-110998000D02*
X84582000Y-111506000D01*
X92710000Y-110998000D02*
X85090000Y-110998000D01*
X93980000Y-112268000D02*
X92710000Y-110998000D01*
X116766000Y-124460000D02*
X119634000Y-121592000D01*
X93980000Y-112776000D02*
X93980000Y-112268000D01*
D30*
%TO.N,vcc*%
X149407001Y-78795001D02*
X148082000Y-77470000D01*
X134874000Y-111252000D02*
X136374000Y-111252000D01*
X136374000Y-111252000D02*
X149407001Y-98218999D01*
X149407001Y-98218999D02*
X149407001Y-78795001D01*
X106680000Y-106172000D02*
X106680000Y-105156000D01*
X101600000Y-111252000D02*
X106680000Y-106172000D01*
X101600000Y-112776000D02*
X101600000Y-111252000D01*
X86360000Y-113538000D02*
X86360000Y-112776000D01*
X87884000Y-115062000D02*
X86360000Y-113538000D01*
X99314000Y-115062000D02*
X87884000Y-115062000D01*
X101600000Y-112776000D02*
X99314000Y-115062000D01*
X112268000Y-120142000D02*
X112268000Y-119420000D01*
X110744000Y-121666000D02*
X112268000Y-120142000D01*
X106426000Y-121666000D02*
X110744000Y-121666000D01*
X101600000Y-116840000D02*
X106426000Y-121666000D01*
X101600000Y-112776000D02*
X101600000Y-116840000D01*
D29*
%TO.N,Pino_12*%
X134112000Y-67310000D02*
X134112000Y-65786000D01*
X111760000Y-89662000D02*
X134112000Y-67310000D01*
X111760000Y-105156000D02*
X111760000Y-89662000D01*
%TO.N,Pino_11*%
X130302000Y-63246000D02*
X129032000Y-64516000D01*
X129032000Y-64516000D02*
X129032000Y-65786000D01*
X147462002Y-63246000D02*
X130302000Y-63246000D01*
X148590000Y-64373998D02*
X147462002Y-63246000D01*
X148590000Y-70866000D02*
X148590000Y-64373998D01*
X114300000Y-105156000D02*
X148590000Y-70866000D01*
%TO.N,Pino_16_A2*%
X116332000Y-67586000D02*
X116332000Y-65786000D01*
X93980000Y-105156000D02*
X93980000Y-89938000D01*
X93980000Y-89938000D02*
X116332000Y-67586000D01*
%TO.N,Pino_17_A3*%
X93179991Y-89422781D02*
X113792000Y-68810772D01*
X113792000Y-68810772D02*
X113792000Y-65786000D01*
X93179991Y-102400009D02*
X93179991Y-89422781D01*
X91440000Y-104140000D02*
X93179991Y-102400009D01*
X91440000Y-105156000D02*
X91440000Y-104140000D01*
%TO.N,Pino_18_A4*%
X111252000Y-70219386D02*
X111252000Y-65786000D01*
X92379981Y-89091405D02*
X111252000Y-70219386D01*
X92379981Y-100914019D02*
X92379981Y-89091405D01*
X88900000Y-104394000D02*
X92379981Y-100914019D01*
X88900000Y-105156000D02*
X88900000Y-104394000D01*
%TO.N,Pino_19_A5*%
X91579970Y-99174030D02*
X86360000Y-104394000D01*
X91579970Y-88760030D02*
X91579970Y-99174030D01*
X86360000Y-104394000D02*
X86360000Y-105156000D01*
X108712000Y-71628000D02*
X91579970Y-88760030D01*
X108712000Y-65786000D02*
X108712000Y-71628000D01*
%TO.N,Pino_8*%
X120904000Y-122174000D02*
X115316000Y-127762000D01*
X120904000Y-114300000D02*
X120904000Y-122174000D01*
X115316000Y-127762000D02*
X115316000Y-128524000D01*
X119380000Y-112776000D02*
X120904000Y-114300000D01*
%TO.N,Pino_7*%
X116840000Y-112268000D02*
X116840000Y-112776000D01*
X118110000Y-110998000D02*
X116840000Y-112268000D01*
X121604011Y-112433975D02*
X120168036Y-110998000D01*
X120168036Y-110998000D02*
X118110000Y-110998000D01*
X121604011Y-123759989D02*
X121604011Y-112433975D01*
X117856000Y-127508000D02*
X121604011Y-123759989D01*
X117856000Y-128524000D02*
X117856000Y-127508000D01*
%TO.N,Pino_6*%
X116332000Y-110236000D02*
X114300000Y-112268000D01*
X114300000Y-112268000D02*
X114300000Y-112776000D01*
X120396000Y-110236000D02*
X116332000Y-110236000D01*
X122304022Y-112144022D02*
X120396000Y-110236000D01*
X122304022Y-125599978D02*
X122304022Y-112144022D01*
X120396000Y-127508000D02*
X122304022Y-125599978D01*
X120396000Y-128524000D02*
X120396000Y-127508000D01*
%TO.N,Pino_5*%
X111760000Y-112268000D02*
X111760000Y-112776000D01*
X114492011Y-109535989D02*
X111760000Y-112268000D01*
X120685954Y-109535989D02*
X114492011Y-109535989D01*
X123004033Y-111854068D02*
X120685954Y-109535989D01*
X123004033Y-128455967D02*
X123004033Y-111854068D01*
X122936000Y-128524000D02*
X123004033Y-128455967D01*
%TO.N,Pino_13*%
X109220000Y-106172000D02*
X109220000Y-105156000D01*
X111883978Y-108835978D02*
X109220000Y-106172000D01*
X121483907Y-108835978D02*
X111883978Y-108835978D01*
X137548875Y-124900946D02*
X121483907Y-108835978D01*
X140794160Y-124900946D02*
X137548875Y-124900946D01*
D30*
%TO.N,GND*%
X148082000Y-97204000D02*
X148082000Y-82470000D01*
X136574000Y-108712000D02*
X148082000Y-97204000D01*
X134874000Y-108712000D02*
X136574000Y-108712000D01*
X76804000Y-81534000D02*
X76804000Y-93244178D01*
X76804000Y-93244178D02*
X83781990Y-100222168D01*
X83781990Y-100222168D02*
X83781990Y-116547990D01*
X83781990Y-116547990D02*
X88900000Y-121666000D01*
X82550000Y-75788000D02*
X76804000Y-81534000D01*
X82550000Y-67056000D02*
X82550000Y-75788000D01*
X104140000Y-113284000D02*
X104140000Y-112776000D01*
X110268000Y-119412000D02*
X104140000Y-113284000D01*
X110268000Y-119420000D02*
X110268000Y-119412000D01*
%TD*%
D31*
X151688344Y-63733047D02*
X151299798Y-63893988D01*
X150950117Y-64127637D01*
X150652737Y-64425017D01*
X150419088Y-64774698D01*
X150258147Y-65163244D01*
X150176100Y-65575721D01*
X150176100Y-65996279D01*
X150258147Y-66408756D01*
X150419088Y-66797302D01*
X150652737Y-67146983D01*
X150950117Y-67444363D01*
X151299798Y-67678012D01*
X151688344Y-67838953D01*
X152100821Y-67921000D01*
X152521379Y-67921000D01*
X152933856Y-67838953D01*
X153322402Y-67678012D01*
X153672083Y-67444363D01*
X153969463Y-67146983D01*
X154203112Y-66797302D01*
X154364053Y-66408756D01*
X154446100Y-65996279D01*
X154446100Y-65575721D01*
X154364053Y-65163244D01*
X154203112Y-64774698D01*
X153969463Y-64425017D01*
X153672083Y-64127637D01*
X153322402Y-63893988D01*
X152933856Y-63733047D01*
X152526406Y-63652000D01*
X154788001Y-63652000D01*
X154788000Y-107239496D01*
X139095918Y-130404000D01*
X91967381Y-130404000D01*
X81940000Y-120376620D01*
X81940000Y-106198171D01*
X81943074Y-106159489D01*
X81936215Y-106101150D01*
X81930450Y-106042617D01*
X81928626Y-106036605D01*
X81927893Y-106030369D01*
X81909777Y-105974468D01*
X81892710Y-105918207D01*
X81889749Y-105912666D01*
X81887813Y-105906694D01*
X81859140Y-105855402D01*
X81831425Y-105803550D01*
X81827440Y-105798695D01*
X81824376Y-105793213D01*
X81786242Y-105748494D01*
X81748948Y-105703052D01*
X81718945Y-105678429D01*
X75082000Y-99287297D01*
X75082000Y-83523324D01*
X75282829Y-83688140D01*
X75522808Y-83816411D01*
X75783201Y-83895401D01*
X75819000Y-83898927D01*
X75819001Y-93195788D01*
X75814235Y-93244178D01*
X75833253Y-93437271D01*
X75889576Y-93622944D01*
X75889577Y-93622945D01*
X75981041Y-93794062D01*
X76104131Y-93944048D01*
X76141711Y-93974889D01*
X76865594Y-94698772D01*
X76689764Y-94733747D01*
X76301218Y-94894688D01*
X75951537Y-95128337D01*
X75654157Y-95425717D01*
X75420508Y-95775398D01*
X75259567Y-96163944D01*
X75177520Y-96576421D01*
X75177520Y-96996979D01*
X75259567Y-97409456D01*
X75420508Y-97798002D01*
X75654157Y-98147683D01*
X75951537Y-98445063D01*
X76301218Y-98678712D01*
X76689764Y-98839653D01*
X77102241Y-98921700D01*
X77522799Y-98921700D01*
X77935276Y-98839653D01*
X78323822Y-98678712D01*
X78673503Y-98445063D01*
X78970883Y-98147683D01*
X79204532Y-97798002D01*
X79365473Y-97409456D01*
X79400448Y-97233626D01*
X82796990Y-100630168D01*
X82796991Y-116499600D01*
X82792225Y-116547990D01*
X82811243Y-116741083D01*
X82867566Y-116926756D01*
X82897906Y-116983517D01*
X82959031Y-117097874D01*
X83082121Y-117247860D01*
X83119701Y-117278701D01*
X87465000Y-121624000D01*
X87465000Y-121807335D01*
X87520147Y-122084574D01*
X87628320Y-122345727D01*
X87785363Y-122580759D01*
X87985241Y-122780637D01*
X88220273Y-122937680D01*
X88481426Y-123045853D01*
X88758665Y-123101000D01*
X89041335Y-123101000D01*
X89318574Y-123045853D01*
X89579727Y-122937680D01*
X89814759Y-122780637D01*
X90014637Y-122580759D01*
X90171680Y-122345727D01*
X90279853Y-122084574D01*
X90334130Y-121811709D01*
X93577470Y-125055049D01*
X93605183Y-125088817D01*
X93638951Y-125116530D01*
X93638953Y-125116532D01*
X93710452Y-125175210D01*
X93739941Y-125199411D01*
X93893687Y-125281589D01*
X94060510Y-125332195D01*
X94190523Y-125345000D01*
X94190533Y-125345000D01*
X94233999Y-125349281D01*
X94277465Y-125345000D01*
X116481422Y-125345000D01*
X114720956Y-127105466D01*
X114687183Y-127133183D01*
X114632564Y-127199736D01*
X114612589Y-127208010D01*
X114369368Y-127370525D01*
X114162525Y-127577368D01*
X114046000Y-127751760D01*
X113929475Y-127577368D01*
X113722632Y-127370525D01*
X113479411Y-127208010D01*
X113209158Y-127096068D01*
X112922260Y-127039000D01*
X112629740Y-127039000D01*
X112342842Y-127096068D01*
X112072589Y-127208010D01*
X111829368Y-127370525D01*
X111697513Y-127502380D01*
X111675502Y-127429820D01*
X111616537Y-127319506D01*
X111537185Y-127222815D01*
X111440494Y-127143463D01*
X111330180Y-127084498D01*
X111210482Y-127048188D01*
X111086000Y-127035928D01*
X109386000Y-127035928D01*
X109261518Y-127048188D01*
X109141820Y-127084498D01*
X109031506Y-127143463D01*
X108934815Y-127222815D01*
X108855463Y-127319506D01*
X108796498Y-127429820D01*
X108760188Y-127549518D01*
X108747928Y-127674000D01*
X108747928Y-129374000D01*
X108760188Y-129498482D01*
X108796498Y-129618180D01*
X108855463Y-129728494D01*
X108934815Y-129825185D01*
X109031506Y-129904537D01*
X109141820Y-129963502D01*
X109261518Y-129999812D01*
X109386000Y-130012072D01*
X111086000Y-130012072D01*
X111210482Y-129999812D01*
X111330180Y-129963502D01*
X111440494Y-129904537D01*
X111537185Y-129825185D01*
X111616537Y-129728494D01*
X111675502Y-129618180D01*
X111697513Y-129545620D01*
X111829368Y-129677475D01*
X112072589Y-129839990D01*
X112342842Y-129951932D01*
X112629740Y-130009000D01*
X112922260Y-130009000D01*
X113209158Y-129951932D01*
X113479411Y-129839990D01*
X113722632Y-129677475D01*
X113929475Y-129470632D01*
X114046000Y-129296240D01*
X114162525Y-129470632D01*
X114369368Y-129677475D01*
X114612589Y-129839990D01*
X114882842Y-129951932D01*
X115169740Y-130009000D01*
X115462260Y-130009000D01*
X115749158Y-129951932D01*
X116019411Y-129839990D01*
X116262632Y-129677475D01*
X116469475Y-129470632D01*
X116586000Y-129296240D01*
X116702525Y-129470632D01*
X116909368Y-129677475D01*
X117152589Y-129839990D01*
X117422842Y-129951932D01*
X117709740Y-130009000D01*
X118002260Y-130009000D01*
X118289158Y-129951932D01*
X118559411Y-129839990D01*
X118802632Y-129677475D01*
X119009475Y-129470632D01*
X119126000Y-129296240D01*
X119242525Y-129470632D01*
X119449368Y-129677475D01*
X119692589Y-129839990D01*
X119962842Y-129951932D01*
X120249740Y-130009000D01*
X120542260Y-130009000D01*
X120829158Y-129951932D01*
X121099411Y-129839990D01*
X121342632Y-129677475D01*
X121549475Y-129470632D01*
X121666000Y-129296240D01*
X121782525Y-129470632D01*
X121989368Y-129677475D01*
X122232589Y-129839990D01*
X122502842Y-129951932D01*
X122789740Y-130009000D01*
X123082260Y-130009000D01*
X123369158Y-129951932D01*
X123639411Y-129839990D01*
X123882632Y-129677475D01*
X124089475Y-129470632D01*
X124206000Y-129296240D01*
X124322525Y-129470632D01*
X124529368Y-129677475D01*
X124772589Y-129839990D01*
X125042842Y-129951932D01*
X125329740Y-130009000D01*
X125622260Y-130009000D01*
X125909158Y-129951932D01*
X126179411Y-129839990D01*
X126422632Y-129677475D01*
X126629475Y-129470632D01*
X126746000Y-129296240D01*
X126862525Y-129470632D01*
X127069368Y-129677475D01*
X127312589Y-129839990D01*
X127582842Y-129951932D01*
X127869740Y-130009000D01*
X128162260Y-130009000D01*
X128449158Y-129951932D01*
X128719411Y-129839990D01*
X128962632Y-129677475D01*
X129169475Y-129470632D01*
X129331990Y-129227411D01*
X129443932Y-128957158D01*
X129501000Y-128670260D01*
X129501000Y-128377740D01*
X129443932Y-128090842D01*
X129331990Y-127820589D01*
X129169475Y-127577368D01*
X128962632Y-127370525D01*
X128719411Y-127208010D01*
X128449158Y-127096068D01*
X128162260Y-127039000D01*
X127869740Y-127039000D01*
X127582842Y-127096068D01*
X127312589Y-127208010D01*
X127069368Y-127370525D01*
X126862525Y-127577368D01*
X126746000Y-127751760D01*
X126629475Y-127577368D01*
X126422632Y-127370525D01*
X126179411Y-127208010D01*
X125909158Y-127096068D01*
X125622260Y-127039000D01*
X125329740Y-127039000D01*
X125042842Y-127096068D01*
X124772589Y-127208010D01*
X124529368Y-127370525D01*
X124322525Y-127577368D01*
X124206000Y-127751760D01*
X124089475Y-127577368D01*
X123889033Y-127376926D01*
X123889033Y-118522634D01*
X124034273Y-118619680D01*
X124295426Y-118727853D01*
X124572665Y-118783000D01*
X124855335Y-118783000D01*
X125132574Y-118727853D01*
X125393727Y-118619680D01*
X125628759Y-118462637D01*
X125828637Y-118262759D01*
X125985680Y-118027727D01*
X126093853Y-117766574D01*
X126149000Y-117489335D01*
X126149000Y-117206665D01*
X126093853Y-116929426D01*
X125985680Y-116668273D01*
X125828637Y-116433241D01*
X125628759Y-116233363D01*
X125393727Y-116076320D01*
X125132574Y-115968147D01*
X124855335Y-115913000D01*
X124572665Y-115913000D01*
X124295426Y-115968147D01*
X124034273Y-116076320D01*
X123889033Y-116173366D01*
X123889033Y-112492682D01*
X136892345Y-125495995D01*
X136920058Y-125529763D01*
X136953826Y-125557476D01*
X136953828Y-125557478D01*
X137054816Y-125640357D01*
X137208561Y-125722535D01*
X137301329Y-125750676D01*
X137375385Y-125773141D01*
X137505398Y-125785946D01*
X137505406Y-125785946D01*
X137548875Y-125790227D01*
X137592344Y-125785946D01*
X138626553Y-125785946D01*
X138451840Y-125902685D01*
X138258369Y-126096156D01*
X138106360Y-126323654D01*
X138001654Y-126576436D01*
X137948276Y-126844787D01*
X137948276Y-127118397D01*
X138001654Y-127386748D01*
X138106360Y-127639530D01*
X138258369Y-127867028D01*
X138451840Y-128060499D01*
X138679338Y-128212508D01*
X138932120Y-128317214D01*
X139200471Y-128370592D01*
X139474081Y-128370592D01*
X139742432Y-128317214D01*
X139995214Y-128212508D01*
X140222712Y-128060499D01*
X140416183Y-127867028D01*
X140568192Y-127639530D01*
X140672898Y-127386748D01*
X140726276Y-127118397D01*
X140726276Y-126844787D01*
X140672898Y-126576436D01*
X140568192Y-126323654D01*
X140528550Y-126264325D01*
X140657355Y-126289946D01*
X140930965Y-126289946D01*
X141199316Y-126236568D01*
X141452098Y-126131862D01*
X141679596Y-125979853D01*
X141873067Y-125786382D01*
X142025076Y-125558884D01*
X142129782Y-125306102D01*
X142183160Y-125037751D01*
X142183160Y-124764141D01*
X142129782Y-124495790D01*
X142025076Y-124243008D01*
X141873067Y-124015510D01*
X141679596Y-123822039D01*
X141452098Y-123670030D01*
X141199316Y-123565324D01*
X140930965Y-123511946D01*
X140657355Y-123511946D01*
X140389004Y-123565324D01*
X140136222Y-123670030D01*
X139908724Y-123822039D01*
X139715253Y-124015510D01*
X139714962Y-124015946D01*
X137915454Y-124015946D01*
X132648135Y-118748627D01*
X132752574Y-118727853D01*
X133013727Y-118619680D01*
X133248759Y-118462637D01*
X133448637Y-118262759D01*
X133605680Y-118027727D01*
X133713853Y-117766574D01*
X133769000Y-117489335D01*
X133769000Y-117206665D01*
X133713853Y-116929426D01*
X133605680Y-116668273D01*
X133454193Y-116441556D01*
X145232697Y-116441556D01*
X145232697Y-116715166D01*
X145286075Y-116983517D01*
X145390781Y-117236299D01*
X145542790Y-117463797D01*
X145736261Y-117657268D01*
X145963759Y-117809277D01*
X146216541Y-117913983D01*
X146484892Y-117967361D01*
X146758502Y-117967361D01*
X147026853Y-117913983D01*
X147279635Y-117809277D01*
X147507133Y-117657268D01*
X147700604Y-117463797D01*
X147852613Y-117236299D01*
X147957319Y-116983517D01*
X148010697Y-116715166D01*
X148010697Y-116441556D01*
X147957319Y-116173205D01*
X147852613Y-115920423D01*
X147700604Y-115692925D01*
X147507133Y-115499454D01*
X147279635Y-115347445D01*
X147026853Y-115242739D01*
X146758502Y-115189361D01*
X146484892Y-115189361D01*
X146216541Y-115242739D01*
X145963759Y-115347445D01*
X145736261Y-115499454D01*
X145542790Y-115692925D01*
X145390781Y-115920423D01*
X145286075Y-116173205D01*
X145232697Y-116441556D01*
X133454193Y-116441556D01*
X133448637Y-116433241D01*
X133248759Y-116233363D01*
X133013727Y-116076320D01*
X132752574Y-115968147D01*
X132475335Y-115913000D01*
X132192665Y-115913000D01*
X131915426Y-115968147D01*
X131654273Y-116076320D01*
X131419241Y-116233363D01*
X131219363Y-116433241D01*
X131062320Y-116668273D01*
X130954147Y-116929426D01*
X130933373Y-117033865D01*
X122140441Y-108240934D01*
X122112724Y-108207161D01*
X122062570Y-108166000D01*
X125815928Y-108166000D01*
X125815928Y-109766000D01*
X125828188Y-109890482D01*
X125864498Y-110010180D01*
X125923463Y-110120494D01*
X126002815Y-110217185D01*
X126019393Y-110230790D01*
X125982320Y-110286273D01*
X125874147Y-110547426D01*
X125819000Y-110824665D01*
X125819000Y-111107335D01*
X125874147Y-111384574D01*
X125982320Y-111645727D01*
X126139363Y-111880759D01*
X126339241Y-112080637D01*
X126574273Y-112237680D01*
X126835426Y-112345853D01*
X127112665Y-112401000D01*
X127395335Y-112401000D01*
X127672574Y-112345853D01*
X127933727Y-112237680D01*
X128168759Y-112080637D01*
X128368637Y-111880759D01*
X128525680Y-111645727D01*
X128633853Y-111384574D01*
X128689000Y-111107335D01*
X128689000Y-110824665D01*
X128633853Y-110547426D01*
X128525680Y-110286273D01*
X128488607Y-110230790D01*
X128505185Y-110217185D01*
X128584537Y-110120494D01*
X128643502Y-110010180D01*
X128679812Y-109890482D01*
X128692072Y-109766000D01*
X128692072Y-108712000D01*
X133231319Y-108712000D01*
X133261970Y-109023204D01*
X133352745Y-109322449D01*
X133500155Y-109598235D01*
X133698537Y-109839963D01*
X133871609Y-109982000D01*
X133698537Y-110124037D01*
X133500155Y-110365765D01*
X133352745Y-110641551D01*
X133261970Y-110940796D01*
X133231319Y-111252000D01*
X133261970Y-111563204D01*
X133352745Y-111862449D01*
X133500155Y-112138235D01*
X133698537Y-112379963D01*
X133940265Y-112578345D01*
X134216051Y-112725755D01*
X134515296Y-112816530D01*
X134748514Y-112839500D01*
X134999486Y-112839500D01*
X135232704Y-112816530D01*
X135531949Y-112725755D01*
X135807735Y-112578345D01*
X136049463Y-112379963D01*
X136166790Y-112237000D01*
X136325620Y-112237000D01*
X136374000Y-112241765D01*
X136422380Y-112237000D01*
X136567094Y-112222747D01*
X136752767Y-112166424D01*
X136923884Y-112074960D01*
X137073870Y-111951870D01*
X137104716Y-111914284D01*
X138511333Y-110507667D01*
X149304312Y-110507667D01*
X149313854Y-110632386D01*
X149347544Y-110752848D01*
X149404088Y-110864422D01*
X149481312Y-110962821D01*
X149576249Y-111044264D01*
X150811530Y-111909217D01*
X150920532Y-111970574D01*
X151039409Y-112009486D01*
X151163594Y-112024459D01*
X151288313Y-112014917D01*
X151408775Y-111981227D01*
X151520349Y-111924683D01*
X151618748Y-111847459D01*
X151700191Y-111752522D01*
X152565144Y-110517241D01*
X152626501Y-110408239D01*
X152665413Y-110289362D01*
X152680386Y-110165177D01*
X152670844Y-110040458D01*
X152637154Y-109919996D01*
X152580610Y-109808422D01*
X152503386Y-109710023D01*
X152408449Y-109628580D01*
X151173168Y-108763627D01*
X151064166Y-108702270D01*
X150945289Y-108663358D01*
X150821104Y-108648385D01*
X150696385Y-108657927D01*
X150575923Y-108691617D01*
X150464349Y-108748161D01*
X150365950Y-108825385D01*
X150284507Y-108920322D01*
X149419554Y-110155603D01*
X149358197Y-110264605D01*
X149319285Y-110383482D01*
X149304312Y-110507667D01*
X138511333Y-110507667D01*
X150069291Y-98949710D01*
X150106871Y-98918869D01*
X150229961Y-98768883D01*
X150321425Y-98597766D01*
X150377748Y-98412093D01*
X150392001Y-98267379D01*
X150392001Y-98267378D01*
X150396766Y-98218999D01*
X150392001Y-98170619D01*
X150392001Y-97732608D01*
X150419088Y-97798002D01*
X150652737Y-98147683D01*
X150950117Y-98445063D01*
X151299798Y-98678712D01*
X151688344Y-98839653D01*
X152100821Y-98921700D01*
X152521379Y-98921700D01*
X152933856Y-98839653D01*
X153322402Y-98678712D01*
X153672083Y-98445063D01*
X153969463Y-98147683D01*
X154203112Y-97798002D01*
X154364053Y-97409456D01*
X154446100Y-96996979D01*
X154446100Y-96576421D01*
X154364053Y-96163944D01*
X154203112Y-95775398D01*
X153969463Y-95425717D01*
X153672083Y-95128337D01*
X153322402Y-94894688D01*
X152933856Y-94733747D01*
X152521379Y-94651700D01*
X152100821Y-94651700D01*
X151688344Y-94733747D01*
X151299798Y-94894688D01*
X150950117Y-95128337D01*
X150652737Y-95425717D01*
X150419088Y-95775398D01*
X150392001Y-95840792D01*
X150392001Y-78843380D01*
X150396766Y-78795000D01*
X150377748Y-78601906D01*
X150364639Y-78558692D01*
X150321425Y-78416234D01*
X150229961Y-78245117D01*
X150106871Y-78095131D01*
X150069285Y-78064285D01*
X149495072Y-77490072D01*
X149495072Y-76695000D01*
X149482812Y-76570518D01*
X149446502Y-76450820D01*
X149387537Y-76340506D01*
X149308185Y-76243815D01*
X149211494Y-76164463D01*
X149101180Y-76105498D01*
X148981482Y-76069188D01*
X148857000Y-76056928D01*
X147307000Y-76056928D01*
X147182518Y-76069188D01*
X147062820Y-76105498D01*
X146952506Y-76164463D01*
X146855815Y-76243815D01*
X146776463Y-76340506D01*
X146717498Y-76450820D01*
X146681188Y-76570518D01*
X146668928Y-76695000D01*
X146668928Y-78245000D01*
X146681188Y-78369482D01*
X146717498Y-78489180D01*
X146776463Y-78599494D01*
X146855815Y-78696185D01*
X146952506Y-78775537D01*
X147062820Y-78834502D01*
X147182518Y-78870812D01*
X147307000Y-78883072D01*
X148102072Y-78883072D01*
X148422002Y-79203002D01*
X148422002Y-81100007D01*
X148220873Y-81060000D01*
X147943127Y-81060000D01*
X147670718Y-81114186D01*
X147414115Y-81220475D01*
X147183178Y-81374782D01*
X146986782Y-81571178D01*
X146832475Y-81802115D01*
X146726186Y-82058718D01*
X146672000Y-82331127D01*
X146672000Y-82608873D01*
X146726186Y-82881282D01*
X146832475Y-83137885D01*
X146986782Y-83368822D01*
X147097001Y-83479041D01*
X147097000Y-96795999D01*
X136361202Y-107531798D01*
X136404537Y-107478994D01*
X136463502Y-107368680D01*
X136499812Y-107248982D01*
X136512072Y-107124500D01*
X136512072Y-105219500D01*
X136499812Y-105095018D01*
X136463502Y-104975320D01*
X136404537Y-104865006D01*
X136325185Y-104768315D01*
X136228494Y-104688963D01*
X136118180Y-104629998D01*
X135998482Y-104593688D01*
X135874000Y-104581428D01*
X133874000Y-104581428D01*
X133749518Y-104593688D01*
X133629820Y-104629998D01*
X133519506Y-104688963D01*
X133422815Y-104768315D01*
X133343463Y-104865006D01*
X133284498Y-104975320D01*
X133248188Y-105095018D01*
X133235928Y-105219500D01*
X133235928Y-107124500D01*
X133248188Y-107248982D01*
X133284498Y-107368680D01*
X133343463Y-107478994D01*
X133422815Y-107575685D01*
X133519506Y-107655037D01*
X133603446Y-107699905D01*
X133500155Y-107825765D01*
X133352745Y-108101551D01*
X133261970Y-108400796D01*
X133231319Y-108712000D01*
X128692072Y-108712000D01*
X128692072Y-108166000D01*
X128679812Y-108041518D01*
X128643502Y-107921820D01*
X128584537Y-107811506D01*
X128505185Y-107714815D01*
X128408494Y-107635463D01*
X128298180Y-107576498D01*
X128178482Y-107540188D01*
X128054000Y-107527928D01*
X126454000Y-107527928D01*
X126329518Y-107540188D01*
X126209820Y-107576498D01*
X126099506Y-107635463D01*
X126002815Y-107714815D01*
X125923463Y-107811506D01*
X125864498Y-107921820D01*
X125828188Y-108041518D01*
X125815928Y-108166000D01*
X122062570Y-108166000D01*
X121977966Y-108096567D01*
X121824220Y-108014389D01*
X121657397Y-107963783D01*
X121527384Y-107950978D01*
X121527376Y-107950978D01*
X121483907Y-107946697D01*
X121440438Y-107950978D01*
X112250557Y-107950978D01*
X110348936Y-106049358D01*
X110490000Y-105838241D01*
X110645363Y-106070759D01*
X110845241Y-106270637D01*
X111080273Y-106427680D01*
X111341426Y-106535853D01*
X111618665Y-106591000D01*
X111901335Y-106591000D01*
X112178574Y-106535853D01*
X112439727Y-106427680D01*
X112674759Y-106270637D01*
X112874637Y-106070759D01*
X113030000Y-105838241D01*
X113185363Y-106070759D01*
X113385241Y-106270637D01*
X113620273Y-106427680D01*
X113881426Y-106535853D01*
X114158665Y-106591000D01*
X114441335Y-106591000D01*
X114718574Y-106535853D01*
X114979727Y-106427680D01*
X115214759Y-106270637D01*
X115414637Y-106070759D01*
X115570000Y-105838241D01*
X115725363Y-106070759D01*
X115925241Y-106270637D01*
X116160273Y-106427680D01*
X116421426Y-106535853D01*
X116698665Y-106591000D01*
X116981335Y-106591000D01*
X117258574Y-106535853D01*
X117519727Y-106427680D01*
X117754759Y-106270637D01*
X117954637Y-106070759D01*
X118110000Y-105838241D01*
X118265363Y-106070759D01*
X118465241Y-106270637D01*
X118700273Y-106427680D01*
X118961426Y-106535853D01*
X119238665Y-106591000D01*
X119521335Y-106591000D01*
X119798574Y-106535853D01*
X120059727Y-106427680D01*
X120294759Y-106270637D01*
X120494637Y-106070759D01*
X120651680Y-105835727D01*
X120759853Y-105574574D01*
X120815000Y-105297335D01*
X120815000Y-105014665D01*
X120759853Y-104737426D01*
X120651680Y-104476273D01*
X120494637Y-104241241D01*
X120294759Y-104041363D01*
X120059727Y-103884320D01*
X119798574Y-103776147D01*
X119521335Y-103721000D01*
X119238665Y-103721000D01*
X118961426Y-103776147D01*
X118700273Y-103884320D01*
X118465241Y-104041363D01*
X118265363Y-104241241D01*
X118110000Y-104473759D01*
X117954637Y-104241241D01*
X117754759Y-104041363D01*
X117519727Y-103884320D01*
X117258574Y-103776147D01*
X116985708Y-103721870D01*
X140876451Y-79831127D01*
X141672000Y-79831127D01*
X141672000Y-80108873D01*
X141726186Y-80381282D01*
X141832475Y-80637885D01*
X141986782Y-80868822D01*
X142183178Y-81065218D01*
X142414115Y-81219525D01*
X142670718Y-81325814D01*
X142943127Y-81380000D01*
X143220873Y-81380000D01*
X143493282Y-81325814D01*
X143749885Y-81219525D01*
X143980822Y-81065218D01*
X144177218Y-80868822D01*
X144331525Y-80637885D01*
X144437814Y-80381282D01*
X144492000Y-80108873D01*
X144492000Y-79831127D01*
X144437814Y-79558718D01*
X144331525Y-79302115D01*
X144177218Y-79071178D01*
X143980822Y-78874782D01*
X143749885Y-78720475D01*
X143493282Y-78614186D01*
X143220873Y-78560000D01*
X142943127Y-78560000D01*
X142670718Y-78614186D01*
X142414115Y-78720475D01*
X142183178Y-78874782D01*
X141986782Y-79071178D01*
X141832475Y-79302115D01*
X141726186Y-79558718D01*
X141672000Y-79831127D01*
X140876451Y-79831127D01*
X149185051Y-71522528D01*
X149218817Y-71494817D01*
X149329411Y-71360059D01*
X149411589Y-71206313D01*
X149462195Y-71039490D01*
X149475000Y-70909477D01*
X149475000Y-70909467D01*
X149479281Y-70866001D01*
X149475000Y-70822534D01*
X149475000Y-64417464D01*
X149479281Y-64373997D01*
X149475000Y-64330531D01*
X149475000Y-64330521D01*
X149462195Y-64200508D01*
X149411589Y-64033685D01*
X149329411Y-63879939D01*
X149218817Y-63745181D01*
X149185049Y-63717468D01*
X149119581Y-63652000D01*
X152095794Y-63652000D01*
X151688344Y-63733047D01*
%TA.AperFunction,NonConductor*%
D32*
G36*
X151688344Y-63733047D02*
G01*
X151299798Y-63893988D01*
X150950117Y-64127637D01*
X150652737Y-64425017D01*
X150419088Y-64774698D01*
X150258147Y-65163244D01*
X150176100Y-65575721D01*
X150176100Y-65996279D01*
X150258147Y-66408756D01*
X150419088Y-66797302D01*
X150652737Y-67146983D01*
X150950117Y-67444363D01*
X151299798Y-67678012D01*
X151688344Y-67838953D01*
X152100821Y-67921000D01*
X152521379Y-67921000D01*
X152933856Y-67838953D01*
X153322402Y-67678012D01*
X153672083Y-67444363D01*
X153969463Y-67146983D01*
X154203112Y-66797302D01*
X154364053Y-66408756D01*
X154446100Y-65996279D01*
X154446100Y-65575721D01*
X154364053Y-65163244D01*
X154203112Y-64774698D01*
X153969463Y-64425017D01*
X153672083Y-64127637D01*
X153322402Y-63893988D01*
X152933856Y-63733047D01*
X152526406Y-63652000D01*
X154788001Y-63652000D01*
X154788000Y-107239496D01*
X139095918Y-130404000D01*
X91967381Y-130404000D01*
X81940000Y-120376620D01*
X81940000Y-106198171D01*
X81943074Y-106159489D01*
X81936215Y-106101150D01*
X81930450Y-106042617D01*
X81928626Y-106036605D01*
X81927893Y-106030369D01*
X81909777Y-105974468D01*
X81892710Y-105918207D01*
X81889749Y-105912666D01*
X81887813Y-105906694D01*
X81859140Y-105855402D01*
X81831425Y-105803550D01*
X81827440Y-105798695D01*
X81824376Y-105793213D01*
X81786242Y-105748494D01*
X81748948Y-105703052D01*
X81718945Y-105678429D01*
X75082000Y-99287297D01*
X75082000Y-83523324D01*
X75282829Y-83688140D01*
X75522808Y-83816411D01*
X75783201Y-83895401D01*
X75819000Y-83898927D01*
X75819001Y-93195788D01*
X75814235Y-93244178D01*
X75833253Y-93437271D01*
X75889576Y-93622944D01*
X75889577Y-93622945D01*
X75981041Y-93794062D01*
X76104131Y-93944048D01*
X76141711Y-93974889D01*
X76865594Y-94698772D01*
X76689764Y-94733747D01*
X76301218Y-94894688D01*
X75951537Y-95128337D01*
X75654157Y-95425717D01*
X75420508Y-95775398D01*
X75259567Y-96163944D01*
X75177520Y-96576421D01*
X75177520Y-96996979D01*
X75259567Y-97409456D01*
X75420508Y-97798002D01*
X75654157Y-98147683D01*
X75951537Y-98445063D01*
X76301218Y-98678712D01*
X76689764Y-98839653D01*
X77102241Y-98921700D01*
X77522799Y-98921700D01*
X77935276Y-98839653D01*
X78323822Y-98678712D01*
X78673503Y-98445063D01*
X78970883Y-98147683D01*
X79204532Y-97798002D01*
X79365473Y-97409456D01*
X79400448Y-97233626D01*
X82796990Y-100630168D01*
X82796991Y-116499600D01*
X82792225Y-116547990D01*
X82811243Y-116741083D01*
X82867566Y-116926756D01*
X82897906Y-116983517D01*
X82959031Y-117097874D01*
X83082121Y-117247860D01*
X83119701Y-117278701D01*
X87465000Y-121624000D01*
X87465000Y-121807335D01*
X87520147Y-122084574D01*
X87628320Y-122345727D01*
X87785363Y-122580759D01*
X87985241Y-122780637D01*
X88220273Y-122937680D01*
X88481426Y-123045853D01*
X88758665Y-123101000D01*
X89041335Y-123101000D01*
X89318574Y-123045853D01*
X89579727Y-122937680D01*
X89814759Y-122780637D01*
X90014637Y-122580759D01*
X90171680Y-122345727D01*
X90279853Y-122084574D01*
X90334130Y-121811709D01*
X93577470Y-125055049D01*
X93605183Y-125088817D01*
X93638951Y-125116530D01*
X93638953Y-125116532D01*
X93710452Y-125175210D01*
X93739941Y-125199411D01*
X93893687Y-125281589D01*
X94060510Y-125332195D01*
X94190523Y-125345000D01*
X94190533Y-125345000D01*
X94233999Y-125349281D01*
X94277465Y-125345000D01*
X116481422Y-125345000D01*
X114720956Y-127105466D01*
X114687183Y-127133183D01*
X114632564Y-127199736D01*
X114612589Y-127208010D01*
X114369368Y-127370525D01*
X114162525Y-127577368D01*
X114046000Y-127751760D01*
X113929475Y-127577368D01*
X113722632Y-127370525D01*
X113479411Y-127208010D01*
X113209158Y-127096068D01*
X112922260Y-127039000D01*
X112629740Y-127039000D01*
X112342842Y-127096068D01*
X112072589Y-127208010D01*
X111829368Y-127370525D01*
X111697513Y-127502380D01*
X111675502Y-127429820D01*
X111616537Y-127319506D01*
X111537185Y-127222815D01*
X111440494Y-127143463D01*
X111330180Y-127084498D01*
X111210482Y-127048188D01*
X111086000Y-127035928D01*
X109386000Y-127035928D01*
X109261518Y-127048188D01*
X109141820Y-127084498D01*
X109031506Y-127143463D01*
X108934815Y-127222815D01*
X108855463Y-127319506D01*
X108796498Y-127429820D01*
X108760188Y-127549518D01*
X108747928Y-127674000D01*
X108747928Y-129374000D01*
X108760188Y-129498482D01*
X108796498Y-129618180D01*
X108855463Y-129728494D01*
X108934815Y-129825185D01*
X109031506Y-129904537D01*
X109141820Y-129963502D01*
X109261518Y-129999812D01*
X109386000Y-130012072D01*
X111086000Y-130012072D01*
X111210482Y-129999812D01*
X111330180Y-129963502D01*
X111440494Y-129904537D01*
X111537185Y-129825185D01*
X111616537Y-129728494D01*
X111675502Y-129618180D01*
X111697513Y-129545620D01*
X111829368Y-129677475D01*
X112072589Y-129839990D01*
X112342842Y-129951932D01*
X112629740Y-130009000D01*
X112922260Y-130009000D01*
X113209158Y-129951932D01*
X113479411Y-129839990D01*
X113722632Y-129677475D01*
X113929475Y-129470632D01*
X114046000Y-129296240D01*
X114162525Y-129470632D01*
X114369368Y-129677475D01*
X114612589Y-129839990D01*
X114882842Y-129951932D01*
X115169740Y-130009000D01*
X115462260Y-130009000D01*
X115749158Y-129951932D01*
X116019411Y-129839990D01*
X116262632Y-129677475D01*
X116469475Y-129470632D01*
X116586000Y-129296240D01*
X116702525Y-129470632D01*
X116909368Y-129677475D01*
X117152589Y-129839990D01*
X117422842Y-129951932D01*
X117709740Y-130009000D01*
X118002260Y-130009000D01*
X118289158Y-129951932D01*
X118559411Y-129839990D01*
X118802632Y-129677475D01*
X119009475Y-129470632D01*
X119126000Y-129296240D01*
X119242525Y-129470632D01*
X119449368Y-129677475D01*
X119692589Y-129839990D01*
X119962842Y-129951932D01*
X120249740Y-130009000D01*
X120542260Y-130009000D01*
X120829158Y-129951932D01*
X121099411Y-129839990D01*
X121342632Y-129677475D01*
X121549475Y-129470632D01*
X121666000Y-129296240D01*
X121782525Y-129470632D01*
X121989368Y-129677475D01*
X122232589Y-129839990D01*
X122502842Y-129951932D01*
X122789740Y-130009000D01*
X123082260Y-130009000D01*
X123369158Y-129951932D01*
X123639411Y-129839990D01*
X123882632Y-129677475D01*
X124089475Y-129470632D01*
X124206000Y-129296240D01*
X124322525Y-129470632D01*
X124529368Y-129677475D01*
X124772589Y-129839990D01*
X125042842Y-129951932D01*
X125329740Y-130009000D01*
X125622260Y-130009000D01*
X125909158Y-129951932D01*
X126179411Y-129839990D01*
X126422632Y-129677475D01*
X126629475Y-129470632D01*
X126746000Y-129296240D01*
X126862525Y-129470632D01*
X127069368Y-129677475D01*
X127312589Y-129839990D01*
X127582842Y-129951932D01*
X127869740Y-130009000D01*
X128162260Y-130009000D01*
X128449158Y-129951932D01*
X128719411Y-129839990D01*
X128962632Y-129677475D01*
X129169475Y-129470632D01*
X129331990Y-129227411D01*
X129443932Y-128957158D01*
X129501000Y-128670260D01*
X129501000Y-128377740D01*
X129443932Y-128090842D01*
X129331990Y-127820589D01*
X129169475Y-127577368D01*
X128962632Y-127370525D01*
X128719411Y-127208010D01*
X128449158Y-127096068D01*
X128162260Y-127039000D01*
X127869740Y-127039000D01*
X127582842Y-127096068D01*
X127312589Y-127208010D01*
X127069368Y-127370525D01*
X126862525Y-127577368D01*
X126746000Y-127751760D01*
X126629475Y-127577368D01*
X126422632Y-127370525D01*
X126179411Y-127208010D01*
X125909158Y-127096068D01*
X125622260Y-127039000D01*
X125329740Y-127039000D01*
X125042842Y-127096068D01*
X124772589Y-127208010D01*
X124529368Y-127370525D01*
X124322525Y-127577368D01*
X124206000Y-127751760D01*
X124089475Y-127577368D01*
X123889033Y-127376926D01*
X123889033Y-118522634D01*
X124034273Y-118619680D01*
X124295426Y-118727853D01*
X124572665Y-118783000D01*
X124855335Y-118783000D01*
X125132574Y-118727853D01*
X125393727Y-118619680D01*
X125628759Y-118462637D01*
X125828637Y-118262759D01*
X125985680Y-118027727D01*
X126093853Y-117766574D01*
X126149000Y-117489335D01*
X126149000Y-117206665D01*
X126093853Y-116929426D01*
X125985680Y-116668273D01*
X125828637Y-116433241D01*
X125628759Y-116233363D01*
X125393727Y-116076320D01*
X125132574Y-115968147D01*
X124855335Y-115913000D01*
X124572665Y-115913000D01*
X124295426Y-115968147D01*
X124034273Y-116076320D01*
X123889033Y-116173366D01*
X123889033Y-112492682D01*
X136892345Y-125495995D01*
X136920058Y-125529763D01*
X136953826Y-125557476D01*
X136953828Y-125557478D01*
X137054816Y-125640357D01*
X137208561Y-125722535D01*
X137301329Y-125750676D01*
X137375385Y-125773141D01*
X137505398Y-125785946D01*
X137505406Y-125785946D01*
X137548875Y-125790227D01*
X137592344Y-125785946D01*
X138626553Y-125785946D01*
X138451840Y-125902685D01*
X138258369Y-126096156D01*
X138106360Y-126323654D01*
X138001654Y-126576436D01*
X137948276Y-126844787D01*
X137948276Y-127118397D01*
X138001654Y-127386748D01*
X138106360Y-127639530D01*
X138258369Y-127867028D01*
X138451840Y-128060499D01*
X138679338Y-128212508D01*
X138932120Y-128317214D01*
X139200471Y-128370592D01*
X139474081Y-128370592D01*
X139742432Y-128317214D01*
X139995214Y-128212508D01*
X140222712Y-128060499D01*
X140416183Y-127867028D01*
X140568192Y-127639530D01*
X140672898Y-127386748D01*
X140726276Y-127118397D01*
X140726276Y-126844787D01*
X140672898Y-126576436D01*
X140568192Y-126323654D01*
X140528550Y-126264325D01*
X140657355Y-126289946D01*
X140930965Y-126289946D01*
X141199316Y-126236568D01*
X141452098Y-126131862D01*
X141679596Y-125979853D01*
X141873067Y-125786382D01*
X142025076Y-125558884D01*
X142129782Y-125306102D01*
X142183160Y-125037751D01*
X142183160Y-124764141D01*
X142129782Y-124495790D01*
X142025076Y-124243008D01*
X141873067Y-124015510D01*
X141679596Y-123822039D01*
X141452098Y-123670030D01*
X141199316Y-123565324D01*
X140930965Y-123511946D01*
X140657355Y-123511946D01*
X140389004Y-123565324D01*
X140136222Y-123670030D01*
X139908724Y-123822039D01*
X139715253Y-124015510D01*
X139714962Y-124015946D01*
X137915454Y-124015946D01*
X132648135Y-118748627D01*
X132752574Y-118727853D01*
X133013727Y-118619680D01*
X133248759Y-118462637D01*
X133448637Y-118262759D01*
X133605680Y-118027727D01*
X133713853Y-117766574D01*
X133769000Y-117489335D01*
X133769000Y-117206665D01*
X133713853Y-116929426D01*
X133605680Y-116668273D01*
X133454193Y-116441556D01*
X145232697Y-116441556D01*
X145232697Y-116715166D01*
X145286075Y-116983517D01*
X145390781Y-117236299D01*
X145542790Y-117463797D01*
X145736261Y-117657268D01*
X145963759Y-117809277D01*
X146216541Y-117913983D01*
X146484892Y-117967361D01*
X146758502Y-117967361D01*
X147026853Y-117913983D01*
X147279635Y-117809277D01*
X147507133Y-117657268D01*
X147700604Y-117463797D01*
X147852613Y-117236299D01*
X147957319Y-116983517D01*
X148010697Y-116715166D01*
X148010697Y-116441556D01*
X147957319Y-116173205D01*
X147852613Y-115920423D01*
X147700604Y-115692925D01*
X147507133Y-115499454D01*
X147279635Y-115347445D01*
X147026853Y-115242739D01*
X146758502Y-115189361D01*
X146484892Y-115189361D01*
X146216541Y-115242739D01*
X145963759Y-115347445D01*
X145736261Y-115499454D01*
X145542790Y-115692925D01*
X145390781Y-115920423D01*
X145286075Y-116173205D01*
X145232697Y-116441556D01*
X133454193Y-116441556D01*
X133448637Y-116433241D01*
X133248759Y-116233363D01*
X133013727Y-116076320D01*
X132752574Y-115968147D01*
X132475335Y-115913000D01*
X132192665Y-115913000D01*
X131915426Y-115968147D01*
X131654273Y-116076320D01*
X131419241Y-116233363D01*
X131219363Y-116433241D01*
X131062320Y-116668273D01*
X130954147Y-116929426D01*
X130933373Y-117033865D01*
X122140441Y-108240934D01*
X122112724Y-108207161D01*
X122062570Y-108166000D01*
X125815928Y-108166000D01*
X125815928Y-109766000D01*
X125828188Y-109890482D01*
X125864498Y-110010180D01*
X125923463Y-110120494D01*
X126002815Y-110217185D01*
X126019393Y-110230790D01*
X125982320Y-110286273D01*
X125874147Y-110547426D01*
X125819000Y-110824665D01*
X125819000Y-111107335D01*
X125874147Y-111384574D01*
X125982320Y-111645727D01*
X126139363Y-111880759D01*
X126339241Y-112080637D01*
X126574273Y-112237680D01*
X126835426Y-112345853D01*
X127112665Y-112401000D01*
X127395335Y-112401000D01*
X127672574Y-112345853D01*
X127933727Y-112237680D01*
X128168759Y-112080637D01*
X128368637Y-111880759D01*
X128525680Y-111645727D01*
X128633853Y-111384574D01*
X128689000Y-111107335D01*
X128689000Y-110824665D01*
X128633853Y-110547426D01*
X128525680Y-110286273D01*
X128488607Y-110230790D01*
X128505185Y-110217185D01*
X128584537Y-110120494D01*
X128643502Y-110010180D01*
X128679812Y-109890482D01*
X128692072Y-109766000D01*
X128692072Y-108712000D01*
X133231319Y-108712000D01*
X133261970Y-109023204D01*
X133352745Y-109322449D01*
X133500155Y-109598235D01*
X133698537Y-109839963D01*
X133871609Y-109982000D01*
X133698537Y-110124037D01*
X133500155Y-110365765D01*
X133352745Y-110641551D01*
X133261970Y-110940796D01*
X133231319Y-111252000D01*
X133261970Y-111563204D01*
X133352745Y-111862449D01*
X133500155Y-112138235D01*
X133698537Y-112379963D01*
X133940265Y-112578345D01*
X134216051Y-112725755D01*
X134515296Y-112816530D01*
X134748514Y-112839500D01*
X134999486Y-112839500D01*
X135232704Y-112816530D01*
X135531949Y-112725755D01*
X135807735Y-112578345D01*
X136049463Y-112379963D01*
X136166790Y-112237000D01*
X136325620Y-112237000D01*
X136374000Y-112241765D01*
X136422380Y-112237000D01*
X136567094Y-112222747D01*
X136752767Y-112166424D01*
X136923884Y-112074960D01*
X137073870Y-111951870D01*
X137104716Y-111914284D01*
X138511333Y-110507667D01*
X149304312Y-110507667D01*
X149313854Y-110632386D01*
X149347544Y-110752848D01*
X149404088Y-110864422D01*
X149481312Y-110962821D01*
X149576249Y-111044264D01*
X150811530Y-111909217D01*
X150920532Y-111970574D01*
X151039409Y-112009486D01*
X151163594Y-112024459D01*
X151288313Y-112014917D01*
X151408775Y-111981227D01*
X151520349Y-111924683D01*
X151618748Y-111847459D01*
X151700191Y-111752522D01*
X152565144Y-110517241D01*
X152626501Y-110408239D01*
X152665413Y-110289362D01*
X152680386Y-110165177D01*
X152670844Y-110040458D01*
X152637154Y-109919996D01*
X152580610Y-109808422D01*
X152503386Y-109710023D01*
X152408449Y-109628580D01*
X151173168Y-108763627D01*
X151064166Y-108702270D01*
X150945289Y-108663358D01*
X150821104Y-108648385D01*
X150696385Y-108657927D01*
X150575923Y-108691617D01*
X150464349Y-108748161D01*
X150365950Y-108825385D01*
X150284507Y-108920322D01*
X149419554Y-110155603D01*
X149358197Y-110264605D01*
X149319285Y-110383482D01*
X149304312Y-110507667D01*
X138511333Y-110507667D01*
X150069291Y-98949710D01*
X150106871Y-98918869D01*
X150229961Y-98768883D01*
X150321425Y-98597766D01*
X150377748Y-98412093D01*
X150392001Y-98267379D01*
X150392001Y-98267378D01*
X150396766Y-98218999D01*
X150392001Y-98170619D01*
X150392001Y-97732608D01*
X150419088Y-97798002D01*
X150652737Y-98147683D01*
X150950117Y-98445063D01*
X151299798Y-98678712D01*
X151688344Y-98839653D01*
X152100821Y-98921700D01*
X152521379Y-98921700D01*
X152933856Y-98839653D01*
X153322402Y-98678712D01*
X153672083Y-98445063D01*
X153969463Y-98147683D01*
X154203112Y-97798002D01*
X154364053Y-97409456D01*
X154446100Y-96996979D01*
X154446100Y-96576421D01*
X154364053Y-96163944D01*
X154203112Y-95775398D01*
X153969463Y-95425717D01*
X153672083Y-95128337D01*
X153322402Y-94894688D01*
X152933856Y-94733747D01*
X152521379Y-94651700D01*
X152100821Y-94651700D01*
X151688344Y-94733747D01*
X151299798Y-94894688D01*
X150950117Y-95128337D01*
X150652737Y-95425717D01*
X150419088Y-95775398D01*
X150392001Y-95840792D01*
X150392001Y-78843380D01*
X150396766Y-78795000D01*
X150377748Y-78601906D01*
X150364639Y-78558692D01*
X150321425Y-78416234D01*
X150229961Y-78245117D01*
X150106871Y-78095131D01*
X150069285Y-78064285D01*
X149495072Y-77490072D01*
X149495072Y-76695000D01*
X149482812Y-76570518D01*
X149446502Y-76450820D01*
X149387537Y-76340506D01*
X149308185Y-76243815D01*
X149211494Y-76164463D01*
X149101180Y-76105498D01*
X148981482Y-76069188D01*
X148857000Y-76056928D01*
X147307000Y-76056928D01*
X147182518Y-76069188D01*
X147062820Y-76105498D01*
X146952506Y-76164463D01*
X146855815Y-76243815D01*
X146776463Y-76340506D01*
X146717498Y-76450820D01*
X146681188Y-76570518D01*
X146668928Y-76695000D01*
X146668928Y-78245000D01*
X146681188Y-78369482D01*
X146717498Y-78489180D01*
X146776463Y-78599494D01*
X146855815Y-78696185D01*
X146952506Y-78775537D01*
X147062820Y-78834502D01*
X147182518Y-78870812D01*
X147307000Y-78883072D01*
X148102072Y-78883072D01*
X148422002Y-79203002D01*
X148422002Y-81100007D01*
X148220873Y-81060000D01*
X147943127Y-81060000D01*
X147670718Y-81114186D01*
X147414115Y-81220475D01*
X147183178Y-81374782D01*
X146986782Y-81571178D01*
X146832475Y-81802115D01*
X146726186Y-82058718D01*
X146672000Y-82331127D01*
X146672000Y-82608873D01*
X146726186Y-82881282D01*
X146832475Y-83137885D01*
X146986782Y-83368822D01*
X147097001Y-83479041D01*
X147097000Y-96795999D01*
X136361202Y-107531798D01*
X136404537Y-107478994D01*
X136463502Y-107368680D01*
X136499812Y-107248982D01*
X136512072Y-107124500D01*
X136512072Y-105219500D01*
X136499812Y-105095018D01*
X136463502Y-104975320D01*
X136404537Y-104865006D01*
X136325185Y-104768315D01*
X136228494Y-104688963D01*
X136118180Y-104629998D01*
X135998482Y-104593688D01*
X135874000Y-104581428D01*
X133874000Y-104581428D01*
X133749518Y-104593688D01*
X133629820Y-104629998D01*
X133519506Y-104688963D01*
X133422815Y-104768315D01*
X133343463Y-104865006D01*
X133284498Y-104975320D01*
X133248188Y-105095018D01*
X133235928Y-105219500D01*
X133235928Y-107124500D01*
X133248188Y-107248982D01*
X133284498Y-107368680D01*
X133343463Y-107478994D01*
X133422815Y-107575685D01*
X133519506Y-107655037D01*
X133603446Y-107699905D01*
X133500155Y-107825765D01*
X133352745Y-108101551D01*
X133261970Y-108400796D01*
X133231319Y-108712000D01*
X128692072Y-108712000D01*
X128692072Y-108166000D01*
X128679812Y-108041518D01*
X128643502Y-107921820D01*
X128584537Y-107811506D01*
X128505185Y-107714815D01*
X128408494Y-107635463D01*
X128298180Y-107576498D01*
X128178482Y-107540188D01*
X128054000Y-107527928D01*
X126454000Y-107527928D01*
X126329518Y-107540188D01*
X126209820Y-107576498D01*
X126099506Y-107635463D01*
X126002815Y-107714815D01*
X125923463Y-107811506D01*
X125864498Y-107921820D01*
X125828188Y-108041518D01*
X125815928Y-108166000D01*
X122062570Y-108166000D01*
X121977966Y-108096567D01*
X121824220Y-108014389D01*
X121657397Y-107963783D01*
X121527384Y-107950978D01*
X121527376Y-107950978D01*
X121483907Y-107946697D01*
X121440438Y-107950978D01*
X112250557Y-107950978D01*
X110348936Y-106049358D01*
X110490000Y-105838241D01*
X110645363Y-106070759D01*
X110845241Y-106270637D01*
X111080273Y-106427680D01*
X111341426Y-106535853D01*
X111618665Y-106591000D01*
X111901335Y-106591000D01*
X112178574Y-106535853D01*
X112439727Y-106427680D01*
X112674759Y-106270637D01*
X112874637Y-106070759D01*
X113030000Y-105838241D01*
X113185363Y-106070759D01*
X113385241Y-106270637D01*
X113620273Y-106427680D01*
X113881426Y-106535853D01*
X114158665Y-106591000D01*
X114441335Y-106591000D01*
X114718574Y-106535853D01*
X114979727Y-106427680D01*
X115214759Y-106270637D01*
X115414637Y-106070759D01*
X115570000Y-105838241D01*
X115725363Y-106070759D01*
X115925241Y-106270637D01*
X116160273Y-106427680D01*
X116421426Y-106535853D01*
X116698665Y-106591000D01*
X116981335Y-106591000D01*
X117258574Y-106535853D01*
X117519727Y-106427680D01*
X117754759Y-106270637D01*
X117954637Y-106070759D01*
X118110000Y-105838241D01*
X118265363Y-106070759D01*
X118465241Y-106270637D01*
X118700273Y-106427680D01*
X118961426Y-106535853D01*
X119238665Y-106591000D01*
X119521335Y-106591000D01*
X119798574Y-106535853D01*
X120059727Y-106427680D01*
X120294759Y-106270637D01*
X120494637Y-106070759D01*
X120651680Y-105835727D01*
X120759853Y-105574574D01*
X120815000Y-105297335D01*
X120815000Y-105014665D01*
X120759853Y-104737426D01*
X120651680Y-104476273D01*
X120494637Y-104241241D01*
X120294759Y-104041363D01*
X120059727Y-103884320D01*
X119798574Y-103776147D01*
X119521335Y-103721000D01*
X119238665Y-103721000D01*
X118961426Y-103776147D01*
X118700273Y-103884320D01*
X118465241Y-104041363D01*
X118265363Y-104241241D01*
X118110000Y-104473759D01*
X117954637Y-104241241D01*
X117754759Y-104041363D01*
X117519727Y-103884320D01*
X117258574Y-103776147D01*
X116985708Y-103721870D01*
X140876451Y-79831127D01*
X141672000Y-79831127D01*
X141672000Y-80108873D01*
X141726186Y-80381282D01*
X141832475Y-80637885D01*
X141986782Y-80868822D01*
X142183178Y-81065218D01*
X142414115Y-81219525D01*
X142670718Y-81325814D01*
X142943127Y-81380000D01*
X143220873Y-81380000D01*
X143493282Y-81325814D01*
X143749885Y-81219525D01*
X143980822Y-81065218D01*
X144177218Y-80868822D01*
X144331525Y-80637885D01*
X144437814Y-80381282D01*
X144492000Y-80108873D01*
X144492000Y-79831127D01*
X144437814Y-79558718D01*
X144331525Y-79302115D01*
X144177218Y-79071178D01*
X143980822Y-78874782D01*
X143749885Y-78720475D01*
X143493282Y-78614186D01*
X143220873Y-78560000D01*
X142943127Y-78560000D01*
X142670718Y-78614186D01*
X142414115Y-78720475D01*
X142183178Y-78874782D01*
X141986782Y-79071178D01*
X141832475Y-79302115D01*
X141726186Y-79558718D01*
X141672000Y-79831127D01*
X140876451Y-79831127D01*
X149185051Y-71522528D01*
X149218817Y-71494817D01*
X149329411Y-71360059D01*
X149411589Y-71206313D01*
X149462195Y-71039490D01*
X149475000Y-70909477D01*
X149475000Y-70909467D01*
X149479281Y-70866001D01*
X149475000Y-70822534D01*
X149475000Y-64417464D01*
X149479281Y-64373997D01*
X149475000Y-64330531D01*
X149475000Y-64330521D01*
X149462195Y-64200508D01*
X149411589Y-64033685D01*
X149329411Y-63879939D01*
X149218817Y-63745181D01*
X149185049Y-63717468D01*
X149119581Y-63652000D01*
X152095794Y-63652000D01*
X151688344Y-63733047D01*
G37*
%TD.AperFunction*%
D31*
X136535069Y-109697931D02*
X136076283Y-110156717D01*
X136049463Y-110124037D01*
X135876391Y-109982000D01*
X136049463Y-109839963D01*
X136166790Y-109697000D01*
X136525620Y-109697000D01*
X136535069Y-109697931D01*
%TA.AperFunction,NonConductor*%
D32*
G36*
X136535069Y-109697931D02*
G01*
X136076283Y-110156717D01*
X136049463Y-110124037D01*
X135876391Y-109982000D01*
X136049463Y-109839963D01*
X136166790Y-109697000D01*
X136525620Y-109697000D01*
X136535069Y-109697931D01*
G37*
%TD.AperFunction*%
D31*
X136166434Y-107726566D02*
X136144554Y-107699905D01*
X136228494Y-107655037D01*
X136281298Y-107611702D01*
X136166434Y-107726566D01*
%TA.AperFunction,NonConductor*%
D32*
G36*
X136166434Y-107726566D02*
G01*
X136144554Y-107699905D01*
X136228494Y-107655037D01*
X136281298Y-107611702D01*
X136166434Y-107726566D01*
G37*
%TD.AperFunction*%
D31*
X122119033Y-127283886D02*
X121989368Y-127370525D01*
X121782525Y-127577368D01*
X121666000Y-127751760D01*
X121560985Y-127594594D01*
X122119033Y-127036545D01*
X122119033Y-127283886D01*
%TA.AperFunction,NonConductor*%
D32*
G36*
X122119033Y-127283886D02*
G01*
X121989368Y-127370525D01*
X121782525Y-127577368D01*
X121666000Y-127751760D01*
X121560985Y-127594594D01*
X122119033Y-127036545D01*
X122119033Y-127283886D01*
G37*
%TD.AperFunction*%
D31*
X121419022Y-125233399D02*
X119800951Y-126851471D01*
X119767184Y-126879183D01*
X119739471Y-126912951D01*
X119739468Y-126912954D01*
X119656590Y-127013941D01*
X119574412Y-127167687D01*
X119529026Y-127317299D01*
X119449368Y-127370525D01*
X119242525Y-127577368D01*
X119126000Y-127751760D01*
X119020985Y-127594593D01*
X121419022Y-125196557D01*
X121419022Y-125233399D01*
%TA.AperFunction,NonConductor*%
D32*
G36*
X121419022Y-125233399D02*
G01*
X119800951Y-126851471D01*
X119767184Y-126879183D01*
X119739471Y-126912951D01*
X119739468Y-126912954D01*
X119656590Y-127013941D01*
X119574412Y-127167687D01*
X119529026Y-127317299D01*
X119449368Y-127370525D01*
X119242525Y-127577368D01*
X119126000Y-127751760D01*
X119020985Y-127594593D01*
X121419022Y-125196557D01*
X121419022Y-125233399D01*
G37*
%TD.AperFunction*%
D31*
X116586000Y-127751760D02*
X116582723Y-127746855D01*
X116602476Y-127727102D01*
X116586000Y-127751760D01*
%TA.AperFunction,NonConductor*%
D32*
G36*
X116586000Y-127751760D02*
G01*
X116582723Y-127746855D01*
X116602476Y-127727102D01*
X116586000Y-127751760D01*
G37*
%TD.AperFunction*%
D31*
X118265363Y-113690759D02*
X118465241Y-113890637D01*
X118700273Y-114047680D01*
X118961426Y-114155853D01*
X119238665Y-114211000D01*
X119521335Y-114211000D01*
X119556439Y-114204017D01*
X120019000Y-114666579D01*
X120019001Y-118753928D01*
X119109000Y-118753928D01*
X118984518Y-118766188D01*
X118864820Y-118802498D01*
X118800098Y-118837093D01*
X118591400Y-118773785D01*
X118364000Y-118751388D01*
X118136601Y-118773785D01*
X117917941Y-118840115D01*
X117729001Y-118941106D01*
X117540060Y-118840115D01*
X117321400Y-118773785D01*
X117094000Y-118751388D01*
X116866601Y-118773785D01*
X116647941Y-118840115D01*
X116446422Y-118947829D01*
X116269789Y-119092788D01*
X116124830Y-119269421D01*
X116017115Y-119470940D01*
X115950785Y-119689600D01*
X115934000Y-119860021D01*
X115934000Y-120423978D01*
X115950785Y-120594399D01*
X116017115Y-120813059D01*
X116124829Y-121014578D01*
X116269788Y-121191212D01*
X116446421Y-121336171D01*
X116647940Y-121443885D01*
X116866600Y-121510215D01*
X117094000Y-121532612D01*
X117321399Y-121510215D01*
X117540059Y-121443885D01*
X117729000Y-121342894D01*
X117917940Y-121443885D01*
X118136600Y-121510215D01*
X118364000Y-121532612D01*
X118450310Y-121524111D01*
X116399422Y-123575000D01*
X94600579Y-123575000D01*
X90309168Y-119283589D01*
X92812000Y-119283589D01*
X92812000Y-119556411D01*
X92865225Y-119823989D01*
X92969629Y-120076043D01*
X93121201Y-120302886D01*
X93314114Y-120495799D01*
X93540957Y-120647371D01*
X93793011Y-120751775D01*
X94060589Y-120805000D01*
X94333411Y-120805000D01*
X94600989Y-120751775D01*
X94853043Y-120647371D01*
X95079886Y-120495799D01*
X95272799Y-120302886D01*
X95424371Y-120076043D01*
X95528775Y-119823989D01*
X95582000Y-119556411D01*
X95582000Y-119283589D01*
X97712000Y-119283589D01*
X97712000Y-119556411D01*
X97765225Y-119823989D01*
X97869629Y-120076043D01*
X98021201Y-120302886D01*
X98214114Y-120495799D01*
X98440957Y-120647371D01*
X98693011Y-120751775D01*
X98960589Y-120805000D01*
X99233411Y-120805000D01*
X99500989Y-120751775D01*
X99753043Y-120647371D01*
X99979886Y-120495799D01*
X100172799Y-120302886D01*
X100324371Y-120076043D01*
X100428775Y-119823989D01*
X100482000Y-119556411D01*
X100482000Y-119283589D01*
X100428775Y-119016011D01*
X100324371Y-118763957D01*
X100172799Y-118537114D01*
X99979886Y-118344201D01*
X99753043Y-118192629D01*
X99500989Y-118088225D01*
X99233411Y-118035000D01*
X98960589Y-118035000D01*
X98693011Y-118088225D01*
X98440957Y-118192629D01*
X98214114Y-118344201D01*
X98021201Y-118537114D01*
X97869629Y-118763957D01*
X97765225Y-119016011D01*
X97712000Y-119283589D01*
X95582000Y-119283589D01*
X95528775Y-119016011D01*
X95424371Y-118763957D01*
X95272799Y-118537114D01*
X95079886Y-118344201D01*
X94853043Y-118192629D01*
X94600989Y-118088225D01*
X94333411Y-118035000D01*
X94060589Y-118035000D01*
X93793011Y-118088225D01*
X93540957Y-118192629D01*
X93314114Y-118344201D01*
X93121201Y-118537114D01*
X92969629Y-118763957D01*
X92865225Y-119016011D01*
X92812000Y-119283589D01*
X90309168Y-119283589D01*
X89112435Y-118086857D01*
X89318574Y-118045853D01*
X89579727Y-117937680D01*
X89814759Y-117780637D01*
X90014637Y-117580759D01*
X90171680Y-117345727D01*
X90279853Y-117084574D01*
X90335000Y-116807335D01*
X90335000Y-116524665D01*
X90279853Y-116247426D01*
X90196834Y-116047000D01*
X99265620Y-116047000D01*
X99314000Y-116051765D01*
X99362380Y-116047000D01*
X99507094Y-116032747D01*
X99692767Y-115976424D01*
X99863884Y-115884960D01*
X100013870Y-115761870D01*
X100044716Y-115724284D01*
X100615001Y-115153999D01*
X100615001Y-116791610D01*
X100610235Y-116840000D01*
X100629253Y-117033093D01*
X100685576Y-117218766D01*
X100728152Y-117298419D01*
X100777041Y-117389884D01*
X100900131Y-117539870D01*
X100937711Y-117570711D01*
X103927145Y-120560146D01*
X103714273Y-120648320D01*
X103479241Y-120805363D01*
X103279363Y-121005241D01*
X103122320Y-121240273D01*
X103014147Y-121501426D01*
X102959000Y-121778665D01*
X102959000Y-122061335D01*
X103014147Y-122338574D01*
X103122320Y-122599727D01*
X103279363Y-122834759D01*
X103479241Y-123034637D01*
X103714273Y-123191680D01*
X103975426Y-123299853D01*
X104252665Y-123355000D01*
X104535335Y-123355000D01*
X104812574Y-123299853D01*
X105073727Y-123191680D01*
X105308759Y-123034637D01*
X105508637Y-122834759D01*
X105665680Y-122599727D01*
X105753308Y-122388174D01*
X105763708Y-122396709D01*
X105763709Y-122396710D01*
X105876116Y-122488960D01*
X106047233Y-122580424D01*
X106232906Y-122636747D01*
X106426000Y-122655765D01*
X106474380Y-122651000D01*
X110695620Y-122651000D01*
X110744000Y-122655765D01*
X110792380Y-122651000D01*
X110937094Y-122636747D01*
X111122767Y-122580424D01*
X111293884Y-122488960D01*
X111443870Y-122365870D01*
X111474716Y-122328284D01*
X112930284Y-120872716D01*
X112948128Y-120858072D01*
X113068000Y-120858072D01*
X113192482Y-120845812D01*
X113312180Y-120809502D01*
X113422494Y-120750537D01*
X113519185Y-120671185D01*
X113598537Y-120574494D01*
X113657502Y-120464180D01*
X113693812Y-120344482D01*
X113706072Y-120220000D01*
X113706072Y-118620000D01*
X113693812Y-118495518D01*
X113657502Y-118375820D01*
X113598537Y-118265506D01*
X113519185Y-118168815D01*
X113422494Y-118089463D01*
X113312180Y-118030498D01*
X113192482Y-117994188D01*
X113068000Y-117981928D01*
X111468000Y-117981928D01*
X111343518Y-117994188D01*
X111223820Y-118030498D01*
X111113506Y-118089463D01*
X111016815Y-118168815D01*
X111003210Y-118185393D01*
X110947727Y-118148320D01*
X110686574Y-118040147D01*
X110409335Y-117985000D01*
X110234001Y-117985000D01*
X106440467Y-114191467D01*
X106538665Y-114211000D01*
X106821335Y-114211000D01*
X107098574Y-114155853D01*
X107359727Y-114047680D01*
X107594759Y-113890637D01*
X107794637Y-113690759D01*
X107950000Y-113458241D01*
X108105363Y-113690759D01*
X108305241Y-113890637D01*
X108540273Y-114047680D01*
X108801426Y-114155853D01*
X109078665Y-114211000D01*
X109361335Y-114211000D01*
X109638574Y-114155853D01*
X109899727Y-114047680D01*
X110134759Y-113890637D01*
X110334637Y-113690759D01*
X110490000Y-113458241D01*
X110645363Y-113690759D01*
X110845241Y-113890637D01*
X111080273Y-114047680D01*
X111341426Y-114155853D01*
X111618665Y-114211000D01*
X111901335Y-114211000D01*
X112178574Y-114155853D01*
X112439727Y-114047680D01*
X112674759Y-113890637D01*
X112874637Y-113690759D01*
X113030000Y-113458241D01*
X113185363Y-113690759D01*
X113385241Y-113890637D01*
X113620273Y-114047680D01*
X113881426Y-114155853D01*
X114158665Y-114211000D01*
X114441335Y-114211000D01*
X114718574Y-114155853D01*
X114979727Y-114047680D01*
X115214759Y-113890637D01*
X115414637Y-113690759D01*
X115570000Y-113458241D01*
X115725363Y-113690759D01*
X115925241Y-113890637D01*
X116160273Y-114047680D01*
X116421426Y-114155853D01*
X116698665Y-114211000D01*
X116981335Y-114211000D01*
X117258574Y-114155853D01*
X117519727Y-114047680D01*
X117754759Y-113890637D01*
X117954637Y-113690759D01*
X118110000Y-113458241D01*
X118265363Y-113690759D01*
%TA.AperFunction,NonConductor*%
D32*
G36*
X118265363Y-113690759D02*
G01*
X118465241Y-113890637D01*
X118700273Y-114047680D01*
X118961426Y-114155853D01*
X119238665Y-114211000D01*
X119521335Y-114211000D01*
X119556439Y-114204017D01*
X120019000Y-114666579D01*
X120019001Y-118753928D01*
X119109000Y-118753928D01*
X118984518Y-118766188D01*
X118864820Y-118802498D01*
X118800098Y-118837093D01*
X118591400Y-118773785D01*
X118364000Y-118751388D01*
X118136601Y-118773785D01*
X117917941Y-118840115D01*
X117729001Y-118941106D01*
X117540060Y-118840115D01*
X117321400Y-118773785D01*
X117094000Y-118751388D01*
X116866601Y-118773785D01*
X116647941Y-118840115D01*
X116446422Y-118947829D01*
X116269789Y-119092788D01*
X116124830Y-119269421D01*
X116017115Y-119470940D01*
X115950785Y-119689600D01*
X115934000Y-119860021D01*
X115934000Y-120423978D01*
X115950785Y-120594399D01*
X116017115Y-120813059D01*
X116124829Y-121014578D01*
X116269788Y-121191212D01*
X116446421Y-121336171D01*
X116647940Y-121443885D01*
X116866600Y-121510215D01*
X117094000Y-121532612D01*
X117321399Y-121510215D01*
X117540059Y-121443885D01*
X117729000Y-121342894D01*
X117917940Y-121443885D01*
X118136600Y-121510215D01*
X118364000Y-121532612D01*
X118450310Y-121524111D01*
X116399422Y-123575000D01*
X94600579Y-123575000D01*
X90309168Y-119283589D01*
X92812000Y-119283589D01*
X92812000Y-119556411D01*
X92865225Y-119823989D01*
X92969629Y-120076043D01*
X93121201Y-120302886D01*
X93314114Y-120495799D01*
X93540957Y-120647371D01*
X93793011Y-120751775D01*
X94060589Y-120805000D01*
X94333411Y-120805000D01*
X94600989Y-120751775D01*
X94853043Y-120647371D01*
X95079886Y-120495799D01*
X95272799Y-120302886D01*
X95424371Y-120076043D01*
X95528775Y-119823989D01*
X95582000Y-119556411D01*
X95582000Y-119283589D01*
X97712000Y-119283589D01*
X97712000Y-119556411D01*
X97765225Y-119823989D01*
X97869629Y-120076043D01*
X98021201Y-120302886D01*
X98214114Y-120495799D01*
X98440957Y-120647371D01*
X98693011Y-120751775D01*
X98960589Y-120805000D01*
X99233411Y-120805000D01*
X99500989Y-120751775D01*
X99753043Y-120647371D01*
X99979886Y-120495799D01*
X100172799Y-120302886D01*
X100324371Y-120076043D01*
X100428775Y-119823989D01*
X100482000Y-119556411D01*
X100482000Y-119283589D01*
X100428775Y-119016011D01*
X100324371Y-118763957D01*
X100172799Y-118537114D01*
X99979886Y-118344201D01*
X99753043Y-118192629D01*
X99500989Y-118088225D01*
X99233411Y-118035000D01*
X98960589Y-118035000D01*
X98693011Y-118088225D01*
X98440957Y-118192629D01*
X98214114Y-118344201D01*
X98021201Y-118537114D01*
X97869629Y-118763957D01*
X97765225Y-119016011D01*
X97712000Y-119283589D01*
X95582000Y-119283589D01*
X95528775Y-119016011D01*
X95424371Y-118763957D01*
X95272799Y-118537114D01*
X95079886Y-118344201D01*
X94853043Y-118192629D01*
X94600989Y-118088225D01*
X94333411Y-118035000D01*
X94060589Y-118035000D01*
X93793011Y-118088225D01*
X93540957Y-118192629D01*
X93314114Y-118344201D01*
X93121201Y-118537114D01*
X92969629Y-118763957D01*
X92865225Y-119016011D01*
X92812000Y-119283589D01*
X90309168Y-119283589D01*
X89112435Y-118086857D01*
X89318574Y-118045853D01*
X89579727Y-117937680D01*
X89814759Y-117780637D01*
X90014637Y-117580759D01*
X90171680Y-117345727D01*
X90279853Y-117084574D01*
X90335000Y-116807335D01*
X90335000Y-116524665D01*
X90279853Y-116247426D01*
X90196834Y-116047000D01*
X99265620Y-116047000D01*
X99314000Y-116051765D01*
X99362380Y-116047000D01*
X99507094Y-116032747D01*
X99692767Y-115976424D01*
X99863884Y-115884960D01*
X100013870Y-115761870D01*
X100044716Y-115724284D01*
X100615001Y-115153999D01*
X100615001Y-116791610D01*
X100610235Y-116840000D01*
X100629253Y-117033093D01*
X100685576Y-117218766D01*
X100728152Y-117298419D01*
X100777041Y-117389884D01*
X100900131Y-117539870D01*
X100937711Y-117570711D01*
X103927145Y-120560146D01*
X103714273Y-120648320D01*
X103479241Y-120805363D01*
X103279363Y-121005241D01*
X103122320Y-121240273D01*
X103014147Y-121501426D01*
X102959000Y-121778665D01*
X102959000Y-122061335D01*
X103014147Y-122338574D01*
X103122320Y-122599727D01*
X103279363Y-122834759D01*
X103479241Y-123034637D01*
X103714273Y-123191680D01*
X103975426Y-123299853D01*
X104252665Y-123355000D01*
X104535335Y-123355000D01*
X104812574Y-123299853D01*
X105073727Y-123191680D01*
X105308759Y-123034637D01*
X105508637Y-122834759D01*
X105665680Y-122599727D01*
X105753308Y-122388174D01*
X105763708Y-122396709D01*
X105763709Y-122396710D01*
X105876116Y-122488960D01*
X106047233Y-122580424D01*
X106232906Y-122636747D01*
X106426000Y-122655765D01*
X106474380Y-122651000D01*
X110695620Y-122651000D01*
X110744000Y-122655765D01*
X110792380Y-122651000D01*
X110937094Y-122636747D01*
X111122767Y-122580424D01*
X111293884Y-122488960D01*
X111443870Y-122365870D01*
X111474716Y-122328284D01*
X112930284Y-120872716D01*
X112948128Y-120858072D01*
X113068000Y-120858072D01*
X113192482Y-120845812D01*
X113312180Y-120809502D01*
X113422494Y-120750537D01*
X113519185Y-120671185D01*
X113598537Y-120574494D01*
X113657502Y-120464180D01*
X113693812Y-120344482D01*
X113706072Y-120220000D01*
X113706072Y-118620000D01*
X113693812Y-118495518D01*
X113657502Y-118375820D01*
X113598537Y-118265506D01*
X113519185Y-118168815D01*
X113422494Y-118089463D01*
X113312180Y-118030498D01*
X113192482Y-117994188D01*
X113068000Y-117981928D01*
X111468000Y-117981928D01*
X111343518Y-117994188D01*
X111223820Y-118030498D01*
X111113506Y-118089463D01*
X111016815Y-118168815D01*
X111003210Y-118185393D01*
X110947727Y-118148320D01*
X110686574Y-118040147D01*
X110409335Y-117985000D01*
X110234001Y-117985000D01*
X106440467Y-114191467D01*
X106538665Y-114211000D01*
X106821335Y-114211000D01*
X107098574Y-114155853D01*
X107359727Y-114047680D01*
X107594759Y-113890637D01*
X107794637Y-113690759D01*
X107950000Y-113458241D01*
X108105363Y-113690759D01*
X108305241Y-113890637D01*
X108540273Y-114047680D01*
X108801426Y-114155853D01*
X109078665Y-114211000D01*
X109361335Y-114211000D01*
X109638574Y-114155853D01*
X109899727Y-114047680D01*
X110134759Y-113890637D01*
X110334637Y-113690759D01*
X110490000Y-113458241D01*
X110645363Y-113690759D01*
X110845241Y-113890637D01*
X111080273Y-114047680D01*
X111341426Y-114155853D01*
X111618665Y-114211000D01*
X111901335Y-114211000D01*
X112178574Y-114155853D01*
X112439727Y-114047680D01*
X112674759Y-113890637D01*
X112874637Y-113690759D01*
X113030000Y-113458241D01*
X113185363Y-113690759D01*
X113385241Y-113890637D01*
X113620273Y-114047680D01*
X113881426Y-114155853D01*
X114158665Y-114211000D01*
X114441335Y-114211000D01*
X114718574Y-114155853D01*
X114979727Y-114047680D01*
X115214759Y-113890637D01*
X115414637Y-113690759D01*
X115570000Y-113458241D01*
X115725363Y-113690759D01*
X115925241Y-113890637D01*
X116160273Y-114047680D01*
X116421426Y-114155853D01*
X116698665Y-114211000D01*
X116981335Y-114211000D01*
X117258574Y-114155853D01*
X117519727Y-114047680D01*
X117754759Y-113890637D01*
X117954637Y-113690759D01*
X118110000Y-113458241D01*
X118265363Y-113690759D01*
G37*
%TD.AperFunction*%
D31*
X108833000Y-119370001D02*
X108833000Y-119561335D01*
X108888147Y-119838574D01*
X108996320Y-120099727D01*
X109153363Y-120334759D01*
X109353241Y-120534637D01*
X109572289Y-120681000D01*
X106834001Y-120681000D01*
X104508000Y-118355000D01*
X104535335Y-118355000D01*
X104812574Y-118299853D01*
X105073727Y-118191680D01*
X105308759Y-118034637D01*
X105508637Y-117834759D01*
X105665680Y-117599727D01*
X105773853Y-117338574D01*
X105829000Y-117061335D01*
X105829000Y-116778665D01*
X105773853Y-116501426D01*
X105665680Y-116240273D01*
X105589981Y-116126982D01*
X108833000Y-119370001D01*
%TA.AperFunction,NonConductor*%
D32*
G36*
X108833000Y-119370001D02*
G01*
X108833000Y-119561335D01*
X108888147Y-119838574D01*
X108996320Y-120099727D01*
X109153363Y-120334759D01*
X109353241Y-120534637D01*
X109572289Y-120681000D01*
X106834001Y-120681000D01*
X104508000Y-118355000D01*
X104535335Y-118355000D01*
X104812574Y-118299853D01*
X105073727Y-118191680D01*
X105308759Y-118034637D01*
X105508637Y-117834759D01*
X105665680Y-117599727D01*
X105773853Y-117338574D01*
X105829000Y-117061335D01*
X105829000Y-116778665D01*
X105773853Y-116501426D01*
X105665680Y-116240273D01*
X105589981Y-116126982D01*
X108833000Y-119370001D01*
G37*
%TD.AperFunction*%
D31*
X103025363Y-113690759D02*
X103225241Y-113890637D01*
X103460273Y-114047680D01*
X103546323Y-114083323D01*
X105187018Y-115724019D01*
X105073727Y-115648320D01*
X104812574Y-115540147D01*
X104535335Y-115485000D01*
X104252665Y-115485000D01*
X103975426Y-115540147D01*
X103714273Y-115648320D01*
X103479241Y-115805363D01*
X103279363Y-116005241D01*
X103122320Y-116240273D01*
X103014147Y-116501426D01*
X102959000Y-116778665D01*
X102959000Y-116806000D01*
X102585000Y-116432000D01*
X102585000Y-113820396D01*
X102714637Y-113690759D01*
X102870000Y-113458241D01*
X103025363Y-113690759D01*
%TA.AperFunction,NonConductor*%
D32*
G36*
X103025363Y-113690759D02*
G01*
X103225241Y-113890637D01*
X103460273Y-114047680D01*
X103546323Y-114083323D01*
X105187018Y-115724019D01*
X105073727Y-115648320D01*
X104812574Y-115540147D01*
X104535335Y-115485000D01*
X104252665Y-115485000D01*
X103975426Y-115540147D01*
X103714273Y-115648320D01*
X103479241Y-115805363D01*
X103279363Y-116005241D01*
X103122320Y-116240273D01*
X103014147Y-116501426D01*
X102959000Y-116778665D01*
X102959000Y-116806000D01*
X102585000Y-116432000D01*
X102585000Y-113820396D01*
X102714637Y-113690759D01*
X102870000Y-113458241D01*
X103025363Y-113690759D01*
G37*
%TD.AperFunction*%
D31*
X85560000Y-114214072D02*
X85640600Y-114214072D01*
X85660130Y-114237870D01*
X85697716Y-114268716D01*
X87153284Y-115724284D01*
X87184130Y-115761870D01*
X87334116Y-115884960D01*
X87505233Y-115976424D01*
X87618205Y-116010693D01*
X87520147Y-116247426D01*
X87479143Y-116453565D01*
X85467000Y-114441422D01*
X85467000Y-114204913D01*
X85560000Y-114214072D01*
%TA.AperFunction,NonConductor*%
D32*
G36*
X85560000Y-114214072D02*
G01*
X85640600Y-114214072D01*
X85660130Y-114237870D01*
X85697716Y-114268716D01*
X87153284Y-115724284D01*
X87184130Y-115761870D01*
X87334116Y-115884960D01*
X87505233Y-115976424D01*
X87618205Y-116010693D01*
X87520147Y-116247426D01*
X87479143Y-116453565D01*
X85467000Y-114441422D01*
X85467000Y-114204913D01*
X85560000Y-114214072D01*
G37*
%TD.AperFunction*%
D31*
X90325363Y-113690759D02*
X90525241Y-113890637D01*
X90760273Y-114047680D01*
X90831058Y-114077000D01*
X89508942Y-114077000D01*
X89579727Y-114047680D01*
X89814759Y-113890637D01*
X90014637Y-113690759D01*
X90170000Y-113458241D01*
X90325363Y-113690759D01*
%TA.AperFunction,NonConductor*%
D32*
G36*
X90325363Y-113690759D02*
G01*
X90525241Y-113890637D01*
X90760273Y-114047680D01*
X90831058Y-114077000D01*
X89508942Y-114077000D01*
X89579727Y-114047680D01*
X89814759Y-113890637D01*
X90014637Y-113690759D01*
X90170000Y-113458241D01*
X90325363Y-113690759D01*
G37*
%TD.AperFunction*%
D31*
X92865363Y-113690759D02*
X93065241Y-113890637D01*
X93300273Y-114047680D01*
X93371058Y-114077000D01*
X92048942Y-114077000D01*
X92119727Y-114047680D01*
X92354759Y-113890637D01*
X92554637Y-113690759D01*
X92710000Y-113458241D01*
X92865363Y-113690759D01*
%TA.AperFunction,NonConductor*%
D32*
G36*
X92865363Y-113690759D02*
G01*
X93065241Y-113890637D01*
X93300273Y-114047680D01*
X93371058Y-114077000D01*
X92048942Y-114077000D01*
X92119727Y-114047680D01*
X92354759Y-113890637D01*
X92554637Y-113690759D01*
X92710000Y-113458241D01*
X92865363Y-113690759D01*
G37*
%TD.AperFunction*%
D31*
X97945363Y-113690759D02*
X98145241Y-113890637D01*
X98380273Y-114047680D01*
X98451058Y-114077000D01*
X97128942Y-114077000D01*
X97199727Y-114047680D01*
X97434759Y-113890637D01*
X97634637Y-113690759D01*
X97790000Y-113458241D01*
X97945363Y-113690759D01*
%TA.AperFunction,NonConductor*%
D32*
G36*
X97945363Y-113690759D02*
G01*
X98145241Y-113890637D01*
X98380273Y-114047680D01*
X98451058Y-114077000D01*
X97128942Y-114077000D01*
X97199727Y-114047680D01*
X97434759Y-113890637D01*
X97634637Y-113690759D01*
X97790000Y-113458241D01*
X97945363Y-113690759D01*
G37*
%TD.AperFunction*%
D31*
X95405363Y-113690759D02*
X95605241Y-113890637D01*
X95840273Y-114047680D01*
X95911058Y-114077000D01*
X94588942Y-114077000D01*
X94659727Y-114047680D01*
X94894759Y-113890637D01*
X95094637Y-113690759D01*
X95250000Y-113458241D01*
X95405363Y-113690759D01*
%TA.AperFunction,NonConductor*%
D32*
G36*
X95405363Y-113690759D02*
G01*
X95605241Y-113890637D01*
X95840273Y-114047680D01*
X95911058Y-114077000D01*
X94588942Y-114077000D01*
X94659727Y-114047680D01*
X94894759Y-113890637D01*
X95094637Y-113690759D01*
X95250000Y-113458241D01*
X95405363Y-113690759D01*
G37*
%TD.AperFunction*%
D31*
X76689244Y-63733047D02*
X76300698Y-63893988D01*
X75951017Y-64127637D01*
X75653637Y-64425017D01*
X75419988Y-64774698D01*
X75259047Y-65163244D01*
X75177000Y-65575721D01*
X75177000Y-65996279D01*
X75259047Y-66408756D01*
X75419988Y-66797302D01*
X75653637Y-67146983D01*
X75951017Y-67444363D01*
X76300698Y-67678012D01*
X76689244Y-67838953D01*
X77101721Y-67921000D01*
X77522279Y-67921000D01*
X77934756Y-67838953D01*
X78323302Y-67678012D01*
X78672983Y-67444363D01*
X78970363Y-67146983D01*
X79204012Y-66797302D01*
X79364953Y-66408756D01*
X79447000Y-65996279D01*
X79447000Y-65575721D01*
X79364953Y-65163244D01*
X79204012Y-64774698D01*
X78970363Y-64425017D01*
X78672983Y-64127637D01*
X78323302Y-63893988D01*
X77934756Y-63733047D01*
X77527306Y-63652000D01*
X128644422Y-63652000D01*
X128436956Y-63859466D01*
X128403183Y-63887183D01*
X128292589Y-64021942D01*
X128278548Y-64048211D01*
X128175074Y-64103519D01*
X127941339Y-64295339D01*
X127762000Y-64513865D01*
X127582661Y-64295339D01*
X127348927Y-64103519D01*
X127082261Y-63960983D01*
X126792913Y-63873210D01*
X126492000Y-63843573D01*
X126191088Y-63873210D01*
X125901740Y-63960983D01*
X125635074Y-64103519D01*
X125401339Y-64295339D01*
X125222000Y-64513865D01*
X125042661Y-64295339D01*
X124808927Y-64103519D01*
X124542261Y-63960983D01*
X124252913Y-63873210D01*
X123952000Y-63843573D01*
X123651088Y-63873210D01*
X123361740Y-63960983D01*
X123095074Y-64103519D01*
X122861339Y-64295339D01*
X122682000Y-64513865D01*
X122502661Y-64295339D01*
X122268927Y-64103519D01*
X122002261Y-63960983D01*
X121712913Y-63873210D01*
X121412000Y-63843573D01*
X121111088Y-63873210D01*
X120821740Y-63960983D01*
X120555074Y-64103519D01*
X120321339Y-64295339D01*
X120142000Y-64513865D01*
X119962661Y-64295339D01*
X119728927Y-64103519D01*
X119462261Y-63960983D01*
X119172913Y-63873210D01*
X118872000Y-63843573D01*
X118571088Y-63873210D01*
X118281740Y-63960983D01*
X118015074Y-64103519D01*
X117781339Y-64295339D01*
X117602000Y-64513865D01*
X117422661Y-64295339D01*
X117188927Y-64103519D01*
X116922261Y-63960983D01*
X116632913Y-63873210D01*
X116332000Y-63843573D01*
X116031088Y-63873210D01*
X115741740Y-63960983D01*
X115475074Y-64103519D01*
X115241339Y-64295339D01*
X115062000Y-64513865D01*
X114882661Y-64295339D01*
X114648927Y-64103519D01*
X114382261Y-63960983D01*
X114092913Y-63873210D01*
X113792000Y-63843573D01*
X113491088Y-63873210D01*
X113201740Y-63960983D01*
X112935074Y-64103519D01*
X112701339Y-64295339D01*
X112522000Y-64513865D01*
X112342661Y-64295339D01*
X112108927Y-64103519D01*
X111842261Y-63960983D01*
X111552913Y-63873210D01*
X111252000Y-63843573D01*
X110951088Y-63873210D01*
X110661740Y-63960983D01*
X110395074Y-64103519D01*
X110161339Y-64295339D01*
X109982000Y-64513865D01*
X109802661Y-64295339D01*
X109568927Y-64103519D01*
X109302261Y-63960983D01*
X109012913Y-63873210D01*
X108712000Y-63843573D01*
X108411088Y-63873210D01*
X108121740Y-63960983D01*
X107855074Y-64103519D01*
X107621339Y-64295339D01*
X107429519Y-64529073D01*
X107286983Y-64795739D01*
X107199210Y-65085087D01*
X107177000Y-65310592D01*
X107177000Y-66261407D01*
X107199210Y-66486912D01*
X107286983Y-66776260D01*
X107429519Y-67042926D01*
X107621339Y-67276661D01*
X107827000Y-67445442D01*
X107827001Y-71261420D01*
X90984926Y-88103496D01*
X90951153Y-88131213D01*
X90840559Y-88265972D01*
X90758381Y-88419718D01*
X90707775Y-88586541D01*
X90694970Y-88716554D01*
X90694970Y-88716561D01*
X90690689Y-88760030D01*
X90694970Y-88803499D01*
X90694971Y-98807450D01*
X85764956Y-103737466D01*
X85731183Y-103765183D01*
X85620589Y-103899942D01*
X85600420Y-103937676D01*
X85445241Y-104041363D01*
X85245363Y-104241241D01*
X85088320Y-104476273D01*
X84980147Y-104737426D01*
X84925000Y-105014665D01*
X84925000Y-105297335D01*
X84980147Y-105574574D01*
X85088320Y-105835727D01*
X85245363Y-106070759D01*
X85445241Y-106270637D01*
X85680273Y-106427680D01*
X85941426Y-106535853D01*
X86218665Y-106591000D01*
X86501335Y-106591000D01*
X86778574Y-106535853D01*
X87039727Y-106427680D01*
X87274759Y-106270637D01*
X87474637Y-106070759D01*
X87630000Y-105838241D01*
X87785363Y-106070759D01*
X87985241Y-106270637D01*
X88220273Y-106427680D01*
X88481426Y-106535853D01*
X88758665Y-106591000D01*
X89041335Y-106591000D01*
X89318574Y-106535853D01*
X89579727Y-106427680D01*
X89814759Y-106270637D01*
X90014637Y-106070759D01*
X90170000Y-105838241D01*
X90325363Y-106070759D01*
X90525241Y-106270637D01*
X90760273Y-106427680D01*
X91021426Y-106535853D01*
X91298665Y-106591000D01*
X91581335Y-106591000D01*
X91858574Y-106535853D01*
X92119727Y-106427680D01*
X92354759Y-106270637D01*
X92554637Y-106070759D01*
X92710000Y-105838241D01*
X92865363Y-106070759D01*
X93065241Y-106270637D01*
X93300273Y-106427680D01*
X93561426Y-106535853D01*
X93838665Y-106591000D01*
X94121335Y-106591000D01*
X94398574Y-106535853D01*
X94659727Y-106427680D01*
X94894759Y-106270637D01*
X95094637Y-106070759D01*
X95250000Y-105838241D01*
X95405363Y-106070759D01*
X95605241Y-106270637D01*
X95840273Y-106427680D01*
X96101426Y-106535853D01*
X96378665Y-106591000D01*
X96661335Y-106591000D01*
X96938574Y-106535853D01*
X97199727Y-106427680D01*
X97434759Y-106270637D01*
X97634637Y-106070759D01*
X97790000Y-105838241D01*
X97945363Y-106070759D01*
X98145241Y-106270637D01*
X98380273Y-106427680D01*
X98641426Y-106535853D01*
X98918665Y-106591000D01*
X99201335Y-106591000D01*
X99478574Y-106535853D01*
X99739727Y-106427680D01*
X99974759Y-106270637D01*
X100174637Y-106070759D01*
X100330000Y-105838241D01*
X100485363Y-106070759D01*
X100685241Y-106270637D01*
X100920273Y-106427680D01*
X101181426Y-106535853D01*
X101458665Y-106591000D01*
X101741335Y-106591000D01*
X102018574Y-106535853D01*
X102279727Y-106427680D01*
X102514759Y-106270637D01*
X102714637Y-106070759D01*
X102870000Y-105838241D01*
X103025363Y-106070759D01*
X103225241Y-106270637D01*
X103460273Y-106427680D01*
X103721426Y-106535853D01*
X103998665Y-106591000D01*
X104281335Y-106591000D01*
X104558574Y-106535853D01*
X104819727Y-106427680D01*
X105054759Y-106270637D01*
X105254637Y-106070759D01*
X105410000Y-105838241D01*
X105494418Y-105964581D01*
X100937711Y-110521289D01*
X100900131Y-110552130D01*
X100777041Y-110702116D01*
X100728152Y-110793581D01*
X100685576Y-110873234D01*
X100629253Y-111058907D01*
X100610235Y-111252000D01*
X100615001Y-111300389D01*
X100615001Y-111731603D01*
X100485363Y-111861241D01*
X100330000Y-112093759D01*
X100174637Y-111861241D01*
X99974759Y-111661363D01*
X99739727Y-111504320D01*
X99478574Y-111396147D01*
X99201335Y-111341000D01*
X98918665Y-111341000D01*
X98641426Y-111396147D01*
X98380273Y-111504320D01*
X98145241Y-111661363D01*
X97945363Y-111861241D01*
X97790000Y-112093759D01*
X97634637Y-111861241D01*
X97434759Y-111661363D01*
X97199727Y-111504320D01*
X96938574Y-111396147D01*
X96661335Y-111341000D01*
X96378665Y-111341000D01*
X96101426Y-111396147D01*
X95840273Y-111504320D01*
X95605241Y-111661363D01*
X95405363Y-111861241D01*
X95250000Y-112093759D01*
X95094637Y-111861241D01*
X94894759Y-111661363D01*
X94659727Y-111504320D01*
X94398574Y-111396147D01*
X94350080Y-111386501D01*
X93366534Y-110402956D01*
X93338817Y-110369183D01*
X93204059Y-110258589D01*
X93050313Y-110176411D01*
X92883490Y-110125805D01*
X92753477Y-110113000D01*
X92753469Y-110113000D01*
X92710000Y-110108719D01*
X92666531Y-110113000D01*
X85133465Y-110113000D01*
X85089999Y-110108719D01*
X85046533Y-110113000D01*
X85046523Y-110113000D01*
X84916510Y-110125805D01*
X84766990Y-110171162D01*
X84766990Y-100270547D01*
X84771755Y-100222167D01*
X84752737Y-100029074D01*
X84696414Y-99843401D01*
X84656687Y-99769077D01*
X84604950Y-99672284D01*
X84481860Y-99522298D01*
X84444274Y-99491452D01*
X77789000Y-92836178D01*
X77789000Y-88093490D01*
X77859097Y-88178903D01*
X78088382Y-88367073D01*
X78349972Y-88506896D01*
X78633814Y-88592999D01*
X78929000Y-88622072D01*
X80679000Y-88622072D01*
X80974186Y-88592999D01*
X81258028Y-88506896D01*
X81519618Y-88367073D01*
X81748903Y-88178903D01*
X81937073Y-87949618D01*
X82076896Y-87688028D01*
X82162999Y-87404186D01*
X82192072Y-87109000D01*
X82192072Y-85359000D01*
X82162999Y-85063814D01*
X82076896Y-84779972D01*
X81937073Y-84518382D01*
X81748903Y-84289097D01*
X81519618Y-84100927D01*
X81258028Y-83961104D01*
X81129357Y-83922072D01*
X84554000Y-83922072D01*
X84678482Y-83909812D01*
X84798180Y-83873502D01*
X84908494Y-83814537D01*
X85005185Y-83735185D01*
X85084537Y-83638494D01*
X85143502Y-83528180D01*
X85179812Y-83408482D01*
X85192072Y-83284000D01*
X85192072Y-79784000D01*
X85179812Y-79659518D01*
X85143502Y-79539820D01*
X85084537Y-79429506D01*
X85005185Y-79332815D01*
X84908494Y-79253463D01*
X84798180Y-79194498D01*
X84678482Y-79158188D01*
X84554000Y-79145928D01*
X81054000Y-79145928D01*
X80929518Y-79158188D01*
X80809820Y-79194498D01*
X80699506Y-79253463D01*
X80602815Y-79332815D01*
X80523463Y-79429506D01*
X80464498Y-79539820D01*
X80428188Y-79659518D01*
X80415928Y-79784000D01*
X80415928Y-83284000D01*
X80428188Y-83408482D01*
X80464498Y-83528180D01*
X80523463Y-83638494D01*
X80602815Y-83735185D01*
X80699506Y-83814537D01*
X80776131Y-83855494D01*
X80679000Y-83845928D01*
X78929000Y-83845928D01*
X78633814Y-83875001D01*
X78349972Y-83961104D01*
X78088382Y-84100927D01*
X77859097Y-84289097D01*
X77789000Y-84374510D01*
X77789000Y-83898927D01*
X77824799Y-83895401D01*
X78085192Y-83816411D01*
X78325171Y-83688140D01*
X78535515Y-83515515D01*
X78708140Y-83305171D01*
X78836411Y-83065192D01*
X78915401Y-82804799D01*
X78942072Y-82534000D01*
X78942072Y-80788928D01*
X83212284Y-76518716D01*
X83249870Y-76487870D01*
X83372960Y-76337884D01*
X83464424Y-76166767D01*
X83520747Y-75981094D01*
X83535000Y-75836380D01*
X83539765Y-75788001D01*
X83535000Y-75739621D01*
X83535000Y-68958907D01*
X83561302Y-68948012D01*
X83910983Y-68714363D01*
X84208363Y-68416983D01*
X84442012Y-68067302D01*
X84602953Y-67678756D01*
X84685000Y-67266279D01*
X84685000Y-66845721D01*
X85495000Y-66845721D01*
X85495000Y-67266279D01*
X85577047Y-67678756D01*
X85737988Y-68067302D01*
X85971637Y-68416983D01*
X86269017Y-68714363D01*
X86618698Y-68948012D01*
X87007244Y-69108953D01*
X87419721Y-69191000D01*
X87840279Y-69191000D01*
X88252756Y-69108953D01*
X88641302Y-68948012D01*
X88990983Y-68714363D01*
X89288363Y-68416983D01*
X89522012Y-68067302D01*
X89682953Y-67678756D01*
X89765000Y-67266279D01*
X89765000Y-66845721D01*
X89682953Y-66433244D01*
X89522012Y-66044698D01*
X89288363Y-65695017D01*
X89149346Y-65556000D01*
X90571928Y-65556000D01*
X90571928Y-68556000D01*
X90584188Y-68680482D01*
X90620498Y-68800180D01*
X90679463Y-68910494D01*
X90758815Y-69007185D01*
X90855506Y-69086537D01*
X90965820Y-69145502D01*
X91085518Y-69181812D01*
X91210000Y-69194072D01*
X94210000Y-69194072D01*
X94334482Y-69181812D01*
X94454180Y-69145502D01*
X94564494Y-69086537D01*
X94661185Y-69007185D01*
X94740537Y-68910494D01*
X94799502Y-68800180D01*
X94835812Y-68680482D01*
X94848072Y-68556000D01*
X94848072Y-66845721D01*
X96671000Y-66845721D01*
X96671000Y-67266279D01*
X96753047Y-67678756D01*
X96913988Y-68067302D01*
X97147637Y-68416983D01*
X97445017Y-68714363D01*
X97794698Y-68948012D01*
X98183244Y-69108953D01*
X98595721Y-69191000D01*
X99016279Y-69191000D01*
X99428756Y-69108953D01*
X99817302Y-68948012D01*
X100166983Y-68714363D01*
X100464363Y-68416983D01*
X100698012Y-68067302D01*
X100858953Y-67678756D01*
X100941000Y-67266279D01*
X100941000Y-66845721D01*
X100858953Y-66433244D01*
X100698012Y-66044698D01*
X100464363Y-65695017D01*
X100325346Y-65556000D01*
X101747928Y-65556000D01*
X101747928Y-68556000D01*
X101760188Y-68680482D01*
X101796498Y-68800180D01*
X101855463Y-68910494D01*
X101934815Y-69007185D01*
X102031506Y-69086537D01*
X102141820Y-69145502D01*
X102261518Y-69181812D01*
X102386000Y-69194072D01*
X105386000Y-69194072D01*
X105510482Y-69181812D01*
X105630180Y-69145502D01*
X105740494Y-69086537D01*
X105837185Y-69007185D01*
X105916537Y-68910494D01*
X105975502Y-68800180D01*
X106011812Y-68680482D01*
X106024072Y-68556000D01*
X106024072Y-65556000D01*
X106011812Y-65431518D01*
X105975502Y-65311820D01*
X105916537Y-65201506D01*
X105837185Y-65104815D01*
X105740494Y-65025463D01*
X105630180Y-64966498D01*
X105510482Y-64930188D01*
X105386000Y-64917928D01*
X102386000Y-64917928D01*
X102261518Y-64930188D01*
X102141820Y-64966498D01*
X102031506Y-65025463D01*
X101934815Y-65104815D01*
X101855463Y-65201506D01*
X101796498Y-65311820D01*
X101760188Y-65431518D01*
X101747928Y-65556000D01*
X100325346Y-65556000D01*
X100166983Y-65397637D01*
X99817302Y-65163988D01*
X99428756Y-65003047D01*
X99016279Y-64921000D01*
X98595721Y-64921000D01*
X98183244Y-65003047D01*
X97794698Y-65163988D01*
X97445017Y-65397637D01*
X97147637Y-65695017D01*
X96913988Y-66044698D01*
X96753047Y-66433244D01*
X96671000Y-66845721D01*
X94848072Y-66845721D01*
X94848072Y-65556000D01*
X94835812Y-65431518D01*
X94799502Y-65311820D01*
X94740537Y-65201506D01*
X94661185Y-65104815D01*
X94564494Y-65025463D01*
X94454180Y-64966498D01*
X94334482Y-64930188D01*
X94210000Y-64917928D01*
X91210000Y-64917928D01*
X91085518Y-64930188D01*
X90965820Y-64966498D01*
X90855506Y-65025463D01*
X90758815Y-65104815D01*
X90679463Y-65201506D01*
X90620498Y-65311820D01*
X90584188Y-65431518D01*
X90571928Y-65556000D01*
X89149346Y-65556000D01*
X88990983Y-65397637D01*
X88641302Y-65163988D01*
X88252756Y-65003047D01*
X87840279Y-64921000D01*
X87419721Y-64921000D01*
X87007244Y-65003047D01*
X86618698Y-65163988D01*
X86269017Y-65397637D01*
X85971637Y-65695017D01*
X85737988Y-66044698D01*
X85577047Y-66433244D01*
X85495000Y-66845721D01*
X84685000Y-66845721D01*
X84602953Y-66433244D01*
X84442012Y-66044698D01*
X84208363Y-65695017D01*
X83910983Y-65397637D01*
X83561302Y-65163988D01*
X83172756Y-65003047D01*
X82760279Y-64921000D01*
X82339721Y-64921000D01*
X81927244Y-65003047D01*
X81538698Y-65163988D01*
X81189017Y-65397637D01*
X80891637Y-65695017D01*
X80657988Y-66044698D01*
X80497047Y-66433244D01*
X80415000Y-66845721D01*
X80415000Y-67266279D01*
X80497047Y-67678756D01*
X80657988Y-68067302D01*
X80891637Y-68416983D01*
X81189017Y-68714363D01*
X81538698Y-68948012D01*
X81565000Y-68958907D01*
X81565001Y-75379999D01*
X77777099Y-79167901D01*
X77554000Y-79145928D01*
X76054000Y-79145928D01*
X75783201Y-79172599D01*
X75522808Y-79251589D01*
X75282829Y-79379860D01*
X75082000Y-79544676D01*
X75082000Y-63652000D01*
X77096694Y-63652000D01*
X76689244Y-63733047D01*
%TA.AperFunction,NonConductor*%
D32*
G36*
X76689244Y-63733047D02*
G01*
X76300698Y-63893988D01*
X75951017Y-64127637D01*
X75653637Y-64425017D01*
X75419988Y-64774698D01*
X75259047Y-65163244D01*
X75177000Y-65575721D01*
X75177000Y-65996279D01*
X75259047Y-66408756D01*
X75419988Y-66797302D01*
X75653637Y-67146983D01*
X75951017Y-67444363D01*
X76300698Y-67678012D01*
X76689244Y-67838953D01*
X77101721Y-67921000D01*
X77522279Y-67921000D01*
X77934756Y-67838953D01*
X78323302Y-67678012D01*
X78672983Y-67444363D01*
X78970363Y-67146983D01*
X79204012Y-66797302D01*
X79364953Y-66408756D01*
X79447000Y-65996279D01*
X79447000Y-65575721D01*
X79364953Y-65163244D01*
X79204012Y-64774698D01*
X78970363Y-64425017D01*
X78672983Y-64127637D01*
X78323302Y-63893988D01*
X77934756Y-63733047D01*
X77527306Y-63652000D01*
X128644422Y-63652000D01*
X128436956Y-63859466D01*
X128403183Y-63887183D01*
X128292589Y-64021942D01*
X128278548Y-64048211D01*
X128175074Y-64103519D01*
X127941339Y-64295339D01*
X127762000Y-64513865D01*
X127582661Y-64295339D01*
X127348927Y-64103519D01*
X127082261Y-63960983D01*
X126792913Y-63873210D01*
X126492000Y-63843573D01*
X126191088Y-63873210D01*
X125901740Y-63960983D01*
X125635074Y-64103519D01*
X125401339Y-64295339D01*
X125222000Y-64513865D01*
X125042661Y-64295339D01*
X124808927Y-64103519D01*
X124542261Y-63960983D01*
X124252913Y-63873210D01*
X123952000Y-63843573D01*
X123651088Y-63873210D01*
X123361740Y-63960983D01*
X123095074Y-64103519D01*
X122861339Y-64295339D01*
X122682000Y-64513865D01*
X122502661Y-64295339D01*
X122268927Y-64103519D01*
X122002261Y-63960983D01*
X121712913Y-63873210D01*
X121412000Y-63843573D01*
X121111088Y-63873210D01*
X120821740Y-63960983D01*
X120555074Y-64103519D01*
X120321339Y-64295339D01*
X120142000Y-64513865D01*
X119962661Y-64295339D01*
X119728927Y-64103519D01*
X119462261Y-63960983D01*
X119172913Y-63873210D01*
X118872000Y-63843573D01*
X118571088Y-63873210D01*
X118281740Y-63960983D01*
X118015074Y-64103519D01*
X117781339Y-64295339D01*
X117602000Y-64513865D01*
X117422661Y-64295339D01*
X117188927Y-64103519D01*
X116922261Y-63960983D01*
X116632913Y-63873210D01*
X116332000Y-63843573D01*
X116031088Y-63873210D01*
X115741740Y-63960983D01*
X115475074Y-64103519D01*
X115241339Y-64295339D01*
X115062000Y-64513865D01*
X114882661Y-64295339D01*
X114648927Y-64103519D01*
X114382261Y-63960983D01*
X114092913Y-63873210D01*
X113792000Y-63843573D01*
X113491088Y-63873210D01*
X113201740Y-63960983D01*
X112935074Y-64103519D01*
X112701339Y-64295339D01*
X112522000Y-64513865D01*
X112342661Y-64295339D01*
X112108927Y-64103519D01*
X111842261Y-63960983D01*
X111552913Y-63873210D01*
X111252000Y-63843573D01*
X110951088Y-63873210D01*
X110661740Y-63960983D01*
X110395074Y-64103519D01*
X110161339Y-64295339D01*
X109982000Y-64513865D01*
X109802661Y-64295339D01*
X109568927Y-64103519D01*
X109302261Y-63960983D01*
X109012913Y-63873210D01*
X108712000Y-63843573D01*
X108411088Y-63873210D01*
X108121740Y-63960983D01*
X107855074Y-64103519D01*
X107621339Y-64295339D01*
X107429519Y-64529073D01*
X107286983Y-64795739D01*
X107199210Y-65085087D01*
X107177000Y-65310592D01*
X107177000Y-66261407D01*
X107199210Y-66486912D01*
X107286983Y-66776260D01*
X107429519Y-67042926D01*
X107621339Y-67276661D01*
X107827000Y-67445442D01*
X107827001Y-71261420D01*
X90984926Y-88103496D01*
X90951153Y-88131213D01*
X90840559Y-88265972D01*
X90758381Y-88419718D01*
X90707775Y-88586541D01*
X90694970Y-88716554D01*
X90694970Y-88716561D01*
X90690689Y-88760030D01*
X90694970Y-88803499D01*
X90694971Y-98807450D01*
X85764956Y-103737466D01*
X85731183Y-103765183D01*
X85620589Y-103899942D01*
X85600420Y-103937676D01*
X85445241Y-104041363D01*
X85245363Y-104241241D01*
X85088320Y-104476273D01*
X84980147Y-104737426D01*
X84925000Y-105014665D01*
X84925000Y-105297335D01*
X84980147Y-105574574D01*
X85088320Y-105835727D01*
X85245363Y-106070759D01*
X85445241Y-106270637D01*
X85680273Y-106427680D01*
X85941426Y-106535853D01*
X86218665Y-106591000D01*
X86501335Y-106591000D01*
X86778574Y-106535853D01*
X87039727Y-106427680D01*
X87274759Y-106270637D01*
X87474637Y-106070759D01*
X87630000Y-105838241D01*
X87785363Y-106070759D01*
X87985241Y-106270637D01*
X88220273Y-106427680D01*
X88481426Y-106535853D01*
X88758665Y-106591000D01*
X89041335Y-106591000D01*
X89318574Y-106535853D01*
X89579727Y-106427680D01*
X89814759Y-106270637D01*
X90014637Y-106070759D01*
X90170000Y-105838241D01*
X90325363Y-106070759D01*
X90525241Y-106270637D01*
X90760273Y-106427680D01*
X91021426Y-106535853D01*
X91298665Y-106591000D01*
X91581335Y-106591000D01*
X91858574Y-106535853D01*
X92119727Y-106427680D01*
X92354759Y-106270637D01*
X92554637Y-106070759D01*
X92710000Y-105838241D01*
X92865363Y-106070759D01*
X93065241Y-106270637D01*
X93300273Y-106427680D01*
X93561426Y-106535853D01*
X93838665Y-106591000D01*
X94121335Y-106591000D01*
X94398574Y-106535853D01*
X94659727Y-106427680D01*
X94894759Y-106270637D01*
X95094637Y-106070759D01*
X95250000Y-105838241D01*
X95405363Y-106070759D01*
X95605241Y-106270637D01*
X95840273Y-106427680D01*
X96101426Y-106535853D01*
X96378665Y-106591000D01*
X96661335Y-106591000D01*
X96938574Y-106535853D01*
X97199727Y-106427680D01*
X97434759Y-106270637D01*
X97634637Y-106070759D01*
X97790000Y-105838241D01*
X97945363Y-106070759D01*
X98145241Y-106270637D01*
X98380273Y-106427680D01*
X98641426Y-106535853D01*
X98918665Y-106591000D01*
X99201335Y-106591000D01*
X99478574Y-106535853D01*
X99739727Y-106427680D01*
X99974759Y-106270637D01*
X100174637Y-106070759D01*
X100330000Y-105838241D01*
X100485363Y-106070759D01*
X100685241Y-106270637D01*
X100920273Y-106427680D01*
X101181426Y-106535853D01*
X101458665Y-106591000D01*
X101741335Y-106591000D01*
X102018574Y-106535853D01*
X102279727Y-106427680D01*
X102514759Y-106270637D01*
X102714637Y-106070759D01*
X102870000Y-105838241D01*
X103025363Y-106070759D01*
X103225241Y-106270637D01*
X103460273Y-106427680D01*
X103721426Y-106535853D01*
X103998665Y-106591000D01*
X104281335Y-106591000D01*
X104558574Y-106535853D01*
X104819727Y-106427680D01*
X105054759Y-106270637D01*
X105254637Y-106070759D01*
X105410000Y-105838241D01*
X105494418Y-105964581D01*
X100937711Y-110521289D01*
X100900131Y-110552130D01*
X100777041Y-110702116D01*
X100728152Y-110793581D01*
X100685576Y-110873234D01*
X100629253Y-111058907D01*
X100610235Y-111252000D01*
X100615001Y-111300389D01*
X100615001Y-111731603D01*
X100485363Y-111861241D01*
X100330000Y-112093759D01*
X100174637Y-111861241D01*
X99974759Y-111661363D01*
X99739727Y-111504320D01*
X99478574Y-111396147D01*
X99201335Y-111341000D01*
X98918665Y-111341000D01*
X98641426Y-111396147D01*
X98380273Y-111504320D01*
X98145241Y-111661363D01*
X97945363Y-111861241D01*
X97790000Y-112093759D01*
X97634637Y-111861241D01*
X97434759Y-111661363D01*
X97199727Y-111504320D01*
X96938574Y-111396147D01*
X96661335Y-111341000D01*
X96378665Y-111341000D01*
X96101426Y-111396147D01*
X95840273Y-111504320D01*
X95605241Y-111661363D01*
X95405363Y-111861241D01*
X95250000Y-112093759D01*
X95094637Y-111861241D01*
X94894759Y-111661363D01*
X94659727Y-111504320D01*
X94398574Y-111396147D01*
X94350080Y-111386501D01*
X93366534Y-110402956D01*
X93338817Y-110369183D01*
X93204059Y-110258589D01*
X93050313Y-110176411D01*
X92883490Y-110125805D01*
X92753477Y-110113000D01*
X92753469Y-110113000D01*
X92710000Y-110108719D01*
X92666531Y-110113000D01*
X85133465Y-110113000D01*
X85089999Y-110108719D01*
X85046533Y-110113000D01*
X85046523Y-110113000D01*
X84916510Y-110125805D01*
X84766990Y-110171162D01*
X84766990Y-100270547D01*
X84771755Y-100222167D01*
X84752737Y-100029074D01*
X84696414Y-99843401D01*
X84656687Y-99769077D01*
X84604950Y-99672284D01*
X84481860Y-99522298D01*
X84444274Y-99491452D01*
X77789000Y-92836178D01*
X77789000Y-88093490D01*
X77859097Y-88178903D01*
X78088382Y-88367073D01*
X78349972Y-88506896D01*
X78633814Y-88592999D01*
X78929000Y-88622072D01*
X80679000Y-88622072D01*
X80974186Y-88592999D01*
X81258028Y-88506896D01*
X81519618Y-88367073D01*
X81748903Y-88178903D01*
X81937073Y-87949618D01*
X82076896Y-87688028D01*
X82162999Y-87404186D01*
X82192072Y-87109000D01*
X82192072Y-85359000D01*
X82162999Y-85063814D01*
X82076896Y-84779972D01*
X81937073Y-84518382D01*
X81748903Y-84289097D01*
X81519618Y-84100927D01*
X81258028Y-83961104D01*
X81129357Y-83922072D01*
X84554000Y-83922072D01*
X84678482Y-83909812D01*
X84798180Y-83873502D01*
X84908494Y-83814537D01*
X85005185Y-83735185D01*
X85084537Y-83638494D01*
X85143502Y-83528180D01*
X85179812Y-83408482D01*
X85192072Y-83284000D01*
X85192072Y-79784000D01*
X85179812Y-79659518D01*
X85143502Y-79539820D01*
X85084537Y-79429506D01*
X85005185Y-79332815D01*
X84908494Y-79253463D01*
X84798180Y-79194498D01*
X84678482Y-79158188D01*
X84554000Y-79145928D01*
X81054000Y-79145928D01*
X80929518Y-79158188D01*
X80809820Y-79194498D01*
X80699506Y-79253463D01*
X80602815Y-79332815D01*
X80523463Y-79429506D01*
X80464498Y-79539820D01*
X80428188Y-79659518D01*
X80415928Y-79784000D01*
X80415928Y-83284000D01*
X80428188Y-83408482D01*
X80464498Y-83528180D01*
X80523463Y-83638494D01*
X80602815Y-83735185D01*
X80699506Y-83814537D01*
X80776131Y-83855494D01*
X80679000Y-83845928D01*
X78929000Y-83845928D01*
X78633814Y-83875001D01*
X78349972Y-83961104D01*
X78088382Y-84100927D01*
X77859097Y-84289097D01*
X77789000Y-84374510D01*
X77789000Y-83898927D01*
X77824799Y-83895401D01*
X78085192Y-83816411D01*
X78325171Y-83688140D01*
X78535515Y-83515515D01*
X78708140Y-83305171D01*
X78836411Y-83065192D01*
X78915401Y-82804799D01*
X78942072Y-82534000D01*
X78942072Y-80788928D01*
X83212284Y-76518716D01*
X83249870Y-76487870D01*
X83372960Y-76337884D01*
X83464424Y-76166767D01*
X83520747Y-75981094D01*
X83535000Y-75836380D01*
X83539765Y-75788001D01*
X83535000Y-75739621D01*
X83535000Y-68958907D01*
X83561302Y-68948012D01*
X83910983Y-68714363D01*
X84208363Y-68416983D01*
X84442012Y-68067302D01*
X84602953Y-67678756D01*
X84685000Y-67266279D01*
X84685000Y-66845721D01*
X85495000Y-66845721D01*
X85495000Y-67266279D01*
X85577047Y-67678756D01*
X85737988Y-68067302D01*
X85971637Y-68416983D01*
X86269017Y-68714363D01*
X86618698Y-68948012D01*
X87007244Y-69108953D01*
X87419721Y-69191000D01*
X87840279Y-69191000D01*
X88252756Y-69108953D01*
X88641302Y-68948012D01*
X88990983Y-68714363D01*
X89288363Y-68416983D01*
X89522012Y-68067302D01*
X89682953Y-67678756D01*
X89765000Y-67266279D01*
X89765000Y-66845721D01*
X89682953Y-66433244D01*
X89522012Y-66044698D01*
X89288363Y-65695017D01*
X89149346Y-65556000D01*
X90571928Y-65556000D01*
X90571928Y-68556000D01*
X90584188Y-68680482D01*
X90620498Y-68800180D01*
X90679463Y-68910494D01*
X90758815Y-69007185D01*
X90855506Y-69086537D01*
X90965820Y-69145502D01*
X91085518Y-69181812D01*
X91210000Y-69194072D01*
X94210000Y-69194072D01*
X94334482Y-69181812D01*
X94454180Y-69145502D01*
X94564494Y-69086537D01*
X94661185Y-69007185D01*
X94740537Y-68910494D01*
X94799502Y-68800180D01*
X94835812Y-68680482D01*
X94848072Y-68556000D01*
X94848072Y-66845721D01*
X96671000Y-66845721D01*
X96671000Y-67266279D01*
X96753047Y-67678756D01*
X96913988Y-68067302D01*
X97147637Y-68416983D01*
X97445017Y-68714363D01*
X97794698Y-68948012D01*
X98183244Y-69108953D01*
X98595721Y-69191000D01*
X99016279Y-69191000D01*
X99428756Y-69108953D01*
X99817302Y-68948012D01*
X100166983Y-68714363D01*
X100464363Y-68416983D01*
X100698012Y-68067302D01*
X100858953Y-67678756D01*
X100941000Y-67266279D01*
X100941000Y-66845721D01*
X100858953Y-66433244D01*
X100698012Y-66044698D01*
X100464363Y-65695017D01*
X100325346Y-65556000D01*
X101747928Y-65556000D01*
X101747928Y-68556000D01*
X101760188Y-68680482D01*
X101796498Y-68800180D01*
X101855463Y-68910494D01*
X101934815Y-69007185D01*
X102031506Y-69086537D01*
X102141820Y-69145502D01*
X102261518Y-69181812D01*
X102386000Y-69194072D01*
X105386000Y-69194072D01*
X105510482Y-69181812D01*
X105630180Y-69145502D01*
X105740494Y-69086537D01*
X105837185Y-69007185D01*
X105916537Y-68910494D01*
X105975502Y-68800180D01*
X106011812Y-68680482D01*
X106024072Y-68556000D01*
X106024072Y-65556000D01*
X106011812Y-65431518D01*
X105975502Y-65311820D01*
X105916537Y-65201506D01*
X105837185Y-65104815D01*
X105740494Y-65025463D01*
X105630180Y-64966498D01*
X105510482Y-64930188D01*
X105386000Y-64917928D01*
X102386000Y-64917928D01*
X102261518Y-64930188D01*
X102141820Y-64966498D01*
X102031506Y-65025463D01*
X101934815Y-65104815D01*
X101855463Y-65201506D01*
X101796498Y-65311820D01*
X101760188Y-65431518D01*
X101747928Y-65556000D01*
X100325346Y-65556000D01*
X100166983Y-65397637D01*
X99817302Y-65163988D01*
X99428756Y-65003047D01*
X99016279Y-64921000D01*
X98595721Y-64921000D01*
X98183244Y-65003047D01*
X97794698Y-65163988D01*
X97445017Y-65397637D01*
X97147637Y-65695017D01*
X96913988Y-66044698D01*
X96753047Y-66433244D01*
X96671000Y-66845721D01*
X94848072Y-66845721D01*
X94848072Y-65556000D01*
X94835812Y-65431518D01*
X94799502Y-65311820D01*
X94740537Y-65201506D01*
X94661185Y-65104815D01*
X94564494Y-65025463D01*
X94454180Y-64966498D01*
X94334482Y-64930188D01*
X94210000Y-64917928D01*
X91210000Y-64917928D01*
X91085518Y-64930188D01*
X90965820Y-64966498D01*
X90855506Y-65025463D01*
X90758815Y-65104815D01*
X90679463Y-65201506D01*
X90620498Y-65311820D01*
X90584188Y-65431518D01*
X90571928Y-65556000D01*
X89149346Y-65556000D01*
X88990983Y-65397637D01*
X88641302Y-65163988D01*
X88252756Y-65003047D01*
X87840279Y-64921000D01*
X87419721Y-64921000D01*
X87007244Y-65003047D01*
X86618698Y-65163988D01*
X86269017Y-65397637D01*
X85971637Y-65695017D01*
X85737988Y-66044698D01*
X85577047Y-66433244D01*
X85495000Y-66845721D01*
X84685000Y-66845721D01*
X84602953Y-66433244D01*
X84442012Y-66044698D01*
X84208363Y-65695017D01*
X83910983Y-65397637D01*
X83561302Y-65163988D01*
X83172756Y-65003047D01*
X82760279Y-64921000D01*
X82339721Y-64921000D01*
X81927244Y-65003047D01*
X81538698Y-65163988D01*
X81189017Y-65397637D01*
X80891637Y-65695017D01*
X80657988Y-66044698D01*
X80497047Y-66433244D01*
X80415000Y-66845721D01*
X80415000Y-67266279D01*
X80497047Y-67678756D01*
X80657988Y-68067302D01*
X80891637Y-68416983D01*
X81189017Y-68714363D01*
X81538698Y-68948012D01*
X81565000Y-68958907D01*
X81565001Y-75379999D01*
X77777099Y-79167901D01*
X77554000Y-79145928D01*
X76054000Y-79145928D01*
X75783201Y-79172599D01*
X75522808Y-79251589D01*
X75282829Y-79379860D01*
X75082000Y-79544676D01*
X75082000Y-63652000D01*
X77096694Y-63652000D01*
X76689244Y-63733047D01*
G37*
%TD.AperFunction*%
D31*
X90170000Y-112093759D02*
X90029176Y-111883000D01*
X90310824Y-111883000D01*
X90170000Y-112093759D01*
%TA.AperFunction,NonConductor*%
D32*
G36*
X90170000Y-112093759D02*
G01*
X90029176Y-111883000D01*
X90310824Y-111883000D01*
X90170000Y-112093759D01*
G37*
%TD.AperFunction*%
D31*
X108105363Y-106070759D02*
X108305241Y-106270637D01*
X108342912Y-106295808D01*
X108347805Y-106345489D01*
X108398411Y-106512312D01*
X108480589Y-106666058D01*
X108591183Y-106800817D01*
X108624956Y-106828534D01*
X111227448Y-109431027D01*
X111255161Y-109464795D01*
X111288929Y-109492508D01*
X111288931Y-109492510D01*
X111389919Y-109575389D01*
X111543665Y-109657567D01*
X111710488Y-109708173D01*
X111840501Y-109720978D01*
X111840509Y-109720978D01*
X111883978Y-109725259D01*
X111927447Y-109720978D01*
X113055443Y-109720978D01*
X111389921Y-111386501D01*
X111341426Y-111396147D01*
X111080273Y-111504320D01*
X110845241Y-111661363D01*
X110645363Y-111861241D01*
X110490000Y-112093759D01*
X110334637Y-111861241D01*
X110134759Y-111661363D01*
X109899727Y-111504320D01*
X109638574Y-111396147D01*
X109361335Y-111341000D01*
X109078665Y-111341000D01*
X108801426Y-111396147D01*
X108540273Y-111504320D01*
X108305241Y-111661363D01*
X108105363Y-111861241D01*
X107950000Y-112093759D01*
X107794637Y-111861241D01*
X107594759Y-111661363D01*
X107359727Y-111504320D01*
X107098574Y-111396147D01*
X106821335Y-111341000D01*
X106538665Y-111341000D01*
X106261426Y-111396147D01*
X106000273Y-111504320D01*
X105765241Y-111661363D01*
X105565363Y-111861241D01*
X105410000Y-112093759D01*
X105254637Y-111861241D01*
X105054759Y-111661363D01*
X104819727Y-111504320D01*
X104558574Y-111396147D01*
X104281335Y-111341000D01*
X103998665Y-111341000D01*
X103721426Y-111396147D01*
X103460273Y-111504320D01*
X103225241Y-111661363D01*
X103025363Y-111861241D01*
X102870000Y-112093759D01*
X102714637Y-111861241D01*
X102585000Y-111731604D01*
X102585000Y-111660000D01*
X107342290Y-106902711D01*
X107379870Y-106871870D01*
X107502960Y-106721884D01*
X107594424Y-106550767D01*
X107650747Y-106365094D01*
X107665000Y-106220380D01*
X107665000Y-106220379D01*
X107667183Y-106198213D01*
X107794637Y-106070759D01*
X107950000Y-105838241D01*
X108105363Y-106070759D01*
%TA.AperFunction,NonConductor*%
D32*
G36*
X108105363Y-106070759D02*
G01*
X108305241Y-106270637D01*
X108342912Y-106295808D01*
X108347805Y-106345489D01*
X108398411Y-106512312D01*
X108480589Y-106666058D01*
X108591183Y-106800817D01*
X108624956Y-106828534D01*
X111227448Y-109431027D01*
X111255161Y-109464795D01*
X111288929Y-109492508D01*
X111288931Y-109492510D01*
X111389919Y-109575389D01*
X111543665Y-109657567D01*
X111710488Y-109708173D01*
X111840501Y-109720978D01*
X111840509Y-109720978D01*
X111883978Y-109725259D01*
X111927447Y-109720978D01*
X113055443Y-109720978D01*
X111389921Y-111386501D01*
X111341426Y-111396147D01*
X111080273Y-111504320D01*
X110845241Y-111661363D01*
X110645363Y-111861241D01*
X110490000Y-112093759D01*
X110334637Y-111861241D01*
X110134759Y-111661363D01*
X109899727Y-111504320D01*
X109638574Y-111396147D01*
X109361335Y-111341000D01*
X109078665Y-111341000D01*
X108801426Y-111396147D01*
X108540273Y-111504320D01*
X108305241Y-111661363D01*
X108105363Y-111861241D01*
X107950000Y-112093759D01*
X107794637Y-111861241D01*
X107594759Y-111661363D01*
X107359727Y-111504320D01*
X107098574Y-111396147D01*
X106821335Y-111341000D01*
X106538665Y-111341000D01*
X106261426Y-111396147D01*
X106000273Y-111504320D01*
X105765241Y-111661363D01*
X105565363Y-111861241D01*
X105410000Y-112093759D01*
X105254637Y-111861241D01*
X105054759Y-111661363D01*
X104819727Y-111504320D01*
X104558574Y-111396147D01*
X104281335Y-111341000D01*
X103998665Y-111341000D01*
X103721426Y-111396147D01*
X103460273Y-111504320D01*
X103225241Y-111661363D01*
X103025363Y-111861241D01*
X102870000Y-112093759D01*
X102714637Y-111861241D01*
X102585000Y-111731604D01*
X102585000Y-111660000D01*
X107342290Y-106902711D01*
X107379870Y-106871870D01*
X107502960Y-106721884D01*
X107594424Y-106550767D01*
X107650747Y-106365094D01*
X107665000Y-106220380D01*
X107665000Y-106220379D01*
X107667183Y-106198213D01*
X107794637Y-106070759D01*
X107950000Y-105838241D01*
X108105363Y-106070759D01*
G37*
%TD.AperFunction*%
D31*
X113929921Y-111386501D02*
X113883930Y-111395649D01*
X114858590Y-110420989D01*
X114895432Y-110420989D01*
X113929921Y-111386501D01*
%TA.AperFunction,NonConductor*%
D32*
G36*
X113929921Y-111386501D02*
G01*
X113883930Y-111395649D01*
X114858590Y-110420989D01*
X114895432Y-110420989D01*
X113929921Y-111386501D01*
G37*
%TD.AperFunction*%
D31*
X116469921Y-111386501D02*
X116423930Y-111395649D01*
X116698579Y-111121000D01*
X116735422Y-111121000D01*
X116469921Y-111386501D01*
%TA.AperFunction,NonConductor*%
D32*
G36*
X116469921Y-111386501D02*
G01*
X116423930Y-111395649D01*
X116698579Y-111121000D01*
X116735422Y-111121000D01*
X116469921Y-111386501D01*
G37*
%TD.AperFunction*%
D31*
X132963832Y-67206589D02*
X111164952Y-89005470D01*
X111131184Y-89033183D01*
X111103471Y-89066951D01*
X111103468Y-89066954D01*
X111020590Y-89167941D01*
X110938412Y-89321687D01*
X110887805Y-89488510D01*
X110870719Y-89662000D01*
X110875001Y-89705479D01*
X110875000Y-104021479D01*
X110845241Y-104041363D01*
X110645363Y-104241241D01*
X110490000Y-104473759D01*
X110334637Y-104241241D01*
X110134759Y-104041363D01*
X109899727Y-103884320D01*
X109638574Y-103776147D01*
X109361335Y-103721000D01*
X109078665Y-103721000D01*
X108801426Y-103776147D01*
X108540273Y-103884320D01*
X108305241Y-104041363D01*
X108105363Y-104241241D01*
X107950000Y-104473759D01*
X107794637Y-104241241D01*
X107594759Y-104041363D01*
X107359727Y-103884320D01*
X107098574Y-103776147D01*
X106821335Y-103721000D01*
X106538665Y-103721000D01*
X106261426Y-103776147D01*
X106000273Y-103884320D01*
X105765241Y-104041363D01*
X105565363Y-104241241D01*
X105410000Y-104473759D01*
X105254637Y-104241241D01*
X105054759Y-104041363D01*
X104819727Y-103884320D01*
X104558574Y-103776147D01*
X104281335Y-103721000D01*
X103998665Y-103721000D01*
X103721426Y-103776147D01*
X103460273Y-103884320D01*
X103225241Y-104041363D01*
X103025363Y-104241241D01*
X102870000Y-104473759D01*
X102714637Y-104241241D01*
X102514759Y-104041363D01*
X102279727Y-103884320D01*
X102018574Y-103776147D01*
X101741335Y-103721000D01*
X101458665Y-103721000D01*
X101181426Y-103776147D01*
X100920273Y-103884320D01*
X100685241Y-104041363D01*
X100485363Y-104241241D01*
X100330000Y-104473759D01*
X100174637Y-104241241D01*
X99974759Y-104041363D01*
X99739727Y-103884320D01*
X99478574Y-103776147D01*
X99201335Y-103721000D01*
X98918665Y-103721000D01*
X98641426Y-103776147D01*
X98380273Y-103884320D01*
X98145241Y-104041363D01*
X97945363Y-104241241D01*
X97790000Y-104473759D01*
X97634637Y-104241241D01*
X97434759Y-104041363D01*
X97199727Y-103884320D01*
X96938574Y-103776147D01*
X96661335Y-103721000D01*
X96378665Y-103721000D01*
X96101426Y-103776147D01*
X95840273Y-103884320D01*
X95605241Y-104041363D01*
X95405363Y-104241241D01*
X95250000Y-104473759D01*
X95094637Y-104241241D01*
X94894759Y-104041363D01*
X94865000Y-104021479D01*
X94865000Y-90304578D01*
X116927051Y-68242528D01*
X116960817Y-68214817D01*
X117071411Y-68080059D01*
X117147034Y-67938577D01*
X117153589Y-67926314D01*
X117204195Y-67759490D01*
X117210173Y-67698790D01*
X117217000Y-67629477D01*
X117217000Y-67629469D01*
X117221281Y-67586000D01*
X117217000Y-67542531D01*
X117217000Y-67445441D01*
X117422661Y-67276661D01*
X117602000Y-67058135D01*
X117781339Y-67276661D01*
X118015073Y-67468481D01*
X118281739Y-67611017D01*
X118571087Y-67698790D01*
X118872000Y-67728427D01*
X119172912Y-67698790D01*
X119462260Y-67611017D01*
X119728926Y-67468481D01*
X119962661Y-67276661D01*
X120142000Y-67058135D01*
X120321339Y-67276661D01*
X120555073Y-67468481D01*
X120821739Y-67611017D01*
X121111087Y-67698790D01*
X121412000Y-67728427D01*
X121712912Y-67698790D01*
X122002260Y-67611017D01*
X122268926Y-67468481D01*
X122502661Y-67276661D01*
X122682000Y-67058135D01*
X122861339Y-67276661D01*
X123095073Y-67468481D01*
X123361739Y-67611017D01*
X123651087Y-67698790D01*
X123952000Y-67728427D01*
X124252912Y-67698790D01*
X124542260Y-67611017D01*
X124808926Y-67468481D01*
X125042661Y-67276661D01*
X125222000Y-67058135D01*
X125401339Y-67276661D01*
X125635073Y-67468481D01*
X125901739Y-67611017D01*
X126191087Y-67698790D01*
X126492000Y-67728427D01*
X126792912Y-67698790D01*
X127082260Y-67611017D01*
X127348926Y-67468481D01*
X127582661Y-67276661D01*
X127762000Y-67058135D01*
X127941339Y-67276661D01*
X128175073Y-67468481D01*
X128441739Y-67611017D01*
X128731087Y-67698790D01*
X129032000Y-67728427D01*
X129332912Y-67698790D01*
X129622260Y-67611017D01*
X129888926Y-67468481D01*
X130122661Y-67276661D01*
X130302000Y-67058135D01*
X130481339Y-67276661D01*
X130715073Y-67468481D01*
X130981739Y-67611017D01*
X131271087Y-67698790D01*
X131572000Y-67728427D01*
X131872912Y-67698790D01*
X132162260Y-67611017D01*
X132428926Y-67468481D01*
X132662661Y-67276661D01*
X132842000Y-67058135D01*
X132963832Y-67206589D01*
%TA.AperFunction,NonConductor*%
D32*
G36*
X132963832Y-67206589D02*
G01*
X111164952Y-89005470D01*
X111131184Y-89033183D01*
X111103471Y-89066951D01*
X111103468Y-89066954D01*
X111020590Y-89167941D01*
X110938412Y-89321687D01*
X110887805Y-89488510D01*
X110870719Y-89662000D01*
X110875001Y-89705479D01*
X110875000Y-104021479D01*
X110845241Y-104041363D01*
X110645363Y-104241241D01*
X110490000Y-104473759D01*
X110334637Y-104241241D01*
X110134759Y-104041363D01*
X109899727Y-103884320D01*
X109638574Y-103776147D01*
X109361335Y-103721000D01*
X109078665Y-103721000D01*
X108801426Y-103776147D01*
X108540273Y-103884320D01*
X108305241Y-104041363D01*
X108105363Y-104241241D01*
X107950000Y-104473759D01*
X107794637Y-104241241D01*
X107594759Y-104041363D01*
X107359727Y-103884320D01*
X107098574Y-103776147D01*
X106821335Y-103721000D01*
X106538665Y-103721000D01*
X106261426Y-103776147D01*
X106000273Y-103884320D01*
X105765241Y-104041363D01*
X105565363Y-104241241D01*
X105410000Y-104473759D01*
X105254637Y-104241241D01*
X105054759Y-104041363D01*
X104819727Y-103884320D01*
X104558574Y-103776147D01*
X104281335Y-103721000D01*
X103998665Y-103721000D01*
X103721426Y-103776147D01*
X103460273Y-103884320D01*
X103225241Y-104041363D01*
X103025363Y-104241241D01*
X102870000Y-104473759D01*
X102714637Y-104241241D01*
X102514759Y-104041363D01*
X102279727Y-103884320D01*
X102018574Y-103776147D01*
X101741335Y-103721000D01*
X101458665Y-103721000D01*
X101181426Y-103776147D01*
X100920273Y-103884320D01*
X100685241Y-104041363D01*
X100485363Y-104241241D01*
X100330000Y-104473759D01*
X100174637Y-104241241D01*
X99974759Y-104041363D01*
X99739727Y-103884320D01*
X99478574Y-103776147D01*
X99201335Y-103721000D01*
X98918665Y-103721000D01*
X98641426Y-103776147D01*
X98380273Y-103884320D01*
X98145241Y-104041363D01*
X97945363Y-104241241D01*
X97790000Y-104473759D01*
X97634637Y-104241241D01*
X97434759Y-104041363D01*
X97199727Y-103884320D01*
X96938574Y-103776147D01*
X96661335Y-103721000D01*
X96378665Y-103721000D01*
X96101426Y-103776147D01*
X95840273Y-103884320D01*
X95605241Y-104041363D01*
X95405363Y-104241241D01*
X95250000Y-104473759D01*
X95094637Y-104241241D01*
X94894759Y-104041363D01*
X94865000Y-104021479D01*
X94865000Y-90304578D01*
X116927051Y-68242528D01*
X116960817Y-68214817D01*
X117071411Y-68080059D01*
X117147034Y-67938577D01*
X117153589Y-67926314D01*
X117204195Y-67759490D01*
X117210173Y-67698790D01*
X117217000Y-67629477D01*
X117217000Y-67629469D01*
X117221281Y-67586000D01*
X117217000Y-67542531D01*
X117217000Y-67445441D01*
X117422661Y-67276661D01*
X117602000Y-67058135D01*
X117781339Y-67276661D01*
X118015073Y-67468481D01*
X118281739Y-67611017D01*
X118571087Y-67698790D01*
X118872000Y-67728427D01*
X119172912Y-67698790D01*
X119462260Y-67611017D01*
X119728926Y-67468481D01*
X119962661Y-67276661D01*
X120142000Y-67058135D01*
X120321339Y-67276661D01*
X120555073Y-67468481D01*
X120821739Y-67611017D01*
X121111087Y-67698790D01*
X121412000Y-67728427D01*
X121712912Y-67698790D01*
X122002260Y-67611017D01*
X122268926Y-67468481D01*
X122502661Y-67276661D01*
X122682000Y-67058135D01*
X122861339Y-67276661D01*
X123095073Y-67468481D01*
X123361739Y-67611017D01*
X123651087Y-67698790D01*
X123952000Y-67728427D01*
X124252912Y-67698790D01*
X124542260Y-67611017D01*
X124808926Y-67468481D01*
X125042661Y-67276661D01*
X125222000Y-67058135D01*
X125401339Y-67276661D01*
X125635073Y-67468481D01*
X125901739Y-67611017D01*
X126191087Y-67698790D01*
X126492000Y-67728427D01*
X126792912Y-67698790D01*
X127082260Y-67611017D01*
X127348926Y-67468481D01*
X127582661Y-67276661D01*
X127762000Y-67058135D01*
X127941339Y-67276661D01*
X128175073Y-67468481D01*
X128441739Y-67611017D01*
X128731087Y-67698790D01*
X129032000Y-67728427D01*
X129332912Y-67698790D01*
X129622260Y-67611017D01*
X129888926Y-67468481D01*
X130122661Y-67276661D01*
X130302000Y-67058135D01*
X130481339Y-67276661D01*
X130715073Y-67468481D01*
X130981739Y-67611017D01*
X131271087Y-67698790D01*
X131572000Y-67728427D01*
X131872912Y-67698790D01*
X132162260Y-67611017D01*
X132428926Y-67468481D01*
X132662661Y-67276661D01*
X132842000Y-67058135D01*
X132963832Y-67206589D01*
G37*
%TD.AperFunction*%
D31*
X143181339Y-67276661D02*
X143415073Y-67468481D01*
X143681739Y-67611017D01*
X143971087Y-67698790D01*
X144272000Y-67728427D01*
X144572912Y-67698790D01*
X144862260Y-67611017D01*
X145128926Y-67468481D01*
X145317505Y-67313720D01*
X145322498Y-67330180D01*
X145381463Y-67440494D01*
X145460815Y-67537185D01*
X145557506Y-67616537D01*
X145667820Y-67675502D01*
X145787518Y-67711812D01*
X145912000Y-67724072D01*
X147705000Y-67724072D01*
X147705000Y-70499421D01*
X114476439Y-103727983D01*
X114441335Y-103721000D01*
X114158665Y-103721000D01*
X113881426Y-103776147D01*
X113620273Y-103884320D01*
X113385241Y-104041363D01*
X113185363Y-104241241D01*
X113030000Y-104473759D01*
X112874637Y-104241241D01*
X112674759Y-104041363D01*
X112645000Y-104021479D01*
X112645000Y-90028578D01*
X134707051Y-67966528D01*
X134740817Y-67938817D01*
X134851411Y-67804059D01*
X134851412Y-67804058D01*
X134933589Y-67650314D01*
X134984195Y-67483490D01*
X134985673Y-67468481D01*
X134987146Y-67453528D01*
X135202661Y-67276661D01*
X135382000Y-67058135D01*
X135561339Y-67276661D01*
X135795073Y-67468481D01*
X136061739Y-67611017D01*
X136351087Y-67698790D01*
X136652000Y-67728427D01*
X136952912Y-67698790D01*
X137242260Y-67611017D01*
X137508926Y-67468481D01*
X137742661Y-67276661D01*
X137922000Y-67058135D01*
X138101339Y-67276661D01*
X138335073Y-67468481D01*
X138601739Y-67611017D01*
X138891087Y-67698790D01*
X139192000Y-67728427D01*
X139492912Y-67698790D01*
X139782260Y-67611017D01*
X140048926Y-67468481D01*
X140282661Y-67276661D01*
X140462000Y-67058135D01*
X140641339Y-67276661D01*
X140875073Y-67468481D01*
X141141739Y-67611017D01*
X141431087Y-67698790D01*
X141732000Y-67728427D01*
X142032912Y-67698790D01*
X142322260Y-67611017D01*
X142588926Y-67468481D01*
X142822661Y-67276661D01*
X143002000Y-67058135D01*
X143181339Y-67276661D01*
%TA.AperFunction,NonConductor*%
D32*
G36*
X143181339Y-67276661D02*
G01*
X143415073Y-67468481D01*
X143681739Y-67611017D01*
X143971087Y-67698790D01*
X144272000Y-67728427D01*
X144572912Y-67698790D01*
X144862260Y-67611017D01*
X145128926Y-67468481D01*
X145317505Y-67313720D01*
X145322498Y-67330180D01*
X145381463Y-67440494D01*
X145460815Y-67537185D01*
X145557506Y-67616537D01*
X145667820Y-67675502D01*
X145787518Y-67711812D01*
X145912000Y-67724072D01*
X147705000Y-67724072D01*
X147705000Y-70499421D01*
X114476439Y-103727983D01*
X114441335Y-103721000D01*
X114158665Y-103721000D01*
X113881426Y-103776147D01*
X113620273Y-103884320D01*
X113385241Y-104041363D01*
X113185363Y-104241241D01*
X113030000Y-104473759D01*
X112874637Y-104241241D01*
X112674759Y-104041363D01*
X112645000Y-104021479D01*
X112645000Y-90028578D01*
X134707051Y-67966528D01*
X134740817Y-67938817D01*
X134851411Y-67804059D01*
X134851412Y-67804058D01*
X134933589Y-67650314D01*
X134984195Y-67483490D01*
X134985673Y-67468481D01*
X134987146Y-67453528D01*
X135202661Y-67276661D01*
X135382000Y-67058135D01*
X135561339Y-67276661D01*
X135795073Y-67468481D01*
X136061739Y-67611017D01*
X136351087Y-67698790D01*
X136652000Y-67728427D01*
X136952912Y-67698790D01*
X137242260Y-67611017D01*
X137508926Y-67468481D01*
X137742661Y-67276661D01*
X137922000Y-67058135D01*
X138101339Y-67276661D01*
X138335073Y-67468481D01*
X138601739Y-67611017D01*
X138891087Y-67698790D01*
X139192000Y-67728427D01*
X139492912Y-67698790D01*
X139782260Y-67611017D01*
X140048926Y-67468481D01*
X140282661Y-67276661D01*
X140462000Y-67058135D01*
X140641339Y-67276661D01*
X140875073Y-67468481D01*
X141141739Y-67611017D01*
X141431087Y-67698790D01*
X141732000Y-67728427D01*
X142032912Y-67698790D01*
X142322260Y-67611017D01*
X142588926Y-67468481D01*
X142822661Y-67276661D01*
X143002000Y-67058135D01*
X143181339Y-67276661D01*
G37*
%TD.AperFunction*%
D31*
X91494981Y-100547440D02*
X88304951Y-103737471D01*
X88271184Y-103765183D01*
X88243471Y-103798951D01*
X88243468Y-103798954D01*
X88173410Y-103884320D01*
X88160590Y-103899941D01*
X88140421Y-103937675D01*
X87985241Y-104041363D01*
X87785363Y-104241241D01*
X87630000Y-104473759D01*
X87590674Y-104414904D01*
X91494981Y-100510598D01*
X91494981Y-100547440D01*
%TA.AperFunction,NonConductor*%
D32*
G36*
X91494981Y-100547440D02*
G01*
X88304951Y-103737471D01*
X88271184Y-103765183D01*
X88243471Y-103798951D01*
X88243468Y-103798954D01*
X88173410Y-103884320D01*
X88160590Y-103899941D01*
X88140421Y-103937675D01*
X87985241Y-104041363D01*
X87785363Y-104241241D01*
X87630000Y-104473759D01*
X87590674Y-104414904D01*
X91494981Y-100510598D01*
X91494981Y-100547440D01*
G37*
%TD.AperFunction*%
D31*
X90562912Y-104016192D02*
X90525241Y-104041363D01*
X90325363Y-104241241D01*
X90170000Y-104473759D01*
X90130674Y-104414904D01*
X90566575Y-103979004D01*
X90562912Y-104016192D01*
%TA.AperFunction,NonConductor*%
D32*
G36*
X90562912Y-104016192D02*
G01*
X90525241Y-104041363D01*
X90325363Y-104241241D01*
X90170000Y-104473759D01*
X90130674Y-104414904D01*
X90566575Y-103979004D01*
X90562912Y-104016192D01*
G37*
%TD.AperFunction*%
D31*
X93095000Y-104021479D02*
X93065241Y-104041363D01*
X92865363Y-104241241D01*
X92710000Y-104473759D01*
X92568937Y-104262642D01*
X93095000Y-103736578D01*
X93095000Y-104021479D01*
%TA.AperFunction,NonConductor*%
D32*
G36*
X93095000Y-104021479D02*
G01*
X93065241Y-104041363D01*
X92865363Y-104241241D01*
X92710000Y-104473759D01*
X92568937Y-104262642D01*
X93095000Y-103736578D01*
X93095000Y-104021479D01*
G37*
%TD.AperFunction*%
D31*
X110161339Y-67276661D02*
X110367001Y-67445443D01*
X110367000Y-69852807D01*
X109597000Y-70622807D01*
X109597000Y-67445441D01*
X109802661Y-67276661D01*
X109982000Y-67058135D01*
X110161339Y-67276661D01*
%TA.AperFunction,NonConductor*%
D32*
G36*
X110161339Y-67276661D02*
G01*
X110367001Y-67445443D01*
X110367000Y-69852807D01*
X109597000Y-70622807D01*
X109597000Y-67445441D01*
X109802661Y-67276661D01*
X109982000Y-67058135D01*
X110161339Y-67276661D01*
G37*
%TD.AperFunction*%
D31*
X112701339Y-67276661D02*
X112907000Y-67445443D01*
X112907000Y-68444193D01*
X112137000Y-69214193D01*
X112137000Y-67445441D01*
X112342661Y-67276661D01*
X112522000Y-67058135D01*
X112701339Y-67276661D01*
%TA.AperFunction,NonConductor*%
D32*
G36*
X112701339Y-67276661D02*
G01*
X112907000Y-67445443D01*
X112907000Y-68444193D01*
X112137000Y-69214193D01*
X112137000Y-67445441D01*
X112342661Y-67276661D01*
X112522000Y-67058135D01*
X112701339Y-67276661D01*
G37*
%TD.AperFunction*%
D31*
X115241339Y-67276661D02*
X115322859Y-67343562D01*
X114677000Y-67989421D01*
X114677000Y-67445441D01*
X114882661Y-67276661D01*
X115062000Y-67058135D01*
X115241339Y-67276661D01*
%TA.AperFunction,NonConductor*%
D32*
G36*
X115241339Y-67276661D02*
G01*
X115322859Y-67343562D01*
X114677000Y-67989421D01*
X114677000Y-67445441D01*
X114882661Y-67276661D01*
X115062000Y-67058135D01*
X115241339Y-67276661D01*
G37*
%TD.AperFunction*%
D31*
X138101339Y-64295339D02*
X137922000Y-64513865D01*
X137742661Y-64295339D01*
X137542413Y-64131000D01*
X138301588Y-64131000D01*
X138101339Y-64295339D01*
%TA.AperFunction,NonConductor*%
D32*
G36*
X138101339Y-64295339D02*
G01*
X137922000Y-64513865D01*
X137742661Y-64295339D01*
X137542413Y-64131000D01*
X138301588Y-64131000D01*
X138101339Y-64295339D01*
G37*
%TD.AperFunction*%
D31*
X143181339Y-64295339D02*
X143002000Y-64513865D01*
X142822661Y-64295339D01*
X142622413Y-64131000D01*
X143381588Y-64131000D01*
X143181339Y-64295339D01*
%TA.AperFunction,NonConductor*%
D32*
G36*
X143181339Y-64295339D02*
G01*
X143002000Y-64513865D01*
X142822661Y-64295339D01*
X142622413Y-64131000D01*
X143381588Y-64131000D01*
X143181339Y-64295339D01*
G37*
%TD.AperFunction*%
D31*
X130302000Y-64513865D02*
X130294659Y-64504920D01*
X130376534Y-64423044D01*
X130302000Y-64513865D01*
%TA.AperFunction,NonConductor*%
D32*
G36*
X130302000Y-64513865D02*
G01*
X130294659Y-64504920D01*
X130376534Y-64423044D01*
X130302000Y-64513865D01*
G37*
%TD.AperFunction*%
D31*
X133021339Y-64295339D02*
X132842000Y-64513865D01*
X132662661Y-64295339D01*
X132462413Y-64131000D01*
X133221588Y-64131000D01*
X133021339Y-64295339D01*
%TA.AperFunction,NonConductor*%
D32*
G36*
X133021339Y-64295339D02*
G01*
X132842000Y-64513865D01*
X132662661Y-64295339D01*
X132462413Y-64131000D01*
X133221588Y-64131000D01*
X133021339Y-64295339D01*
G37*
%TD.AperFunction*%
D31*
X135561339Y-64295339D02*
X135382000Y-64513865D01*
X135202661Y-64295339D01*
X135002413Y-64131000D01*
X135761588Y-64131000D01*
X135561339Y-64295339D01*
%TA.AperFunction,NonConductor*%
D32*
G36*
X135561339Y-64295339D02*
G01*
X135382000Y-64513865D01*
X135202661Y-64295339D01*
X135002413Y-64131000D01*
X135761588Y-64131000D01*
X135561339Y-64295339D01*
G37*
%TD.AperFunction*%
D31*
X140641339Y-64295339D02*
X140462000Y-64513865D01*
X140282661Y-64295339D01*
X140082413Y-64131000D01*
X140841588Y-64131000D01*
X140641339Y-64295339D01*
%TA.AperFunction,NonConductor*%
D32*
G36*
X140641339Y-64295339D02*
G01*
X140462000Y-64513865D01*
X140282661Y-64295339D01*
X140082413Y-64131000D01*
X140841588Y-64131000D01*
X140641339Y-64295339D01*
G37*
%TD.AperFunction*%
D31*
X145381463Y-64131506D02*
X145322498Y-64241820D01*
X145317505Y-64258280D01*
X145162413Y-64131000D01*
X145381878Y-64131000D01*
X145381463Y-64131506D01*
%TA.AperFunction,NonConductor*%
D32*
G36*
X145381463Y-64131506D02*
G01*
X145322498Y-64241820D01*
X145317505Y-64258280D01*
X145162413Y-64131000D01*
X145381878Y-64131000D01*
X145381463Y-64131506D01*
G37*
%TD.AperFunction*%
D31*
X130609043Y-64190536D02*
X130668579Y-64131000D01*
X130681588Y-64131000D01*
X130609043Y-64190536D01*
%TA.AperFunction,NonConductor*%
D32*
G36*
X130609043Y-64190536D02*
G01*
X130668579Y-64131000D01*
X130681588Y-64131000D01*
X130609043Y-64190536D01*
G37*
%TD.AperFunction*%
M02*
