M48
; DRILL file {KiCad (5.1.8)-1} date 02/19/21 15:18:45
; FORMAT={-:-/ absolute / inch / decimal}
; #@! TF.CreationDate,2021-02-19T15:18:45-03:00
; #@! TF.GenerationSoftware,Kicad,Pcbnew,(5.1.8)-1
; #@! TF.FileFunction,Plated,1,2,PTH
FMAT,2
INCH
T1C0.0295
T2C0.0315
T3C0.0354
T4C0.0394
T5C0.0433
T6C0.0472
T7C0.0598
T8C0.0984
%
G90
G05
T1
X4.61Y-4.73
X4.66Y-4.73
X4.71Y-4.73
T2
X4.05Y-4.5732
X4.2469Y-4.5732
X3.4758Y-4.7839
X3.51Y-4.59
X4.15Y-4.7031
X4.15Y-4.9
X3.4Y-4.14
X3.4Y-4.44
X3.5Y-4.14
X3.5Y-4.44
X3.6Y-4.14
X3.6Y-4.44
X3.7Y-4.14
X3.7Y-4.44
X3.8Y-4.14
X3.8Y-4.44
X3.9Y-4.14
X3.9Y-4.44
X4.0Y-4.14
X4.0Y-4.44
X4.1Y-4.14
X4.1Y-4.44
X4.2Y-4.14
X4.2Y-4.44
X4.3Y-4.14
X4.3Y-4.44
X4.4Y-4.14
X4.4Y-4.44
X4.5Y-4.14
X4.5Y-4.44
X4.6Y-4.14
X4.6Y-4.44
X4.7Y-4.14
X4.7Y-4.44
X4.825Y-4.625
X5.225Y-4.625
X4.825Y-4.8
X5.225Y-4.8
X3.6972Y-4.7079
X3.8902Y-4.7079
T3
X3.1694Y-3.8166
X3.3Y-4.1
X3.525Y-3.975
X3.6199Y-3.975
X3.7Y-3.975
X3.775Y-3.975
X3.9Y-3.975
X3.99Y-3.98
X4.395Y-4.73
X4.75Y-4.58
X4.88Y-3.97
X5.31Y-4.565
X5.375Y-3.025
X5.575Y-2.85
X5.675Y-2.9
T4
X5.4157Y-4.9993
X5.4731Y-4.9174
X5.7025Y-4.5897
X5.8746Y-4.344
X5.6331Y-3.1484
X5.83Y-3.05
X5.83Y-3.2469
X4.34Y-5.06
X4.44Y-5.06
X4.54Y-5.06
X4.64Y-5.06
X4.74Y-5.06
X4.84Y-5.06
X4.94Y-5.06
X5.04Y-5.06
T5
X5.31Y-4.18
X5.31Y-4.28
X5.31Y-4.38
T6
X4.28Y-2.59
X4.38Y-2.59
X4.48Y-2.59
X4.58Y-2.59
X4.68Y-2.59
X4.78Y-2.59
X4.88Y-2.59
X4.98Y-2.59
X5.08Y-2.59
X5.18Y-2.59
X5.28Y-2.59
X5.38Y-2.59
X5.48Y-2.59
X5.58Y-2.59
X5.68Y-2.59
X5.78Y-2.59
T7
X3.25Y-2.64
X3.45Y-2.64
X3.65Y-2.64
X3.89Y-2.64
X4.09Y-2.64
T8
X3.0238Y-3.21
X3.14Y-3.39
X3.26Y-3.21
X3.0438Y-2.59
X3.0438Y-3.8105
X5.9965Y-2.59
X5.9965Y-3.8105
T4
G00X3.0238Y-3.1706
M15
G01X3.0238Y-3.2494
M16
G05
G00X3.1025Y-3.395
M15
G01X3.1813Y-3.395
M16
G05
G00X3.26Y-3.1706
M15
G01X3.26Y-3.2494
M16
G05
T0
M30
