%TF.GenerationSoftware,KiCad,Pcbnew,(5.1.8)-1*%
%TF.CreationDate,2021-02-19T10:47:01-03:00*%
%TF.ProjectId,esquema,65737175-656d-4612-9e6b-696361645f70,rev?*%
%TF.SameCoordinates,Original*%
%TF.FileFunction,Copper,L1,Top*%
%TF.FilePolarity,Positive*%
%FSLAX46Y46*%
G04 Gerber Fmt 4.6, Leading zero omitted, Abs format (unit mm)*
G04 Created by KiCad (PCBNEW (5.1.8)-1) date 2021-02-19 10:47:01*
%MOMM*%
%LPD*%
G01*
G04 APERTURE LIST*
%TA.AperFunction,ComponentPad*%
%ADD10C,0.500000*%
%TD*%
%TA.AperFunction,ComponentPad*%
%ADD11C,1.508000*%
%TD*%
%TA.AperFunction,ComponentPad*%
%ADD12R,1.600000X1.600000*%
%TD*%
%TA.AperFunction,ComponentPad*%
%ADD13O,1.600000X1.600000*%
%TD*%
%TA.AperFunction,ComponentPad*%
%ADD14R,1.800000X2.600000*%
%TD*%
%TA.AperFunction,ComponentPad*%
%ADD15O,1.800000X2.600000*%
%TD*%
%TA.AperFunction,ComponentPad*%
%ADD16C,3.000000*%
%TD*%
%TA.AperFunction,ComponentPad*%
%ADD17R,1.050000X1.500000*%
%TD*%
%TA.AperFunction,ComponentPad*%
%ADD18O,1.050000X1.500000*%
%TD*%
%TA.AperFunction,ComponentPad*%
%ADD19C,1.600000*%
%TD*%
%TA.AperFunction,ComponentPad*%
%ADD20R,3.500000X3.500000*%
%TD*%
%TA.AperFunction,ComponentPad*%
%ADD21R,1.700000X1.700000*%
%TD*%
%TA.AperFunction,ComponentPad*%
%ADD22O,1.700000X1.700000*%
%TD*%
%TA.AperFunction,ComponentPad*%
%ADD23R,3.000000X3.000000*%
%TD*%
%TA.AperFunction,ComponentPad*%
%ADD24C,1.550000*%
%TD*%
%TA.AperFunction,ComponentPad*%
%ADD25R,1.550000X1.550000*%
%TD*%
%TA.AperFunction,ComponentPad*%
%ADD26R,2.000000X1.905000*%
%TD*%
%TA.AperFunction,ComponentPad*%
%ADD27O,2.000000X1.905000*%
%TD*%
%TA.AperFunction,ComponentPad*%
%ADD28C,1.500000*%
%TD*%
%TA.AperFunction,ViaPad*%
%ADD29C,1.500000*%
%TD*%
%TA.AperFunction,Conductor*%
%ADD30C,0.700000*%
%TD*%
%TA.AperFunction,Conductor*%
%ADD31C,0.500000*%
%TD*%
%TA.AperFunction,NonConductor*%
%ADD32C,0.254000*%
%TD*%
%TA.AperFunction,NonConductor*%
%ADD33C,0.500000*%
%TD*%
G04 APERTURE END LIST*
%TA.AperFunction,ComponentPad*%
D10*
%TO.P,K1,1*%
%TO.N,Net-(J3-Pad2)*%
G36*
X149399513Y-111386539D02*
G01*
X148164232Y-110521586D01*
X149029185Y-109286305D01*
X150264466Y-110151258D01*
X149399513Y-111386539D01*
G37*
%TD.AperFunction*%
D11*
%TO.P,K1,2*%
%TO.N,Net-(J3-Pad1)*%
X144843697Y-116578361D03*
%TO.P,K1,3*%
%TO.N,Pino_13*%
X139016160Y-124900946D03*
%TO.P,K1,4*%
%TO.N,GND*%
X137559276Y-126981592D03*
%TD*%
D12*
%TO.P,U1,1*%
%TO.N,vcc*%
X86360000Y-112776000D03*
D13*
%TO.P,U1,15*%
%TO.N,Pino_9*%
X119380000Y-105156000D03*
%TO.P,U1,2*%
%TO.N,Net-(U1-Pad2)*%
X88900000Y-112776000D03*
%TO.P,U1,16*%
%TO.N,Pino_10*%
X116840000Y-105156000D03*
%TO.P,U1,3*%
%TO.N,Net-(U1-Pad3)*%
X91440000Y-112776000D03*
%TO.P,U1,17*%
%TO.N,Pino_11*%
X114300000Y-105156000D03*
%TO.P,U1,4*%
%TO.N,Pino_2_int*%
X93980000Y-112776000D03*
%TO.P,U1,18*%
%TO.N,Pino_12*%
X111760000Y-105156000D03*
%TO.P,U1,5*%
%TO.N,Pino_3*%
X96520000Y-112776000D03*
%TO.P,U1,19*%
%TO.N,Pino_13*%
X109220000Y-105156000D03*
%TO.P,U1,6*%
%TO.N,Pino_4*%
X99060000Y-112776000D03*
%TO.P,U1,20*%
%TO.N,vcc*%
X106680000Y-105156000D03*
%TO.P,U1,7*%
X101600000Y-112776000D03*
%TO.P,U1,21*%
%TO.N,Net-(U1-Pad21)*%
X104140000Y-105156000D03*
%TO.P,U1,8*%
%TO.N,GND*%
X104140000Y-112776000D03*
%TO.P,U1,22*%
X101600000Y-105156000D03*
%TO.P,U1,9*%
%TO.N,Net-(C1-Pad2)*%
X106680000Y-112776000D03*
%TO.P,U1,23*%
%TO.N,Net-(U1-Pad23)*%
X99060000Y-105156000D03*
%TO.P,U1,10*%
%TO.N,Net-(C2-Pad2)*%
X109220000Y-112776000D03*
%TO.P,U1,24*%
%TO.N,Net-(U1-Pad24)*%
X96520000Y-105156000D03*
%TO.P,U1,11*%
%TO.N,Pino_5*%
X111760000Y-112776000D03*
%TO.P,U1,25*%
%TO.N,Pino_16_A2*%
X93980000Y-105156000D03*
%TO.P,U1,12*%
%TO.N,Pino_6*%
X114300000Y-112776000D03*
%TO.P,U1,26*%
%TO.N,Pino_17_A3*%
X91440000Y-105156000D03*
%TO.P,U1,13*%
%TO.N,Pino_7*%
X116840000Y-112776000D03*
%TO.P,U1,27*%
%TO.N,Pino_18_A4*%
X88900000Y-105156000D03*
%TO.P,U1,14*%
%TO.N,Pino_8*%
X119380000Y-112776000D03*
%TO.P,U1,28*%
%TO.N,Pino_19_A5*%
X86360000Y-105156000D03*
%TD*%
D14*
%TO.P,DS1,1*%
%TO.N,GND*%
X146812000Y-65786000D03*
D15*
%TO.P,DS1,2*%
%TO.N,vcc*%
X144272000Y-65786000D03*
%TO.P,DS1,3*%
%TO.N,GND*%
X141732000Y-65786000D03*
%TO.P,DS1,4*%
%TO.N,vcc*%
X139192000Y-65786000D03*
%TO.P,DS1,5*%
%TO.N,Net-(DS1-Pad5)*%
X136652000Y-65786000D03*
%TO.P,DS1,6*%
%TO.N,Pino_12*%
X134112000Y-65786000D03*
%TO.P,DS1,7*%
%TO.N,GND*%
X131572000Y-65786000D03*
%TO.P,DS1,8*%
%TO.N,Pino_11*%
X129032000Y-65786000D03*
%TO.P,DS1,9*%
%TO.N,Net-(DS1-Pad9)*%
X126492000Y-65786000D03*
%TO.P,DS1,10*%
%TO.N,Net-(DS1-Pad10)*%
X123952000Y-65786000D03*
%TO.P,DS1,11*%
%TO.N,Net-(DS1-Pad11)*%
X121412000Y-65786000D03*
%TO.P,DS1,12*%
%TO.N,Net-(DS1-Pad12)*%
X118872000Y-65786000D03*
%TO.P,DS1,13*%
%TO.N,Pino_16_A2*%
X116332000Y-65786000D03*
%TO.P,DS1,14*%
%TO.N,Pino_17_A3*%
X113792000Y-65786000D03*
%TO.P,DS1,15*%
%TO.N,Pino_18_A4*%
X111252000Y-65786000D03*
%TO.P,DS1,16*%
%TO.N,Pino_19_A5*%
X108712000Y-65786000D03*
D16*
%TO.P,DS1,*%
%TO.N,*%
X152311100Y-65786000D03*
X152311100Y-96786700D03*
X77312520Y-96786700D03*
X77312000Y-65786000D03*
%TD*%
D17*
%TO.P,Q1,1*%
%TO.N,Pino_2_int*%
X119634000Y-120142000D03*
D18*
%TO.P,Q1,3*%
%TO.N,vcc*%
X117094000Y-120142000D03*
%TO.P,Q1,2*%
%TO.N,Net-(J4-Pad2)*%
X118364000Y-120142000D03*
%TD*%
D19*
%TO.P,C1,1*%
%TO.N,GND*%
X105410000Y-124460000D03*
%TO.P,C1,2*%
%TO.N,Net-(C1-Pad2)*%
X105410000Y-119460000D03*
%TD*%
%TO.P,C2,2*%
%TO.N,Net-(C2-Pad2)*%
X89154000Y-116586000D03*
%TO.P,C2,1*%
%TO.N,GND*%
X88285759Y-121510039D03*
%TD*%
D20*
%TO.P,J1,1*%
%TO.N,vcc_12v*%
X82804000Y-81534000D03*
%TO.P,J1,2*%
%TO.N,GND*%
%TA.AperFunction,ComponentPad*%
G36*
G01*
X75304000Y-82534000D02*
X75304000Y-80534000D01*
G75*
G02*
X76054000Y-79784000I750000J0D01*
G01*
X77554000Y-79784000D01*
G75*
G02*
X78304000Y-80534000I0J-750000D01*
G01*
X78304000Y-82534000D01*
G75*
G02*
X77554000Y-83284000I-750000J0D01*
G01*
X76054000Y-83284000D01*
G75*
G02*
X75304000Y-82534000I0J750000D01*
G01*
G37*
%TD.AperFunction*%
%TO.P,J1,3*%
%TO.N,N/C*%
%TA.AperFunction,ComponentPad*%
G36*
G01*
X78054000Y-87109000D02*
X78054000Y-85359000D01*
G75*
G02*
X78929000Y-84484000I875000J0D01*
G01*
X80679000Y-84484000D01*
G75*
G02*
X81554000Y-85359000I0J-875000D01*
G01*
X81554000Y-87109000D01*
G75*
G02*
X80679000Y-87984000I-875000J0D01*
G01*
X78929000Y-87984000D01*
G75*
G02*
X78054000Y-87109000I0J875000D01*
G01*
G37*
%TD.AperFunction*%
%TD*%
D21*
%TO.P,J2,1*%
%TO.N,Pino_10*%
X110236000Y-128524000D03*
D22*
%TO.P,J2,2*%
%TO.N,Pino_9*%
X112776000Y-128524000D03*
%TO.P,J2,3*%
%TO.N,Pino_8*%
X115316000Y-128524000D03*
%TO.P,J2,4*%
%TO.N,Pino_7*%
X117856000Y-128524000D03*
%TO.P,J2,5*%
%TO.N,Pino_6*%
X120396000Y-128524000D03*
%TO.P,J2,6*%
%TO.N,Pino_5*%
X122936000Y-128524000D03*
%TO.P,J2,7*%
%TO.N,Pino_4*%
X125476000Y-128524000D03*
%TO.P,J2,8*%
%TO.N,Pino_3*%
X128016000Y-128524000D03*
%TD*%
D23*
%TO.P,J3,1*%
%TO.N,Net-(J3-Pad1)*%
X103886000Y-67056000D03*
D16*
%TO.P,J3,2*%
%TO.N,Net-(J3-Pad2)*%
X98806000Y-67056000D03*
%TD*%
D23*
%TO.P,J4,1*%
%TO.N,vcc_12v*%
X92710000Y-67056000D03*
D16*
%TO.P,J4,2*%
%TO.N,Net-(J4-Pad2)*%
X87630000Y-67056000D03*
%TO.P,J4,3*%
%TO.N,GND*%
X82550000Y-67056000D03*
%TD*%
D24*
%TO.P,RV1,3*%
%TO.N,GND*%
X148082000Y-82470000D03*
D25*
%TO.P,RV1,1*%
%TO.N,vcc*%
X148082000Y-77470000D03*
D24*
%TO.P,RV1,2*%
%TO.N,Net-(DS1-Pad5)*%
X143082000Y-79970000D03*
%TD*%
D26*
%TO.P,U2,1*%
%TO.N,vcc_12v*%
X134874000Y-106172000D03*
D27*
%TO.P,U2,2*%
%TO.N,GND*%
X134874000Y-108712000D03*
%TO.P,U2,3*%
%TO.N,vcc*%
X134874000Y-111252000D03*
%TD*%
D28*
%TO.P,Y1,1*%
%TO.N,Net-(C1-Pad2)*%
X98810000Y-119580000D03*
%TO.P,Y1,2*%
%TO.N,Net-(C2-Pad2)*%
X93910000Y-119580000D03*
%TD*%
D19*
%TO.P,C4,2*%
%TO.N,GND*%
X107870000Y-116160000D03*
%TO.P,C4,1*%
%TO.N,vcc*%
X102870000Y-116160000D03*
%TD*%
%TO.P,C3,1*%
%TO.N,vcc_12v*%
X132715000Y-121920000D03*
D13*
%TO.P,C3,2*%
%TO.N,GND*%
X122555000Y-121920000D03*
%TD*%
D19*
%TO.P,R1,1*%
%TO.N,Pino_2_int*%
X122555000Y-117475000D03*
D13*
%TO.P,R1,2*%
%TO.N,GND*%
X132715000Y-117475000D03*
%TD*%
D29*
%TO.N,vcc*%
X134874000Y-115951000D03*
X111633000Y-120142000D03*
X144145000Y-73659996D03*
%TO.N,Net-(DS1-Pad5)*%
X136525000Y-76835000D03*
%TO.N,Pino_12*%
X99060026Y-100964980D03*
%TO.N,Pino_11*%
X101346000Y-101092000D03*
%TO.N,Pino_16_A2*%
X95885000Y-100965000D03*
%TO.N,Pino_17_A3*%
X93979948Y-100965000D03*
%TO.N,Pino_18_A4*%
X91944987Y-100965002D03*
%TO.N,Pino_19_A5*%
X89535024Y-100965000D03*
%TO.N,Net-(J4-Pad2)*%
X123952000Y-100838000D03*
X120650000Y-116332006D03*
%TO.N,GND*%
X83820000Y-104140000D03*
X80501731Y-96941909D03*
X141605000Y-72390000D03*
%TD*%
D30*
%TO.N,vcc*%
X134874000Y-122936000D02*
X134874000Y-115951000D01*
X133350000Y-124460000D02*
X134874000Y-122936000D01*
X114935000Y-124460000D02*
X133350000Y-124460000D01*
X111633000Y-121158000D02*
X114935000Y-124460000D01*
X111633000Y-120142000D02*
X111633000Y-121158000D01*
X144272000Y-65786000D02*
X144272000Y-73532996D01*
X144272000Y-73532996D02*
X144145000Y-73659996D01*
X143545001Y-74259995D02*
X144145000Y-73659996D01*
X139867991Y-74259995D02*
X143545001Y-74259995D01*
X139184998Y-73577002D02*
X139867991Y-74259995D01*
X139192000Y-65786000D02*
X139184998Y-65793002D01*
X139184998Y-65793002D02*
X139184998Y-73577002D01*
D31*
%TO.N,Net-(DS1-Pad5)*%
X136652000Y-65786000D02*
X136652000Y-76708000D01*
X136652000Y-76708000D02*
X136525000Y-76835000D01*
%TO.N,Pino_12*%
X134112000Y-65786000D02*
X99060026Y-100837974D01*
X99060026Y-100837974D02*
X99060026Y-100964980D01*
%TO.N,Pino_11*%
X97840024Y-100252370D02*
X97840024Y-101931602D01*
X129032000Y-69060394D02*
X97840024Y-100252370D01*
X99871998Y-102566002D02*
X101346000Y-101092000D01*
X98474424Y-102566002D02*
X99871998Y-102566002D01*
X129032000Y-65786000D02*
X129032000Y-69060394D01*
X97840024Y-101931602D02*
X98474424Y-102566002D01*
%TO.N,Pino_16_A2*%
X95885000Y-100326033D02*
X95885000Y-100965000D01*
X116332000Y-65786000D02*
X116332000Y-79879033D01*
X116332000Y-79879033D02*
X95885000Y-100326033D01*
%TO.N,Pino_17_A3*%
X113792000Y-65786000D02*
X113792000Y-81152948D01*
X113792000Y-81152948D02*
X93979948Y-100965000D01*
%TO.N,Pino_18_A4*%
X91944987Y-100811011D02*
X91944987Y-100965002D01*
X111252000Y-81503998D02*
X91944987Y-100811011D01*
X111252000Y-65786000D02*
X111252000Y-81503998D01*
%TO.N,Pino_19_A5*%
X108712000Y-65786000D02*
X108712000Y-81788024D01*
X108712000Y-81788024D02*
X89535024Y-100965000D01*
%TO.N,Net-(J4-Pad2)*%
X123952000Y-113030006D02*
X120650000Y-116332006D01*
X123952000Y-100838000D02*
X123952000Y-113030006D01*
D30*
%TO.N,GND*%
X83820000Y-100260178D02*
X80501731Y-96941909D01*
X83820000Y-104140000D02*
X83820000Y-100260178D01*
X141732000Y-65786000D02*
X141732000Y-72263000D01*
X141732000Y-72263000D02*
X141605000Y-72390000D01*
X142621000Y-63754000D02*
X141732000Y-64643000D01*
X145669000Y-63754000D02*
X142621000Y-63754000D01*
X146812000Y-64897000D02*
X145669000Y-63754000D01*
X141732000Y-64643000D02*
X141732000Y-65786000D01*
X146812000Y-65786000D02*
X146812000Y-64897000D01*
X131572000Y-64960500D02*
X131572000Y-65786000D01*
X140589000Y-63754000D02*
X132778500Y-63754000D01*
X141732000Y-64897000D02*
X140589000Y-63754000D01*
X132778500Y-63754000D02*
X131572000Y-64960500D01*
X141732000Y-65786000D02*
X141732000Y-64897000D01*
%TD*%
D32*
X76689244Y-63733047D02*
X76300698Y-63893988D01*
X75951017Y-64127637D01*
X75653637Y-64425017D01*
X75419988Y-64774698D01*
X75259047Y-65163244D01*
X75177000Y-65575721D01*
X75177000Y-65996279D01*
X75259047Y-66408756D01*
X75419988Y-66797302D01*
X75653637Y-67146983D01*
X75951017Y-67444363D01*
X76300698Y-67678012D01*
X76689244Y-67838953D01*
X77101721Y-67921000D01*
X77522279Y-67921000D01*
X77934756Y-67838953D01*
X78323302Y-67678012D01*
X78672983Y-67444363D01*
X78970363Y-67146983D01*
X79171659Y-66845721D01*
X80415000Y-66845721D01*
X80415000Y-67266279D01*
X80497047Y-67678756D01*
X80657988Y-68067302D01*
X80891637Y-68416983D01*
X81189017Y-68714363D01*
X81538698Y-68948012D01*
X81927244Y-69108953D01*
X82339721Y-69191000D01*
X82760279Y-69191000D01*
X83172756Y-69108953D01*
X83561302Y-68948012D01*
X83910983Y-68714363D01*
X84208363Y-68416983D01*
X84442012Y-68067302D01*
X84602953Y-67678756D01*
X84685000Y-67266279D01*
X84685000Y-66845721D01*
X85495000Y-66845721D01*
X85495000Y-67266279D01*
X85577047Y-67678756D01*
X85737988Y-68067302D01*
X85971637Y-68416983D01*
X86269017Y-68714363D01*
X86618698Y-68948012D01*
X87007244Y-69108953D01*
X87419721Y-69191000D01*
X87840279Y-69191000D01*
X88252756Y-69108953D01*
X88641302Y-68948012D01*
X88990983Y-68714363D01*
X89288363Y-68416983D01*
X89522012Y-68067302D01*
X89682953Y-67678756D01*
X89765000Y-67266279D01*
X89765000Y-66845721D01*
X89682953Y-66433244D01*
X89522012Y-66044698D01*
X89288363Y-65695017D01*
X89149346Y-65556000D01*
X90571928Y-65556000D01*
X90571928Y-68556000D01*
X90584188Y-68680482D01*
X90620498Y-68800180D01*
X90679463Y-68910494D01*
X90758815Y-69007185D01*
X90855506Y-69086537D01*
X90965820Y-69145502D01*
X91085518Y-69181812D01*
X91210000Y-69194072D01*
X94210000Y-69194072D01*
X94334482Y-69181812D01*
X94454180Y-69145502D01*
X94564494Y-69086537D01*
X94661185Y-69007185D01*
X94740537Y-68910494D01*
X94799502Y-68800180D01*
X94835812Y-68680482D01*
X94848072Y-68556000D01*
X94848072Y-66845721D01*
X96671000Y-66845721D01*
X96671000Y-67266279D01*
X96753047Y-67678756D01*
X96913988Y-68067302D01*
X97147637Y-68416983D01*
X97445017Y-68714363D01*
X97794698Y-68948012D01*
X98183244Y-69108953D01*
X98595721Y-69191000D01*
X99016279Y-69191000D01*
X99428756Y-69108953D01*
X99817302Y-68948012D01*
X100166983Y-68714363D01*
X100464363Y-68416983D01*
X100698012Y-68067302D01*
X100858953Y-67678756D01*
X100941000Y-67266279D01*
X100941000Y-66845721D01*
X100858953Y-66433244D01*
X100698012Y-66044698D01*
X100464363Y-65695017D01*
X100325346Y-65556000D01*
X101747928Y-65556000D01*
X101747928Y-68556000D01*
X101760188Y-68680482D01*
X101796498Y-68800180D01*
X101855463Y-68910494D01*
X101934815Y-69007185D01*
X102031506Y-69086537D01*
X102141820Y-69145502D01*
X102261518Y-69181812D01*
X102386000Y-69194072D01*
X105386000Y-69194072D01*
X105510482Y-69181812D01*
X105630180Y-69145502D01*
X105740494Y-69086537D01*
X105837185Y-69007185D01*
X105916537Y-68910494D01*
X105975502Y-68800180D01*
X106011812Y-68680482D01*
X106024072Y-68556000D01*
X106024072Y-65556000D01*
X106011812Y-65431518D01*
X105975502Y-65311820D01*
X105916537Y-65201506D01*
X105837185Y-65104815D01*
X105740494Y-65025463D01*
X105630180Y-64966498D01*
X105510482Y-64930188D01*
X105386000Y-64917928D01*
X102386000Y-64917928D01*
X102261518Y-64930188D01*
X102141820Y-64966498D01*
X102031506Y-65025463D01*
X101934815Y-65104815D01*
X101855463Y-65201506D01*
X101796498Y-65311820D01*
X101760188Y-65431518D01*
X101747928Y-65556000D01*
X100325346Y-65556000D01*
X100166983Y-65397637D01*
X99817302Y-65163988D01*
X99428756Y-65003047D01*
X99016279Y-64921000D01*
X98595721Y-64921000D01*
X98183244Y-65003047D01*
X97794698Y-65163988D01*
X97445017Y-65397637D01*
X97147637Y-65695017D01*
X96913988Y-66044698D01*
X96753047Y-66433244D01*
X96671000Y-66845721D01*
X94848072Y-66845721D01*
X94848072Y-65556000D01*
X94835812Y-65431518D01*
X94799502Y-65311820D01*
X94740537Y-65201506D01*
X94661185Y-65104815D01*
X94564494Y-65025463D01*
X94454180Y-64966498D01*
X94334482Y-64930188D01*
X94210000Y-64917928D01*
X91210000Y-64917928D01*
X91085518Y-64930188D01*
X90965820Y-64966498D01*
X90855506Y-65025463D01*
X90758815Y-65104815D01*
X90679463Y-65201506D01*
X90620498Y-65311820D01*
X90584188Y-65431518D01*
X90571928Y-65556000D01*
X89149346Y-65556000D01*
X88990983Y-65397637D01*
X88641302Y-65163988D01*
X88252756Y-65003047D01*
X87840279Y-64921000D01*
X87419721Y-64921000D01*
X87007244Y-65003047D01*
X86618698Y-65163988D01*
X86269017Y-65397637D01*
X85971637Y-65695017D01*
X85737988Y-66044698D01*
X85577047Y-66433244D01*
X85495000Y-66845721D01*
X84685000Y-66845721D01*
X84602953Y-66433244D01*
X84442012Y-66044698D01*
X84208363Y-65695017D01*
X83910983Y-65397637D01*
X83561302Y-65163988D01*
X83172756Y-65003047D01*
X82760279Y-64921000D01*
X82339721Y-64921000D01*
X81927244Y-65003047D01*
X81538698Y-65163988D01*
X81189017Y-65397637D01*
X80891637Y-65695017D01*
X80657988Y-66044698D01*
X80497047Y-66433244D01*
X80415000Y-66845721D01*
X79171659Y-66845721D01*
X79204012Y-66797302D01*
X79364953Y-66408756D01*
X79447000Y-65996279D01*
X79447000Y-65575721D01*
X79364953Y-65163244D01*
X79204012Y-64774698D01*
X78970363Y-64425017D01*
X78672983Y-64127637D01*
X78323302Y-63893988D01*
X77934756Y-63733047D01*
X77527306Y-63652000D01*
X131487499Y-63652000D01*
X131264200Y-63875299D01*
X130981740Y-63960983D01*
X130715074Y-64103519D01*
X130481339Y-64295339D01*
X130302000Y-64513865D01*
X130122661Y-64295339D01*
X129888927Y-64103519D01*
X129622261Y-63960983D01*
X129332913Y-63873210D01*
X129032000Y-63843573D01*
X128731088Y-63873210D01*
X128441740Y-63960983D01*
X128175074Y-64103519D01*
X127941339Y-64295339D01*
X127762000Y-64513865D01*
X127582661Y-64295339D01*
X127348927Y-64103519D01*
X127082261Y-63960983D01*
X126792913Y-63873210D01*
X126492000Y-63843573D01*
X126191088Y-63873210D01*
X125901740Y-63960983D01*
X125635074Y-64103519D01*
X125401339Y-64295339D01*
X125222000Y-64513865D01*
X125042661Y-64295339D01*
X124808927Y-64103519D01*
X124542261Y-63960983D01*
X124252913Y-63873210D01*
X123952000Y-63843573D01*
X123651088Y-63873210D01*
X123361740Y-63960983D01*
X123095074Y-64103519D01*
X122861339Y-64295339D01*
X122682000Y-64513865D01*
X122502661Y-64295339D01*
X122268927Y-64103519D01*
X122002261Y-63960983D01*
X121712913Y-63873210D01*
X121412000Y-63843573D01*
X121111088Y-63873210D01*
X120821740Y-63960983D01*
X120555074Y-64103519D01*
X120321339Y-64295339D01*
X120142000Y-64513865D01*
X119962661Y-64295339D01*
X119728927Y-64103519D01*
X119462261Y-63960983D01*
X119172913Y-63873210D01*
X118872000Y-63843573D01*
X118571088Y-63873210D01*
X118281740Y-63960983D01*
X118015074Y-64103519D01*
X117781339Y-64295339D01*
X117602000Y-64513865D01*
X117422661Y-64295339D01*
X117188927Y-64103519D01*
X116922261Y-63960983D01*
X116632913Y-63873210D01*
X116332000Y-63843573D01*
X116031088Y-63873210D01*
X115741740Y-63960983D01*
X115475074Y-64103519D01*
X115241339Y-64295339D01*
X115062000Y-64513865D01*
X114882661Y-64295339D01*
X114648927Y-64103519D01*
X114382261Y-63960983D01*
X114092913Y-63873210D01*
X113792000Y-63843573D01*
X113491088Y-63873210D01*
X113201740Y-63960983D01*
X112935074Y-64103519D01*
X112701339Y-64295339D01*
X112522000Y-64513865D01*
X112342661Y-64295339D01*
X112108927Y-64103519D01*
X111842261Y-63960983D01*
X111552913Y-63873210D01*
X111252000Y-63843573D01*
X110951088Y-63873210D01*
X110661740Y-63960983D01*
X110395074Y-64103519D01*
X110161339Y-64295339D01*
X109982000Y-64513865D01*
X109802661Y-64295339D01*
X109568927Y-64103519D01*
X109302261Y-63960983D01*
X109012913Y-63873210D01*
X108712000Y-63843573D01*
X108411088Y-63873210D01*
X108121740Y-63960983D01*
X107855074Y-64103519D01*
X107621339Y-64295339D01*
X107429519Y-64529073D01*
X107286983Y-64795739D01*
X107199210Y-65085087D01*
X107177000Y-65310592D01*
X107177000Y-66261407D01*
X107199210Y-66486912D01*
X107286983Y-66776260D01*
X107429519Y-67042926D01*
X107621339Y-67276661D01*
X107827000Y-67445442D01*
X107827001Y-81421444D01*
X89668446Y-99580000D01*
X89398613Y-99580000D01*
X89131035Y-99633225D01*
X88878981Y-99737629D01*
X88652138Y-99889201D01*
X88459225Y-100082114D01*
X88307653Y-100308957D01*
X88203249Y-100561011D01*
X88150024Y-100828589D01*
X88150024Y-101101411D01*
X88203249Y-101368989D01*
X88307653Y-101621043D01*
X88459225Y-101847886D01*
X88652138Y-102040799D01*
X88878981Y-102192371D01*
X89131035Y-102296775D01*
X89398613Y-102350000D01*
X89671435Y-102350000D01*
X89939013Y-102296775D01*
X90191067Y-102192371D01*
X90417910Y-102040799D01*
X90610823Y-101847886D01*
X90740005Y-101654552D01*
X90869188Y-101847888D01*
X91062101Y-102040801D01*
X91288944Y-102192373D01*
X91540998Y-102296777D01*
X91808576Y-102350002D01*
X92081398Y-102350002D01*
X92348976Y-102296777D01*
X92601030Y-102192373D01*
X92827873Y-102040801D01*
X92962469Y-101906206D01*
X93097062Y-102040799D01*
X93323905Y-102192371D01*
X93575959Y-102296775D01*
X93843537Y-102350000D01*
X94116359Y-102350000D01*
X94383937Y-102296775D01*
X94635991Y-102192371D01*
X94862834Y-102040799D01*
X94932474Y-101971159D01*
X95002114Y-102040799D01*
X95228957Y-102192371D01*
X95481011Y-102296775D01*
X95748589Y-102350000D01*
X96021411Y-102350000D01*
X96288989Y-102296775D01*
X96541043Y-102192371D01*
X96767886Y-102040799D01*
X96955025Y-101853660D01*
X96955025Y-101888123D01*
X96950743Y-101931602D01*
X96967829Y-102105092D01*
X97018436Y-102271915D01*
X97100614Y-102425661D01*
X97183492Y-102526648D01*
X97183495Y-102526651D01*
X97211208Y-102560419D01*
X97244975Y-102588131D01*
X97817894Y-103161051D01*
X97845607Y-103194819D01*
X97879375Y-103222532D01*
X97879377Y-103222534D01*
X97921513Y-103257114D01*
X97980365Y-103305413D01*
X98134111Y-103387591D01*
X98300934Y-103438197D01*
X98430947Y-103451002D01*
X98430957Y-103451002D01*
X98474423Y-103455283D01*
X98517890Y-103451002D01*
X99828529Y-103451002D01*
X99871998Y-103455283D01*
X99915467Y-103451002D01*
X99915475Y-103451002D01*
X100045488Y-103438197D01*
X100212311Y-103387591D01*
X100366057Y-103305413D01*
X100500815Y-103194819D01*
X100528532Y-103161046D01*
X101212578Y-102477000D01*
X101482411Y-102477000D01*
X101749989Y-102423775D01*
X102002043Y-102319371D01*
X102228886Y-102167799D01*
X102421799Y-101974886D01*
X102573371Y-101748043D01*
X102677775Y-101495989D01*
X102731000Y-101228411D01*
X102731000Y-100955589D01*
X102677775Y-100688011D01*
X102573371Y-100435957D01*
X102421799Y-100209114D01*
X102228886Y-100016201D01*
X102002043Y-99864629D01*
X101749989Y-99760225D01*
X101482411Y-99707000D01*
X101442578Y-99707000D01*
X104573157Y-96576421D01*
X150176100Y-96576421D01*
X150176100Y-96996979D01*
X150258147Y-97409456D01*
X150419088Y-97798002D01*
X150652737Y-98147683D01*
X150950117Y-98445063D01*
X151299798Y-98678712D01*
X151688344Y-98839653D01*
X152100821Y-98921700D01*
X152521379Y-98921700D01*
X152933856Y-98839653D01*
X153322402Y-98678712D01*
X153672083Y-98445063D01*
X153969463Y-98147683D01*
X154203112Y-97798002D01*
X154364053Y-97409456D01*
X154446100Y-96996979D01*
X154446100Y-96576421D01*
X154364053Y-96163944D01*
X154203112Y-95775398D01*
X153969463Y-95425717D01*
X153672083Y-95128337D01*
X153322402Y-94894688D01*
X152933856Y-94733747D01*
X152521379Y-94651700D01*
X152100821Y-94651700D01*
X151688344Y-94733747D01*
X151299798Y-94894688D01*
X150950117Y-95128337D01*
X150652737Y-95425717D01*
X150419088Y-95775398D01*
X150258147Y-96163944D01*
X150176100Y-96576421D01*
X104573157Y-96576421D01*
X118818451Y-82331127D01*
X146672000Y-82331127D01*
X146672000Y-82608873D01*
X146726186Y-82881282D01*
X146832475Y-83137885D01*
X146986782Y-83368822D01*
X147183178Y-83565218D01*
X147414115Y-83719525D01*
X147670718Y-83825814D01*
X147943127Y-83880000D01*
X148220873Y-83880000D01*
X148493282Y-83825814D01*
X148749885Y-83719525D01*
X148980822Y-83565218D01*
X149177218Y-83368822D01*
X149331525Y-83137885D01*
X149437814Y-82881282D01*
X149492000Y-82608873D01*
X149492000Y-82331127D01*
X149437814Y-82058718D01*
X149331525Y-81802115D01*
X149177218Y-81571178D01*
X148980822Y-81374782D01*
X148749885Y-81220475D01*
X148493282Y-81114186D01*
X148220873Y-81060000D01*
X147943127Y-81060000D01*
X147670718Y-81114186D01*
X147414115Y-81220475D01*
X147183178Y-81374782D01*
X146986782Y-81571178D01*
X146832475Y-81802115D01*
X146726186Y-82058718D01*
X146672000Y-82331127D01*
X118818451Y-82331127D01*
X121318451Y-79831127D01*
X141672000Y-79831127D01*
X141672000Y-80108873D01*
X141726186Y-80381282D01*
X141832475Y-80637885D01*
X141986782Y-80868822D01*
X142183178Y-81065218D01*
X142414115Y-81219525D01*
X142670718Y-81325814D01*
X142943127Y-81380000D01*
X143220873Y-81380000D01*
X143493282Y-81325814D01*
X143749885Y-81219525D01*
X143980822Y-81065218D01*
X144177218Y-80868822D01*
X144331525Y-80637885D01*
X144437814Y-80381282D01*
X144492000Y-80108873D01*
X144492000Y-79831127D01*
X144437814Y-79558718D01*
X144331525Y-79302115D01*
X144177218Y-79071178D01*
X143980822Y-78874782D01*
X143749885Y-78720475D01*
X143493282Y-78614186D01*
X143220873Y-78560000D01*
X142943127Y-78560000D01*
X142670718Y-78614186D01*
X142414115Y-78720475D01*
X142183178Y-78874782D01*
X141986782Y-79071178D01*
X141832475Y-79302115D01*
X141726186Y-79558718D01*
X141672000Y-79831127D01*
X121318451Y-79831127D01*
X133534647Y-67614932D01*
X133811087Y-67698790D01*
X134112000Y-67728427D01*
X134412912Y-67698790D01*
X134702260Y-67611017D01*
X134968926Y-67468481D01*
X135202661Y-67276661D01*
X135382000Y-67058135D01*
X135561339Y-67276661D01*
X135767000Y-67445442D01*
X135767001Y-75675754D01*
X135642114Y-75759201D01*
X135449201Y-75952114D01*
X135297629Y-76178957D01*
X135193225Y-76431011D01*
X135140000Y-76698589D01*
X135140000Y-76971411D01*
X135193225Y-77238989D01*
X135297629Y-77491043D01*
X135449201Y-77717886D01*
X135642114Y-77910799D01*
X135868957Y-78062371D01*
X136121011Y-78166775D01*
X136388589Y-78220000D01*
X136661411Y-78220000D01*
X136928989Y-78166775D01*
X137181043Y-78062371D01*
X137407886Y-77910799D01*
X137600799Y-77717886D01*
X137752371Y-77491043D01*
X137856775Y-77238989D01*
X137910000Y-76971411D01*
X137910000Y-76698589D01*
X137909287Y-76695000D01*
X146668928Y-76695000D01*
X146668928Y-78245000D01*
X146681188Y-78369482D01*
X146717498Y-78489180D01*
X146776463Y-78599494D01*
X146855815Y-78696185D01*
X146952506Y-78775537D01*
X147062820Y-78834502D01*
X147182518Y-78870812D01*
X147307000Y-78883072D01*
X148857000Y-78883072D01*
X148981482Y-78870812D01*
X149101180Y-78834502D01*
X149211494Y-78775537D01*
X149308185Y-78696185D01*
X149387537Y-78599494D01*
X149446502Y-78489180D01*
X149482812Y-78369482D01*
X149495072Y-78245000D01*
X149495072Y-76695000D01*
X149482812Y-76570518D01*
X149446502Y-76450820D01*
X149387537Y-76340506D01*
X149308185Y-76243815D01*
X149211494Y-76164463D01*
X149101180Y-76105498D01*
X148981482Y-76069188D01*
X148857000Y-76056928D01*
X147307000Y-76056928D01*
X147182518Y-76069188D01*
X147062820Y-76105498D01*
X146952506Y-76164463D01*
X146855815Y-76243815D01*
X146776463Y-76340506D01*
X146717498Y-76450820D01*
X146681188Y-76570518D01*
X146668928Y-76695000D01*
X137909287Y-76695000D01*
X137856775Y-76431011D01*
X137752371Y-76178957D01*
X137600799Y-75952114D01*
X137537000Y-75888315D01*
X137537000Y-67445441D01*
X137742661Y-67276661D01*
X137922000Y-67058135D01*
X138101339Y-67276661D01*
X138199998Y-67357628D01*
X138199999Y-73528612D01*
X138195233Y-73577002D01*
X138214251Y-73770095D01*
X138270574Y-73955768D01*
X138270575Y-73955769D01*
X138362039Y-74126886D01*
X138485129Y-74276872D01*
X138522709Y-74307713D01*
X139137279Y-74922284D01*
X139168121Y-74959865D01*
X139318107Y-75082955D01*
X139489224Y-75174419D01*
X139674897Y-75230742D01*
X139867991Y-75249760D01*
X139916371Y-75244995D01*
X143496621Y-75244995D01*
X143545001Y-75249760D01*
X143593381Y-75244995D01*
X143738095Y-75230742D01*
X143923768Y-75174419D01*
X144094885Y-75082955D01*
X144141138Y-75044996D01*
X144281411Y-75044996D01*
X144548989Y-74991771D01*
X144801043Y-74887367D01*
X145027886Y-74735795D01*
X145220799Y-74542882D01*
X145372371Y-74316039D01*
X145476775Y-74063985D01*
X145530000Y-73796407D01*
X145530000Y-73523585D01*
X145476775Y-73256007D01*
X145372371Y-73003953D01*
X145257000Y-72831288D01*
X145257000Y-67363374D01*
X145317505Y-67313720D01*
X145322498Y-67330180D01*
X145381463Y-67440494D01*
X145460815Y-67537185D01*
X145557506Y-67616537D01*
X145667820Y-67675502D01*
X145787518Y-67711812D01*
X145912000Y-67724072D01*
X147712000Y-67724072D01*
X147836482Y-67711812D01*
X147956180Y-67675502D01*
X148066494Y-67616537D01*
X148163185Y-67537185D01*
X148242537Y-67440494D01*
X148301502Y-67330180D01*
X148337812Y-67210482D01*
X148350072Y-67086000D01*
X148350072Y-64486000D01*
X148337812Y-64361518D01*
X148301502Y-64241820D01*
X148242537Y-64131506D01*
X148163185Y-64034815D01*
X148066494Y-63955463D01*
X147956180Y-63896498D01*
X147836482Y-63860188D01*
X147712000Y-63847928D01*
X147155928Y-63847928D01*
X146960000Y-63652000D01*
X152095794Y-63652000D01*
X151688344Y-63733047D01*
X151299798Y-63893988D01*
X150950117Y-64127637D01*
X150652737Y-64425017D01*
X150419088Y-64774698D01*
X150258147Y-65163244D01*
X150176100Y-65575721D01*
X150176100Y-65996279D01*
X150258147Y-66408756D01*
X150419088Y-66797302D01*
X150652737Y-67146983D01*
X150950117Y-67444363D01*
X151299798Y-67678012D01*
X151688344Y-67838953D01*
X152100821Y-67921000D01*
X152521379Y-67921000D01*
X152933856Y-67838953D01*
X153322402Y-67678012D01*
X153672083Y-67444363D01*
X153969463Y-67146983D01*
X154203112Y-66797302D01*
X154364053Y-66408756D01*
X154446100Y-65996279D01*
X154446100Y-65575721D01*
X154364053Y-65163244D01*
X154203112Y-64774698D01*
X153969463Y-64425017D01*
X153672083Y-64127637D01*
X153322402Y-63893988D01*
X152933856Y-63733047D01*
X152526406Y-63652000D01*
X154915000Y-63652000D01*
X154915001Y-105210166D01*
X137441779Y-131420000D01*
X96158381Y-131420000D01*
X92412381Y-127674000D01*
X108747928Y-127674000D01*
X108747928Y-129374000D01*
X108760188Y-129498482D01*
X108796498Y-129618180D01*
X108855463Y-129728494D01*
X108934815Y-129825185D01*
X109031506Y-129904537D01*
X109141820Y-129963502D01*
X109261518Y-129999812D01*
X109386000Y-130012072D01*
X111086000Y-130012072D01*
X111210482Y-129999812D01*
X111330180Y-129963502D01*
X111440494Y-129904537D01*
X111537185Y-129825185D01*
X111616537Y-129728494D01*
X111675502Y-129618180D01*
X111697513Y-129545620D01*
X111829368Y-129677475D01*
X112072589Y-129839990D01*
X112342842Y-129951932D01*
X112629740Y-130009000D01*
X112922260Y-130009000D01*
X113209158Y-129951932D01*
X113479411Y-129839990D01*
X113722632Y-129677475D01*
X113929475Y-129470632D01*
X114046000Y-129296240D01*
X114162525Y-129470632D01*
X114369368Y-129677475D01*
X114612589Y-129839990D01*
X114882842Y-129951932D01*
X115169740Y-130009000D01*
X115462260Y-130009000D01*
X115749158Y-129951932D01*
X116019411Y-129839990D01*
X116262632Y-129677475D01*
X116469475Y-129470632D01*
X116586000Y-129296240D01*
X116702525Y-129470632D01*
X116909368Y-129677475D01*
X117152589Y-129839990D01*
X117422842Y-129951932D01*
X117709740Y-130009000D01*
X118002260Y-130009000D01*
X118289158Y-129951932D01*
X118559411Y-129839990D01*
X118802632Y-129677475D01*
X119009475Y-129470632D01*
X119126000Y-129296240D01*
X119242525Y-129470632D01*
X119449368Y-129677475D01*
X119692589Y-129839990D01*
X119962842Y-129951932D01*
X120249740Y-130009000D01*
X120542260Y-130009000D01*
X120829158Y-129951932D01*
X121099411Y-129839990D01*
X121342632Y-129677475D01*
X121549475Y-129470632D01*
X121666000Y-129296240D01*
X121782525Y-129470632D01*
X121989368Y-129677475D01*
X122232589Y-129839990D01*
X122502842Y-129951932D01*
X122789740Y-130009000D01*
X123082260Y-130009000D01*
X123369158Y-129951932D01*
X123639411Y-129839990D01*
X123882632Y-129677475D01*
X124089475Y-129470632D01*
X124206000Y-129296240D01*
X124322525Y-129470632D01*
X124529368Y-129677475D01*
X124772589Y-129839990D01*
X125042842Y-129951932D01*
X125329740Y-130009000D01*
X125622260Y-130009000D01*
X125909158Y-129951932D01*
X126179411Y-129839990D01*
X126422632Y-129677475D01*
X126629475Y-129470632D01*
X126746000Y-129296240D01*
X126862525Y-129470632D01*
X127069368Y-129677475D01*
X127312589Y-129839990D01*
X127582842Y-129951932D01*
X127869740Y-130009000D01*
X128162260Y-130009000D01*
X128449158Y-129951932D01*
X128719411Y-129839990D01*
X128962632Y-129677475D01*
X129169475Y-129470632D01*
X129331990Y-129227411D01*
X129443932Y-128957158D01*
X129501000Y-128670260D01*
X129501000Y-128377740D01*
X129443932Y-128090842D01*
X129331990Y-127820589D01*
X129169475Y-127577368D01*
X128962632Y-127370525D01*
X128719411Y-127208010D01*
X128449158Y-127096068D01*
X128162260Y-127039000D01*
X127869740Y-127039000D01*
X127582842Y-127096068D01*
X127312589Y-127208010D01*
X127069368Y-127370525D01*
X126862525Y-127577368D01*
X126746000Y-127751760D01*
X126629475Y-127577368D01*
X126422632Y-127370525D01*
X126179411Y-127208010D01*
X125909158Y-127096068D01*
X125622260Y-127039000D01*
X125329740Y-127039000D01*
X125042842Y-127096068D01*
X124772589Y-127208010D01*
X124529368Y-127370525D01*
X124322525Y-127577368D01*
X124206000Y-127751760D01*
X124089475Y-127577368D01*
X123882632Y-127370525D01*
X123639411Y-127208010D01*
X123369158Y-127096068D01*
X123082260Y-127039000D01*
X122789740Y-127039000D01*
X122502842Y-127096068D01*
X122232589Y-127208010D01*
X121989368Y-127370525D01*
X121782525Y-127577368D01*
X121666000Y-127751760D01*
X121549475Y-127577368D01*
X121342632Y-127370525D01*
X121099411Y-127208010D01*
X120829158Y-127096068D01*
X120542260Y-127039000D01*
X120249740Y-127039000D01*
X119962842Y-127096068D01*
X119692589Y-127208010D01*
X119449368Y-127370525D01*
X119242525Y-127577368D01*
X119126000Y-127751760D01*
X119009475Y-127577368D01*
X118802632Y-127370525D01*
X118559411Y-127208010D01*
X118289158Y-127096068D01*
X118002260Y-127039000D01*
X117709740Y-127039000D01*
X117422842Y-127096068D01*
X117152589Y-127208010D01*
X116909368Y-127370525D01*
X116702525Y-127577368D01*
X116586000Y-127751760D01*
X116469475Y-127577368D01*
X116262632Y-127370525D01*
X116019411Y-127208010D01*
X115749158Y-127096068D01*
X115462260Y-127039000D01*
X115169740Y-127039000D01*
X114882842Y-127096068D01*
X114612589Y-127208010D01*
X114369368Y-127370525D01*
X114162525Y-127577368D01*
X114046000Y-127751760D01*
X113929475Y-127577368D01*
X113722632Y-127370525D01*
X113479411Y-127208010D01*
X113209158Y-127096068D01*
X112922260Y-127039000D01*
X112629740Y-127039000D01*
X112342842Y-127096068D01*
X112072589Y-127208010D01*
X111829368Y-127370525D01*
X111697513Y-127502380D01*
X111675502Y-127429820D01*
X111616537Y-127319506D01*
X111537185Y-127222815D01*
X111440494Y-127143463D01*
X111330180Y-127084498D01*
X111210482Y-127048188D01*
X111086000Y-127035928D01*
X109386000Y-127035928D01*
X109261518Y-127048188D01*
X109141820Y-127084498D01*
X109031506Y-127143463D01*
X108934815Y-127222815D01*
X108855463Y-127319506D01*
X108796498Y-127429820D01*
X108760188Y-127549518D01*
X108747928Y-127674000D01*
X92412381Y-127674000D01*
X91583168Y-126844787D01*
X136170276Y-126844787D01*
X136170276Y-127118397D01*
X136223654Y-127386748D01*
X136328360Y-127639530D01*
X136480369Y-127867028D01*
X136673840Y-128060499D01*
X136901338Y-128212508D01*
X137154120Y-128317214D01*
X137422471Y-128370592D01*
X137696081Y-128370592D01*
X137964432Y-128317214D01*
X138217214Y-128212508D01*
X138444712Y-128060499D01*
X138638183Y-127867028D01*
X138790192Y-127639530D01*
X138894898Y-127386748D01*
X138948276Y-127118397D01*
X138948276Y-126844787D01*
X138894898Y-126576436D01*
X138790192Y-126323654D01*
X138750550Y-126264325D01*
X138879355Y-126289946D01*
X139152965Y-126289946D01*
X139421316Y-126236568D01*
X139674098Y-126131862D01*
X139901596Y-125979853D01*
X140095067Y-125786382D01*
X140247076Y-125558884D01*
X140351782Y-125306102D01*
X140405160Y-125037751D01*
X140405160Y-124764141D01*
X140351782Y-124495790D01*
X140247076Y-124243008D01*
X140095067Y-124015510D01*
X139901596Y-123822039D01*
X139674098Y-123670030D01*
X139421316Y-123565324D01*
X139152965Y-123511946D01*
X138879355Y-123511946D01*
X138611004Y-123565324D01*
X138358222Y-123670030D01*
X138130724Y-123822039D01*
X137937253Y-124015510D01*
X137785244Y-124243008D01*
X137680538Y-124495790D01*
X137627160Y-124764141D01*
X137627160Y-125037751D01*
X137680538Y-125306102D01*
X137785244Y-125558884D01*
X137824886Y-125618213D01*
X137696081Y-125592592D01*
X137422471Y-125592592D01*
X137154120Y-125645970D01*
X136901338Y-125750676D01*
X136673840Y-125902685D01*
X136480369Y-126096156D01*
X136328360Y-126323654D01*
X136223654Y-126576436D01*
X136170276Y-126844787D01*
X91583168Y-126844787D01*
X89057046Y-124318665D01*
X103975000Y-124318665D01*
X103975000Y-124601335D01*
X104030147Y-124878574D01*
X104138320Y-125139727D01*
X104295363Y-125374759D01*
X104495241Y-125574637D01*
X104730273Y-125731680D01*
X104991426Y-125839853D01*
X105268665Y-125895000D01*
X105551335Y-125895000D01*
X105828574Y-125839853D01*
X106089727Y-125731680D01*
X106324759Y-125574637D01*
X106524637Y-125374759D01*
X106681680Y-125139727D01*
X106789853Y-124878574D01*
X106845000Y-124601335D01*
X106845000Y-124318665D01*
X106789853Y-124041426D01*
X106681680Y-123780273D01*
X106524637Y-123545241D01*
X106324759Y-123345363D01*
X106089727Y-123188320D01*
X105828574Y-123080147D01*
X105551335Y-123025000D01*
X105268665Y-123025000D01*
X104991426Y-123080147D01*
X104730273Y-123188320D01*
X104495241Y-123345363D01*
X104295363Y-123545241D01*
X104138320Y-123780273D01*
X104030147Y-124041426D01*
X103975000Y-124318665D01*
X89057046Y-124318665D01*
X86107085Y-121368704D01*
X86850759Y-121368704D01*
X86850759Y-121651374D01*
X86905906Y-121928613D01*
X87014079Y-122189766D01*
X87171122Y-122424798D01*
X87371000Y-122624676D01*
X87606032Y-122781719D01*
X87867185Y-122889892D01*
X88144424Y-122945039D01*
X88427094Y-122945039D01*
X88704333Y-122889892D01*
X88965486Y-122781719D01*
X89200518Y-122624676D01*
X89400396Y-122424798D01*
X89557439Y-122189766D01*
X89665612Y-121928613D01*
X89720759Y-121651374D01*
X89720759Y-121368704D01*
X89665612Y-121091465D01*
X89557439Y-120830312D01*
X89400396Y-120595280D01*
X89200518Y-120395402D01*
X88965486Y-120238359D01*
X88704333Y-120130186D01*
X88427094Y-120075039D01*
X88144424Y-120075039D01*
X87867185Y-120130186D01*
X87606032Y-120238359D01*
X87371000Y-120395402D01*
X87171122Y-120595280D01*
X87014079Y-120830312D01*
X86905906Y-121091465D01*
X86850759Y-121368704D01*
X86107085Y-121368704D01*
X84181970Y-119443589D01*
X92525000Y-119443589D01*
X92525000Y-119716411D01*
X92578225Y-119983989D01*
X92682629Y-120236043D01*
X92834201Y-120462886D01*
X93027114Y-120655799D01*
X93253957Y-120807371D01*
X93506011Y-120911775D01*
X93773589Y-120965000D01*
X94046411Y-120965000D01*
X94313989Y-120911775D01*
X94566043Y-120807371D01*
X94792886Y-120655799D01*
X94985799Y-120462886D01*
X95137371Y-120236043D01*
X95241775Y-119983989D01*
X95295000Y-119716411D01*
X95295000Y-119443589D01*
X97425000Y-119443589D01*
X97425000Y-119716411D01*
X97478225Y-119983989D01*
X97582629Y-120236043D01*
X97734201Y-120462886D01*
X97927114Y-120655799D01*
X98153957Y-120807371D01*
X98406011Y-120911775D01*
X98673589Y-120965000D01*
X98946411Y-120965000D01*
X99213989Y-120911775D01*
X99466043Y-120807371D01*
X99692886Y-120655799D01*
X99885799Y-120462886D01*
X100037371Y-120236043D01*
X100141775Y-119983989D01*
X100195000Y-119716411D01*
X100195000Y-119443589D01*
X100170151Y-119318665D01*
X103975000Y-119318665D01*
X103975000Y-119601335D01*
X104030147Y-119878574D01*
X104138320Y-120139727D01*
X104295363Y-120374759D01*
X104495241Y-120574637D01*
X104730273Y-120731680D01*
X104991426Y-120839853D01*
X105268665Y-120895000D01*
X105551335Y-120895000D01*
X105828574Y-120839853D01*
X106089727Y-120731680D01*
X106324759Y-120574637D01*
X106524637Y-120374759D01*
X106681680Y-120139727D01*
X106737241Y-120005589D01*
X110248000Y-120005589D01*
X110248000Y-120278411D01*
X110301225Y-120545989D01*
X110405629Y-120798043D01*
X110557201Y-121024886D01*
X110647456Y-121115141D01*
X110643235Y-121158000D01*
X110662253Y-121351093D01*
X110718576Y-121536766D01*
X110718577Y-121536767D01*
X110810041Y-121707884D01*
X110933131Y-121857870D01*
X110970711Y-121888711D01*
X114204284Y-125122284D01*
X114235130Y-125159870D01*
X114385116Y-125282960D01*
X114556233Y-125374424D01*
X114698691Y-125417638D01*
X114741905Y-125430747D01*
X114934999Y-125449765D01*
X114983379Y-125445000D01*
X133301620Y-125445000D01*
X133350000Y-125449765D01*
X133398380Y-125445000D01*
X133543094Y-125430747D01*
X133728767Y-125374424D01*
X133899884Y-125282960D01*
X134049870Y-125159870D01*
X134080716Y-125122284D01*
X135536284Y-123666716D01*
X135573870Y-123635870D01*
X135696960Y-123485884D01*
X135788424Y-123314767D01*
X135844747Y-123129094D01*
X135859000Y-122984380D01*
X135859000Y-122984379D01*
X135863765Y-122936001D01*
X135859000Y-122887623D01*
X135859000Y-116924685D01*
X135949799Y-116833886D01*
X136101371Y-116607043D01*
X136169917Y-116441556D01*
X143454697Y-116441556D01*
X143454697Y-116715166D01*
X143508075Y-116983517D01*
X143612781Y-117236299D01*
X143764790Y-117463797D01*
X143958261Y-117657268D01*
X144185759Y-117809277D01*
X144438541Y-117913983D01*
X144706892Y-117967361D01*
X144980502Y-117967361D01*
X145248853Y-117913983D01*
X145501635Y-117809277D01*
X145729133Y-117657268D01*
X145922604Y-117463797D01*
X146074613Y-117236299D01*
X146179319Y-116983517D01*
X146232697Y-116715166D01*
X146232697Y-116441556D01*
X146179319Y-116173205D01*
X146074613Y-115920423D01*
X145922604Y-115692925D01*
X145729133Y-115499454D01*
X145501635Y-115347445D01*
X145248853Y-115242739D01*
X144980502Y-115189361D01*
X144706892Y-115189361D01*
X144438541Y-115242739D01*
X144185759Y-115347445D01*
X143958261Y-115499454D01*
X143764790Y-115692925D01*
X143612781Y-115920423D01*
X143508075Y-116173205D01*
X143454697Y-116441556D01*
X136169917Y-116441556D01*
X136205775Y-116354989D01*
X136259000Y-116087411D01*
X136259000Y-115814589D01*
X136205775Y-115547011D01*
X136101371Y-115294957D01*
X135949799Y-115068114D01*
X135756886Y-114875201D01*
X135530043Y-114723629D01*
X135277989Y-114619225D01*
X135010411Y-114566000D01*
X134737589Y-114566000D01*
X134470011Y-114619225D01*
X134217957Y-114723629D01*
X133991114Y-114875201D01*
X133798201Y-115068114D01*
X133646629Y-115294957D01*
X133542225Y-115547011D01*
X133489000Y-115814589D01*
X133489000Y-116087411D01*
X133530040Y-116293733D01*
X133394727Y-116203320D01*
X133133574Y-116095147D01*
X132856335Y-116040000D01*
X132573665Y-116040000D01*
X132296426Y-116095147D01*
X132035273Y-116203320D01*
X131800241Y-116360363D01*
X131600363Y-116560241D01*
X131443320Y-116795273D01*
X131335147Y-117056426D01*
X131280000Y-117333665D01*
X131280000Y-117616335D01*
X131335147Y-117893574D01*
X131443320Y-118154727D01*
X131600363Y-118389759D01*
X131800241Y-118589637D01*
X132035273Y-118746680D01*
X132296426Y-118854853D01*
X132573665Y-118910000D01*
X132856335Y-118910000D01*
X133133574Y-118854853D01*
X133394727Y-118746680D01*
X133629759Y-118589637D01*
X133829637Y-118389759D01*
X133889001Y-118300915D01*
X133889000Y-121094085D01*
X133829637Y-121005241D01*
X133629759Y-120805363D01*
X133394727Y-120648320D01*
X133133574Y-120540147D01*
X132856335Y-120485000D01*
X132573665Y-120485000D01*
X132296426Y-120540147D01*
X132035273Y-120648320D01*
X131800241Y-120805363D01*
X131600363Y-121005241D01*
X131443320Y-121240273D01*
X131335147Y-121501426D01*
X131280000Y-121778665D01*
X131280000Y-122061335D01*
X131335147Y-122338574D01*
X131443320Y-122599727D01*
X131600363Y-122834759D01*
X131800241Y-123034637D01*
X132035273Y-123191680D01*
X132296426Y-123299853D01*
X132573665Y-123355000D01*
X132856335Y-123355000D01*
X133113068Y-123303932D01*
X132942000Y-123475000D01*
X115343000Y-123475000D01*
X113646665Y-121778665D01*
X121120000Y-121778665D01*
X121120000Y-122061335D01*
X121175147Y-122338574D01*
X121283320Y-122599727D01*
X121440363Y-122834759D01*
X121640241Y-123034637D01*
X121875273Y-123191680D01*
X122136426Y-123299853D01*
X122413665Y-123355000D01*
X122696335Y-123355000D01*
X122973574Y-123299853D01*
X123234727Y-123191680D01*
X123469759Y-123034637D01*
X123669637Y-122834759D01*
X123826680Y-122599727D01*
X123934853Y-122338574D01*
X123990000Y-122061335D01*
X123990000Y-121778665D01*
X123934853Y-121501426D01*
X123826680Y-121240273D01*
X123669637Y-121005241D01*
X123469759Y-120805363D01*
X123234727Y-120648320D01*
X122973574Y-120540147D01*
X122696335Y-120485000D01*
X122413665Y-120485000D01*
X122136426Y-120540147D01*
X121875273Y-120648320D01*
X121640241Y-120805363D01*
X121440363Y-121005241D01*
X121283320Y-121240273D01*
X121175147Y-121501426D01*
X121120000Y-121778665D01*
X113646665Y-121778665D01*
X112782534Y-120914534D01*
X112860371Y-120798043D01*
X112964775Y-120545989D01*
X113018000Y-120278411D01*
X113018000Y-120005589D01*
X112989045Y-119860021D01*
X115934000Y-119860021D01*
X115934000Y-120423978D01*
X115950785Y-120594399D01*
X116017115Y-120813059D01*
X116124829Y-121014578D01*
X116269788Y-121191212D01*
X116446421Y-121336171D01*
X116647940Y-121443885D01*
X116866600Y-121510215D01*
X117094000Y-121532612D01*
X117321399Y-121510215D01*
X117540059Y-121443885D01*
X117729000Y-121342894D01*
X117917940Y-121443885D01*
X118136600Y-121510215D01*
X118364000Y-121532612D01*
X118591399Y-121510215D01*
X118800098Y-121446907D01*
X118864820Y-121481502D01*
X118984518Y-121517812D01*
X119109000Y-121530072D01*
X120159000Y-121530072D01*
X120283482Y-121517812D01*
X120403180Y-121481502D01*
X120513494Y-121422537D01*
X120610185Y-121343185D01*
X120689537Y-121246494D01*
X120748502Y-121136180D01*
X120784812Y-121016482D01*
X120797072Y-120892000D01*
X120797072Y-119392000D01*
X120784812Y-119267518D01*
X120748502Y-119147820D01*
X120689537Y-119037506D01*
X120610185Y-118940815D01*
X120513494Y-118861463D01*
X120403180Y-118802498D01*
X120283482Y-118766188D01*
X120159000Y-118753928D01*
X119109000Y-118753928D01*
X118984518Y-118766188D01*
X118864820Y-118802498D01*
X118800098Y-118837093D01*
X118591400Y-118773785D01*
X118364000Y-118751388D01*
X118136601Y-118773785D01*
X117917941Y-118840115D01*
X117729001Y-118941106D01*
X117540060Y-118840115D01*
X117321400Y-118773785D01*
X117094000Y-118751388D01*
X116866601Y-118773785D01*
X116647941Y-118840115D01*
X116446422Y-118947829D01*
X116269789Y-119092788D01*
X116124830Y-119269421D01*
X116017115Y-119470940D01*
X115950785Y-119689600D01*
X115934000Y-119860021D01*
X112989045Y-119860021D01*
X112964775Y-119738011D01*
X112860371Y-119485957D01*
X112708799Y-119259114D01*
X112515886Y-119066201D01*
X112289043Y-118914629D01*
X112036989Y-118810225D01*
X111769411Y-118757000D01*
X111496589Y-118757000D01*
X111229011Y-118810225D01*
X110976957Y-118914629D01*
X110750114Y-119066201D01*
X110557201Y-119259114D01*
X110405629Y-119485957D01*
X110301225Y-119738011D01*
X110248000Y-120005589D01*
X106737241Y-120005589D01*
X106789853Y-119878574D01*
X106845000Y-119601335D01*
X106845000Y-119318665D01*
X106789853Y-119041426D01*
X106681680Y-118780273D01*
X106524637Y-118545241D01*
X106324759Y-118345363D01*
X106089727Y-118188320D01*
X105828574Y-118080147D01*
X105551335Y-118025000D01*
X105268665Y-118025000D01*
X104991426Y-118080147D01*
X104730273Y-118188320D01*
X104495241Y-118345363D01*
X104295363Y-118545241D01*
X104138320Y-118780273D01*
X104030147Y-119041426D01*
X103975000Y-119318665D01*
X100170151Y-119318665D01*
X100141775Y-119176011D01*
X100037371Y-118923957D01*
X99885799Y-118697114D01*
X99692886Y-118504201D01*
X99466043Y-118352629D01*
X99213989Y-118248225D01*
X98946411Y-118195000D01*
X98673589Y-118195000D01*
X98406011Y-118248225D01*
X98153957Y-118352629D01*
X97927114Y-118504201D01*
X97734201Y-118697114D01*
X97582629Y-118923957D01*
X97478225Y-119176011D01*
X97425000Y-119443589D01*
X95295000Y-119443589D01*
X95241775Y-119176011D01*
X95137371Y-118923957D01*
X94985799Y-118697114D01*
X94792886Y-118504201D01*
X94566043Y-118352629D01*
X94313989Y-118248225D01*
X94046411Y-118195000D01*
X93773589Y-118195000D01*
X93506011Y-118248225D01*
X93253957Y-118352629D01*
X93027114Y-118504201D01*
X92834201Y-118697114D01*
X92682629Y-118923957D01*
X92578225Y-119176011D01*
X92525000Y-119443589D01*
X84181970Y-119443589D01*
X82575000Y-117836620D01*
X82575000Y-116444665D01*
X87719000Y-116444665D01*
X87719000Y-116727335D01*
X87774147Y-117004574D01*
X87882320Y-117265727D01*
X88039363Y-117500759D01*
X88239241Y-117700637D01*
X88474273Y-117857680D01*
X88735426Y-117965853D01*
X89012665Y-118021000D01*
X89295335Y-118021000D01*
X89572574Y-117965853D01*
X89833727Y-117857680D01*
X90068759Y-117700637D01*
X90268637Y-117500759D01*
X90425680Y-117265727D01*
X90533853Y-117004574D01*
X90589000Y-116727335D01*
X90589000Y-116444665D01*
X90533853Y-116167426D01*
X90472235Y-116018665D01*
X101435000Y-116018665D01*
X101435000Y-116301335D01*
X101490147Y-116578574D01*
X101598320Y-116839727D01*
X101755363Y-117074759D01*
X101955241Y-117274637D01*
X102190273Y-117431680D01*
X102451426Y-117539853D01*
X102728665Y-117595000D01*
X103011335Y-117595000D01*
X103288574Y-117539853D01*
X103549727Y-117431680D01*
X103784759Y-117274637D01*
X103984637Y-117074759D01*
X104141680Y-116839727D01*
X104249853Y-116578574D01*
X104305000Y-116301335D01*
X104305000Y-116018665D01*
X106435000Y-116018665D01*
X106435000Y-116301335D01*
X106490147Y-116578574D01*
X106598320Y-116839727D01*
X106755363Y-117074759D01*
X106955241Y-117274637D01*
X107190273Y-117431680D01*
X107451426Y-117539853D01*
X107728665Y-117595000D01*
X108011335Y-117595000D01*
X108288574Y-117539853D01*
X108549727Y-117431680D01*
X108784759Y-117274637D01*
X108984637Y-117074759D01*
X109141680Y-116839727D01*
X109249853Y-116578574D01*
X109305000Y-116301335D01*
X109305000Y-116195595D01*
X119265000Y-116195595D01*
X119265000Y-116468417D01*
X119318225Y-116735995D01*
X119422629Y-116988049D01*
X119574201Y-117214892D01*
X119767114Y-117407805D01*
X119993957Y-117559377D01*
X120246011Y-117663781D01*
X120513589Y-117717006D01*
X120786411Y-117717006D01*
X121053989Y-117663781D01*
X121123694Y-117634908D01*
X121175147Y-117893574D01*
X121283320Y-118154727D01*
X121440363Y-118389759D01*
X121640241Y-118589637D01*
X121875273Y-118746680D01*
X122136426Y-118854853D01*
X122413665Y-118910000D01*
X122696335Y-118910000D01*
X122973574Y-118854853D01*
X123234727Y-118746680D01*
X123469759Y-118589637D01*
X123669637Y-118389759D01*
X123826680Y-118154727D01*
X123934853Y-117893574D01*
X123990000Y-117616335D01*
X123990000Y-117333665D01*
X123934853Y-117056426D01*
X123826680Y-116795273D01*
X123669637Y-116560241D01*
X123469759Y-116360363D01*
X123234727Y-116203320D01*
X122973574Y-116095147D01*
X122696335Y-116040000D01*
X122413665Y-116040000D01*
X122138937Y-116094648D01*
X124547049Y-113686536D01*
X124580817Y-113658823D01*
X124691411Y-113524065D01*
X124773589Y-113370319D01*
X124824195Y-113203496D01*
X124837000Y-113073483D01*
X124837000Y-113073473D01*
X124841281Y-113030007D01*
X124837000Y-112986541D01*
X124837000Y-108712000D01*
X133231319Y-108712000D01*
X133261970Y-109023204D01*
X133352745Y-109322449D01*
X133500155Y-109598235D01*
X133698537Y-109839963D01*
X133871609Y-109982000D01*
X133698537Y-110124037D01*
X133500155Y-110365765D01*
X133352745Y-110641551D01*
X133261970Y-110940796D01*
X133231319Y-111252000D01*
X133261970Y-111563204D01*
X133352745Y-111862449D01*
X133500155Y-112138235D01*
X133698537Y-112379963D01*
X133940265Y-112578345D01*
X134216051Y-112725755D01*
X134515296Y-112816530D01*
X134748514Y-112839500D01*
X134999486Y-112839500D01*
X135232704Y-112816530D01*
X135531949Y-112725755D01*
X135807735Y-112578345D01*
X136049463Y-112379963D01*
X136247845Y-112138235D01*
X136395255Y-111862449D01*
X136486030Y-111563204D01*
X136516681Y-111252000D01*
X136486030Y-110940796D01*
X136395255Y-110641551D01*
X136323693Y-110507667D01*
X147526312Y-110507667D01*
X147535854Y-110632386D01*
X147569544Y-110752848D01*
X147626088Y-110864422D01*
X147703312Y-110962821D01*
X147798249Y-111044264D01*
X149033530Y-111909217D01*
X149142532Y-111970574D01*
X149261409Y-112009486D01*
X149385594Y-112024459D01*
X149510313Y-112014917D01*
X149630775Y-111981227D01*
X149742349Y-111924683D01*
X149840748Y-111847459D01*
X149922191Y-111752522D01*
X150787144Y-110517241D01*
X150848501Y-110408239D01*
X150887413Y-110289362D01*
X150902386Y-110165177D01*
X150892844Y-110040458D01*
X150859154Y-109919996D01*
X150802610Y-109808422D01*
X150725386Y-109710023D01*
X150630449Y-109628580D01*
X149395168Y-108763627D01*
X149286166Y-108702270D01*
X149167289Y-108663358D01*
X149043104Y-108648385D01*
X148918385Y-108657927D01*
X148797923Y-108691617D01*
X148686349Y-108748161D01*
X148587950Y-108825385D01*
X148506507Y-108920322D01*
X147641554Y-110155603D01*
X147580197Y-110264605D01*
X147541285Y-110383482D01*
X147526312Y-110507667D01*
X136323693Y-110507667D01*
X136247845Y-110365765D01*
X136049463Y-110124037D01*
X135876391Y-109982000D01*
X136049463Y-109839963D01*
X136247845Y-109598235D01*
X136395255Y-109322449D01*
X136486030Y-109023204D01*
X136516681Y-108712000D01*
X136486030Y-108400796D01*
X136395255Y-108101551D01*
X136247845Y-107825765D01*
X136144554Y-107699905D01*
X136228494Y-107655037D01*
X136325185Y-107575685D01*
X136404537Y-107478994D01*
X136463502Y-107368680D01*
X136499812Y-107248982D01*
X136512072Y-107124500D01*
X136512072Y-105219500D01*
X136499812Y-105095018D01*
X136463502Y-104975320D01*
X136404537Y-104865006D01*
X136325185Y-104768315D01*
X136228494Y-104688963D01*
X136118180Y-104629998D01*
X135998482Y-104593688D01*
X135874000Y-104581428D01*
X133874000Y-104581428D01*
X133749518Y-104593688D01*
X133629820Y-104629998D01*
X133519506Y-104688963D01*
X133422815Y-104768315D01*
X133343463Y-104865006D01*
X133284498Y-104975320D01*
X133248188Y-105095018D01*
X133235928Y-105219500D01*
X133235928Y-107124500D01*
X133248188Y-107248982D01*
X133284498Y-107368680D01*
X133343463Y-107478994D01*
X133422815Y-107575685D01*
X133519506Y-107655037D01*
X133603446Y-107699905D01*
X133500155Y-107825765D01*
X133352745Y-108101551D01*
X133261970Y-108400796D01*
X133231319Y-108712000D01*
X124837000Y-108712000D01*
X124837000Y-101911685D01*
X125027799Y-101720886D01*
X125179371Y-101494043D01*
X125283775Y-101241989D01*
X125337000Y-100974411D01*
X125337000Y-100701589D01*
X125283775Y-100434011D01*
X125179371Y-100181957D01*
X125027799Y-99955114D01*
X124834886Y-99762201D01*
X124608043Y-99610629D01*
X124355989Y-99506225D01*
X124088411Y-99453000D01*
X123815589Y-99453000D01*
X123548011Y-99506225D01*
X123295957Y-99610629D01*
X123069114Y-99762201D01*
X122876201Y-99955114D01*
X122724629Y-100181957D01*
X122620225Y-100434011D01*
X122567000Y-100701589D01*
X122567000Y-100974411D01*
X122620225Y-101241989D01*
X122724629Y-101494043D01*
X122876201Y-101720886D01*
X123067000Y-101911685D01*
X123067001Y-112663426D01*
X120783422Y-114947006D01*
X120513589Y-114947006D01*
X120246011Y-115000231D01*
X119993957Y-115104635D01*
X119767114Y-115256207D01*
X119574201Y-115449120D01*
X119422629Y-115675963D01*
X119318225Y-115928017D01*
X119265000Y-116195595D01*
X109305000Y-116195595D01*
X109305000Y-116018665D01*
X109249853Y-115741426D01*
X109141680Y-115480273D01*
X108984637Y-115245241D01*
X108784759Y-115045363D01*
X108549727Y-114888320D01*
X108288574Y-114780147D01*
X108011335Y-114725000D01*
X107728665Y-114725000D01*
X107451426Y-114780147D01*
X107190273Y-114888320D01*
X106955241Y-115045363D01*
X106755363Y-115245241D01*
X106598320Y-115480273D01*
X106490147Y-115741426D01*
X106435000Y-116018665D01*
X104305000Y-116018665D01*
X104249853Y-115741426D01*
X104141680Y-115480273D01*
X103984637Y-115245241D01*
X103784759Y-115045363D01*
X103549727Y-114888320D01*
X103288574Y-114780147D01*
X103011335Y-114725000D01*
X102728665Y-114725000D01*
X102451426Y-114780147D01*
X102190273Y-114888320D01*
X101955241Y-115045363D01*
X101755363Y-115245241D01*
X101598320Y-115480273D01*
X101490147Y-115741426D01*
X101435000Y-116018665D01*
X90472235Y-116018665D01*
X90425680Y-115906273D01*
X90268637Y-115671241D01*
X90068759Y-115471363D01*
X89833727Y-115314320D01*
X89572574Y-115206147D01*
X89295335Y-115151000D01*
X89012665Y-115151000D01*
X88735426Y-115206147D01*
X88474273Y-115314320D01*
X88239241Y-115471363D01*
X88039363Y-115671241D01*
X87882320Y-115906273D01*
X87774147Y-116167426D01*
X87719000Y-116444665D01*
X82575000Y-116444665D01*
X82575000Y-111976000D01*
X84921928Y-111976000D01*
X84921928Y-113576000D01*
X84934188Y-113700482D01*
X84970498Y-113820180D01*
X85029463Y-113930494D01*
X85108815Y-114027185D01*
X85205506Y-114106537D01*
X85315820Y-114165502D01*
X85435518Y-114201812D01*
X85560000Y-114214072D01*
X87160000Y-114214072D01*
X87284482Y-114201812D01*
X87404180Y-114165502D01*
X87514494Y-114106537D01*
X87611185Y-114027185D01*
X87690537Y-113930494D01*
X87749502Y-113820180D01*
X87785812Y-113700482D01*
X87786643Y-113692039D01*
X87985241Y-113890637D01*
X88220273Y-114047680D01*
X88481426Y-114155853D01*
X88758665Y-114211000D01*
X89041335Y-114211000D01*
X89318574Y-114155853D01*
X89579727Y-114047680D01*
X89814759Y-113890637D01*
X90014637Y-113690759D01*
X90170000Y-113458241D01*
X90325363Y-113690759D01*
X90525241Y-113890637D01*
X90760273Y-114047680D01*
X91021426Y-114155853D01*
X91298665Y-114211000D01*
X91581335Y-114211000D01*
X91858574Y-114155853D01*
X92119727Y-114047680D01*
X92354759Y-113890637D01*
X92554637Y-113690759D01*
X92710000Y-113458241D01*
X92865363Y-113690759D01*
X93065241Y-113890637D01*
X93300273Y-114047680D01*
X93561426Y-114155853D01*
X93838665Y-114211000D01*
X94121335Y-114211000D01*
X94398574Y-114155853D01*
X94659727Y-114047680D01*
X94894759Y-113890637D01*
X95094637Y-113690759D01*
X95250000Y-113458241D01*
X95405363Y-113690759D01*
X95605241Y-113890637D01*
X95840273Y-114047680D01*
X96101426Y-114155853D01*
X96378665Y-114211000D01*
X96661335Y-114211000D01*
X96938574Y-114155853D01*
X97199727Y-114047680D01*
X97434759Y-113890637D01*
X97634637Y-113690759D01*
X97790000Y-113458241D01*
X97945363Y-113690759D01*
X98145241Y-113890637D01*
X98380273Y-114047680D01*
X98641426Y-114155853D01*
X98918665Y-114211000D01*
X99201335Y-114211000D01*
X99478574Y-114155853D01*
X99739727Y-114047680D01*
X99974759Y-113890637D01*
X100174637Y-113690759D01*
X100330000Y-113458241D01*
X100485363Y-113690759D01*
X100685241Y-113890637D01*
X100920273Y-114047680D01*
X101181426Y-114155853D01*
X101458665Y-114211000D01*
X101741335Y-114211000D01*
X102018574Y-114155853D01*
X102279727Y-114047680D01*
X102514759Y-113890637D01*
X102714637Y-113690759D01*
X102870000Y-113458241D01*
X103025363Y-113690759D01*
X103225241Y-113890637D01*
X103460273Y-114047680D01*
X103721426Y-114155853D01*
X103998665Y-114211000D01*
X104281335Y-114211000D01*
X104558574Y-114155853D01*
X104819727Y-114047680D01*
X105054759Y-113890637D01*
X105254637Y-113690759D01*
X105410000Y-113458241D01*
X105565363Y-113690759D01*
X105765241Y-113890637D01*
X106000273Y-114047680D01*
X106261426Y-114155853D01*
X106538665Y-114211000D01*
X106821335Y-114211000D01*
X107098574Y-114155853D01*
X107359727Y-114047680D01*
X107594759Y-113890637D01*
X107794637Y-113690759D01*
X107950000Y-113458241D01*
X108105363Y-113690759D01*
X108305241Y-113890637D01*
X108540273Y-114047680D01*
X108801426Y-114155853D01*
X109078665Y-114211000D01*
X109361335Y-114211000D01*
X109638574Y-114155853D01*
X109899727Y-114047680D01*
X110134759Y-113890637D01*
X110334637Y-113690759D01*
X110490000Y-113458241D01*
X110645363Y-113690759D01*
X110845241Y-113890637D01*
X111080273Y-114047680D01*
X111341426Y-114155853D01*
X111618665Y-114211000D01*
X111901335Y-114211000D01*
X112178574Y-114155853D01*
X112439727Y-114047680D01*
X112674759Y-113890637D01*
X112874637Y-113690759D01*
X113030000Y-113458241D01*
X113185363Y-113690759D01*
X113385241Y-113890637D01*
X113620273Y-114047680D01*
X113881426Y-114155853D01*
X114158665Y-114211000D01*
X114441335Y-114211000D01*
X114718574Y-114155853D01*
X114979727Y-114047680D01*
X115214759Y-113890637D01*
X115414637Y-113690759D01*
X115570000Y-113458241D01*
X115725363Y-113690759D01*
X115925241Y-113890637D01*
X116160273Y-114047680D01*
X116421426Y-114155853D01*
X116698665Y-114211000D01*
X116981335Y-114211000D01*
X117258574Y-114155853D01*
X117519727Y-114047680D01*
X117754759Y-113890637D01*
X117954637Y-113690759D01*
X118110000Y-113458241D01*
X118265363Y-113690759D01*
X118465241Y-113890637D01*
X118700273Y-114047680D01*
X118961426Y-114155853D01*
X119238665Y-114211000D01*
X119521335Y-114211000D01*
X119798574Y-114155853D01*
X120059727Y-114047680D01*
X120294759Y-113890637D01*
X120494637Y-113690759D01*
X120651680Y-113455727D01*
X120759853Y-113194574D01*
X120815000Y-112917335D01*
X120815000Y-112634665D01*
X120759853Y-112357426D01*
X120651680Y-112096273D01*
X120494637Y-111861241D01*
X120294759Y-111661363D01*
X120059727Y-111504320D01*
X119798574Y-111396147D01*
X119521335Y-111341000D01*
X119238665Y-111341000D01*
X118961426Y-111396147D01*
X118700273Y-111504320D01*
X118465241Y-111661363D01*
X118265363Y-111861241D01*
X118110000Y-112093759D01*
X117954637Y-111861241D01*
X117754759Y-111661363D01*
X117519727Y-111504320D01*
X117258574Y-111396147D01*
X116981335Y-111341000D01*
X116698665Y-111341000D01*
X116421426Y-111396147D01*
X116160273Y-111504320D01*
X115925241Y-111661363D01*
X115725363Y-111861241D01*
X115570000Y-112093759D01*
X115414637Y-111861241D01*
X115214759Y-111661363D01*
X114979727Y-111504320D01*
X114718574Y-111396147D01*
X114441335Y-111341000D01*
X114158665Y-111341000D01*
X113881426Y-111396147D01*
X113620273Y-111504320D01*
X113385241Y-111661363D01*
X113185363Y-111861241D01*
X113030000Y-112093759D01*
X112874637Y-111861241D01*
X112674759Y-111661363D01*
X112439727Y-111504320D01*
X112178574Y-111396147D01*
X111901335Y-111341000D01*
X111618665Y-111341000D01*
X111341426Y-111396147D01*
X111080273Y-111504320D01*
X110845241Y-111661363D01*
X110645363Y-111861241D01*
X110490000Y-112093759D01*
X110334637Y-111861241D01*
X110134759Y-111661363D01*
X109899727Y-111504320D01*
X109638574Y-111396147D01*
X109361335Y-111341000D01*
X109078665Y-111341000D01*
X108801426Y-111396147D01*
X108540273Y-111504320D01*
X108305241Y-111661363D01*
X108105363Y-111861241D01*
X107950000Y-112093759D01*
X107794637Y-111861241D01*
X107594759Y-111661363D01*
X107359727Y-111504320D01*
X107098574Y-111396147D01*
X106821335Y-111341000D01*
X106538665Y-111341000D01*
X106261426Y-111396147D01*
X106000273Y-111504320D01*
X105765241Y-111661363D01*
X105565363Y-111861241D01*
X105410000Y-112093759D01*
X105254637Y-111861241D01*
X105054759Y-111661363D01*
X104819727Y-111504320D01*
X104558574Y-111396147D01*
X104281335Y-111341000D01*
X103998665Y-111341000D01*
X103721426Y-111396147D01*
X103460273Y-111504320D01*
X103225241Y-111661363D01*
X103025363Y-111861241D01*
X102870000Y-112093759D01*
X102714637Y-111861241D01*
X102514759Y-111661363D01*
X102279727Y-111504320D01*
X102018574Y-111396147D01*
X101741335Y-111341000D01*
X101458665Y-111341000D01*
X101181426Y-111396147D01*
X100920273Y-111504320D01*
X100685241Y-111661363D01*
X100485363Y-111861241D01*
X100330000Y-112093759D01*
X100174637Y-111861241D01*
X99974759Y-111661363D01*
X99739727Y-111504320D01*
X99478574Y-111396147D01*
X99201335Y-111341000D01*
X98918665Y-111341000D01*
X98641426Y-111396147D01*
X98380273Y-111504320D01*
X98145241Y-111661363D01*
X97945363Y-111861241D01*
X97790000Y-112093759D01*
X97634637Y-111861241D01*
X97434759Y-111661363D01*
X97199727Y-111504320D01*
X96938574Y-111396147D01*
X96661335Y-111341000D01*
X96378665Y-111341000D01*
X96101426Y-111396147D01*
X95840273Y-111504320D01*
X95605241Y-111661363D01*
X95405363Y-111861241D01*
X95250000Y-112093759D01*
X95094637Y-111861241D01*
X94894759Y-111661363D01*
X94659727Y-111504320D01*
X94398574Y-111396147D01*
X94121335Y-111341000D01*
X93838665Y-111341000D01*
X93561426Y-111396147D01*
X93300273Y-111504320D01*
X93065241Y-111661363D01*
X92865363Y-111861241D01*
X92710000Y-112093759D01*
X92554637Y-111861241D01*
X92354759Y-111661363D01*
X92119727Y-111504320D01*
X91858574Y-111396147D01*
X91581335Y-111341000D01*
X91298665Y-111341000D01*
X91021426Y-111396147D01*
X90760273Y-111504320D01*
X90525241Y-111661363D01*
X90325363Y-111861241D01*
X90170000Y-112093759D01*
X90014637Y-111861241D01*
X89814759Y-111661363D01*
X89579727Y-111504320D01*
X89318574Y-111396147D01*
X89041335Y-111341000D01*
X88758665Y-111341000D01*
X88481426Y-111396147D01*
X88220273Y-111504320D01*
X87985241Y-111661363D01*
X87786643Y-111859961D01*
X87785812Y-111851518D01*
X87749502Y-111731820D01*
X87690537Y-111621506D01*
X87611185Y-111524815D01*
X87514494Y-111445463D01*
X87404180Y-111386498D01*
X87284482Y-111350188D01*
X87160000Y-111337928D01*
X85560000Y-111337928D01*
X85435518Y-111350188D01*
X85315820Y-111386498D01*
X85205506Y-111445463D01*
X85108815Y-111524815D01*
X85029463Y-111621506D01*
X84970498Y-111731820D01*
X84934188Y-111851518D01*
X84921928Y-111976000D01*
X82575000Y-111976000D01*
X82575000Y-107093408D01*
X82578192Y-107060999D01*
X82575000Y-107028590D01*
X82575000Y-107028581D01*
X82565450Y-106931617D01*
X82527710Y-106807207D01*
X82466426Y-106692551D01*
X82466425Y-106692549D01*
X82404614Y-106617233D01*
X82404612Y-106617231D01*
X82383948Y-106592052D01*
X82358770Y-106571389D01*
X75082000Y-99294620D01*
X75082000Y-96576421D01*
X75177520Y-96576421D01*
X75177520Y-96996979D01*
X75259567Y-97409456D01*
X75420508Y-97798002D01*
X75654157Y-98147683D01*
X75951537Y-98445063D01*
X76301218Y-98678712D01*
X76689764Y-98839653D01*
X77102241Y-98921700D01*
X77522799Y-98921700D01*
X77935276Y-98839653D01*
X78323822Y-98678712D01*
X78673503Y-98445063D01*
X78970883Y-98147683D01*
X79204532Y-97798002D01*
X79282407Y-97609995D01*
X79425932Y-97824795D01*
X79618845Y-98017708D01*
X79845688Y-98169280D01*
X80097742Y-98273684D01*
X80365320Y-98326909D01*
X80493731Y-98326909D01*
X82835001Y-100668179D01*
X82835000Y-103166315D01*
X82744201Y-103257114D01*
X82592629Y-103483957D01*
X82488225Y-103736011D01*
X82435000Y-104003589D01*
X82435000Y-104276411D01*
X82488225Y-104543989D01*
X82592629Y-104796043D01*
X82744201Y-105022886D01*
X82937114Y-105215799D01*
X83163957Y-105367371D01*
X83416011Y-105471775D01*
X83683589Y-105525000D01*
X83956411Y-105525000D01*
X84223989Y-105471775D01*
X84476043Y-105367371D01*
X84702886Y-105215799D01*
X84895799Y-105022886D01*
X84935049Y-104964144D01*
X84925000Y-105014665D01*
X84925000Y-105297335D01*
X84980147Y-105574574D01*
X85088320Y-105835727D01*
X85245363Y-106070759D01*
X85445241Y-106270637D01*
X85680273Y-106427680D01*
X85941426Y-106535853D01*
X86218665Y-106591000D01*
X86501335Y-106591000D01*
X86778574Y-106535853D01*
X87039727Y-106427680D01*
X87274759Y-106270637D01*
X87474637Y-106070759D01*
X87630000Y-105838241D01*
X87785363Y-106070759D01*
X87985241Y-106270637D01*
X88220273Y-106427680D01*
X88481426Y-106535853D01*
X88758665Y-106591000D01*
X89041335Y-106591000D01*
X89318574Y-106535853D01*
X89579727Y-106427680D01*
X89814759Y-106270637D01*
X90014637Y-106070759D01*
X90170000Y-105838241D01*
X90325363Y-106070759D01*
X90525241Y-106270637D01*
X90760273Y-106427680D01*
X91021426Y-106535853D01*
X91298665Y-106591000D01*
X91581335Y-106591000D01*
X91858574Y-106535853D01*
X92119727Y-106427680D01*
X92354759Y-106270637D01*
X92554637Y-106070759D01*
X92710000Y-105838241D01*
X92865363Y-106070759D01*
X93065241Y-106270637D01*
X93300273Y-106427680D01*
X93561426Y-106535853D01*
X93838665Y-106591000D01*
X94121335Y-106591000D01*
X94398574Y-106535853D01*
X94659727Y-106427680D01*
X94894759Y-106270637D01*
X95094637Y-106070759D01*
X95250000Y-105838241D01*
X95405363Y-106070759D01*
X95605241Y-106270637D01*
X95840273Y-106427680D01*
X96101426Y-106535853D01*
X96378665Y-106591000D01*
X96661335Y-106591000D01*
X96938574Y-106535853D01*
X97199727Y-106427680D01*
X97434759Y-106270637D01*
X97634637Y-106070759D01*
X97790000Y-105838241D01*
X97945363Y-106070759D01*
X98145241Y-106270637D01*
X98380273Y-106427680D01*
X98641426Y-106535853D01*
X98918665Y-106591000D01*
X99201335Y-106591000D01*
X99478574Y-106535853D01*
X99739727Y-106427680D01*
X99974759Y-106270637D01*
X100174637Y-106070759D01*
X100330000Y-105838241D01*
X100485363Y-106070759D01*
X100685241Y-106270637D01*
X100920273Y-106427680D01*
X101181426Y-106535853D01*
X101458665Y-106591000D01*
X101741335Y-106591000D01*
X102018574Y-106535853D01*
X102279727Y-106427680D01*
X102514759Y-106270637D01*
X102714637Y-106070759D01*
X102870000Y-105838241D01*
X103025363Y-106070759D01*
X103225241Y-106270637D01*
X103460273Y-106427680D01*
X103721426Y-106535853D01*
X103998665Y-106591000D01*
X104281335Y-106591000D01*
X104558574Y-106535853D01*
X104819727Y-106427680D01*
X105054759Y-106270637D01*
X105254637Y-106070759D01*
X105410000Y-105838241D01*
X105565363Y-106070759D01*
X105765241Y-106270637D01*
X106000273Y-106427680D01*
X106261426Y-106535853D01*
X106538665Y-106591000D01*
X106821335Y-106591000D01*
X107098574Y-106535853D01*
X107359727Y-106427680D01*
X107594759Y-106270637D01*
X107794637Y-106070759D01*
X107950000Y-105838241D01*
X108105363Y-106070759D01*
X108305241Y-106270637D01*
X108540273Y-106427680D01*
X108801426Y-106535853D01*
X109078665Y-106591000D01*
X109361335Y-106591000D01*
X109638574Y-106535853D01*
X109899727Y-106427680D01*
X110134759Y-106270637D01*
X110334637Y-106070759D01*
X110490000Y-105838241D01*
X110645363Y-106070759D01*
X110845241Y-106270637D01*
X111080273Y-106427680D01*
X111341426Y-106535853D01*
X111618665Y-106591000D01*
X111901335Y-106591000D01*
X112178574Y-106535853D01*
X112439727Y-106427680D01*
X112674759Y-106270637D01*
X112874637Y-106070759D01*
X113030000Y-105838241D01*
X113185363Y-106070759D01*
X113385241Y-106270637D01*
X113620273Y-106427680D01*
X113881426Y-106535853D01*
X114158665Y-106591000D01*
X114441335Y-106591000D01*
X114718574Y-106535853D01*
X114979727Y-106427680D01*
X115214759Y-106270637D01*
X115414637Y-106070759D01*
X115570000Y-105838241D01*
X115725363Y-106070759D01*
X115925241Y-106270637D01*
X116160273Y-106427680D01*
X116421426Y-106535853D01*
X116698665Y-106591000D01*
X116981335Y-106591000D01*
X117258574Y-106535853D01*
X117519727Y-106427680D01*
X117754759Y-106270637D01*
X117954637Y-106070759D01*
X118110000Y-105838241D01*
X118265363Y-106070759D01*
X118465241Y-106270637D01*
X118700273Y-106427680D01*
X118961426Y-106535853D01*
X119238665Y-106591000D01*
X119521335Y-106591000D01*
X119798574Y-106535853D01*
X120059727Y-106427680D01*
X120294759Y-106270637D01*
X120494637Y-106070759D01*
X120651680Y-105835727D01*
X120759853Y-105574574D01*
X120815000Y-105297335D01*
X120815000Y-105014665D01*
X120759853Y-104737426D01*
X120651680Y-104476273D01*
X120494637Y-104241241D01*
X120294759Y-104041363D01*
X120059727Y-103884320D01*
X119798574Y-103776147D01*
X119521335Y-103721000D01*
X119238665Y-103721000D01*
X118961426Y-103776147D01*
X118700273Y-103884320D01*
X118465241Y-104041363D01*
X118265363Y-104241241D01*
X118110000Y-104473759D01*
X117954637Y-104241241D01*
X117754759Y-104041363D01*
X117519727Y-103884320D01*
X117258574Y-103776147D01*
X116981335Y-103721000D01*
X116698665Y-103721000D01*
X116421426Y-103776147D01*
X116160273Y-103884320D01*
X115925241Y-104041363D01*
X115725363Y-104241241D01*
X115570000Y-104473759D01*
X115414637Y-104241241D01*
X115214759Y-104041363D01*
X114979727Y-103884320D01*
X114718574Y-103776147D01*
X114441335Y-103721000D01*
X114158665Y-103721000D01*
X113881426Y-103776147D01*
X113620273Y-103884320D01*
X113385241Y-104041363D01*
X113185363Y-104241241D01*
X113030000Y-104473759D01*
X112874637Y-104241241D01*
X112674759Y-104041363D01*
X112439727Y-103884320D01*
X112178574Y-103776147D01*
X111901335Y-103721000D01*
X111618665Y-103721000D01*
X111341426Y-103776147D01*
X111080273Y-103884320D01*
X110845241Y-104041363D01*
X110645363Y-104241241D01*
X110490000Y-104473759D01*
X110334637Y-104241241D01*
X110134759Y-104041363D01*
X109899727Y-103884320D01*
X109638574Y-103776147D01*
X109361335Y-103721000D01*
X109078665Y-103721000D01*
X108801426Y-103776147D01*
X108540273Y-103884320D01*
X108305241Y-104041363D01*
X108105363Y-104241241D01*
X107950000Y-104473759D01*
X107794637Y-104241241D01*
X107594759Y-104041363D01*
X107359727Y-103884320D01*
X107098574Y-103776147D01*
X106821335Y-103721000D01*
X106538665Y-103721000D01*
X106261426Y-103776147D01*
X106000273Y-103884320D01*
X105765241Y-104041363D01*
X105565363Y-104241241D01*
X105410000Y-104473759D01*
X105254637Y-104241241D01*
X105054759Y-104041363D01*
X104819727Y-103884320D01*
X104558574Y-103776147D01*
X104281335Y-103721000D01*
X103998665Y-103721000D01*
X103721426Y-103776147D01*
X103460273Y-103884320D01*
X103225241Y-104041363D01*
X103025363Y-104241241D01*
X102870000Y-104473759D01*
X102714637Y-104241241D01*
X102514759Y-104041363D01*
X102279727Y-103884320D01*
X102018574Y-103776147D01*
X101741335Y-103721000D01*
X101458665Y-103721000D01*
X101181426Y-103776147D01*
X100920273Y-103884320D01*
X100685241Y-104041363D01*
X100485363Y-104241241D01*
X100330000Y-104473759D01*
X100174637Y-104241241D01*
X99974759Y-104041363D01*
X99739727Y-103884320D01*
X99478574Y-103776147D01*
X99201335Y-103721000D01*
X98918665Y-103721000D01*
X98641426Y-103776147D01*
X98380273Y-103884320D01*
X98145241Y-104041363D01*
X97945363Y-104241241D01*
X97790000Y-104473759D01*
X97634637Y-104241241D01*
X97434759Y-104041363D01*
X97199727Y-103884320D01*
X96938574Y-103776147D01*
X96661335Y-103721000D01*
X96378665Y-103721000D01*
X96101426Y-103776147D01*
X95840273Y-103884320D01*
X95605241Y-104041363D01*
X95405363Y-104241241D01*
X95250000Y-104473759D01*
X95094637Y-104241241D01*
X94894759Y-104041363D01*
X94659727Y-103884320D01*
X94398574Y-103776147D01*
X94121335Y-103721000D01*
X93838665Y-103721000D01*
X93561426Y-103776147D01*
X93300273Y-103884320D01*
X93065241Y-104041363D01*
X92865363Y-104241241D01*
X92710000Y-104473759D01*
X92554637Y-104241241D01*
X92354759Y-104041363D01*
X92119727Y-103884320D01*
X91858574Y-103776147D01*
X91581335Y-103721000D01*
X91298665Y-103721000D01*
X91021426Y-103776147D01*
X90760273Y-103884320D01*
X90525241Y-104041363D01*
X90325363Y-104241241D01*
X90170000Y-104473759D01*
X90014637Y-104241241D01*
X89814759Y-104041363D01*
X89579727Y-103884320D01*
X89318574Y-103776147D01*
X89041335Y-103721000D01*
X88758665Y-103721000D01*
X88481426Y-103776147D01*
X88220273Y-103884320D01*
X87985241Y-104041363D01*
X87785363Y-104241241D01*
X87630000Y-104473759D01*
X87474637Y-104241241D01*
X87274759Y-104041363D01*
X87039727Y-103884320D01*
X86778574Y-103776147D01*
X86501335Y-103721000D01*
X86218665Y-103721000D01*
X85941426Y-103776147D01*
X85680273Y-103884320D01*
X85445241Y-104041363D01*
X85245363Y-104241241D01*
X85197852Y-104312347D01*
X85205000Y-104276411D01*
X85205000Y-104003589D01*
X85151775Y-103736011D01*
X85047371Y-103483957D01*
X84895799Y-103257114D01*
X84805000Y-103166315D01*
X84805000Y-100308557D01*
X84809765Y-100260177D01*
X84790747Y-100067084D01*
X84734424Y-99881411D01*
X84702557Y-99821792D01*
X84642960Y-99710294D01*
X84519870Y-99560308D01*
X84482284Y-99529462D01*
X81886731Y-96933909D01*
X81886731Y-96805498D01*
X81833506Y-96537920D01*
X81729102Y-96285866D01*
X81577530Y-96059023D01*
X81384617Y-95866110D01*
X81157774Y-95714538D01*
X80905720Y-95610134D01*
X80638142Y-95556909D01*
X80365320Y-95556909D01*
X80097742Y-95610134D01*
X79845688Y-95714538D01*
X79618845Y-95866110D01*
X79425932Y-96059023D01*
X79361781Y-96155031D01*
X79204532Y-95775398D01*
X78970883Y-95425717D01*
X78673503Y-95128337D01*
X78323822Y-94894688D01*
X77935276Y-94733747D01*
X77522799Y-94651700D01*
X77102241Y-94651700D01*
X76689764Y-94733747D01*
X76301218Y-94894688D01*
X75951537Y-95128337D01*
X75654157Y-95425717D01*
X75420508Y-95775398D01*
X75259567Y-96163944D01*
X75177520Y-96576421D01*
X75082000Y-96576421D01*
X75082000Y-85359000D01*
X77415928Y-85359000D01*
X77415928Y-87109000D01*
X77445001Y-87404186D01*
X77531104Y-87688028D01*
X77670927Y-87949618D01*
X77859097Y-88178903D01*
X78088382Y-88367073D01*
X78349972Y-88506896D01*
X78633814Y-88592999D01*
X78929000Y-88622072D01*
X80679000Y-88622072D01*
X80974186Y-88592999D01*
X81258028Y-88506896D01*
X81519618Y-88367073D01*
X81748903Y-88178903D01*
X81937073Y-87949618D01*
X82076896Y-87688028D01*
X82162999Y-87404186D01*
X82192072Y-87109000D01*
X82192072Y-85359000D01*
X82162999Y-85063814D01*
X82076896Y-84779972D01*
X81937073Y-84518382D01*
X81748903Y-84289097D01*
X81519618Y-84100927D01*
X81258028Y-83961104D01*
X81129357Y-83922072D01*
X84554000Y-83922072D01*
X84678482Y-83909812D01*
X84798180Y-83873502D01*
X84908494Y-83814537D01*
X85005185Y-83735185D01*
X85084537Y-83638494D01*
X85143502Y-83528180D01*
X85179812Y-83408482D01*
X85192072Y-83284000D01*
X85192072Y-79784000D01*
X85179812Y-79659518D01*
X85143502Y-79539820D01*
X85084537Y-79429506D01*
X85005185Y-79332815D01*
X84908494Y-79253463D01*
X84798180Y-79194498D01*
X84678482Y-79158188D01*
X84554000Y-79145928D01*
X81054000Y-79145928D01*
X80929518Y-79158188D01*
X80809820Y-79194498D01*
X80699506Y-79253463D01*
X80602815Y-79332815D01*
X80523463Y-79429506D01*
X80464498Y-79539820D01*
X80428188Y-79659518D01*
X80415928Y-79784000D01*
X80415928Y-83284000D01*
X80428188Y-83408482D01*
X80464498Y-83528180D01*
X80523463Y-83638494D01*
X80602815Y-83735185D01*
X80699506Y-83814537D01*
X80776131Y-83855494D01*
X80679000Y-83845928D01*
X78929000Y-83845928D01*
X78633814Y-83875001D01*
X78349972Y-83961104D01*
X78088382Y-84100927D01*
X77859097Y-84289097D01*
X77670927Y-84518382D01*
X77531104Y-84779972D01*
X77445001Y-85063814D01*
X77415928Y-85359000D01*
X75082000Y-85359000D01*
X75082000Y-83523324D01*
X75282829Y-83688140D01*
X75522808Y-83816411D01*
X75783201Y-83895401D01*
X76054000Y-83922072D01*
X77554000Y-83922072D01*
X77824799Y-83895401D01*
X78085192Y-83816411D01*
X78325171Y-83688140D01*
X78535515Y-83515515D01*
X78708140Y-83305171D01*
X78836411Y-83065192D01*
X78915401Y-82804799D01*
X78942072Y-82534000D01*
X78942072Y-80534000D01*
X78915401Y-80263201D01*
X78836411Y-80002808D01*
X78708140Y-79762829D01*
X78535515Y-79552485D01*
X78325171Y-79379860D01*
X78085192Y-79251589D01*
X77824799Y-79172599D01*
X77554000Y-79145928D01*
X76054000Y-79145928D01*
X75783201Y-79172599D01*
X75522808Y-79251589D01*
X75282829Y-79379860D01*
X75082000Y-79544676D01*
X75082000Y-63652000D01*
X77096694Y-63652000D01*
X76689244Y-63733047D01*
%TA.AperFunction,NonConductor*%
D33*
G36*
X76689244Y-63733047D02*
G01*
X76300698Y-63893988D01*
X75951017Y-64127637D01*
X75653637Y-64425017D01*
X75419988Y-64774698D01*
X75259047Y-65163244D01*
X75177000Y-65575721D01*
X75177000Y-65996279D01*
X75259047Y-66408756D01*
X75419988Y-66797302D01*
X75653637Y-67146983D01*
X75951017Y-67444363D01*
X76300698Y-67678012D01*
X76689244Y-67838953D01*
X77101721Y-67921000D01*
X77522279Y-67921000D01*
X77934756Y-67838953D01*
X78323302Y-67678012D01*
X78672983Y-67444363D01*
X78970363Y-67146983D01*
X79171659Y-66845721D01*
X80415000Y-66845721D01*
X80415000Y-67266279D01*
X80497047Y-67678756D01*
X80657988Y-68067302D01*
X80891637Y-68416983D01*
X81189017Y-68714363D01*
X81538698Y-68948012D01*
X81927244Y-69108953D01*
X82339721Y-69191000D01*
X82760279Y-69191000D01*
X83172756Y-69108953D01*
X83561302Y-68948012D01*
X83910983Y-68714363D01*
X84208363Y-68416983D01*
X84442012Y-68067302D01*
X84602953Y-67678756D01*
X84685000Y-67266279D01*
X84685000Y-66845721D01*
X85495000Y-66845721D01*
X85495000Y-67266279D01*
X85577047Y-67678756D01*
X85737988Y-68067302D01*
X85971637Y-68416983D01*
X86269017Y-68714363D01*
X86618698Y-68948012D01*
X87007244Y-69108953D01*
X87419721Y-69191000D01*
X87840279Y-69191000D01*
X88252756Y-69108953D01*
X88641302Y-68948012D01*
X88990983Y-68714363D01*
X89288363Y-68416983D01*
X89522012Y-68067302D01*
X89682953Y-67678756D01*
X89765000Y-67266279D01*
X89765000Y-66845721D01*
X89682953Y-66433244D01*
X89522012Y-66044698D01*
X89288363Y-65695017D01*
X89149346Y-65556000D01*
X90571928Y-65556000D01*
X90571928Y-68556000D01*
X90584188Y-68680482D01*
X90620498Y-68800180D01*
X90679463Y-68910494D01*
X90758815Y-69007185D01*
X90855506Y-69086537D01*
X90965820Y-69145502D01*
X91085518Y-69181812D01*
X91210000Y-69194072D01*
X94210000Y-69194072D01*
X94334482Y-69181812D01*
X94454180Y-69145502D01*
X94564494Y-69086537D01*
X94661185Y-69007185D01*
X94740537Y-68910494D01*
X94799502Y-68800180D01*
X94835812Y-68680482D01*
X94848072Y-68556000D01*
X94848072Y-66845721D01*
X96671000Y-66845721D01*
X96671000Y-67266279D01*
X96753047Y-67678756D01*
X96913988Y-68067302D01*
X97147637Y-68416983D01*
X97445017Y-68714363D01*
X97794698Y-68948012D01*
X98183244Y-69108953D01*
X98595721Y-69191000D01*
X99016279Y-69191000D01*
X99428756Y-69108953D01*
X99817302Y-68948012D01*
X100166983Y-68714363D01*
X100464363Y-68416983D01*
X100698012Y-68067302D01*
X100858953Y-67678756D01*
X100941000Y-67266279D01*
X100941000Y-66845721D01*
X100858953Y-66433244D01*
X100698012Y-66044698D01*
X100464363Y-65695017D01*
X100325346Y-65556000D01*
X101747928Y-65556000D01*
X101747928Y-68556000D01*
X101760188Y-68680482D01*
X101796498Y-68800180D01*
X101855463Y-68910494D01*
X101934815Y-69007185D01*
X102031506Y-69086537D01*
X102141820Y-69145502D01*
X102261518Y-69181812D01*
X102386000Y-69194072D01*
X105386000Y-69194072D01*
X105510482Y-69181812D01*
X105630180Y-69145502D01*
X105740494Y-69086537D01*
X105837185Y-69007185D01*
X105916537Y-68910494D01*
X105975502Y-68800180D01*
X106011812Y-68680482D01*
X106024072Y-68556000D01*
X106024072Y-65556000D01*
X106011812Y-65431518D01*
X105975502Y-65311820D01*
X105916537Y-65201506D01*
X105837185Y-65104815D01*
X105740494Y-65025463D01*
X105630180Y-64966498D01*
X105510482Y-64930188D01*
X105386000Y-64917928D01*
X102386000Y-64917928D01*
X102261518Y-64930188D01*
X102141820Y-64966498D01*
X102031506Y-65025463D01*
X101934815Y-65104815D01*
X101855463Y-65201506D01*
X101796498Y-65311820D01*
X101760188Y-65431518D01*
X101747928Y-65556000D01*
X100325346Y-65556000D01*
X100166983Y-65397637D01*
X99817302Y-65163988D01*
X99428756Y-65003047D01*
X99016279Y-64921000D01*
X98595721Y-64921000D01*
X98183244Y-65003047D01*
X97794698Y-65163988D01*
X97445017Y-65397637D01*
X97147637Y-65695017D01*
X96913988Y-66044698D01*
X96753047Y-66433244D01*
X96671000Y-66845721D01*
X94848072Y-66845721D01*
X94848072Y-65556000D01*
X94835812Y-65431518D01*
X94799502Y-65311820D01*
X94740537Y-65201506D01*
X94661185Y-65104815D01*
X94564494Y-65025463D01*
X94454180Y-64966498D01*
X94334482Y-64930188D01*
X94210000Y-64917928D01*
X91210000Y-64917928D01*
X91085518Y-64930188D01*
X90965820Y-64966498D01*
X90855506Y-65025463D01*
X90758815Y-65104815D01*
X90679463Y-65201506D01*
X90620498Y-65311820D01*
X90584188Y-65431518D01*
X90571928Y-65556000D01*
X89149346Y-65556000D01*
X88990983Y-65397637D01*
X88641302Y-65163988D01*
X88252756Y-65003047D01*
X87840279Y-64921000D01*
X87419721Y-64921000D01*
X87007244Y-65003047D01*
X86618698Y-65163988D01*
X86269017Y-65397637D01*
X85971637Y-65695017D01*
X85737988Y-66044698D01*
X85577047Y-66433244D01*
X85495000Y-66845721D01*
X84685000Y-66845721D01*
X84602953Y-66433244D01*
X84442012Y-66044698D01*
X84208363Y-65695017D01*
X83910983Y-65397637D01*
X83561302Y-65163988D01*
X83172756Y-65003047D01*
X82760279Y-64921000D01*
X82339721Y-64921000D01*
X81927244Y-65003047D01*
X81538698Y-65163988D01*
X81189017Y-65397637D01*
X80891637Y-65695017D01*
X80657988Y-66044698D01*
X80497047Y-66433244D01*
X80415000Y-66845721D01*
X79171659Y-66845721D01*
X79204012Y-66797302D01*
X79364953Y-66408756D01*
X79447000Y-65996279D01*
X79447000Y-65575721D01*
X79364953Y-65163244D01*
X79204012Y-64774698D01*
X78970363Y-64425017D01*
X78672983Y-64127637D01*
X78323302Y-63893988D01*
X77934756Y-63733047D01*
X77527306Y-63652000D01*
X131487499Y-63652000D01*
X131264200Y-63875299D01*
X130981740Y-63960983D01*
X130715074Y-64103519D01*
X130481339Y-64295339D01*
X130302000Y-64513865D01*
X130122661Y-64295339D01*
X129888927Y-64103519D01*
X129622261Y-63960983D01*
X129332913Y-63873210D01*
X129032000Y-63843573D01*
X128731088Y-63873210D01*
X128441740Y-63960983D01*
X128175074Y-64103519D01*
X127941339Y-64295339D01*
X127762000Y-64513865D01*
X127582661Y-64295339D01*
X127348927Y-64103519D01*
X127082261Y-63960983D01*
X126792913Y-63873210D01*
X126492000Y-63843573D01*
X126191088Y-63873210D01*
X125901740Y-63960983D01*
X125635074Y-64103519D01*
X125401339Y-64295339D01*
X125222000Y-64513865D01*
X125042661Y-64295339D01*
X124808927Y-64103519D01*
X124542261Y-63960983D01*
X124252913Y-63873210D01*
X123952000Y-63843573D01*
X123651088Y-63873210D01*
X123361740Y-63960983D01*
X123095074Y-64103519D01*
X122861339Y-64295339D01*
X122682000Y-64513865D01*
X122502661Y-64295339D01*
X122268927Y-64103519D01*
X122002261Y-63960983D01*
X121712913Y-63873210D01*
X121412000Y-63843573D01*
X121111088Y-63873210D01*
X120821740Y-63960983D01*
X120555074Y-64103519D01*
X120321339Y-64295339D01*
X120142000Y-64513865D01*
X119962661Y-64295339D01*
X119728927Y-64103519D01*
X119462261Y-63960983D01*
X119172913Y-63873210D01*
X118872000Y-63843573D01*
X118571088Y-63873210D01*
X118281740Y-63960983D01*
X118015074Y-64103519D01*
X117781339Y-64295339D01*
X117602000Y-64513865D01*
X117422661Y-64295339D01*
X117188927Y-64103519D01*
X116922261Y-63960983D01*
X116632913Y-63873210D01*
X116332000Y-63843573D01*
X116031088Y-63873210D01*
X115741740Y-63960983D01*
X115475074Y-64103519D01*
X115241339Y-64295339D01*
X115062000Y-64513865D01*
X114882661Y-64295339D01*
X114648927Y-64103519D01*
X114382261Y-63960983D01*
X114092913Y-63873210D01*
X113792000Y-63843573D01*
X113491088Y-63873210D01*
X113201740Y-63960983D01*
X112935074Y-64103519D01*
X112701339Y-64295339D01*
X112522000Y-64513865D01*
X112342661Y-64295339D01*
X112108927Y-64103519D01*
X111842261Y-63960983D01*
X111552913Y-63873210D01*
X111252000Y-63843573D01*
X110951088Y-63873210D01*
X110661740Y-63960983D01*
X110395074Y-64103519D01*
X110161339Y-64295339D01*
X109982000Y-64513865D01*
X109802661Y-64295339D01*
X109568927Y-64103519D01*
X109302261Y-63960983D01*
X109012913Y-63873210D01*
X108712000Y-63843573D01*
X108411088Y-63873210D01*
X108121740Y-63960983D01*
X107855074Y-64103519D01*
X107621339Y-64295339D01*
X107429519Y-64529073D01*
X107286983Y-64795739D01*
X107199210Y-65085087D01*
X107177000Y-65310592D01*
X107177000Y-66261407D01*
X107199210Y-66486912D01*
X107286983Y-66776260D01*
X107429519Y-67042926D01*
X107621339Y-67276661D01*
X107827000Y-67445442D01*
X107827001Y-81421444D01*
X89668446Y-99580000D01*
X89398613Y-99580000D01*
X89131035Y-99633225D01*
X88878981Y-99737629D01*
X88652138Y-99889201D01*
X88459225Y-100082114D01*
X88307653Y-100308957D01*
X88203249Y-100561011D01*
X88150024Y-100828589D01*
X88150024Y-101101411D01*
X88203249Y-101368989D01*
X88307653Y-101621043D01*
X88459225Y-101847886D01*
X88652138Y-102040799D01*
X88878981Y-102192371D01*
X89131035Y-102296775D01*
X89398613Y-102350000D01*
X89671435Y-102350000D01*
X89939013Y-102296775D01*
X90191067Y-102192371D01*
X90417910Y-102040799D01*
X90610823Y-101847886D01*
X90740005Y-101654552D01*
X90869188Y-101847888D01*
X91062101Y-102040801D01*
X91288944Y-102192373D01*
X91540998Y-102296777D01*
X91808576Y-102350002D01*
X92081398Y-102350002D01*
X92348976Y-102296777D01*
X92601030Y-102192373D01*
X92827873Y-102040801D01*
X92962469Y-101906206D01*
X93097062Y-102040799D01*
X93323905Y-102192371D01*
X93575959Y-102296775D01*
X93843537Y-102350000D01*
X94116359Y-102350000D01*
X94383937Y-102296775D01*
X94635991Y-102192371D01*
X94862834Y-102040799D01*
X94932474Y-101971159D01*
X95002114Y-102040799D01*
X95228957Y-102192371D01*
X95481011Y-102296775D01*
X95748589Y-102350000D01*
X96021411Y-102350000D01*
X96288989Y-102296775D01*
X96541043Y-102192371D01*
X96767886Y-102040799D01*
X96955025Y-101853660D01*
X96955025Y-101888123D01*
X96950743Y-101931602D01*
X96967829Y-102105092D01*
X97018436Y-102271915D01*
X97100614Y-102425661D01*
X97183492Y-102526648D01*
X97183495Y-102526651D01*
X97211208Y-102560419D01*
X97244975Y-102588131D01*
X97817894Y-103161051D01*
X97845607Y-103194819D01*
X97879375Y-103222532D01*
X97879377Y-103222534D01*
X97921513Y-103257114D01*
X97980365Y-103305413D01*
X98134111Y-103387591D01*
X98300934Y-103438197D01*
X98430947Y-103451002D01*
X98430957Y-103451002D01*
X98474423Y-103455283D01*
X98517890Y-103451002D01*
X99828529Y-103451002D01*
X99871998Y-103455283D01*
X99915467Y-103451002D01*
X99915475Y-103451002D01*
X100045488Y-103438197D01*
X100212311Y-103387591D01*
X100366057Y-103305413D01*
X100500815Y-103194819D01*
X100528532Y-103161046D01*
X101212578Y-102477000D01*
X101482411Y-102477000D01*
X101749989Y-102423775D01*
X102002043Y-102319371D01*
X102228886Y-102167799D01*
X102421799Y-101974886D01*
X102573371Y-101748043D01*
X102677775Y-101495989D01*
X102731000Y-101228411D01*
X102731000Y-100955589D01*
X102677775Y-100688011D01*
X102573371Y-100435957D01*
X102421799Y-100209114D01*
X102228886Y-100016201D01*
X102002043Y-99864629D01*
X101749989Y-99760225D01*
X101482411Y-99707000D01*
X101442578Y-99707000D01*
X104573157Y-96576421D01*
X150176100Y-96576421D01*
X150176100Y-96996979D01*
X150258147Y-97409456D01*
X150419088Y-97798002D01*
X150652737Y-98147683D01*
X150950117Y-98445063D01*
X151299798Y-98678712D01*
X151688344Y-98839653D01*
X152100821Y-98921700D01*
X152521379Y-98921700D01*
X152933856Y-98839653D01*
X153322402Y-98678712D01*
X153672083Y-98445063D01*
X153969463Y-98147683D01*
X154203112Y-97798002D01*
X154364053Y-97409456D01*
X154446100Y-96996979D01*
X154446100Y-96576421D01*
X154364053Y-96163944D01*
X154203112Y-95775398D01*
X153969463Y-95425717D01*
X153672083Y-95128337D01*
X153322402Y-94894688D01*
X152933856Y-94733747D01*
X152521379Y-94651700D01*
X152100821Y-94651700D01*
X151688344Y-94733747D01*
X151299798Y-94894688D01*
X150950117Y-95128337D01*
X150652737Y-95425717D01*
X150419088Y-95775398D01*
X150258147Y-96163944D01*
X150176100Y-96576421D01*
X104573157Y-96576421D01*
X118818451Y-82331127D01*
X146672000Y-82331127D01*
X146672000Y-82608873D01*
X146726186Y-82881282D01*
X146832475Y-83137885D01*
X146986782Y-83368822D01*
X147183178Y-83565218D01*
X147414115Y-83719525D01*
X147670718Y-83825814D01*
X147943127Y-83880000D01*
X148220873Y-83880000D01*
X148493282Y-83825814D01*
X148749885Y-83719525D01*
X148980822Y-83565218D01*
X149177218Y-83368822D01*
X149331525Y-83137885D01*
X149437814Y-82881282D01*
X149492000Y-82608873D01*
X149492000Y-82331127D01*
X149437814Y-82058718D01*
X149331525Y-81802115D01*
X149177218Y-81571178D01*
X148980822Y-81374782D01*
X148749885Y-81220475D01*
X148493282Y-81114186D01*
X148220873Y-81060000D01*
X147943127Y-81060000D01*
X147670718Y-81114186D01*
X147414115Y-81220475D01*
X147183178Y-81374782D01*
X146986782Y-81571178D01*
X146832475Y-81802115D01*
X146726186Y-82058718D01*
X146672000Y-82331127D01*
X118818451Y-82331127D01*
X121318451Y-79831127D01*
X141672000Y-79831127D01*
X141672000Y-80108873D01*
X141726186Y-80381282D01*
X141832475Y-80637885D01*
X141986782Y-80868822D01*
X142183178Y-81065218D01*
X142414115Y-81219525D01*
X142670718Y-81325814D01*
X142943127Y-81380000D01*
X143220873Y-81380000D01*
X143493282Y-81325814D01*
X143749885Y-81219525D01*
X143980822Y-81065218D01*
X144177218Y-80868822D01*
X144331525Y-80637885D01*
X144437814Y-80381282D01*
X144492000Y-80108873D01*
X144492000Y-79831127D01*
X144437814Y-79558718D01*
X144331525Y-79302115D01*
X144177218Y-79071178D01*
X143980822Y-78874782D01*
X143749885Y-78720475D01*
X143493282Y-78614186D01*
X143220873Y-78560000D01*
X142943127Y-78560000D01*
X142670718Y-78614186D01*
X142414115Y-78720475D01*
X142183178Y-78874782D01*
X141986782Y-79071178D01*
X141832475Y-79302115D01*
X141726186Y-79558718D01*
X141672000Y-79831127D01*
X121318451Y-79831127D01*
X133534647Y-67614932D01*
X133811087Y-67698790D01*
X134112000Y-67728427D01*
X134412912Y-67698790D01*
X134702260Y-67611017D01*
X134968926Y-67468481D01*
X135202661Y-67276661D01*
X135382000Y-67058135D01*
X135561339Y-67276661D01*
X135767000Y-67445442D01*
X135767001Y-75675754D01*
X135642114Y-75759201D01*
X135449201Y-75952114D01*
X135297629Y-76178957D01*
X135193225Y-76431011D01*
X135140000Y-76698589D01*
X135140000Y-76971411D01*
X135193225Y-77238989D01*
X135297629Y-77491043D01*
X135449201Y-77717886D01*
X135642114Y-77910799D01*
X135868957Y-78062371D01*
X136121011Y-78166775D01*
X136388589Y-78220000D01*
X136661411Y-78220000D01*
X136928989Y-78166775D01*
X137181043Y-78062371D01*
X137407886Y-77910799D01*
X137600799Y-77717886D01*
X137752371Y-77491043D01*
X137856775Y-77238989D01*
X137910000Y-76971411D01*
X137910000Y-76698589D01*
X137909287Y-76695000D01*
X146668928Y-76695000D01*
X146668928Y-78245000D01*
X146681188Y-78369482D01*
X146717498Y-78489180D01*
X146776463Y-78599494D01*
X146855815Y-78696185D01*
X146952506Y-78775537D01*
X147062820Y-78834502D01*
X147182518Y-78870812D01*
X147307000Y-78883072D01*
X148857000Y-78883072D01*
X148981482Y-78870812D01*
X149101180Y-78834502D01*
X149211494Y-78775537D01*
X149308185Y-78696185D01*
X149387537Y-78599494D01*
X149446502Y-78489180D01*
X149482812Y-78369482D01*
X149495072Y-78245000D01*
X149495072Y-76695000D01*
X149482812Y-76570518D01*
X149446502Y-76450820D01*
X149387537Y-76340506D01*
X149308185Y-76243815D01*
X149211494Y-76164463D01*
X149101180Y-76105498D01*
X148981482Y-76069188D01*
X148857000Y-76056928D01*
X147307000Y-76056928D01*
X147182518Y-76069188D01*
X147062820Y-76105498D01*
X146952506Y-76164463D01*
X146855815Y-76243815D01*
X146776463Y-76340506D01*
X146717498Y-76450820D01*
X146681188Y-76570518D01*
X146668928Y-76695000D01*
X137909287Y-76695000D01*
X137856775Y-76431011D01*
X137752371Y-76178957D01*
X137600799Y-75952114D01*
X137537000Y-75888315D01*
X137537000Y-67445441D01*
X137742661Y-67276661D01*
X137922000Y-67058135D01*
X138101339Y-67276661D01*
X138199998Y-67357628D01*
X138199999Y-73528612D01*
X138195233Y-73577002D01*
X138214251Y-73770095D01*
X138270574Y-73955768D01*
X138270575Y-73955769D01*
X138362039Y-74126886D01*
X138485129Y-74276872D01*
X138522709Y-74307713D01*
X139137279Y-74922284D01*
X139168121Y-74959865D01*
X139318107Y-75082955D01*
X139489224Y-75174419D01*
X139674897Y-75230742D01*
X139867991Y-75249760D01*
X139916371Y-75244995D01*
X143496621Y-75244995D01*
X143545001Y-75249760D01*
X143593381Y-75244995D01*
X143738095Y-75230742D01*
X143923768Y-75174419D01*
X144094885Y-75082955D01*
X144141138Y-75044996D01*
X144281411Y-75044996D01*
X144548989Y-74991771D01*
X144801043Y-74887367D01*
X145027886Y-74735795D01*
X145220799Y-74542882D01*
X145372371Y-74316039D01*
X145476775Y-74063985D01*
X145530000Y-73796407D01*
X145530000Y-73523585D01*
X145476775Y-73256007D01*
X145372371Y-73003953D01*
X145257000Y-72831288D01*
X145257000Y-67363374D01*
X145317505Y-67313720D01*
X145322498Y-67330180D01*
X145381463Y-67440494D01*
X145460815Y-67537185D01*
X145557506Y-67616537D01*
X145667820Y-67675502D01*
X145787518Y-67711812D01*
X145912000Y-67724072D01*
X147712000Y-67724072D01*
X147836482Y-67711812D01*
X147956180Y-67675502D01*
X148066494Y-67616537D01*
X148163185Y-67537185D01*
X148242537Y-67440494D01*
X148301502Y-67330180D01*
X148337812Y-67210482D01*
X148350072Y-67086000D01*
X148350072Y-64486000D01*
X148337812Y-64361518D01*
X148301502Y-64241820D01*
X148242537Y-64131506D01*
X148163185Y-64034815D01*
X148066494Y-63955463D01*
X147956180Y-63896498D01*
X147836482Y-63860188D01*
X147712000Y-63847928D01*
X147155928Y-63847928D01*
X146960000Y-63652000D01*
X152095794Y-63652000D01*
X151688344Y-63733047D01*
X151299798Y-63893988D01*
X150950117Y-64127637D01*
X150652737Y-64425017D01*
X150419088Y-64774698D01*
X150258147Y-65163244D01*
X150176100Y-65575721D01*
X150176100Y-65996279D01*
X150258147Y-66408756D01*
X150419088Y-66797302D01*
X150652737Y-67146983D01*
X150950117Y-67444363D01*
X151299798Y-67678012D01*
X151688344Y-67838953D01*
X152100821Y-67921000D01*
X152521379Y-67921000D01*
X152933856Y-67838953D01*
X153322402Y-67678012D01*
X153672083Y-67444363D01*
X153969463Y-67146983D01*
X154203112Y-66797302D01*
X154364053Y-66408756D01*
X154446100Y-65996279D01*
X154446100Y-65575721D01*
X154364053Y-65163244D01*
X154203112Y-64774698D01*
X153969463Y-64425017D01*
X153672083Y-64127637D01*
X153322402Y-63893988D01*
X152933856Y-63733047D01*
X152526406Y-63652000D01*
X154915000Y-63652000D01*
X154915001Y-105210166D01*
X137441779Y-131420000D01*
X96158381Y-131420000D01*
X92412381Y-127674000D01*
X108747928Y-127674000D01*
X108747928Y-129374000D01*
X108760188Y-129498482D01*
X108796498Y-129618180D01*
X108855463Y-129728494D01*
X108934815Y-129825185D01*
X109031506Y-129904537D01*
X109141820Y-129963502D01*
X109261518Y-129999812D01*
X109386000Y-130012072D01*
X111086000Y-130012072D01*
X111210482Y-129999812D01*
X111330180Y-129963502D01*
X111440494Y-129904537D01*
X111537185Y-129825185D01*
X111616537Y-129728494D01*
X111675502Y-129618180D01*
X111697513Y-129545620D01*
X111829368Y-129677475D01*
X112072589Y-129839990D01*
X112342842Y-129951932D01*
X112629740Y-130009000D01*
X112922260Y-130009000D01*
X113209158Y-129951932D01*
X113479411Y-129839990D01*
X113722632Y-129677475D01*
X113929475Y-129470632D01*
X114046000Y-129296240D01*
X114162525Y-129470632D01*
X114369368Y-129677475D01*
X114612589Y-129839990D01*
X114882842Y-129951932D01*
X115169740Y-130009000D01*
X115462260Y-130009000D01*
X115749158Y-129951932D01*
X116019411Y-129839990D01*
X116262632Y-129677475D01*
X116469475Y-129470632D01*
X116586000Y-129296240D01*
X116702525Y-129470632D01*
X116909368Y-129677475D01*
X117152589Y-129839990D01*
X117422842Y-129951932D01*
X117709740Y-130009000D01*
X118002260Y-130009000D01*
X118289158Y-129951932D01*
X118559411Y-129839990D01*
X118802632Y-129677475D01*
X119009475Y-129470632D01*
X119126000Y-129296240D01*
X119242525Y-129470632D01*
X119449368Y-129677475D01*
X119692589Y-129839990D01*
X119962842Y-129951932D01*
X120249740Y-130009000D01*
X120542260Y-130009000D01*
X120829158Y-129951932D01*
X121099411Y-129839990D01*
X121342632Y-129677475D01*
X121549475Y-129470632D01*
X121666000Y-129296240D01*
X121782525Y-129470632D01*
X121989368Y-129677475D01*
X122232589Y-129839990D01*
X122502842Y-129951932D01*
X122789740Y-130009000D01*
X123082260Y-130009000D01*
X123369158Y-129951932D01*
X123639411Y-129839990D01*
X123882632Y-129677475D01*
X124089475Y-129470632D01*
X124206000Y-129296240D01*
X124322525Y-129470632D01*
X124529368Y-129677475D01*
X124772589Y-129839990D01*
X125042842Y-129951932D01*
X125329740Y-130009000D01*
X125622260Y-130009000D01*
X125909158Y-129951932D01*
X126179411Y-129839990D01*
X126422632Y-129677475D01*
X126629475Y-129470632D01*
X126746000Y-129296240D01*
X126862525Y-129470632D01*
X127069368Y-129677475D01*
X127312589Y-129839990D01*
X127582842Y-129951932D01*
X127869740Y-130009000D01*
X128162260Y-130009000D01*
X128449158Y-129951932D01*
X128719411Y-129839990D01*
X128962632Y-129677475D01*
X129169475Y-129470632D01*
X129331990Y-129227411D01*
X129443932Y-128957158D01*
X129501000Y-128670260D01*
X129501000Y-128377740D01*
X129443932Y-128090842D01*
X129331990Y-127820589D01*
X129169475Y-127577368D01*
X128962632Y-127370525D01*
X128719411Y-127208010D01*
X128449158Y-127096068D01*
X128162260Y-127039000D01*
X127869740Y-127039000D01*
X127582842Y-127096068D01*
X127312589Y-127208010D01*
X127069368Y-127370525D01*
X126862525Y-127577368D01*
X126746000Y-127751760D01*
X126629475Y-127577368D01*
X126422632Y-127370525D01*
X126179411Y-127208010D01*
X125909158Y-127096068D01*
X125622260Y-127039000D01*
X125329740Y-127039000D01*
X125042842Y-127096068D01*
X124772589Y-127208010D01*
X124529368Y-127370525D01*
X124322525Y-127577368D01*
X124206000Y-127751760D01*
X124089475Y-127577368D01*
X123882632Y-127370525D01*
X123639411Y-127208010D01*
X123369158Y-127096068D01*
X123082260Y-127039000D01*
X122789740Y-127039000D01*
X122502842Y-127096068D01*
X122232589Y-127208010D01*
X121989368Y-127370525D01*
X121782525Y-127577368D01*
X121666000Y-127751760D01*
X121549475Y-127577368D01*
X121342632Y-127370525D01*
X121099411Y-127208010D01*
X120829158Y-127096068D01*
X120542260Y-127039000D01*
X120249740Y-127039000D01*
X119962842Y-127096068D01*
X119692589Y-127208010D01*
X119449368Y-127370525D01*
X119242525Y-127577368D01*
X119126000Y-127751760D01*
X119009475Y-127577368D01*
X118802632Y-127370525D01*
X118559411Y-127208010D01*
X118289158Y-127096068D01*
X118002260Y-127039000D01*
X117709740Y-127039000D01*
X117422842Y-127096068D01*
X117152589Y-127208010D01*
X116909368Y-127370525D01*
X116702525Y-127577368D01*
X116586000Y-127751760D01*
X116469475Y-127577368D01*
X116262632Y-127370525D01*
X116019411Y-127208010D01*
X115749158Y-127096068D01*
X115462260Y-127039000D01*
X115169740Y-127039000D01*
X114882842Y-127096068D01*
X114612589Y-127208010D01*
X114369368Y-127370525D01*
X114162525Y-127577368D01*
X114046000Y-127751760D01*
X113929475Y-127577368D01*
X113722632Y-127370525D01*
X113479411Y-127208010D01*
X113209158Y-127096068D01*
X112922260Y-127039000D01*
X112629740Y-127039000D01*
X112342842Y-127096068D01*
X112072589Y-127208010D01*
X111829368Y-127370525D01*
X111697513Y-127502380D01*
X111675502Y-127429820D01*
X111616537Y-127319506D01*
X111537185Y-127222815D01*
X111440494Y-127143463D01*
X111330180Y-127084498D01*
X111210482Y-127048188D01*
X111086000Y-127035928D01*
X109386000Y-127035928D01*
X109261518Y-127048188D01*
X109141820Y-127084498D01*
X109031506Y-127143463D01*
X108934815Y-127222815D01*
X108855463Y-127319506D01*
X108796498Y-127429820D01*
X108760188Y-127549518D01*
X108747928Y-127674000D01*
X92412381Y-127674000D01*
X91583168Y-126844787D01*
X136170276Y-126844787D01*
X136170276Y-127118397D01*
X136223654Y-127386748D01*
X136328360Y-127639530D01*
X136480369Y-127867028D01*
X136673840Y-128060499D01*
X136901338Y-128212508D01*
X137154120Y-128317214D01*
X137422471Y-128370592D01*
X137696081Y-128370592D01*
X137964432Y-128317214D01*
X138217214Y-128212508D01*
X138444712Y-128060499D01*
X138638183Y-127867028D01*
X138790192Y-127639530D01*
X138894898Y-127386748D01*
X138948276Y-127118397D01*
X138948276Y-126844787D01*
X138894898Y-126576436D01*
X138790192Y-126323654D01*
X138750550Y-126264325D01*
X138879355Y-126289946D01*
X139152965Y-126289946D01*
X139421316Y-126236568D01*
X139674098Y-126131862D01*
X139901596Y-125979853D01*
X140095067Y-125786382D01*
X140247076Y-125558884D01*
X140351782Y-125306102D01*
X140405160Y-125037751D01*
X140405160Y-124764141D01*
X140351782Y-124495790D01*
X140247076Y-124243008D01*
X140095067Y-124015510D01*
X139901596Y-123822039D01*
X139674098Y-123670030D01*
X139421316Y-123565324D01*
X139152965Y-123511946D01*
X138879355Y-123511946D01*
X138611004Y-123565324D01*
X138358222Y-123670030D01*
X138130724Y-123822039D01*
X137937253Y-124015510D01*
X137785244Y-124243008D01*
X137680538Y-124495790D01*
X137627160Y-124764141D01*
X137627160Y-125037751D01*
X137680538Y-125306102D01*
X137785244Y-125558884D01*
X137824886Y-125618213D01*
X137696081Y-125592592D01*
X137422471Y-125592592D01*
X137154120Y-125645970D01*
X136901338Y-125750676D01*
X136673840Y-125902685D01*
X136480369Y-126096156D01*
X136328360Y-126323654D01*
X136223654Y-126576436D01*
X136170276Y-126844787D01*
X91583168Y-126844787D01*
X89057046Y-124318665D01*
X103975000Y-124318665D01*
X103975000Y-124601335D01*
X104030147Y-124878574D01*
X104138320Y-125139727D01*
X104295363Y-125374759D01*
X104495241Y-125574637D01*
X104730273Y-125731680D01*
X104991426Y-125839853D01*
X105268665Y-125895000D01*
X105551335Y-125895000D01*
X105828574Y-125839853D01*
X106089727Y-125731680D01*
X106324759Y-125574637D01*
X106524637Y-125374759D01*
X106681680Y-125139727D01*
X106789853Y-124878574D01*
X106845000Y-124601335D01*
X106845000Y-124318665D01*
X106789853Y-124041426D01*
X106681680Y-123780273D01*
X106524637Y-123545241D01*
X106324759Y-123345363D01*
X106089727Y-123188320D01*
X105828574Y-123080147D01*
X105551335Y-123025000D01*
X105268665Y-123025000D01*
X104991426Y-123080147D01*
X104730273Y-123188320D01*
X104495241Y-123345363D01*
X104295363Y-123545241D01*
X104138320Y-123780273D01*
X104030147Y-124041426D01*
X103975000Y-124318665D01*
X89057046Y-124318665D01*
X86107085Y-121368704D01*
X86850759Y-121368704D01*
X86850759Y-121651374D01*
X86905906Y-121928613D01*
X87014079Y-122189766D01*
X87171122Y-122424798D01*
X87371000Y-122624676D01*
X87606032Y-122781719D01*
X87867185Y-122889892D01*
X88144424Y-122945039D01*
X88427094Y-122945039D01*
X88704333Y-122889892D01*
X88965486Y-122781719D01*
X89200518Y-122624676D01*
X89400396Y-122424798D01*
X89557439Y-122189766D01*
X89665612Y-121928613D01*
X89720759Y-121651374D01*
X89720759Y-121368704D01*
X89665612Y-121091465D01*
X89557439Y-120830312D01*
X89400396Y-120595280D01*
X89200518Y-120395402D01*
X88965486Y-120238359D01*
X88704333Y-120130186D01*
X88427094Y-120075039D01*
X88144424Y-120075039D01*
X87867185Y-120130186D01*
X87606032Y-120238359D01*
X87371000Y-120395402D01*
X87171122Y-120595280D01*
X87014079Y-120830312D01*
X86905906Y-121091465D01*
X86850759Y-121368704D01*
X86107085Y-121368704D01*
X84181970Y-119443589D01*
X92525000Y-119443589D01*
X92525000Y-119716411D01*
X92578225Y-119983989D01*
X92682629Y-120236043D01*
X92834201Y-120462886D01*
X93027114Y-120655799D01*
X93253957Y-120807371D01*
X93506011Y-120911775D01*
X93773589Y-120965000D01*
X94046411Y-120965000D01*
X94313989Y-120911775D01*
X94566043Y-120807371D01*
X94792886Y-120655799D01*
X94985799Y-120462886D01*
X95137371Y-120236043D01*
X95241775Y-119983989D01*
X95295000Y-119716411D01*
X95295000Y-119443589D01*
X97425000Y-119443589D01*
X97425000Y-119716411D01*
X97478225Y-119983989D01*
X97582629Y-120236043D01*
X97734201Y-120462886D01*
X97927114Y-120655799D01*
X98153957Y-120807371D01*
X98406011Y-120911775D01*
X98673589Y-120965000D01*
X98946411Y-120965000D01*
X99213989Y-120911775D01*
X99466043Y-120807371D01*
X99692886Y-120655799D01*
X99885799Y-120462886D01*
X100037371Y-120236043D01*
X100141775Y-119983989D01*
X100195000Y-119716411D01*
X100195000Y-119443589D01*
X100170151Y-119318665D01*
X103975000Y-119318665D01*
X103975000Y-119601335D01*
X104030147Y-119878574D01*
X104138320Y-120139727D01*
X104295363Y-120374759D01*
X104495241Y-120574637D01*
X104730273Y-120731680D01*
X104991426Y-120839853D01*
X105268665Y-120895000D01*
X105551335Y-120895000D01*
X105828574Y-120839853D01*
X106089727Y-120731680D01*
X106324759Y-120574637D01*
X106524637Y-120374759D01*
X106681680Y-120139727D01*
X106737241Y-120005589D01*
X110248000Y-120005589D01*
X110248000Y-120278411D01*
X110301225Y-120545989D01*
X110405629Y-120798043D01*
X110557201Y-121024886D01*
X110647456Y-121115141D01*
X110643235Y-121158000D01*
X110662253Y-121351093D01*
X110718576Y-121536766D01*
X110718577Y-121536767D01*
X110810041Y-121707884D01*
X110933131Y-121857870D01*
X110970711Y-121888711D01*
X114204284Y-125122284D01*
X114235130Y-125159870D01*
X114385116Y-125282960D01*
X114556233Y-125374424D01*
X114698691Y-125417638D01*
X114741905Y-125430747D01*
X114934999Y-125449765D01*
X114983379Y-125445000D01*
X133301620Y-125445000D01*
X133350000Y-125449765D01*
X133398380Y-125445000D01*
X133543094Y-125430747D01*
X133728767Y-125374424D01*
X133899884Y-125282960D01*
X134049870Y-125159870D01*
X134080716Y-125122284D01*
X135536284Y-123666716D01*
X135573870Y-123635870D01*
X135696960Y-123485884D01*
X135788424Y-123314767D01*
X135844747Y-123129094D01*
X135859000Y-122984380D01*
X135859000Y-122984379D01*
X135863765Y-122936001D01*
X135859000Y-122887623D01*
X135859000Y-116924685D01*
X135949799Y-116833886D01*
X136101371Y-116607043D01*
X136169917Y-116441556D01*
X143454697Y-116441556D01*
X143454697Y-116715166D01*
X143508075Y-116983517D01*
X143612781Y-117236299D01*
X143764790Y-117463797D01*
X143958261Y-117657268D01*
X144185759Y-117809277D01*
X144438541Y-117913983D01*
X144706892Y-117967361D01*
X144980502Y-117967361D01*
X145248853Y-117913983D01*
X145501635Y-117809277D01*
X145729133Y-117657268D01*
X145922604Y-117463797D01*
X146074613Y-117236299D01*
X146179319Y-116983517D01*
X146232697Y-116715166D01*
X146232697Y-116441556D01*
X146179319Y-116173205D01*
X146074613Y-115920423D01*
X145922604Y-115692925D01*
X145729133Y-115499454D01*
X145501635Y-115347445D01*
X145248853Y-115242739D01*
X144980502Y-115189361D01*
X144706892Y-115189361D01*
X144438541Y-115242739D01*
X144185759Y-115347445D01*
X143958261Y-115499454D01*
X143764790Y-115692925D01*
X143612781Y-115920423D01*
X143508075Y-116173205D01*
X143454697Y-116441556D01*
X136169917Y-116441556D01*
X136205775Y-116354989D01*
X136259000Y-116087411D01*
X136259000Y-115814589D01*
X136205775Y-115547011D01*
X136101371Y-115294957D01*
X135949799Y-115068114D01*
X135756886Y-114875201D01*
X135530043Y-114723629D01*
X135277989Y-114619225D01*
X135010411Y-114566000D01*
X134737589Y-114566000D01*
X134470011Y-114619225D01*
X134217957Y-114723629D01*
X133991114Y-114875201D01*
X133798201Y-115068114D01*
X133646629Y-115294957D01*
X133542225Y-115547011D01*
X133489000Y-115814589D01*
X133489000Y-116087411D01*
X133530040Y-116293733D01*
X133394727Y-116203320D01*
X133133574Y-116095147D01*
X132856335Y-116040000D01*
X132573665Y-116040000D01*
X132296426Y-116095147D01*
X132035273Y-116203320D01*
X131800241Y-116360363D01*
X131600363Y-116560241D01*
X131443320Y-116795273D01*
X131335147Y-117056426D01*
X131280000Y-117333665D01*
X131280000Y-117616335D01*
X131335147Y-117893574D01*
X131443320Y-118154727D01*
X131600363Y-118389759D01*
X131800241Y-118589637D01*
X132035273Y-118746680D01*
X132296426Y-118854853D01*
X132573665Y-118910000D01*
X132856335Y-118910000D01*
X133133574Y-118854853D01*
X133394727Y-118746680D01*
X133629759Y-118589637D01*
X133829637Y-118389759D01*
X133889001Y-118300915D01*
X133889000Y-121094085D01*
X133829637Y-121005241D01*
X133629759Y-120805363D01*
X133394727Y-120648320D01*
X133133574Y-120540147D01*
X132856335Y-120485000D01*
X132573665Y-120485000D01*
X132296426Y-120540147D01*
X132035273Y-120648320D01*
X131800241Y-120805363D01*
X131600363Y-121005241D01*
X131443320Y-121240273D01*
X131335147Y-121501426D01*
X131280000Y-121778665D01*
X131280000Y-122061335D01*
X131335147Y-122338574D01*
X131443320Y-122599727D01*
X131600363Y-122834759D01*
X131800241Y-123034637D01*
X132035273Y-123191680D01*
X132296426Y-123299853D01*
X132573665Y-123355000D01*
X132856335Y-123355000D01*
X133113068Y-123303932D01*
X132942000Y-123475000D01*
X115343000Y-123475000D01*
X113646665Y-121778665D01*
X121120000Y-121778665D01*
X121120000Y-122061335D01*
X121175147Y-122338574D01*
X121283320Y-122599727D01*
X121440363Y-122834759D01*
X121640241Y-123034637D01*
X121875273Y-123191680D01*
X122136426Y-123299853D01*
X122413665Y-123355000D01*
X122696335Y-123355000D01*
X122973574Y-123299853D01*
X123234727Y-123191680D01*
X123469759Y-123034637D01*
X123669637Y-122834759D01*
X123826680Y-122599727D01*
X123934853Y-122338574D01*
X123990000Y-122061335D01*
X123990000Y-121778665D01*
X123934853Y-121501426D01*
X123826680Y-121240273D01*
X123669637Y-121005241D01*
X123469759Y-120805363D01*
X123234727Y-120648320D01*
X122973574Y-120540147D01*
X122696335Y-120485000D01*
X122413665Y-120485000D01*
X122136426Y-120540147D01*
X121875273Y-120648320D01*
X121640241Y-120805363D01*
X121440363Y-121005241D01*
X121283320Y-121240273D01*
X121175147Y-121501426D01*
X121120000Y-121778665D01*
X113646665Y-121778665D01*
X112782534Y-120914534D01*
X112860371Y-120798043D01*
X112964775Y-120545989D01*
X113018000Y-120278411D01*
X113018000Y-120005589D01*
X112989045Y-119860021D01*
X115934000Y-119860021D01*
X115934000Y-120423978D01*
X115950785Y-120594399D01*
X116017115Y-120813059D01*
X116124829Y-121014578D01*
X116269788Y-121191212D01*
X116446421Y-121336171D01*
X116647940Y-121443885D01*
X116866600Y-121510215D01*
X117094000Y-121532612D01*
X117321399Y-121510215D01*
X117540059Y-121443885D01*
X117729000Y-121342894D01*
X117917940Y-121443885D01*
X118136600Y-121510215D01*
X118364000Y-121532612D01*
X118591399Y-121510215D01*
X118800098Y-121446907D01*
X118864820Y-121481502D01*
X118984518Y-121517812D01*
X119109000Y-121530072D01*
X120159000Y-121530072D01*
X120283482Y-121517812D01*
X120403180Y-121481502D01*
X120513494Y-121422537D01*
X120610185Y-121343185D01*
X120689537Y-121246494D01*
X120748502Y-121136180D01*
X120784812Y-121016482D01*
X120797072Y-120892000D01*
X120797072Y-119392000D01*
X120784812Y-119267518D01*
X120748502Y-119147820D01*
X120689537Y-119037506D01*
X120610185Y-118940815D01*
X120513494Y-118861463D01*
X120403180Y-118802498D01*
X120283482Y-118766188D01*
X120159000Y-118753928D01*
X119109000Y-118753928D01*
X118984518Y-118766188D01*
X118864820Y-118802498D01*
X118800098Y-118837093D01*
X118591400Y-118773785D01*
X118364000Y-118751388D01*
X118136601Y-118773785D01*
X117917941Y-118840115D01*
X117729001Y-118941106D01*
X117540060Y-118840115D01*
X117321400Y-118773785D01*
X117094000Y-118751388D01*
X116866601Y-118773785D01*
X116647941Y-118840115D01*
X116446422Y-118947829D01*
X116269789Y-119092788D01*
X116124830Y-119269421D01*
X116017115Y-119470940D01*
X115950785Y-119689600D01*
X115934000Y-119860021D01*
X112989045Y-119860021D01*
X112964775Y-119738011D01*
X112860371Y-119485957D01*
X112708799Y-119259114D01*
X112515886Y-119066201D01*
X112289043Y-118914629D01*
X112036989Y-118810225D01*
X111769411Y-118757000D01*
X111496589Y-118757000D01*
X111229011Y-118810225D01*
X110976957Y-118914629D01*
X110750114Y-119066201D01*
X110557201Y-119259114D01*
X110405629Y-119485957D01*
X110301225Y-119738011D01*
X110248000Y-120005589D01*
X106737241Y-120005589D01*
X106789853Y-119878574D01*
X106845000Y-119601335D01*
X106845000Y-119318665D01*
X106789853Y-119041426D01*
X106681680Y-118780273D01*
X106524637Y-118545241D01*
X106324759Y-118345363D01*
X106089727Y-118188320D01*
X105828574Y-118080147D01*
X105551335Y-118025000D01*
X105268665Y-118025000D01*
X104991426Y-118080147D01*
X104730273Y-118188320D01*
X104495241Y-118345363D01*
X104295363Y-118545241D01*
X104138320Y-118780273D01*
X104030147Y-119041426D01*
X103975000Y-119318665D01*
X100170151Y-119318665D01*
X100141775Y-119176011D01*
X100037371Y-118923957D01*
X99885799Y-118697114D01*
X99692886Y-118504201D01*
X99466043Y-118352629D01*
X99213989Y-118248225D01*
X98946411Y-118195000D01*
X98673589Y-118195000D01*
X98406011Y-118248225D01*
X98153957Y-118352629D01*
X97927114Y-118504201D01*
X97734201Y-118697114D01*
X97582629Y-118923957D01*
X97478225Y-119176011D01*
X97425000Y-119443589D01*
X95295000Y-119443589D01*
X95241775Y-119176011D01*
X95137371Y-118923957D01*
X94985799Y-118697114D01*
X94792886Y-118504201D01*
X94566043Y-118352629D01*
X94313989Y-118248225D01*
X94046411Y-118195000D01*
X93773589Y-118195000D01*
X93506011Y-118248225D01*
X93253957Y-118352629D01*
X93027114Y-118504201D01*
X92834201Y-118697114D01*
X92682629Y-118923957D01*
X92578225Y-119176011D01*
X92525000Y-119443589D01*
X84181970Y-119443589D01*
X82575000Y-117836620D01*
X82575000Y-116444665D01*
X87719000Y-116444665D01*
X87719000Y-116727335D01*
X87774147Y-117004574D01*
X87882320Y-117265727D01*
X88039363Y-117500759D01*
X88239241Y-117700637D01*
X88474273Y-117857680D01*
X88735426Y-117965853D01*
X89012665Y-118021000D01*
X89295335Y-118021000D01*
X89572574Y-117965853D01*
X89833727Y-117857680D01*
X90068759Y-117700637D01*
X90268637Y-117500759D01*
X90425680Y-117265727D01*
X90533853Y-117004574D01*
X90589000Y-116727335D01*
X90589000Y-116444665D01*
X90533853Y-116167426D01*
X90472235Y-116018665D01*
X101435000Y-116018665D01*
X101435000Y-116301335D01*
X101490147Y-116578574D01*
X101598320Y-116839727D01*
X101755363Y-117074759D01*
X101955241Y-117274637D01*
X102190273Y-117431680D01*
X102451426Y-117539853D01*
X102728665Y-117595000D01*
X103011335Y-117595000D01*
X103288574Y-117539853D01*
X103549727Y-117431680D01*
X103784759Y-117274637D01*
X103984637Y-117074759D01*
X104141680Y-116839727D01*
X104249853Y-116578574D01*
X104305000Y-116301335D01*
X104305000Y-116018665D01*
X106435000Y-116018665D01*
X106435000Y-116301335D01*
X106490147Y-116578574D01*
X106598320Y-116839727D01*
X106755363Y-117074759D01*
X106955241Y-117274637D01*
X107190273Y-117431680D01*
X107451426Y-117539853D01*
X107728665Y-117595000D01*
X108011335Y-117595000D01*
X108288574Y-117539853D01*
X108549727Y-117431680D01*
X108784759Y-117274637D01*
X108984637Y-117074759D01*
X109141680Y-116839727D01*
X109249853Y-116578574D01*
X109305000Y-116301335D01*
X109305000Y-116195595D01*
X119265000Y-116195595D01*
X119265000Y-116468417D01*
X119318225Y-116735995D01*
X119422629Y-116988049D01*
X119574201Y-117214892D01*
X119767114Y-117407805D01*
X119993957Y-117559377D01*
X120246011Y-117663781D01*
X120513589Y-117717006D01*
X120786411Y-117717006D01*
X121053989Y-117663781D01*
X121123694Y-117634908D01*
X121175147Y-117893574D01*
X121283320Y-118154727D01*
X121440363Y-118389759D01*
X121640241Y-118589637D01*
X121875273Y-118746680D01*
X122136426Y-118854853D01*
X122413665Y-118910000D01*
X122696335Y-118910000D01*
X122973574Y-118854853D01*
X123234727Y-118746680D01*
X123469759Y-118589637D01*
X123669637Y-118389759D01*
X123826680Y-118154727D01*
X123934853Y-117893574D01*
X123990000Y-117616335D01*
X123990000Y-117333665D01*
X123934853Y-117056426D01*
X123826680Y-116795273D01*
X123669637Y-116560241D01*
X123469759Y-116360363D01*
X123234727Y-116203320D01*
X122973574Y-116095147D01*
X122696335Y-116040000D01*
X122413665Y-116040000D01*
X122138937Y-116094648D01*
X124547049Y-113686536D01*
X124580817Y-113658823D01*
X124691411Y-113524065D01*
X124773589Y-113370319D01*
X124824195Y-113203496D01*
X124837000Y-113073483D01*
X124837000Y-113073473D01*
X124841281Y-113030007D01*
X124837000Y-112986541D01*
X124837000Y-108712000D01*
X133231319Y-108712000D01*
X133261970Y-109023204D01*
X133352745Y-109322449D01*
X133500155Y-109598235D01*
X133698537Y-109839963D01*
X133871609Y-109982000D01*
X133698537Y-110124037D01*
X133500155Y-110365765D01*
X133352745Y-110641551D01*
X133261970Y-110940796D01*
X133231319Y-111252000D01*
X133261970Y-111563204D01*
X133352745Y-111862449D01*
X133500155Y-112138235D01*
X133698537Y-112379963D01*
X133940265Y-112578345D01*
X134216051Y-112725755D01*
X134515296Y-112816530D01*
X134748514Y-112839500D01*
X134999486Y-112839500D01*
X135232704Y-112816530D01*
X135531949Y-112725755D01*
X135807735Y-112578345D01*
X136049463Y-112379963D01*
X136247845Y-112138235D01*
X136395255Y-111862449D01*
X136486030Y-111563204D01*
X136516681Y-111252000D01*
X136486030Y-110940796D01*
X136395255Y-110641551D01*
X136323693Y-110507667D01*
X147526312Y-110507667D01*
X147535854Y-110632386D01*
X147569544Y-110752848D01*
X147626088Y-110864422D01*
X147703312Y-110962821D01*
X147798249Y-111044264D01*
X149033530Y-111909217D01*
X149142532Y-111970574D01*
X149261409Y-112009486D01*
X149385594Y-112024459D01*
X149510313Y-112014917D01*
X149630775Y-111981227D01*
X149742349Y-111924683D01*
X149840748Y-111847459D01*
X149922191Y-111752522D01*
X150787144Y-110517241D01*
X150848501Y-110408239D01*
X150887413Y-110289362D01*
X150902386Y-110165177D01*
X150892844Y-110040458D01*
X150859154Y-109919996D01*
X150802610Y-109808422D01*
X150725386Y-109710023D01*
X150630449Y-109628580D01*
X149395168Y-108763627D01*
X149286166Y-108702270D01*
X149167289Y-108663358D01*
X149043104Y-108648385D01*
X148918385Y-108657927D01*
X148797923Y-108691617D01*
X148686349Y-108748161D01*
X148587950Y-108825385D01*
X148506507Y-108920322D01*
X147641554Y-110155603D01*
X147580197Y-110264605D01*
X147541285Y-110383482D01*
X147526312Y-110507667D01*
X136323693Y-110507667D01*
X136247845Y-110365765D01*
X136049463Y-110124037D01*
X135876391Y-109982000D01*
X136049463Y-109839963D01*
X136247845Y-109598235D01*
X136395255Y-109322449D01*
X136486030Y-109023204D01*
X136516681Y-108712000D01*
X136486030Y-108400796D01*
X136395255Y-108101551D01*
X136247845Y-107825765D01*
X136144554Y-107699905D01*
X136228494Y-107655037D01*
X136325185Y-107575685D01*
X136404537Y-107478994D01*
X136463502Y-107368680D01*
X136499812Y-107248982D01*
X136512072Y-107124500D01*
X136512072Y-105219500D01*
X136499812Y-105095018D01*
X136463502Y-104975320D01*
X136404537Y-104865006D01*
X136325185Y-104768315D01*
X136228494Y-104688963D01*
X136118180Y-104629998D01*
X135998482Y-104593688D01*
X135874000Y-104581428D01*
X133874000Y-104581428D01*
X133749518Y-104593688D01*
X133629820Y-104629998D01*
X133519506Y-104688963D01*
X133422815Y-104768315D01*
X133343463Y-104865006D01*
X133284498Y-104975320D01*
X133248188Y-105095018D01*
X133235928Y-105219500D01*
X133235928Y-107124500D01*
X133248188Y-107248982D01*
X133284498Y-107368680D01*
X133343463Y-107478994D01*
X133422815Y-107575685D01*
X133519506Y-107655037D01*
X133603446Y-107699905D01*
X133500155Y-107825765D01*
X133352745Y-108101551D01*
X133261970Y-108400796D01*
X133231319Y-108712000D01*
X124837000Y-108712000D01*
X124837000Y-101911685D01*
X125027799Y-101720886D01*
X125179371Y-101494043D01*
X125283775Y-101241989D01*
X125337000Y-100974411D01*
X125337000Y-100701589D01*
X125283775Y-100434011D01*
X125179371Y-100181957D01*
X125027799Y-99955114D01*
X124834886Y-99762201D01*
X124608043Y-99610629D01*
X124355989Y-99506225D01*
X124088411Y-99453000D01*
X123815589Y-99453000D01*
X123548011Y-99506225D01*
X123295957Y-99610629D01*
X123069114Y-99762201D01*
X122876201Y-99955114D01*
X122724629Y-100181957D01*
X122620225Y-100434011D01*
X122567000Y-100701589D01*
X122567000Y-100974411D01*
X122620225Y-101241989D01*
X122724629Y-101494043D01*
X122876201Y-101720886D01*
X123067000Y-101911685D01*
X123067001Y-112663426D01*
X120783422Y-114947006D01*
X120513589Y-114947006D01*
X120246011Y-115000231D01*
X119993957Y-115104635D01*
X119767114Y-115256207D01*
X119574201Y-115449120D01*
X119422629Y-115675963D01*
X119318225Y-115928017D01*
X119265000Y-116195595D01*
X109305000Y-116195595D01*
X109305000Y-116018665D01*
X109249853Y-115741426D01*
X109141680Y-115480273D01*
X108984637Y-115245241D01*
X108784759Y-115045363D01*
X108549727Y-114888320D01*
X108288574Y-114780147D01*
X108011335Y-114725000D01*
X107728665Y-114725000D01*
X107451426Y-114780147D01*
X107190273Y-114888320D01*
X106955241Y-115045363D01*
X106755363Y-115245241D01*
X106598320Y-115480273D01*
X106490147Y-115741426D01*
X106435000Y-116018665D01*
X104305000Y-116018665D01*
X104249853Y-115741426D01*
X104141680Y-115480273D01*
X103984637Y-115245241D01*
X103784759Y-115045363D01*
X103549727Y-114888320D01*
X103288574Y-114780147D01*
X103011335Y-114725000D01*
X102728665Y-114725000D01*
X102451426Y-114780147D01*
X102190273Y-114888320D01*
X101955241Y-115045363D01*
X101755363Y-115245241D01*
X101598320Y-115480273D01*
X101490147Y-115741426D01*
X101435000Y-116018665D01*
X90472235Y-116018665D01*
X90425680Y-115906273D01*
X90268637Y-115671241D01*
X90068759Y-115471363D01*
X89833727Y-115314320D01*
X89572574Y-115206147D01*
X89295335Y-115151000D01*
X89012665Y-115151000D01*
X88735426Y-115206147D01*
X88474273Y-115314320D01*
X88239241Y-115471363D01*
X88039363Y-115671241D01*
X87882320Y-115906273D01*
X87774147Y-116167426D01*
X87719000Y-116444665D01*
X82575000Y-116444665D01*
X82575000Y-111976000D01*
X84921928Y-111976000D01*
X84921928Y-113576000D01*
X84934188Y-113700482D01*
X84970498Y-113820180D01*
X85029463Y-113930494D01*
X85108815Y-114027185D01*
X85205506Y-114106537D01*
X85315820Y-114165502D01*
X85435518Y-114201812D01*
X85560000Y-114214072D01*
X87160000Y-114214072D01*
X87284482Y-114201812D01*
X87404180Y-114165502D01*
X87514494Y-114106537D01*
X87611185Y-114027185D01*
X87690537Y-113930494D01*
X87749502Y-113820180D01*
X87785812Y-113700482D01*
X87786643Y-113692039D01*
X87985241Y-113890637D01*
X88220273Y-114047680D01*
X88481426Y-114155853D01*
X88758665Y-114211000D01*
X89041335Y-114211000D01*
X89318574Y-114155853D01*
X89579727Y-114047680D01*
X89814759Y-113890637D01*
X90014637Y-113690759D01*
X90170000Y-113458241D01*
X90325363Y-113690759D01*
X90525241Y-113890637D01*
X90760273Y-114047680D01*
X91021426Y-114155853D01*
X91298665Y-114211000D01*
X91581335Y-114211000D01*
X91858574Y-114155853D01*
X92119727Y-114047680D01*
X92354759Y-113890637D01*
X92554637Y-113690759D01*
X92710000Y-113458241D01*
X92865363Y-113690759D01*
X93065241Y-113890637D01*
X93300273Y-114047680D01*
X93561426Y-114155853D01*
X93838665Y-114211000D01*
X94121335Y-114211000D01*
X94398574Y-114155853D01*
X94659727Y-114047680D01*
X94894759Y-113890637D01*
X95094637Y-113690759D01*
X95250000Y-113458241D01*
X95405363Y-113690759D01*
X95605241Y-113890637D01*
X95840273Y-114047680D01*
X96101426Y-114155853D01*
X96378665Y-114211000D01*
X96661335Y-114211000D01*
X96938574Y-114155853D01*
X97199727Y-114047680D01*
X97434759Y-113890637D01*
X97634637Y-113690759D01*
X97790000Y-113458241D01*
X97945363Y-113690759D01*
X98145241Y-113890637D01*
X98380273Y-114047680D01*
X98641426Y-114155853D01*
X98918665Y-114211000D01*
X99201335Y-114211000D01*
X99478574Y-114155853D01*
X99739727Y-114047680D01*
X99974759Y-113890637D01*
X100174637Y-113690759D01*
X100330000Y-113458241D01*
X100485363Y-113690759D01*
X100685241Y-113890637D01*
X100920273Y-114047680D01*
X101181426Y-114155853D01*
X101458665Y-114211000D01*
X101741335Y-114211000D01*
X102018574Y-114155853D01*
X102279727Y-114047680D01*
X102514759Y-113890637D01*
X102714637Y-113690759D01*
X102870000Y-113458241D01*
X103025363Y-113690759D01*
X103225241Y-113890637D01*
X103460273Y-114047680D01*
X103721426Y-114155853D01*
X103998665Y-114211000D01*
X104281335Y-114211000D01*
X104558574Y-114155853D01*
X104819727Y-114047680D01*
X105054759Y-113890637D01*
X105254637Y-113690759D01*
X105410000Y-113458241D01*
X105565363Y-113690759D01*
X105765241Y-113890637D01*
X106000273Y-114047680D01*
X106261426Y-114155853D01*
X106538665Y-114211000D01*
X106821335Y-114211000D01*
X107098574Y-114155853D01*
X107359727Y-114047680D01*
X107594759Y-113890637D01*
X107794637Y-113690759D01*
X107950000Y-113458241D01*
X108105363Y-113690759D01*
X108305241Y-113890637D01*
X108540273Y-114047680D01*
X108801426Y-114155853D01*
X109078665Y-114211000D01*
X109361335Y-114211000D01*
X109638574Y-114155853D01*
X109899727Y-114047680D01*
X110134759Y-113890637D01*
X110334637Y-113690759D01*
X110490000Y-113458241D01*
X110645363Y-113690759D01*
X110845241Y-113890637D01*
X111080273Y-114047680D01*
X111341426Y-114155853D01*
X111618665Y-114211000D01*
X111901335Y-114211000D01*
X112178574Y-114155853D01*
X112439727Y-114047680D01*
X112674759Y-113890637D01*
X112874637Y-113690759D01*
X113030000Y-113458241D01*
X113185363Y-113690759D01*
X113385241Y-113890637D01*
X113620273Y-114047680D01*
X113881426Y-114155853D01*
X114158665Y-114211000D01*
X114441335Y-114211000D01*
X114718574Y-114155853D01*
X114979727Y-114047680D01*
X115214759Y-113890637D01*
X115414637Y-113690759D01*
X115570000Y-113458241D01*
X115725363Y-113690759D01*
X115925241Y-113890637D01*
X116160273Y-114047680D01*
X116421426Y-114155853D01*
X116698665Y-114211000D01*
X116981335Y-114211000D01*
X117258574Y-114155853D01*
X117519727Y-114047680D01*
X117754759Y-113890637D01*
X117954637Y-113690759D01*
X118110000Y-113458241D01*
X118265363Y-113690759D01*
X118465241Y-113890637D01*
X118700273Y-114047680D01*
X118961426Y-114155853D01*
X119238665Y-114211000D01*
X119521335Y-114211000D01*
X119798574Y-114155853D01*
X120059727Y-114047680D01*
X120294759Y-113890637D01*
X120494637Y-113690759D01*
X120651680Y-113455727D01*
X120759853Y-113194574D01*
X120815000Y-112917335D01*
X120815000Y-112634665D01*
X120759853Y-112357426D01*
X120651680Y-112096273D01*
X120494637Y-111861241D01*
X120294759Y-111661363D01*
X120059727Y-111504320D01*
X119798574Y-111396147D01*
X119521335Y-111341000D01*
X119238665Y-111341000D01*
X118961426Y-111396147D01*
X118700273Y-111504320D01*
X118465241Y-111661363D01*
X118265363Y-111861241D01*
X118110000Y-112093759D01*
X117954637Y-111861241D01*
X117754759Y-111661363D01*
X117519727Y-111504320D01*
X117258574Y-111396147D01*
X116981335Y-111341000D01*
X116698665Y-111341000D01*
X116421426Y-111396147D01*
X116160273Y-111504320D01*
X115925241Y-111661363D01*
X115725363Y-111861241D01*
X115570000Y-112093759D01*
X115414637Y-111861241D01*
X115214759Y-111661363D01*
X114979727Y-111504320D01*
X114718574Y-111396147D01*
X114441335Y-111341000D01*
X114158665Y-111341000D01*
X113881426Y-111396147D01*
X113620273Y-111504320D01*
X113385241Y-111661363D01*
X113185363Y-111861241D01*
X113030000Y-112093759D01*
X112874637Y-111861241D01*
X112674759Y-111661363D01*
X112439727Y-111504320D01*
X112178574Y-111396147D01*
X111901335Y-111341000D01*
X111618665Y-111341000D01*
X111341426Y-111396147D01*
X111080273Y-111504320D01*
X110845241Y-111661363D01*
X110645363Y-111861241D01*
X110490000Y-112093759D01*
X110334637Y-111861241D01*
X110134759Y-111661363D01*
X109899727Y-111504320D01*
X109638574Y-111396147D01*
X109361335Y-111341000D01*
X109078665Y-111341000D01*
X108801426Y-111396147D01*
X108540273Y-111504320D01*
X108305241Y-111661363D01*
X108105363Y-111861241D01*
X107950000Y-112093759D01*
X107794637Y-111861241D01*
X107594759Y-111661363D01*
X107359727Y-111504320D01*
X107098574Y-111396147D01*
X106821335Y-111341000D01*
X106538665Y-111341000D01*
X106261426Y-111396147D01*
X106000273Y-111504320D01*
X105765241Y-111661363D01*
X105565363Y-111861241D01*
X105410000Y-112093759D01*
X105254637Y-111861241D01*
X105054759Y-111661363D01*
X104819727Y-111504320D01*
X104558574Y-111396147D01*
X104281335Y-111341000D01*
X103998665Y-111341000D01*
X103721426Y-111396147D01*
X103460273Y-111504320D01*
X103225241Y-111661363D01*
X103025363Y-111861241D01*
X102870000Y-112093759D01*
X102714637Y-111861241D01*
X102514759Y-111661363D01*
X102279727Y-111504320D01*
X102018574Y-111396147D01*
X101741335Y-111341000D01*
X101458665Y-111341000D01*
X101181426Y-111396147D01*
X100920273Y-111504320D01*
X100685241Y-111661363D01*
X100485363Y-111861241D01*
X100330000Y-112093759D01*
X100174637Y-111861241D01*
X99974759Y-111661363D01*
X99739727Y-111504320D01*
X99478574Y-111396147D01*
X99201335Y-111341000D01*
X98918665Y-111341000D01*
X98641426Y-111396147D01*
X98380273Y-111504320D01*
X98145241Y-111661363D01*
X97945363Y-111861241D01*
X97790000Y-112093759D01*
X97634637Y-111861241D01*
X97434759Y-111661363D01*
X97199727Y-111504320D01*
X96938574Y-111396147D01*
X96661335Y-111341000D01*
X96378665Y-111341000D01*
X96101426Y-111396147D01*
X95840273Y-111504320D01*
X95605241Y-111661363D01*
X95405363Y-111861241D01*
X95250000Y-112093759D01*
X95094637Y-111861241D01*
X94894759Y-111661363D01*
X94659727Y-111504320D01*
X94398574Y-111396147D01*
X94121335Y-111341000D01*
X93838665Y-111341000D01*
X93561426Y-111396147D01*
X93300273Y-111504320D01*
X93065241Y-111661363D01*
X92865363Y-111861241D01*
X92710000Y-112093759D01*
X92554637Y-111861241D01*
X92354759Y-111661363D01*
X92119727Y-111504320D01*
X91858574Y-111396147D01*
X91581335Y-111341000D01*
X91298665Y-111341000D01*
X91021426Y-111396147D01*
X90760273Y-111504320D01*
X90525241Y-111661363D01*
X90325363Y-111861241D01*
X90170000Y-112093759D01*
X90014637Y-111861241D01*
X89814759Y-111661363D01*
X89579727Y-111504320D01*
X89318574Y-111396147D01*
X89041335Y-111341000D01*
X88758665Y-111341000D01*
X88481426Y-111396147D01*
X88220273Y-111504320D01*
X87985241Y-111661363D01*
X87786643Y-111859961D01*
X87785812Y-111851518D01*
X87749502Y-111731820D01*
X87690537Y-111621506D01*
X87611185Y-111524815D01*
X87514494Y-111445463D01*
X87404180Y-111386498D01*
X87284482Y-111350188D01*
X87160000Y-111337928D01*
X85560000Y-111337928D01*
X85435518Y-111350188D01*
X85315820Y-111386498D01*
X85205506Y-111445463D01*
X85108815Y-111524815D01*
X85029463Y-111621506D01*
X84970498Y-111731820D01*
X84934188Y-111851518D01*
X84921928Y-111976000D01*
X82575000Y-111976000D01*
X82575000Y-107093408D01*
X82578192Y-107060999D01*
X82575000Y-107028590D01*
X82575000Y-107028581D01*
X82565450Y-106931617D01*
X82527710Y-106807207D01*
X82466426Y-106692551D01*
X82466425Y-106692549D01*
X82404614Y-106617233D01*
X82404612Y-106617231D01*
X82383948Y-106592052D01*
X82358770Y-106571389D01*
X75082000Y-99294620D01*
X75082000Y-96576421D01*
X75177520Y-96576421D01*
X75177520Y-96996979D01*
X75259567Y-97409456D01*
X75420508Y-97798002D01*
X75654157Y-98147683D01*
X75951537Y-98445063D01*
X76301218Y-98678712D01*
X76689764Y-98839653D01*
X77102241Y-98921700D01*
X77522799Y-98921700D01*
X77935276Y-98839653D01*
X78323822Y-98678712D01*
X78673503Y-98445063D01*
X78970883Y-98147683D01*
X79204532Y-97798002D01*
X79282407Y-97609995D01*
X79425932Y-97824795D01*
X79618845Y-98017708D01*
X79845688Y-98169280D01*
X80097742Y-98273684D01*
X80365320Y-98326909D01*
X80493731Y-98326909D01*
X82835001Y-100668179D01*
X82835000Y-103166315D01*
X82744201Y-103257114D01*
X82592629Y-103483957D01*
X82488225Y-103736011D01*
X82435000Y-104003589D01*
X82435000Y-104276411D01*
X82488225Y-104543989D01*
X82592629Y-104796043D01*
X82744201Y-105022886D01*
X82937114Y-105215799D01*
X83163957Y-105367371D01*
X83416011Y-105471775D01*
X83683589Y-105525000D01*
X83956411Y-105525000D01*
X84223989Y-105471775D01*
X84476043Y-105367371D01*
X84702886Y-105215799D01*
X84895799Y-105022886D01*
X84935049Y-104964144D01*
X84925000Y-105014665D01*
X84925000Y-105297335D01*
X84980147Y-105574574D01*
X85088320Y-105835727D01*
X85245363Y-106070759D01*
X85445241Y-106270637D01*
X85680273Y-106427680D01*
X85941426Y-106535853D01*
X86218665Y-106591000D01*
X86501335Y-106591000D01*
X86778574Y-106535853D01*
X87039727Y-106427680D01*
X87274759Y-106270637D01*
X87474637Y-106070759D01*
X87630000Y-105838241D01*
X87785363Y-106070759D01*
X87985241Y-106270637D01*
X88220273Y-106427680D01*
X88481426Y-106535853D01*
X88758665Y-106591000D01*
X89041335Y-106591000D01*
X89318574Y-106535853D01*
X89579727Y-106427680D01*
X89814759Y-106270637D01*
X90014637Y-106070759D01*
X90170000Y-105838241D01*
X90325363Y-106070759D01*
X90525241Y-106270637D01*
X90760273Y-106427680D01*
X91021426Y-106535853D01*
X91298665Y-106591000D01*
X91581335Y-106591000D01*
X91858574Y-106535853D01*
X92119727Y-106427680D01*
X92354759Y-106270637D01*
X92554637Y-106070759D01*
X92710000Y-105838241D01*
X92865363Y-106070759D01*
X93065241Y-106270637D01*
X93300273Y-106427680D01*
X93561426Y-106535853D01*
X93838665Y-106591000D01*
X94121335Y-106591000D01*
X94398574Y-106535853D01*
X94659727Y-106427680D01*
X94894759Y-106270637D01*
X95094637Y-106070759D01*
X95250000Y-105838241D01*
X95405363Y-106070759D01*
X95605241Y-106270637D01*
X95840273Y-106427680D01*
X96101426Y-106535853D01*
X96378665Y-106591000D01*
X96661335Y-106591000D01*
X96938574Y-106535853D01*
X97199727Y-106427680D01*
X97434759Y-106270637D01*
X97634637Y-106070759D01*
X97790000Y-105838241D01*
X97945363Y-106070759D01*
X98145241Y-106270637D01*
X98380273Y-106427680D01*
X98641426Y-106535853D01*
X98918665Y-106591000D01*
X99201335Y-106591000D01*
X99478574Y-106535853D01*
X99739727Y-106427680D01*
X99974759Y-106270637D01*
X100174637Y-106070759D01*
X100330000Y-105838241D01*
X100485363Y-106070759D01*
X100685241Y-106270637D01*
X100920273Y-106427680D01*
X101181426Y-106535853D01*
X101458665Y-106591000D01*
X101741335Y-106591000D01*
X102018574Y-106535853D01*
X102279727Y-106427680D01*
X102514759Y-106270637D01*
X102714637Y-106070759D01*
X102870000Y-105838241D01*
X103025363Y-106070759D01*
X103225241Y-106270637D01*
X103460273Y-106427680D01*
X103721426Y-106535853D01*
X103998665Y-106591000D01*
X104281335Y-106591000D01*
X104558574Y-106535853D01*
X104819727Y-106427680D01*
X105054759Y-106270637D01*
X105254637Y-106070759D01*
X105410000Y-105838241D01*
X105565363Y-106070759D01*
X105765241Y-106270637D01*
X106000273Y-106427680D01*
X106261426Y-106535853D01*
X106538665Y-106591000D01*
X106821335Y-106591000D01*
X107098574Y-106535853D01*
X107359727Y-106427680D01*
X107594759Y-106270637D01*
X107794637Y-106070759D01*
X107950000Y-105838241D01*
X108105363Y-106070759D01*
X108305241Y-106270637D01*
X108540273Y-106427680D01*
X108801426Y-106535853D01*
X109078665Y-106591000D01*
X109361335Y-106591000D01*
X109638574Y-106535853D01*
X109899727Y-106427680D01*
X110134759Y-106270637D01*
X110334637Y-106070759D01*
X110490000Y-105838241D01*
X110645363Y-106070759D01*
X110845241Y-106270637D01*
X111080273Y-106427680D01*
X111341426Y-106535853D01*
X111618665Y-106591000D01*
X111901335Y-106591000D01*
X112178574Y-106535853D01*
X112439727Y-106427680D01*
X112674759Y-106270637D01*
X112874637Y-106070759D01*
X113030000Y-105838241D01*
X113185363Y-106070759D01*
X113385241Y-106270637D01*
X113620273Y-106427680D01*
X113881426Y-106535853D01*
X114158665Y-106591000D01*
X114441335Y-106591000D01*
X114718574Y-106535853D01*
X114979727Y-106427680D01*
X115214759Y-106270637D01*
X115414637Y-106070759D01*
X115570000Y-105838241D01*
X115725363Y-106070759D01*
X115925241Y-106270637D01*
X116160273Y-106427680D01*
X116421426Y-106535853D01*
X116698665Y-106591000D01*
X116981335Y-106591000D01*
X117258574Y-106535853D01*
X117519727Y-106427680D01*
X117754759Y-106270637D01*
X117954637Y-106070759D01*
X118110000Y-105838241D01*
X118265363Y-106070759D01*
X118465241Y-106270637D01*
X118700273Y-106427680D01*
X118961426Y-106535853D01*
X119238665Y-106591000D01*
X119521335Y-106591000D01*
X119798574Y-106535853D01*
X120059727Y-106427680D01*
X120294759Y-106270637D01*
X120494637Y-106070759D01*
X120651680Y-105835727D01*
X120759853Y-105574574D01*
X120815000Y-105297335D01*
X120815000Y-105014665D01*
X120759853Y-104737426D01*
X120651680Y-104476273D01*
X120494637Y-104241241D01*
X120294759Y-104041363D01*
X120059727Y-103884320D01*
X119798574Y-103776147D01*
X119521335Y-103721000D01*
X119238665Y-103721000D01*
X118961426Y-103776147D01*
X118700273Y-103884320D01*
X118465241Y-104041363D01*
X118265363Y-104241241D01*
X118110000Y-104473759D01*
X117954637Y-104241241D01*
X117754759Y-104041363D01*
X117519727Y-103884320D01*
X117258574Y-103776147D01*
X116981335Y-103721000D01*
X116698665Y-103721000D01*
X116421426Y-103776147D01*
X116160273Y-103884320D01*
X115925241Y-104041363D01*
X115725363Y-104241241D01*
X115570000Y-104473759D01*
X115414637Y-104241241D01*
X115214759Y-104041363D01*
X114979727Y-103884320D01*
X114718574Y-103776147D01*
X114441335Y-103721000D01*
X114158665Y-103721000D01*
X113881426Y-103776147D01*
X113620273Y-103884320D01*
X113385241Y-104041363D01*
X113185363Y-104241241D01*
X113030000Y-104473759D01*
X112874637Y-104241241D01*
X112674759Y-104041363D01*
X112439727Y-103884320D01*
X112178574Y-103776147D01*
X111901335Y-103721000D01*
X111618665Y-103721000D01*
X111341426Y-103776147D01*
X111080273Y-103884320D01*
X110845241Y-104041363D01*
X110645363Y-104241241D01*
X110490000Y-104473759D01*
X110334637Y-104241241D01*
X110134759Y-104041363D01*
X109899727Y-103884320D01*
X109638574Y-103776147D01*
X109361335Y-103721000D01*
X109078665Y-103721000D01*
X108801426Y-103776147D01*
X108540273Y-103884320D01*
X108305241Y-104041363D01*
X108105363Y-104241241D01*
X107950000Y-104473759D01*
X107794637Y-104241241D01*
X107594759Y-104041363D01*
X107359727Y-103884320D01*
X107098574Y-103776147D01*
X106821335Y-103721000D01*
X106538665Y-103721000D01*
X106261426Y-103776147D01*
X106000273Y-103884320D01*
X105765241Y-104041363D01*
X105565363Y-104241241D01*
X105410000Y-104473759D01*
X105254637Y-104241241D01*
X105054759Y-104041363D01*
X104819727Y-103884320D01*
X104558574Y-103776147D01*
X104281335Y-103721000D01*
X103998665Y-103721000D01*
X103721426Y-103776147D01*
X103460273Y-103884320D01*
X103225241Y-104041363D01*
X103025363Y-104241241D01*
X102870000Y-104473759D01*
X102714637Y-104241241D01*
X102514759Y-104041363D01*
X102279727Y-103884320D01*
X102018574Y-103776147D01*
X101741335Y-103721000D01*
X101458665Y-103721000D01*
X101181426Y-103776147D01*
X100920273Y-103884320D01*
X100685241Y-104041363D01*
X100485363Y-104241241D01*
X100330000Y-104473759D01*
X100174637Y-104241241D01*
X99974759Y-104041363D01*
X99739727Y-103884320D01*
X99478574Y-103776147D01*
X99201335Y-103721000D01*
X98918665Y-103721000D01*
X98641426Y-103776147D01*
X98380273Y-103884320D01*
X98145241Y-104041363D01*
X97945363Y-104241241D01*
X97790000Y-104473759D01*
X97634637Y-104241241D01*
X97434759Y-104041363D01*
X97199727Y-103884320D01*
X96938574Y-103776147D01*
X96661335Y-103721000D01*
X96378665Y-103721000D01*
X96101426Y-103776147D01*
X95840273Y-103884320D01*
X95605241Y-104041363D01*
X95405363Y-104241241D01*
X95250000Y-104473759D01*
X95094637Y-104241241D01*
X94894759Y-104041363D01*
X94659727Y-103884320D01*
X94398574Y-103776147D01*
X94121335Y-103721000D01*
X93838665Y-103721000D01*
X93561426Y-103776147D01*
X93300273Y-103884320D01*
X93065241Y-104041363D01*
X92865363Y-104241241D01*
X92710000Y-104473759D01*
X92554637Y-104241241D01*
X92354759Y-104041363D01*
X92119727Y-103884320D01*
X91858574Y-103776147D01*
X91581335Y-103721000D01*
X91298665Y-103721000D01*
X91021426Y-103776147D01*
X90760273Y-103884320D01*
X90525241Y-104041363D01*
X90325363Y-104241241D01*
X90170000Y-104473759D01*
X90014637Y-104241241D01*
X89814759Y-104041363D01*
X89579727Y-103884320D01*
X89318574Y-103776147D01*
X89041335Y-103721000D01*
X88758665Y-103721000D01*
X88481426Y-103776147D01*
X88220273Y-103884320D01*
X87985241Y-104041363D01*
X87785363Y-104241241D01*
X87630000Y-104473759D01*
X87474637Y-104241241D01*
X87274759Y-104041363D01*
X87039727Y-103884320D01*
X86778574Y-103776147D01*
X86501335Y-103721000D01*
X86218665Y-103721000D01*
X85941426Y-103776147D01*
X85680273Y-103884320D01*
X85445241Y-104041363D01*
X85245363Y-104241241D01*
X85197852Y-104312347D01*
X85205000Y-104276411D01*
X85205000Y-104003589D01*
X85151775Y-103736011D01*
X85047371Y-103483957D01*
X84895799Y-103257114D01*
X84805000Y-103166315D01*
X84805000Y-100308557D01*
X84809765Y-100260177D01*
X84790747Y-100067084D01*
X84734424Y-99881411D01*
X84702557Y-99821792D01*
X84642960Y-99710294D01*
X84519870Y-99560308D01*
X84482284Y-99529462D01*
X81886731Y-96933909D01*
X81886731Y-96805498D01*
X81833506Y-96537920D01*
X81729102Y-96285866D01*
X81577530Y-96059023D01*
X81384617Y-95866110D01*
X81157774Y-95714538D01*
X80905720Y-95610134D01*
X80638142Y-95556909D01*
X80365320Y-95556909D01*
X80097742Y-95610134D01*
X79845688Y-95714538D01*
X79618845Y-95866110D01*
X79425932Y-96059023D01*
X79361781Y-96155031D01*
X79204532Y-95775398D01*
X78970883Y-95425717D01*
X78673503Y-95128337D01*
X78323822Y-94894688D01*
X77935276Y-94733747D01*
X77522799Y-94651700D01*
X77102241Y-94651700D01*
X76689764Y-94733747D01*
X76301218Y-94894688D01*
X75951537Y-95128337D01*
X75654157Y-95425717D01*
X75420508Y-95775398D01*
X75259567Y-96163944D01*
X75177520Y-96576421D01*
X75082000Y-96576421D01*
X75082000Y-85359000D01*
X77415928Y-85359000D01*
X77415928Y-87109000D01*
X77445001Y-87404186D01*
X77531104Y-87688028D01*
X77670927Y-87949618D01*
X77859097Y-88178903D01*
X78088382Y-88367073D01*
X78349972Y-88506896D01*
X78633814Y-88592999D01*
X78929000Y-88622072D01*
X80679000Y-88622072D01*
X80974186Y-88592999D01*
X81258028Y-88506896D01*
X81519618Y-88367073D01*
X81748903Y-88178903D01*
X81937073Y-87949618D01*
X82076896Y-87688028D01*
X82162999Y-87404186D01*
X82192072Y-87109000D01*
X82192072Y-85359000D01*
X82162999Y-85063814D01*
X82076896Y-84779972D01*
X81937073Y-84518382D01*
X81748903Y-84289097D01*
X81519618Y-84100927D01*
X81258028Y-83961104D01*
X81129357Y-83922072D01*
X84554000Y-83922072D01*
X84678482Y-83909812D01*
X84798180Y-83873502D01*
X84908494Y-83814537D01*
X85005185Y-83735185D01*
X85084537Y-83638494D01*
X85143502Y-83528180D01*
X85179812Y-83408482D01*
X85192072Y-83284000D01*
X85192072Y-79784000D01*
X85179812Y-79659518D01*
X85143502Y-79539820D01*
X85084537Y-79429506D01*
X85005185Y-79332815D01*
X84908494Y-79253463D01*
X84798180Y-79194498D01*
X84678482Y-79158188D01*
X84554000Y-79145928D01*
X81054000Y-79145928D01*
X80929518Y-79158188D01*
X80809820Y-79194498D01*
X80699506Y-79253463D01*
X80602815Y-79332815D01*
X80523463Y-79429506D01*
X80464498Y-79539820D01*
X80428188Y-79659518D01*
X80415928Y-79784000D01*
X80415928Y-83284000D01*
X80428188Y-83408482D01*
X80464498Y-83528180D01*
X80523463Y-83638494D01*
X80602815Y-83735185D01*
X80699506Y-83814537D01*
X80776131Y-83855494D01*
X80679000Y-83845928D01*
X78929000Y-83845928D01*
X78633814Y-83875001D01*
X78349972Y-83961104D01*
X78088382Y-84100927D01*
X77859097Y-84289097D01*
X77670927Y-84518382D01*
X77531104Y-84779972D01*
X77445001Y-85063814D01*
X77415928Y-85359000D01*
X75082000Y-85359000D01*
X75082000Y-83523324D01*
X75282829Y-83688140D01*
X75522808Y-83816411D01*
X75783201Y-83895401D01*
X76054000Y-83922072D01*
X77554000Y-83922072D01*
X77824799Y-83895401D01*
X78085192Y-83816411D01*
X78325171Y-83688140D01*
X78535515Y-83515515D01*
X78708140Y-83305171D01*
X78836411Y-83065192D01*
X78915401Y-82804799D01*
X78942072Y-82534000D01*
X78942072Y-80534000D01*
X78915401Y-80263201D01*
X78836411Y-80002808D01*
X78708140Y-79762829D01*
X78535515Y-79552485D01*
X78325171Y-79379860D01*
X78085192Y-79251589D01*
X77824799Y-79172599D01*
X77554000Y-79145928D01*
X76054000Y-79145928D01*
X75783201Y-79172599D01*
X75522808Y-79251589D01*
X75282829Y-79379860D01*
X75082000Y-79544676D01*
X75082000Y-63652000D01*
X77096694Y-63652000D01*
X76689244Y-63733047D01*
G37*
%TD.AperFunction*%
D32*
X110161339Y-67276661D02*
X110367000Y-67445442D01*
X110367001Y-81137418D01*
X109588706Y-81915713D01*
X109595738Y-81844311D01*
X109597000Y-81831501D01*
X109597000Y-81831493D01*
X109601281Y-81788024D01*
X109597000Y-81744555D01*
X109597000Y-67445441D01*
X109802661Y-67276661D01*
X109982000Y-67058135D01*
X110161339Y-67276661D01*
%TA.AperFunction,NonConductor*%
D33*
G36*
X110161339Y-67276661D02*
G01*
X110367000Y-67445442D01*
X110367001Y-81137418D01*
X109588706Y-81915713D01*
X109595738Y-81844311D01*
X109597000Y-81831501D01*
X109597000Y-81831493D01*
X109601281Y-81788024D01*
X109597000Y-81744555D01*
X109597000Y-67445441D01*
X109802661Y-67276661D01*
X109982000Y-67058135D01*
X110161339Y-67276661D01*
G37*
%TD.AperFunction*%
D32*
X112701339Y-67276661D02*
X112907000Y-67445442D01*
X112907001Y-80786368D01*
X112136028Y-81557341D01*
X112137000Y-81547475D01*
X112137000Y-81547467D01*
X112141281Y-81503998D01*
X112137000Y-81460529D01*
X112137000Y-67445441D01*
X112342661Y-67276661D01*
X112522000Y-67058135D01*
X112701339Y-67276661D01*
%TA.AperFunction,NonConductor*%
D33*
G36*
X112701339Y-67276661D02*
G01*
X112907000Y-67445442D01*
X112907001Y-80786368D01*
X112136028Y-81557341D01*
X112137000Y-81547475D01*
X112137000Y-81547467D01*
X112141281Y-81503998D01*
X112137000Y-81460529D01*
X112137000Y-67445441D01*
X112342661Y-67276661D01*
X112522000Y-67058135D01*
X112701339Y-67276661D01*
G37*
%TD.AperFunction*%
D32*
X115241339Y-67276661D02*
X115447000Y-67445442D01*
X115447001Y-79512453D01*
X114677000Y-80282454D01*
X114677000Y-67445441D01*
X114882661Y-67276661D01*
X115062000Y-67058135D01*
X115241339Y-67276661D01*
%TA.AperFunction,NonConductor*%
D33*
G36*
X115241339Y-67276661D02*
G01*
X115447000Y-67445442D01*
X115447001Y-79512453D01*
X114677000Y-80282454D01*
X114677000Y-67445441D01*
X114882661Y-67276661D01*
X115062000Y-67058135D01*
X115241339Y-67276661D01*
G37*
%TD.AperFunction*%
D32*
X127941339Y-67276661D02*
X128147001Y-67445443D01*
X128147001Y-68693814D01*
X117217000Y-79623815D01*
X117217000Y-67445441D01*
X117422661Y-67276661D01*
X117602000Y-67058135D01*
X117781339Y-67276661D01*
X118015073Y-67468481D01*
X118281739Y-67611017D01*
X118571087Y-67698790D01*
X118872000Y-67728427D01*
X119172912Y-67698790D01*
X119462260Y-67611017D01*
X119728926Y-67468481D01*
X119962661Y-67276661D01*
X120142000Y-67058135D01*
X120321339Y-67276661D01*
X120555073Y-67468481D01*
X120821739Y-67611017D01*
X121111087Y-67698790D01*
X121412000Y-67728427D01*
X121712912Y-67698790D01*
X122002260Y-67611017D01*
X122268926Y-67468481D01*
X122502661Y-67276661D01*
X122682000Y-67058135D01*
X122861339Y-67276661D01*
X123095073Y-67468481D01*
X123361739Y-67611017D01*
X123651087Y-67698790D01*
X123952000Y-67728427D01*
X124252912Y-67698790D01*
X124542260Y-67611017D01*
X124808926Y-67468481D01*
X125042661Y-67276661D01*
X125222000Y-67058135D01*
X125401339Y-67276661D01*
X125635073Y-67468481D01*
X125901739Y-67611017D01*
X126191087Y-67698790D01*
X126492000Y-67728427D01*
X126792912Y-67698790D01*
X127082260Y-67611017D01*
X127348926Y-67468481D01*
X127582661Y-67276661D01*
X127762000Y-67058135D01*
X127941339Y-67276661D01*
%TA.AperFunction,NonConductor*%
D33*
G36*
X127941339Y-67276661D02*
G01*
X128147001Y-67445443D01*
X128147001Y-68693814D01*
X117217000Y-79623815D01*
X117217000Y-67445441D01*
X117422661Y-67276661D01*
X117602000Y-67058135D01*
X117781339Y-67276661D01*
X118015073Y-67468481D01*
X118281739Y-67611017D01*
X118571087Y-67698790D01*
X118872000Y-67728427D01*
X119172912Y-67698790D01*
X119462260Y-67611017D01*
X119728926Y-67468481D01*
X119962661Y-67276661D01*
X120142000Y-67058135D01*
X120321339Y-67276661D01*
X120555073Y-67468481D01*
X120821739Y-67611017D01*
X121111087Y-67698790D01*
X121412000Y-67728427D01*
X121712912Y-67698790D01*
X122002260Y-67611017D01*
X122268926Y-67468481D01*
X122502661Y-67276661D01*
X122682000Y-67058135D01*
X122861339Y-67276661D01*
X123095073Y-67468481D01*
X123361739Y-67611017D01*
X123651087Y-67698790D01*
X123952000Y-67728427D01*
X124252912Y-67698790D01*
X124542260Y-67611017D01*
X124808926Y-67468481D01*
X125042661Y-67276661D01*
X125222000Y-67058135D01*
X125401339Y-67276661D01*
X125635073Y-67468481D01*
X125901739Y-67611017D01*
X126191087Y-67698790D01*
X126492000Y-67728427D01*
X126792912Y-67698790D01*
X127082260Y-67611017D01*
X127348926Y-67468481D01*
X127582661Y-67276661D01*
X127762000Y-67058135D01*
X127941339Y-67276661D01*
G37*
%TD.AperFunction*%
D32*
X143181339Y-67276661D02*
X143287000Y-67363375D01*
X143287001Y-72567568D01*
X143262114Y-72584197D01*
X143069201Y-72777110D01*
X142917629Y-73003953D01*
X142813225Y-73256007D01*
X142809448Y-73274995D01*
X142678690Y-73274995D01*
X142680799Y-73272886D01*
X142832371Y-73046043D01*
X142936775Y-72793989D01*
X142990000Y-72526411D01*
X142990000Y-72253589D01*
X142936775Y-71986011D01*
X142832371Y-71733957D01*
X142717000Y-71561292D01*
X142717000Y-67363374D01*
X142822661Y-67276661D01*
X143002000Y-67058135D01*
X143181339Y-67276661D01*
%TA.AperFunction,NonConductor*%
D33*
G36*
X143181339Y-67276661D02*
G01*
X143287000Y-67363375D01*
X143287001Y-72567568D01*
X143262114Y-72584197D01*
X143069201Y-72777110D01*
X142917629Y-73003953D01*
X142813225Y-73256007D01*
X142809448Y-73274995D01*
X142678690Y-73274995D01*
X142680799Y-73272886D01*
X142832371Y-73046043D01*
X142936775Y-72793989D01*
X142990000Y-72526411D01*
X142990000Y-72253589D01*
X142936775Y-71986011D01*
X142832371Y-71733957D01*
X142717000Y-71561292D01*
X142717000Y-67363374D01*
X142822661Y-67276661D01*
X143002000Y-67058135D01*
X143181339Y-67276661D01*
G37*
%TD.AperFunction*%
D32*
X140641339Y-67276661D02*
X140747000Y-67363375D01*
X140747001Y-71297572D01*
X140722114Y-71314201D01*
X140529201Y-71507114D01*
X140377629Y-71733957D01*
X140273225Y-71986011D01*
X140220000Y-72253589D01*
X140220000Y-72526411D01*
X140273225Y-72793989D01*
X140377629Y-73046043D01*
X140529201Y-73272886D01*
X140531310Y-73274995D01*
X140275992Y-73274995D01*
X140169998Y-73169002D01*
X140169998Y-67369120D01*
X140282661Y-67276661D01*
X140462000Y-67058135D01*
X140641339Y-67276661D01*
%TA.AperFunction,NonConductor*%
D33*
G36*
X140641339Y-67276661D02*
G01*
X140747000Y-67363375D01*
X140747001Y-71297572D01*
X140722114Y-71314201D01*
X140529201Y-71507114D01*
X140377629Y-71733957D01*
X140273225Y-71986011D01*
X140220000Y-72253589D01*
X140220000Y-72526411D01*
X140273225Y-72793989D01*
X140377629Y-73046043D01*
X140529201Y-73272886D01*
X140531310Y-73274995D01*
X140275992Y-73274995D01*
X140169998Y-73169002D01*
X140169998Y-67369120D01*
X140282661Y-67276661D01*
X140462000Y-67058135D01*
X140641339Y-67276661D01*
G37*
%TD.AperFunction*%
D32*
X130481339Y-67276661D02*
X130715073Y-67468481D01*
X130981739Y-67611017D01*
X131022914Y-67623507D01*
X129917000Y-68729421D01*
X129917000Y-67445441D01*
X130122661Y-67276661D01*
X130302000Y-67058135D01*
X130481339Y-67276661D01*
%TA.AperFunction,NonConductor*%
D33*
G36*
X130481339Y-67276661D02*
G01*
X130715073Y-67468481D01*
X130981739Y-67611017D01*
X131022914Y-67623507D01*
X129917000Y-68729421D01*
X129917000Y-67445441D01*
X130122661Y-67276661D01*
X130302000Y-67058135D01*
X130481339Y-67276661D01*
G37*
%TD.AperFunction*%
M02*
