M48
; DRILL file {KiCad (5.1.9)-1} date 03/27/21 12:54:45
; FORMAT={-:-/ absolute / inch / decimal}
; #@! TF.CreationDate,2021-03-27T12:54:45-03:00
; #@! TF.GenerationSoftware,Kicad,Pcbnew,(5.1.9)-1
; #@! TF.FileFunction,Plated,1,2,PTH
FMAT,2
INCH
T1C0.0295
T2C0.0315
T3C0.0354
T4C0.0394
T5C0.0433
T6C0.0472
T7C0.0598
T8C0.0984
%
G90
G05
T1
X5.3Y-3.23
X5.35Y-3.23
X5.4Y-3.23
T2
X3.45Y-3.09
X3.45Y-3.1884
X3.52Y-3.3316
X3.52Y-3.43
X3.68Y-2.86
X3.68Y-3.16
X3.73Y-3.2816
X3.73Y-3.38
X3.78Y-2.86
X3.78Y-3.16
X3.88Y-2.86
X3.88Y-3.16
X3.9671Y-3.33
X3.98Y-2.86
X3.98Y-3.16
X4.08Y-2.86
X4.08Y-3.16
X4.16Y-3.33
X4.18Y-2.86
X4.18Y-3.16
X4.28Y-2.86
X4.28Y-3.16
X4.38Y-2.86
X4.38Y-3.16
X4.38Y-3.29
X4.38Y-3.3884
X4.48Y-2.86
X4.48Y-3.16
X4.58Y-2.86
X4.58Y-3.16
X4.6Y-3.29
X4.68Y-2.86
X4.68Y-3.16
X4.78Y-2.86
X4.78Y-3.16
X4.88Y-2.86
X4.88Y-3.16
X4.9Y-3.29
X4.98Y-2.86
X4.98Y-3.16
T3
X5.086Y-2.72
T4
X3.28Y-2.5949
X3.58Y-2.5949
X3.98Y-2.5949
X4.08Y-2.5949
X4.54Y-3.45
X4.64Y-3.45
X4.74Y-3.45
X4.84Y-3.45
X4.94Y-3.45
X5.04Y-3.45
X5.14Y-3.45
X5.24Y-3.45
X5.4231Y-3.02
X5.5216Y-2.8231
X5.62Y-3.02
T5
X3.07Y-3.4
X3.17Y-3.4
X3.27Y-3.4
T6
X4.29Y-2.61
X4.39Y-2.61
X4.49Y-2.61
X4.59Y-2.61
X4.69Y-2.61
X4.79Y-2.61
X4.89Y-2.61
X4.99Y-2.61
X5.09Y-2.61
X5.19Y-2.61
X5.29Y-2.61
X5.39Y-2.61
X5.49Y-2.61
X5.59Y-2.61
X5.69Y-2.61
X5.79Y-2.61
T7
X5.6Y-3.35
X5.8Y-3.35
X5.95Y-2.85
X5.95Y-3.05
X6.0Y-3.35
T8
X3.0538Y-2.61
X3.0538Y-3.8305
X6.0065Y-2.61
X6.0065Y-3.8305
T4
G00X3.0338Y-2.9206
M15
G01X3.0338Y-2.9994
M16
G05
G00X3.1125Y-3.145
M15
G01X3.1913Y-3.145
M16
G05
G00X3.27Y-2.9206
M15
G01X3.27Y-2.9994
M16
G05
T0
M30
