%TF.GenerationSoftware,KiCad,Pcbnew,(5.1.9)-1*%
%TF.CreationDate,2021-03-27T12:54:39-03:00*%
%TF.ProjectId,layout3,6c61796f-7574-4332-9e6b-696361645f70,rev?*%
%TF.SameCoordinates,Original*%
%TF.FileFunction,Copper,L2,Bot*%
%TF.FilePolarity,Positive*%
%FSLAX46Y46*%
G04 Gerber Fmt 4.6, Leading zero omitted, Abs format (unit mm)*
G04 Created by KiCad (PCBNEW (5.1.9)-1) date 2021-03-27 12:54:39*
%MOMM*%
%LPD*%
G01*
G04 APERTURE LIST*
%TA.AperFunction,ComponentPad*%
%ADD10R,3.500000X3.500000*%
%TD*%
%TA.AperFunction,ComponentPad*%
%ADD11R,1.508000X1.508000*%
%TD*%
%TA.AperFunction,ComponentPad*%
%ADD12C,1.508000*%
%TD*%
%TA.AperFunction,ComponentPad*%
%ADD13C,1.600000*%
%TD*%
%TA.AperFunction,ComponentPad*%
%ADD14R,1.600000X1.600000*%
%TD*%
%TA.AperFunction,ComponentPad*%
%ADD15O,1.600000X1.600000*%
%TD*%
%TA.AperFunction,ComponentPad*%
%ADD16R,1.800000X2.600000*%
%TD*%
%TA.AperFunction,ComponentPad*%
%ADD17O,1.800000X2.600000*%
%TD*%
%TA.AperFunction,ComponentPad*%
%ADD18C,3.000000*%
%TD*%
%TA.AperFunction,ComponentPad*%
%ADD19O,1.050000X1.500000*%
%TD*%
%TA.AperFunction,ComponentPad*%
%ADD20R,1.050000X1.500000*%
%TD*%
%TA.AperFunction,ComponentPad*%
%ADD21O,1.700000X1.700000*%
%TD*%
%TA.AperFunction,ComponentPad*%
%ADD22R,1.700000X1.700000*%
%TD*%
%TA.AperFunction,ComponentPad*%
%ADD23R,3.000000X3.000000*%
%TD*%
%TA.AperFunction,ComponentPad*%
%ADD24R,1.905000X2.000000*%
%TD*%
%TA.AperFunction,ComponentPad*%
%ADD25O,1.905000X2.000000*%
%TD*%
%TA.AperFunction,ComponentPad*%
%ADD26C,1.500000*%
%TD*%
%TA.AperFunction,ComponentPad*%
%ADD27C,1.550000*%
%TD*%
%TA.AperFunction,ComponentPad*%
%ADD28R,1.550000X1.550000*%
%TD*%
%TA.AperFunction,ViaPad*%
%ADD29C,1.500000*%
%TD*%
%TA.AperFunction,Conductor*%
%ADD30C,0.700000*%
%TD*%
%TA.AperFunction,Conductor*%
%ADD31C,1.000000*%
%TD*%
%TA.AperFunction,Conductor*%
%ADD32C,0.500000*%
%TD*%
G04 APERTURE END LIST*
D10*
%TO.P,J1,1*%
%TO.N,vcc_12v*%
X83058000Y-75184000D03*
%TO.P,J1,2*%
%TO.N,GND*%
%TA.AperFunction,ComponentPad*%
G36*
G01*
X75558000Y-76184000D02*
X75558000Y-74184000D01*
G75*
G02*
X76308000Y-73434000I750000J0D01*
G01*
X77808000Y-73434000D01*
G75*
G02*
X78558000Y-74184000I0J-750000D01*
G01*
X78558000Y-76184000D01*
G75*
G02*
X77808000Y-76934000I-750000J0D01*
G01*
X76308000Y-76934000D01*
G75*
G02*
X75558000Y-76184000I0J750000D01*
G01*
G37*
%TD.AperFunction*%
%TO.P,J1,3*%
%TO.N,N/C*%
%TA.AperFunction,ComponentPad*%
G36*
G01*
X78308000Y-80759000D02*
X78308000Y-79009000D01*
G75*
G02*
X79183000Y-78134000I875000J0D01*
G01*
X80933000Y-78134000D01*
G75*
G02*
X81808000Y-79009000I0J-875000D01*
G01*
X81808000Y-80759000D01*
G75*
G02*
X80933000Y-81634000I-875000J0D01*
G01*
X79183000Y-81634000D01*
G75*
G02*
X78308000Y-80759000I0J875000D01*
G01*
G37*
%TD.AperFunction*%
%TD*%
D11*
%TO.P,K1,1*%
%TO.N,Net-(J3-Pad2)*%
X83312000Y-65910000D03*
D12*
%TO.P,K1,2*%
%TO.N,Net-(J3-Pad1)*%
X90932000Y-65910000D03*
%TO.P,K1,3*%
%TO.N,Pino_13*%
X101092000Y-65910000D03*
%TO.P,K1,4*%
%TO.N,GND*%
X103632000Y-65910000D03*
%TD*%
D13*
%TO.P,C4,2*%
%TO.N,GND*%
X89408000Y-84622000D03*
D14*
%TO.P,C4,1*%
%TO.N,vcc*%
X89408000Y-87122000D03*
%TD*%
D13*
%TO.P,R1,1*%
%TO.N,Pino_2_int*%
X124460000Y-83566000D03*
D15*
%TO.P,R1,2*%
%TO.N,GND*%
X116840000Y-83566000D03*
%TD*%
D16*
%TO.P,DS1,1*%
%TO.N,GND*%
X147066000Y-66294000D03*
D17*
%TO.P,DS1,2*%
%TO.N,vcc*%
X144526000Y-66294000D03*
%TO.P,DS1,3*%
%TO.N,Net-(DS1-Pad3)*%
X141986000Y-66294000D03*
%TO.P,DS1,4*%
%TO.N,Pino_12*%
X139446000Y-66294000D03*
%TO.P,DS1,5*%
%TO.N,GND*%
X136906000Y-66294000D03*
%TO.P,DS1,6*%
%TO.N,Pino_11*%
X134366000Y-66294000D03*
%TO.P,DS1,7*%
%TO.N,Net-(DS1-Pad7)*%
X131826000Y-66294000D03*
%TO.P,DS1,8*%
%TO.N,Net-(DS1-Pad8)*%
X129286000Y-66294000D03*
%TO.P,DS1,9*%
%TO.N,Net-(DS1-Pad9)*%
X126746000Y-66294000D03*
%TO.P,DS1,10*%
%TO.N,Net-(DS1-Pad10)*%
X124206000Y-66294000D03*
%TO.P,DS1,11*%
%TO.N,Pino_16_A2*%
X121666000Y-66294000D03*
%TO.P,DS1,12*%
%TO.N,Pino_17_A3*%
X119126000Y-66294000D03*
%TO.P,DS1,13*%
%TO.N,Pino_18_A4*%
X116586000Y-66294000D03*
%TO.P,DS1,14*%
%TO.N,Pino_19_A5*%
X114046000Y-66294000D03*
%TO.P,DS1,15*%
%TO.N,LCD_A*%
X111506000Y-66294000D03*
%TO.P,DS1,16*%
%TO.N,GND*%
X108966000Y-66294000D03*
D18*
%TO.P,DS1,*%
%TO.N,*%
X152565100Y-66294000D03*
X152565100Y-97294700D03*
X77566520Y-97294700D03*
X77566000Y-66294000D03*
%TD*%
D19*
%TO.P,Q1,2*%
%TO.N,Net-(J4-Pad2)*%
X135890000Y-82042000D03*
%TO.P,Q1,3*%
%TO.N,vcc*%
X137160000Y-82042000D03*
D20*
%TO.P,Q1,1*%
%TO.N,Pino_2_int*%
X134620000Y-82042000D03*
%TD*%
D21*
%TO.P,J2,8*%
%TO.N,Pino_3*%
X133096000Y-87630000D03*
%TO.P,J2,7*%
%TO.N,Pino_4*%
X130556000Y-87630000D03*
%TO.P,J2,6*%
%TO.N,Pino_5*%
X128016000Y-87630000D03*
%TO.P,J2,5*%
%TO.N,Pino_6*%
X125476000Y-87630000D03*
%TO.P,J2,4*%
%TO.N,Pino_7*%
X122936000Y-87630000D03*
%TO.P,J2,3*%
%TO.N,Pino_8*%
X120396000Y-87630000D03*
%TO.P,J2,2*%
%TO.N,Pino_9*%
X117856000Y-87630000D03*
D22*
%TO.P,J2,1*%
%TO.N,Pino_10*%
X115316000Y-87630000D03*
%TD*%
D23*
%TO.P,J3,1*%
%TO.N,Net-(J3-Pad1)*%
X151130000Y-77470000D03*
D18*
%TO.P,J3,2*%
%TO.N,Net-(J3-Pad2)*%
X151130000Y-72390000D03*
%TD*%
D23*
%TO.P,J4,1*%
%TO.N,vcc_12v*%
X142240000Y-85090000D03*
D18*
%TO.P,J4,2*%
%TO.N,Net-(J4-Pad2)*%
X147320000Y-85090000D03*
%TO.P,J4,3*%
%TO.N,GND*%
X152400000Y-85090000D03*
%TD*%
D24*
%TO.P,U2,1*%
%TO.N,vcc_12v*%
X77978000Y-86360000D03*
D25*
%TO.P,U2,2*%
%TO.N,GND*%
X80518000Y-86360000D03*
%TO.P,U2,3*%
%TO.N,vcc*%
X83058000Y-86360000D03*
%TD*%
D26*
%TO.P,Y1,2*%
%TO.N,Net-(C2-Pad2)*%
X100764000Y-84582000D03*
%TO.P,Y1,1*%
%TO.N,Net-(C1-Pad2)*%
X105664000Y-84582000D03*
%TD*%
D13*
%TO.P,C1,1*%
%TO.N,GND*%
X111252000Y-83566000D03*
%TO.P,C1,2*%
%TO.N,Net-(C1-Pad2)*%
X111252000Y-86066000D03*
%TD*%
%TO.P,C2,2*%
%TO.N,Net-(C2-Pad2)*%
X94742000Y-85852000D03*
%TO.P,C2,1*%
%TO.N,GND*%
X94742000Y-83352000D03*
%TD*%
D14*
%TO.P,C3,1*%
%TO.N,vcc_12v*%
X87630000Y-78486000D03*
D13*
%TO.P,C3,2*%
%TO.N,GND*%
X87630000Y-80986000D03*
%TD*%
D15*
%TO.P,U1,28*%
%TO.N,Pino_19_A5*%
X93472000Y-72644000D03*
%TO.P,U1,14*%
%TO.N,Pino_7*%
X126492000Y-80264000D03*
%TO.P,U1,27*%
%TO.N,Pino_18_A4*%
X96012000Y-72644000D03*
%TO.P,U1,13*%
%TO.N,Pino_8*%
X123952000Y-80264000D03*
%TO.P,U1,26*%
%TO.N,Pino_17_A3*%
X98552000Y-72644000D03*
%TO.P,U1,12*%
%TO.N,Pino_9*%
X121412000Y-80264000D03*
%TO.P,U1,25*%
%TO.N,Pino_16_A2*%
X101092000Y-72644000D03*
%TO.P,U1,11*%
%TO.N,Pino_10*%
X118872000Y-80264000D03*
%TO.P,U1,24*%
%TO.N,Net-(U1-Pad24)*%
X103632000Y-72644000D03*
%TO.P,U1,10*%
%TO.N,Net-(C2-Pad2)*%
X116332000Y-80264000D03*
%TO.P,U1,23*%
%TO.N,Net-(U1-Pad23)*%
X106172000Y-72644000D03*
%TO.P,U1,9*%
%TO.N,Net-(C1-Pad2)*%
X113792000Y-80264000D03*
%TO.P,U1,22*%
%TO.N,GND*%
X108712000Y-72644000D03*
%TO.P,U1,8*%
X111252000Y-80264000D03*
%TO.P,U1,21*%
%TO.N,Net-(U1-Pad21)*%
X111252000Y-72644000D03*
%TO.P,U1,7*%
%TO.N,vcc*%
X108712000Y-80264000D03*
%TO.P,U1,20*%
X113792000Y-72644000D03*
%TO.P,U1,6*%
%TO.N,Pino_6*%
X106172000Y-80264000D03*
%TO.P,U1,19*%
%TO.N,Pino_13*%
X116332000Y-72644000D03*
%TO.P,U1,5*%
%TO.N,Pino_5*%
X103632000Y-80264000D03*
%TO.P,U1,18*%
%TO.N,Pino_12*%
X118872000Y-72644000D03*
%TO.P,U1,4*%
%TO.N,Pino_2_int*%
X101092000Y-80264000D03*
%TO.P,U1,17*%
%TO.N,Pino_11*%
X121412000Y-72644000D03*
%TO.P,U1,3*%
%TO.N,Pino_4*%
X98552000Y-80264000D03*
%TO.P,U1,16*%
%TO.N,LCD_A*%
X123952000Y-72644000D03*
%TO.P,U1,2*%
%TO.N,Pino_3*%
X96012000Y-80264000D03*
%TO.P,U1,15*%
%TO.N,Net-(U1-Pad15)*%
X126492000Y-72644000D03*
D14*
%TO.P,U1,1*%
%TO.N,vcc*%
X93472000Y-80264000D03*
%TD*%
D27*
%TO.P,RV1,3*%
%TO.N,GND*%
X137748000Y-76708000D03*
D28*
%TO.P,RV1,1*%
%TO.N,vcc*%
X142748000Y-76708000D03*
D27*
%TO.P,RV1,2*%
%TO.N,Net-(DS1-Pad3)*%
X140248000Y-71708000D03*
%TD*%
D29*
%TO.N,LCD_A*%
X129184400Y-69088000D03*
%TD*%
D30*
%TO.N,Pino_2_int*%
X124565990Y-83820000D02*
X124565990Y-83566000D01*
%TO.N,Net-(C1-Pad2)*%
X113792000Y-80264000D02*
X113792000Y-83526000D01*
X113792000Y-83526000D02*
X111252000Y-86066000D01*
X107148000Y-86066000D02*
X105664000Y-84582000D01*
X111252000Y-86066000D02*
X107148000Y-86066000D01*
%TO.N,Net-(C2-Pad2)*%
X112217999Y-87426001D02*
X103608001Y-87426001D01*
X114702011Y-81893989D02*
X114702011Y-84941989D01*
X116332000Y-80264000D02*
X114702011Y-81893989D01*
X114702011Y-84941989D02*
X112217999Y-87426001D01*
X103608001Y-87426001D02*
X101513999Y-85331999D01*
X101513999Y-85331999D02*
X100764000Y-84582000D01*
X99494000Y-85852000D02*
X100764000Y-84582000D01*
X94742000Y-85852000D02*
X99494000Y-85852000D01*
D31*
%TO.N,vcc_12v*%
X79248000Y-85090000D02*
X77978000Y-86360000D01*
X83820000Y-74676000D02*
X87630000Y-78486000D01*
X83058000Y-74676000D02*
X83820000Y-74676000D01*
X85852000Y-78486000D02*
X79248000Y-85090000D01*
X87630000Y-78486000D02*
X85852000Y-78486000D01*
%TO.N,vcc*%
X88646000Y-86360000D02*
X89408000Y-87122000D01*
X83058000Y-86360000D02*
X88646000Y-86360000D01*
X142494000Y-76708000D02*
X137160000Y-82042000D01*
X142748000Y-76708000D02*
X142494000Y-76708000D01*
X144526000Y-66802000D02*
X144526000Y-65903103D01*
X142748000Y-76708000D02*
X140411200Y-74371200D01*
X115519200Y-74371200D02*
X113792000Y-72644000D01*
X140411200Y-74371200D02*
X115519200Y-74371200D01*
D30*
%TO.N,Pino_10*%
X118872000Y-84074000D02*
X115316000Y-87630000D01*
X118872000Y-80264000D02*
X118872000Y-84074000D01*
%TO.N,Pino_9*%
X121412000Y-84074000D02*
X117856000Y-87630000D01*
X121412000Y-80264000D02*
X121412000Y-84074000D01*
%TO.N,Pino_8*%
X122682000Y-85344000D02*
X120396000Y-87630000D01*
X122682000Y-81534000D02*
X122682000Y-85344000D01*
X123952000Y-80264000D02*
X122682000Y-81534000D01*
%TO.N,Pino_7*%
X122936000Y-87102802D02*
X122936000Y-87630000D01*
X126492000Y-83546802D02*
X122936000Y-87102802D01*
X126492000Y-80264000D02*
X126492000Y-83546802D01*
%TO.N,Pino_6*%
X106699198Y-80264000D02*
X106172000Y-80264000D01*
X108172398Y-78790800D02*
X106699198Y-80264000D01*
X127031604Y-78790800D02*
X108172398Y-78790800D01*
X127872380Y-79631576D02*
X127031604Y-78790800D01*
X127872380Y-85233620D02*
X127872380Y-79631576D01*
X125476000Y-87630000D02*
X127872380Y-85233620D01*
%TO.N,Pino_5*%
X128865999Y-79338246D02*
X127408542Y-77880789D01*
X106015211Y-77880789D02*
X103632000Y-80264000D01*
X128016000Y-87630000D02*
X128865999Y-86780001D01*
X127408542Y-77880789D02*
X106015211Y-77880789D01*
X128865999Y-86780001D02*
X128865999Y-79338246D01*
%TO.N,Pino_4*%
X101845222Y-76970778D02*
X98552000Y-80264000D01*
X127785480Y-76970778D02*
X101845222Y-76970778D01*
X130556000Y-79741301D02*
X127785480Y-76970778D01*
X130556000Y-87630000D02*
X130556000Y-79741301D01*
%TO.N,Pino_3*%
X133096000Y-80994349D02*
X128162418Y-76060767D01*
X133096000Y-87630000D02*
X133096000Y-80994349D01*
X100215233Y-76060767D02*
X96012000Y-80264000D01*
X128162418Y-76060767D02*
X100215233Y-76060767D01*
D31*
%TO.N,Net-(J3-Pad1)*%
X94945988Y-69923988D02*
X90932000Y-65910000D01*
X112254129Y-70608023D02*
X111570094Y-69923988D01*
X126832408Y-70608023D02*
X112254129Y-70608023D01*
X127982397Y-71758012D02*
X126832408Y-70608023D01*
X151130000Y-77470000D02*
X143797603Y-70137603D01*
X130386403Y-71758012D02*
X127982397Y-71758012D01*
X132006812Y-70137603D02*
X130386403Y-71758012D01*
X111570094Y-69923988D02*
X94945988Y-69923988D01*
X143797603Y-70137603D02*
X132006812Y-70137603D01*
%TO.N,Net-(J3-Pad2)*%
X112071297Y-68713977D02*
X97923977Y-68713977D01*
X93472000Y-64262000D02*
X84960000Y-64262000D01*
X84960000Y-64262000D02*
X83312000Y-65910000D01*
X151130000Y-72390000D02*
X147453977Y-68713977D01*
X147453977Y-68713977D02*
X131719225Y-68713977D01*
X129885201Y-70548001D02*
X128483599Y-70548001D01*
X131719225Y-68713977D02*
X129885201Y-70548001D01*
X127333610Y-69398012D02*
X112755331Y-69398012D01*
X97923977Y-68713977D02*
X93472000Y-64262000D01*
X112755331Y-69398012D02*
X112071297Y-68713977D01*
X128483599Y-70548001D02*
X127333610Y-69398012D01*
D30*
%TO.N,Net-(J4-Pad2)*%
X135890000Y-82804000D02*
X135890000Y-82042000D01*
X140462000Y-87376000D02*
X135890000Y-82804000D01*
X145796000Y-87376000D02*
X140462000Y-87376000D01*
X147320000Y-85852000D02*
X145796000Y-87376000D01*
D31*
%TO.N,GND*%
X111252000Y-80264000D02*
X111506000Y-80264000D01*
X87510000Y-84622000D02*
X89408000Y-84622000D01*
X82256000Y-84622000D02*
X89408000Y-84622000D01*
X80518000Y-86360000D02*
X82256000Y-84622000D01*
X87630000Y-82844000D02*
X89408000Y-84622000D01*
X87630000Y-80986000D02*
X87630000Y-82844000D01*
X111252000Y-80264000D02*
X111252000Y-83566000D01*
X93472000Y-84622000D02*
X94742000Y-83352000D01*
X89408000Y-84622000D02*
X93472000Y-84622000D01*
X103762000Y-66040000D02*
X103632000Y-65910000D01*
X95290000Y-82804000D02*
X94742000Y-83352000D01*
X110490000Y-82804000D02*
X95290000Y-82804000D01*
X111252000Y-83566000D02*
X110490000Y-82804000D01*
X88761370Y-80986000D02*
X89763600Y-79983770D01*
X89763600Y-79983770D02*
X89763600Y-74117598D01*
X107201999Y-71133999D02*
X108712000Y-72644000D01*
X89763600Y-74117598D02*
X92747199Y-71133999D01*
X92747199Y-71133999D02*
X107201999Y-71133999D01*
X88761370Y-80986000D02*
X87630000Y-80986000D01*
D30*
%TO.N,LCD_A*%
X128434401Y-68338001D02*
X129184400Y-69088000D01*
X113194401Y-68338001D02*
X128434401Y-68338001D01*
X111506000Y-66294000D02*
X111506000Y-66649600D01*
X111506000Y-66649600D02*
X113194401Y-68338001D01*
%TD*%
D32*
%TO.N,GND*%
X148780200Y-66332064D02*
X148783596Y-66366550D01*
X148783464Y-66385520D01*
X148784520Y-66396289D01*
X148846701Y-66987897D01*
X148860828Y-67056719D01*
X148873987Y-67125700D01*
X148877114Y-67136059D01*
X149053020Y-67704321D01*
X149080246Y-67769090D01*
X149106553Y-67834202D01*
X149111633Y-67843757D01*
X149394565Y-68367029D01*
X149433845Y-68425263D01*
X149472306Y-68484038D01*
X149479145Y-68492424D01*
X149858327Y-68950776D01*
X149908184Y-69000285D01*
X149957315Y-69050456D01*
X149965653Y-69057354D01*
X150426640Y-69433326D01*
X150485156Y-69472204D01*
X150543104Y-69511881D01*
X150552622Y-69517028D01*
X151077856Y-69796300D01*
X151142821Y-69823076D01*
X151207360Y-69850738D01*
X151217698Y-69853939D01*
X151787175Y-70025874D01*
X151856099Y-70039521D01*
X151924785Y-70054121D01*
X151935547Y-70055252D01*
X152527573Y-70113301D01*
X152527577Y-70113301D01*
X152565135Y-70117000D01*
X154419000Y-70117000D01*
X154419001Y-88633000D01*
X134350121Y-88633000D01*
X134513902Y-88387884D01*
X134634513Y-88096703D01*
X134696000Y-87787586D01*
X134696000Y-87472414D01*
X134634513Y-87163297D01*
X134513902Y-86872116D01*
X134338801Y-86610059D01*
X134196000Y-86467258D01*
X134196000Y-83545628D01*
X135075630Y-83545628D01*
X135108419Y-83585581D01*
X135150399Y-83620033D01*
X139645971Y-88115606D01*
X139680419Y-88157581D01*
X139847916Y-88295042D01*
X140039012Y-88397184D01*
X140246362Y-88460084D01*
X140407964Y-88476000D01*
X140407965Y-88476000D01*
X140461999Y-88481322D01*
X140516033Y-88476000D01*
X145741966Y-88476000D01*
X145796000Y-88481322D01*
X145850034Y-88476000D01*
X145850036Y-88476000D01*
X146011638Y-88460084D01*
X146218988Y-88397184D01*
X146410084Y-88295042D01*
X146577581Y-88157581D01*
X146612033Y-88115601D01*
X147387635Y-87340000D01*
X147541606Y-87340000D01*
X147976301Y-87253534D01*
X148385775Y-87083924D01*
X148754292Y-86837689D01*
X149067689Y-86524292D01*
X149313924Y-86155775D01*
X149483534Y-85746301D01*
X149570000Y-85311606D01*
X149570000Y-84868394D01*
X149483534Y-84433699D01*
X149313924Y-84024225D01*
X149067689Y-83655708D01*
X148754292Y-83342311D01*
X148385775Y-83096076D01*
X147976301Y-82926466D01*
X147541606Y-82840000D01*
X147098394Y-82840000D01*
X146663699Y-82926466D01*
X146254225Y-83096076D01*
X145885708Y-83342311D01*
X145572311Y-83655708D01*
X145326076Y-84024225D01*
X145156466Y-84433699D01*
X145070000Y-84868394D01*
X145070000Y-85311606D01*
X145156466Y-85746301D01*
X145326076Y-86155775D01*
X145379955Y-86236411D01*
X145340366Y-86276000D01*
X144493628Y-86276000D01*
X144493628Y-83590000D01*
X144479147Y-83442974D01*
X144436261Y-83301599D01*
X144366619Y-83171307D01*
X144272895Y-83057105D01*
X144158693Y-82963381D01*
X144028401Y-82893739D01*
X143887026Y-82850853D01*
X143740000Y-82836372D01*
X140740000Y-82836372D01*
X140592974Y-82850853D01*
X140451599Y-82893739D01*
X140321307Y-82963381D01*
X140207105Y-83057105D01*
X140113381Y-83171307D01*
X140043739Y-83301599D01*
X140000853Y-83442974D01*
X139986372Y-83590000D01*
X139986372Y-85344737D01*
X137927862Y-83286227D01*
X138065923Y-83172923D01*
X138225253Y-82978779D01*
X138343646Y-82757281D01*
X138400758Y-82569008D01*
X142733139Y-78236628D01*
X143523000Y-78236628D01*
X143670026Y-78222147D01*
X143811401Y-78179261D01*
X143941693Y-78109619D01*
X144055895Y-78015895D01*
X144149619Y-77901693D01*
X144219261Y-77771401D01*
X144262147Y-77630026D01*
X144276628Y-77483000D01*
X144276628Y-75933000D01*
X144262147Y-75785974D01*
X144219261Y-75644599D01*
X144149619Y-75514307D01*
X144055895Y-75400105D01*
X143941693Y-75306381D01*
X143811401Y-75236739D01*
X143670026Y-75193853D01*
X143523000Y-75179372D01*
X142987139Y-75179372D01*
X141338509Y-73530743D01*
X141299360Y-73483040D01*
X141109023Y-73326834D01*
X140891869Y-73210763D01*
X140726288Y-73160535D01*
X140970358Y-73059438D01*
X141220131Y-72892545D01*
X141432545Y-72680131D01*
X141599438Y-72430358D01*
X141714395Y-72152826D01*
X141773000Y-71858199D01*
X141773000Y-71557801D01*
X141739145Y-71387603D01*
X143279837Y-71387603D01*
X148876372Y-76984139D01*
X148876372Y-78970000D01*
X148890853Y-79117026D01*
X148933739Y-79258401D01*
X149003381Y-79388693D01*
X149097105Y-79502895D01*
X149211307Y-79596619D01*
X149341599Y-79666261D01*
X149482974Y-79709147D01*
X149630000Y-79723628D01*
X152630000Y-79723628D01*
X152777026Y-79709147D01*
X152918401Y-79666261D01*
X153048693Y-79596619D01*
X153162895Y-79502895D01*
X153256619Y-79388693D01*
X153326261Y-79258401D01*
X153369147Y-79117026D01*
X153383628Y-78970000D01*
X153383628Y-75970000D01*
X153369147Y-75822974D01*
X153326261Y-75681599D01*
X153256619Y-75551307D01*
X153162895Y-75437105D01*
X153048693Y-75343381D01*
X152918401Y-75273739D01*
X152777026Y-75230853D01*
X152630000Y-75216372D01*
X150644139Y-75216372D01*
X145391743Y-69963977D01*
X146936211Y-69963977D01*
X148923241Y-71951007D01*
X148880000Y-72168394D01*
X148880000Y-72611606D01*
X148966466Y-73046301D01*
X149136076Y-73455775D01*
X149382311Y-73824292D01*
X149695708Y-74137689D01*
X150064225Y-74383924D01*
X150473699Y-74553534D01*
X150908394Y-74640000D01*
X151351606Y-74640000D01*
X151786301Y-74553534D01*
X152195775Y-74383924D01*
X152564292Y-74137689D01*
X152877689Y-73824292D01*
X153123924Y-73455775D01*
X153293534Y-73046301D01*
X153380000Y-72611606D01*
X153380000Y-72168394D01*
X153293534Y-71733699D01*
X153123924Y-71324225D01*
X152877689Y-70955708D01*
X152564292Y-70642311D01*
X152195775Y-70396076D01*
X151786301Y-70226466D01*
X151351606Y-70140000D01*
X150908394Y-70140000D01*
X150691007Y-70183241D01*
X148381286Y-67873520D01*
X148342137Y-67825817D01*
X148151800Y-67669611D01*
X147934646Y-67553540D01*
X147699020Y-67482064D01*
X147515382Y-67463977D01*
X147515375Y-67463977D01*
X147453977Y-67457930D01*
X147392579Y-67463977D01*
X145985353Y-67463977D01*
X146057777Y-67328483D01*
X146152125Y-67017456D01*
X146176000Y-66775052D01*
X146176000Y-65812949D01*
X146152125Y-65570544D01*
X146057777Y-65259517D01*
X145904562Y-64972874D01*
X145698371Y-64721629D01*
X145447126Y-64515438D01*
X145160483Y-64362223D01*
X144872944Y-64275000D01*
X148780201Y-64275000D01*
X148780200Y-66332064D01*
%TA.AperFunction,Conductor*%
G36*
X148780200Y-66332064D02*
G01*
X148783596Y-66366550D01*
X148783464Y-66385520D01*
X148784520Y-66396289D01*
X148846701Y-66987897D01*
X148860828Y-67056719D01*
X148873987Y-67125700D01*
X148877114Y-67136059D01*
X149053020Y-67704321D01*
X149080246Y-67769090D01*
X149106553Y-67834202D01*
X149111633Y-67843757D01*
X149394565Y-68367029D01*
X149433845Y-68425263D01*
X149472306Y-68484038D01*
X149479145Y-68492424D01*
X149858327Y-68950776D01*
X149908184Y-69000285D01*
X149957315Y-69050456D01*
X149965653Y-69057354D01*
X150426640Y-69433326D01*
X150485156Y-69472204D01*
X150543104Y-69511881D01*
X150552622Y-69517028D01*
X151077856Y-69796300D01*
X151142821Y-69823076D01*
X151207360Y-69850738D01*
X151217698Y-69853939D01*
X151787175Y-70025874D01*
X151856099Y-70039521D01*
X151924785Y-70054121D01*
X151935547Y-70055252D01*
X152527573Y-70113301D01*
X152527577Y-70113301D01*
X152565135Y-70117000D01*
X154419000Y-70117000D01*
X154419001Y-88633000D01*
X134350121Y-88633000D01*
X134513902Y-88387884D01*
X134634513Y-88096703D01*
X134696000Y-87787586D01*
X134696000Y-87472414D01*
X134634513Y-87163297D01*
X134513902Y-86872116D01*
X134338801Y-86610059D01*
X134196000Y-86467258D01*
X134196000Y-83545628D01*
X135075630Y-83545628D01*
X135108419Y-83585581D01*
X135150399Y-83620033D01*
X139645971Y-88115606D01*
X139680419Y-88157581D01*
X139847916Y-88295042D01*
X140039012Y-88397184D01*
X140246362Y-88460084D01*
X140407964Y-88476000D01*
X140407965Y-88476000D01*
X140461999Y-88481322D01*
X140516033Y-88476000D01*
X145741966Y-88476000D01*
X145796000Y-88481322D01*
X145850034Y-88476000D01*
X145850036Y-88476000D01*
X146011638Y-88460084D01*
X146218988Y-88397184D01*
X146410084Y-88295042D01*
X146577581Y-88157581D01*
X146612033Y-88115601D01*
X147387635Y-87340000D01*
X147541606Y-87340000D01*
X147976301Y-87253534D01*
X148385775Y-87083924D01*
X148754292Y-86837689D01*
X149067689Y-86524292D01*
X149313924Y-86155775D01*
X149483534Y-85746301D01*
X149570000Y-85311606D01*
X149570000Y-84868394D01*
X149483534Y-84433699D01*
X149313924Y-84024225D01*
X149067689Y-83655708D01*
X148754292Y-83342311D01*
X148385775Y-83096076D01*
X147976301Y-82926466D01*
X147541606Y-82840000D01*
X147098394Y-82840000D01*
X146663699Y-82926466D01*
X146254225Y-83096076D01*
X145885708Y-83342311D01*
X145572311Y-83655708D01*
X145326076Y-84024225D01*
X145156466Y-84433699D01*
X145070000Y-84868394D01*
X145070000Y-85311606D01*
X145156466Y-85746301D01*
X145326076Y-86155775D01*
X145379955Y-86236411D01*
X145340366Y-86276000D01*
X144493628Y-86276000D01*
X144493628Y-83590000D01*
X144479147Y-83442974D01*
X144436261Y-83301599D01*
X144366619Y-83171307D01*
X144272895Y-83057105D01*
X144158693Y-82963381D01*
X144028401Y-82893739D01*
X143887026Y-82850853D01*
X143740000Y-82836372D01*
X140740000Y-82836372D01*
X140592974Y-82850853D01*
X140451599Y-82893739D01*
X140321307Y-82963381D01*
X140207105Y-83057105D01*
X140113381Y-83171307D01*
X140043739Y-83301599D01*
X140000853Y-83442974D01*
X139986372Y-83590000D01*
X139986372Y-85344737D01*
X137927862Y-83286227D01*
X138065923Y-83172923D01*
X138225253Y-82978779D01*
X138343646Y-82757281D01*
X138400758Y-82569008D01*
X142733139Y-78236628D01*
X143523000Y-78236628D01*
X143670026Y-78222147D01*
X143811401Y-78179261D01*
X143941693Y-78109619D01*
X144055895Y-78015895D01*
X144149619Y-77901693D01*
X144219261Y-77771401D01*
X144262147Y-77630026D01*
X144276628Y-77483000D01*
X144276628Y-75933000D01*
X144262147Y-75785974D01*
X144219261Y-75644599D01*
X144149619Y-75514307D01*
X144055895Y-75400105D01*
X143941693Y-75306381D01*
X143811401Y-75236739D01*
X143670026Y-75193853D01*
X143523000Y-75179372D01*
X142987139Y-75179372D01*
X141338509Y-73530743D01*
X141299360Y-73483040D01*
X141109023Y-73326834D01*
X140891869Y-73210763D01*
X140726288Y-73160535D01*
X140970358Y-73059438D01*
X141220131Y-72892545D01*
X141432545Y-72680131D01*
X141599438Y-72430358D01*
X141714395Y-72152826D01*
X141773000Y-71858199D01*
X141773000Y-71557801D01*
X141739145Y-71387603D01*
X143279837Y-71387603D01*
X148876372Y-76984139D01*
X148876372Y-78970000D01*
X148890853Y-79117026D01*
X148933739Y-79258401D01*
X149003381Y-79388693D01*
X149097105Y-79502895D01*
X149211307Y-79596619D01*
X149341599Y-79666261D01*
X149482974Y-79709147D01*
X149630000Y-79723628D01*
X152630000Y-79723628D01*
X152777026Y-79709147D01*
X152918401Y-79666261D01*
X153048693Y-79596619D01*
X153162895Y-79502895D01*
X153256619Y-79388693D01*
X153326261Y-79258401D01*
X153369147Y-79117026D01*
X153383628Y-78970000D01*
X153383628Y-75970000D01*
X153369147Y-75822974D01*
X153326261Y-75681599D01*
X153256619Y-75551307D01*
X153162895Y-75437105D01*
X153048693Y-75343381D01*
X152918401Y-75273739D01*
X152777026Y-75230853D01*
X152630000Y-75216372D01*
X150644139Y-75216372D01*
X145391743Y-69963977D01*
X146936211Y-69963977D01*
X148923241Y-71951007D01*
X148880000Y-72168394D01*
X148880000Y-72611606D01*
X148966466Y-73046301D01*
X149136076Y-73455775D01*
X149382311Y-73824292D01*
X149695708Y-74137689D01*
X150064225Y-74383924D01*
X150473699Y-74553534D01*
X150908394Y-74640000D01*
X151351606Y-74640000D01*
X151786301Y-74553534D01*
X152195775Y-74383924D01*
X152564292Y-74137689D01*
X152877689Y-73824292D01*
X153123924Y-73455775D01*
X153293534Y-73046301D01*
X153380000Y-72611606D01*
X153380000Y-72168394D01*
X153293534Y-71733699D01*
X153123924Y-71324225D01*
X152877689Y-70955708D01*
X152564292Y-70642311D01*
X152195775Y-70396076D01*
X151786301Y-70226466D01*
X151351606Y-70140000D01*
X150908394Y-70140000D01*
X150691007Y-70183241D01*
X148381286Y-67873520D01*
X148342137Y-67825817D01*
X148151800Y-67669611D01*
X147934646Y-67553540D01*
X147699020Y-67482064D01*
X147515382Y-67463977D01*
X147515375Y-67463977D01*
X147453977Y-67457930D01*
X147392579Y-67463977D01*
X145985353Y-67463977D01*
X146057777Y-67328483D01*
X146152125Y-67017456D01*
X146176000Y-66775052D01*
X146176000Y-65812949D01*
X146152125Y-65570544D01*
X146057777Y-65259517D01*
X145904562Y-64972874D01*
X145698371Y-64721629D01*
X145447126Y-64515438D01*
X145160483Y-64362223D01*
X144872944Y-64275000D01*
X148780201Y-64275000D01*
X148780200Y-66332064D01*
G37*
%TD.AperFunction*%
X83051862Y-64402372D02*
X82558000Y-64402372D01*
X82410974Y-64416853D01*
X82269599Y-64459739D01*
X82139307Y-64529381D01*
X82025105Y-64623105D01*
X81931381Y-64737307D01*
X81861739Y-64867599D01*
X81818853Y-65008974D01*
X81804372Y-65156000D01*
X81804372Y-66664000D01*
X81818853Y-66811026D01*
X81861739Y-66952401D01*
X81931381Y-67082693D01*
X82025105Y-67196895D01*
X82139307Y-67290619D01*
X82269599Y-67360261D01*
X82410974Y-67403147D01*
X82558000Y-67417628D01*
X84066000Y-67417628D01*
X84213026Y-67403147D01*
X84354401Y-67360261D01*
X84484693Y-67290619D01*
X84598895Y-67196895D01*
X84692619Y-67082693D01*
X84762261Y-66952401D01*
X84805147Y-66811026D01*
X84819628Y-66664000D01*
X84819628Y-66170138D01*
X85477767Y-65512000D01*
X89477702Y-65512000D01*
X89428000Y-65761869D01*
X89428000Y-66058131D01*
X89485798Y-66348701D01*
X89599173Y-66622411D01*
X89763767Y-66868744D01*
X89973256Y-67078233D01*
X90219589Y-67242827D01*
X90493299Y-67356202D01*
X90639521Y-67385287D01*
X94018684Y-70764451D01*
X94057828Y-70812148D01*
X94248165Y-70968354D01*
X94465319Y-71084425D01*
X94646104Y-71139265D01*
X94700944Y-71155901D01*
X94726526Y-71158421D01*
X94884583Y-71173988D01*
X94884589Y-71173988D01*
X94945987Y-71180035D01*
X95007385Y-71173988D01*
X95510577Y-71173988D01*
X95277800Y-71270408D01*
X95023932Y-71440036D01*
X94808036Y-71655932D01*
X94742000Y-71754763D01*
X94675964Y-71655932D01*
X94460068Y-71440036D01*
X94206200Y-71270408D01*
X93924118Y-71153565D01*
X93624662Y-71094000D01*
X93319338Y-71094000D01*
X93019882Y-71153565D01*
X92737800Y-71270408D01*
X92483932Y-71440036D01*
X92268036Y-71655932D01*
X92098408Y-71909800D01*
X91981565Y-72191882D01*
X91922000Y-72491338D01*
X91922000Y-72796662D01*
X91981565Y-73096118D01*
X92098408Y-73378200D01*
X92268036Y-73632068D01*
X92483932Y-73847964D01*
X92737800Y-74017592D01*
X93019882Y-74134435D01*
X93319338Y-74194000D01*
X93624662Y-74194000D01*
X93924118Y-74134435D01*
X94206200Y-74017592D01*
X94460068Y-73847964D01*
X94675964Y-73632068D01*
X94742000Y-73533237D01*
X94808036Y-73632068D01*
X95023932Y-73847964D01*
X95277800Y-74017592D01*
X95559882Y-74134435D01*
X95859338Y-74194000D01*
X96164662Y-74194000D01*
X96464118Y-74134435D01*
X96746200Y-74017592D01*
X97000068Y-73847964D01*
X97215964Y-73632068D01*
X97282000Y-73533237D01*
X97348036Y-73632068D01*
X97563932Y-73847964D01*
X97817800Y-74017592D01*
X98099882Y-74134435D01*
X98399338Y-74194000D01*
X98704662Y-74194000D01*
X99004118Y-74134435D01*
X99286200Y-74017592D01*
X99540068Y-73847964D01*
X99755964Y-73632068D01*
X99822000Y-73533237D01*
X99888036Y-73632068D01*
X100103932Y-73847964D01*
X100357800Y-74017592D01*
X100639882Y-74134435D01*
X100939338Y-74194000D01*
X101244662Y-74194000D01*
X101544118Y-74134435D01*
X101826200Y-74017592D01*
X102080068Y-73847964D01*
X102295964Y-73632068D01*
X102362000Y-73533237D01*
X102428036Y-73632068D01*
X102643932Y-73847964D01*
X102897800Y-74017592D01*
X103179882Y-74134435D01*
X103479338Y-74194000D01*
X103784662Y-74194000D01*
X104084118Y-74134435D01*
X104366200Y-74017592D01*
X104620068Y-73847964D01*
X104835964Y-73632068D01*
X104902000Y-73533237D01*
X104968036Y-73632068D01*
X105183932Y-73847964D01*
X105437800Y-74017592D01*
X105719882Y-74134435D01*
X106019338Y-74194000D01*
X106324662Y-74194000D01*
X106624118Y-74134435D01*
X106906200Y-74017592D01*
X107160068Y-73847964D01*
X107375964Y-73632068D01*
X107545592Y-73378200D01*
X107662435Y-73096118D01*
X107722000Y-72796662D01*
X107722000Y-72491338D01*
X107662435Y-72191882D01*
X107545592Y-71909800D01*
X107375964Y-71655932D01*
X107160068Y-71440036D01*
X106906200Y-71270408D01*
X106673423Y-71173988D01*
X110750577Y-71173988D01*
X110517800Y-71270408D01*
X110263932Y-71440036D01*
X110048036Y-71655932D01*
X109878408Y-71909800D01*
X109761565Y-72191882D01*
X109702000Y-72491338D01*
X109702000Y-72796662D01*
X109761565Y-73096118D01*
X109878408Y-73378200D01*
X110048036Y-73632068D01*
X110263932Y-73847964D01*
X110517800Y-74017592D01*
X110799882Y-74134435D01*
X111099338Y-74194000D01*
X111404662Y-74194000D01*
X111704118Y-74134435D01*
X111986200Y-74017592D01*
X112240068Y-73847964D01*
X112455964Y-73632068D01*
X112522000Y-73533237D01*
X112588036Y-73632068D01*
X112803932Y-73847964D01*
X113057800Y-74017592D01*
X113339882Y-74134435D01*
X113558068Y-74177835D01*
X114341000Y-74960767D01*
X100269266Y-74960767D01*
X100215232Y-74955445D01*
X100161198Y-74960767D01*
X100161197Y-74960767D01*
X99999595Y-74976683D01*
X99792245Y-75039583D01*
X99737168Y-75069022D01*
X99601148Y-75141725D01*
X99537631Y-75193853D01*
X99433652Y-75279186D01*
X99399204Y-75321161D01*
X96006366Y-78714000D01*
X95859338Y-78714000D01*
X95559882Y-78773565D01*
X95277800Y-78890408D01*
X95023932Y-79060036D01*
X94947399Y-79136569D01*
X94898619Y-79045307D01*
X94804895Y-78931105D01*
X94690693Y-78837381D01*
X94560401Y-78767739D01*
X94419026Y-78724853D01*
X94272000Y-78710372D01*
X92672000Y-78710372D01*
X92524974Y-78724853D01*
X92383599Y-78767739D01*
X92253307Y-78837381D01*
X92139105Y-78931105D01*
X92045381Y-79045307D01*
X91975739Y-79175599D01*
X91932853Y-79316974D01*
X91918372Y-79464000D01*
X91918372Y-81064000D01*
X91932853Y-81211026D01*
X91975739Y-81352401D01*
X92045381Y-81482693D01*
X92139105Y-81596895D01*
X92253307Y-81690619D01*
X92383599Y-81760261D01*
X92524974Y-81803147D01*
X92672000Y-81817628D01*
X94272000Y-81817628D01*
X94419026Y-81803147D01*
X94560401Y-81760261D01*
X94690693Y-81690619D01*
X94804895Y-81596895D01*
X94898619Y-81482693D01*
X94947399Y-81391431D01*
X95023932Y-81467964D01*
X95277800Y-81637592D01*
X95559882Y-81754435D01*
X95859338Y-81814000D01*
X96164662Y-81814000D01*
X96464118Y-81754435D01*
X96746200Y-81637592D01*
X97000068Y-81467964D01*
X97215964Y-81252068D01*
X97282000Y-81153237D01*
X97348036Y-81252068D01*
X97563932Y-81467964D01*
X97817800Y-81637592D01*
X98099882Y-81754435D01*
X98399338Y-81814000D01*
X98704662Y-81814000D01*
X99004118Y-81754435D01*
X99286200Y-81637592D01*
X99540068Y-81467964D01*
X99755964Y-81252068D01*
X99822000Y-81153237D01*
X99888036Y-81252068D01*
X100103932Y-81467964D01*
X100357800Y-81637592D01*
X100639882Y-81754435D01*
X100939338Y-81814000D01*
X101244662Y-81814000D01*
X101544118Y-81754435D01*
X101826200Y-81637592D01*
X102080068Y-81467964D01*
X102295964Y-81252068D01*
X102362000Y-81153237D01*
X102428036Y-81252068D01*
X102643932Y-81467964D01*
X102897800Y-81637592D01*
X103179882Y-81754435D01*
X103479338Y-81814000D01*
X103784662Y-81814000D01*
X104084118Y-81754435D01*
X104366200Y-81637592D01*
X104620068Y-81467964D01*
X104835964Y-81252068D01*
X104902000Y-81153237D01*
X104968036Y-81252068D01*
X105183932Y-81467964D01*
X105437800Y-81637592D01*
X105719882Y-81754435D01*
X106019338Y-81814000D01*
X106324662Y-81814000D01*
X106624118Y-81754435D01*
X106906200Y-81637592D01*
X107160068Y-81467964D01*
X107375964Y-81252068D01*
X107442000Y-81153237D01*
X107508036Y-81252068D01*
X107723932Y-81467964D01*
X107977800Y-81637592D01*
X108259882Y-81754435D01*
X108559338Y-81814000D01*
X108864662Y-81814000D01*
X109164118Y-81754435D01*
X109446200Y-81637592D01*
X109700068Y-81467964D01*
X109915964Y-81252068D01*
X110085592Y-80998200D01*
X110202435Y-80716118D01*
X110262000Y-80416662D01*
X110262000Y-80111338D01*
X110218133Y-79890800D01*
X112285867Y-79890800D01*
X112242000Y-80111338D01*
X112242000Y-80416662D01*
X112301565Y-80716118D01*
X112418408Y-80998200D01*
X112588036Y-81252068D01*
X112692000Y-81356032D01*
X112692001Y-83070364D01*
X111246366Y-84516000D01*
X111099338Y-84516000D01*
X110799882Y-84575565D01*
X110517800Y-84692408D01*
X110263932Y-84862036D01*
X110159968Y-84966000D01*
X107603635Y-84966000D01*
X107164000Y-84526366D01*
X107164000Y-84434263D01*
X107106356Y-84144466D01*
X106993283Y-83871483D01*
X106829126Y-83625806D01*
X106620194Y-83416874D01*
X106374517Y-83252717D01*
X106101534Y-83139644D01*
X105811737Y-83082000D01*
X105516263Y-83082000D01*
X105226466Y-83139644D01*
X104953483Y-83252717D01*
X104707806Y-83416874D01*
X104498874Y-83625806D01*
X104334717Y-83871483D01*
X104221644Y-84144466D01*
X104164000Y-84434263D01*
X104164000Y-84729737D01*
X104221644Y-85019534D01*
X104334717Y-85292517D01*
X104498874Y-85538194D01*
X104707806Y-85747126D01*
X104953483Y-85911283D01*
X105226466Y-86024356D01*
X105516263Y-86082000D01*
X105608366Y-86082000D01*
X105852366Y-86326001D01*
X104063636Y-86326001D01*
X102330029Y-84592395D01*
X102330025Y-84592390D01*
X102264000Y-84526365D01*
X102264000Y-84434263D01*
X102206356Y-84144466D01*
X102093283Y-83871483D01*
X101929126Y-83625806D01*
X101720194Y-83416874D01*
X101474517Y-83252717D01*
X101201534Y-83139644D01*
X100911737Y-83082000D01*
X100616263Y-83082000D01*
X100326466Y-83139644D01*
X100053483Y-83252717D01*
X99807806Y-83416874D01*
X99598874Y-83625806D01*
X99434717Y-83871483D01*
X99321644Y-84144466D01*
X99264000Y-84434263D01*
X99264000Y-84526366D01*
X99038366Y-84752000D01*
X95834032Y-84752000D01*
X95730068Y-84648036D01*
X95476200Y-84478408D01*
X95194118Y-84361565D01*
X94894662Y-84302000D01*
X94589338Y-84302000D01*
X94289882Y-84361565D01*
X94007800Y-84478408D01*
X93753932Y-84648036D01*
X93538036Y-84863932D01*
X93368408Y-85117800D01*
X93251565Y-85399882D01*
X93192000Y-85699338D01*
X93192000Y-86004662D01*
X93251565Y-86304118D01*
X93368408Y-86586200D01*
X93538036Y-86840068D01*
X93753932Y-87055964D01*
X94007800Y-87225592D01*
X94289882Y-87342435D01*
X94589338Y-87402000D01*
X94894662Y-87402000D01*
X95194118Y-87342435D01*
X95476200Y-87225592D01*
X95730068Y-87055964D01*
X95834032Y-86952000D01*
X99439966Y-86952000D01*
X99494000Y-86957322D01*
X99548034Y-86952000D01*
X99548036Y-86952000D01*
X99709638Y-86936084D01*
X99916988Y-86873184D01*
X100108084Y-86771042D01*
X100275581Y-86633581D01*
X100310033Y-86591601D01*
X100764000Y-86137635D01*
X100774390Y-86148025D01*
X100774395Y-86148029D01*
X102791972Y-88165607D01*
X102826420Y-88207582D01*
X102870898Y-88244084D01*
X102993916Y-88345043D01*
X103084056Y-88393223D01*
X103185013Y-88447185D01*
X103392363Y-88510085D01*
X103553965Y-88526001D01*
X103553966Y-88526001D01*
X103608000Y-88531323D01*
X103662034Y-88526001D01*
X112163965Y-88526001D01*
X112217999Y-88531323D01*
X112272033Y-88526001D01*
X112272035Y-88526001D01*
X112433637Y-88510085D01*
X112640987Y-88447185D01*
X112832083Y-88345043D01*
X112999580Y-88207582D01*
X113034032Y-88165602D01*
X113712372Y-87487262D01*
X113712372Y-88480000D01*
X113726853Y-88627026D01*
X113728665Y-88633000D01*
X90447813Y-88633000D01*
X90496401Y-88618261D01*
X90626693Y-88548619D01*
X90740895Y-88454895D01*
X90834619Y-88340693D01*
X90904261Y-88210401D01*
X90947147Y-88069026D01*
X90961628Y-87922000D01*
X90961628Y-86322000D01*
X90947147Y-86174974D01*
X90904261Y-86033599D01*
X90834619Y-85903307D01*
X90740895Y-85789105D01*
X90626693Y-85695381D01*
X90496401Y-85625739D01*
X90355026Y-85582853D01*
X90208000Y-85568372D01*
X89622138Y-85568372D01*
X89573309Y-85519543D01*
X89534160Y-85471840D01*
X89343823Y-85315634D01*
X89126669Y-85199563D01*
X88891043Y-85128087D01*
X88707405Y-85110000D01*
X88707398Y-85110000D01*
X88646000Y-85103953D01*
X88584602Y-85110000D01*
X84273562Y-85110000D01*
X84267674Y-85102826D01*
X84008434Y-84890074D01*
X83712670Y-84731985D01*
X83391747Y-84634634D01*
X83058000Y-84601763D01*
X82724252Y-84634634D01*
X82403329Y-84731985D01*
X82107565Y-84890074D01*
X81848326Y-85102826D01*
X81635574Y-85362066D01*
X81477485Y-85657830D01*
X81380134Y-85978753D01*
X81355500Y-86228869D01*
X81355500Y-86491132D01*
X81380134Y-86741248D01*
X81477485Y-87062171D01*
X81635574Y-87357935D01*
X81848326Y-87617174D01*
X82107566Y-87829926D01*
X82403330Y-87988015D01*
X82724253Y-88085366D01*
X83058000Y-88118237D01*
X83391748Y-88085366D01*
X83712671Y-87988015D01*
X84008435Y-87829926D01*
X84267674Y-87617174D01*
X84273562Y-87610000D01*
X87854372Y-87610000D01*
X87854372Y-87922000D01*
X87868853Y-88069026D01*
X87911739Y-88210401D01*
X87981381Y-88340693D01*
X88075105Y-88454895D01*
X88189307Y-88548619D01*
X88319599Y-88618261D01*
X88368187Y-88633000D01*
X75705000Y-88633000D01*
X75705000Y-85360000D01*
X76271872Y-85360000D01*
X76271872Y-87360000D01*
X76286353Y-87507026D01*
X76329239Y-87648401D01*
X76398881Y-87778693D01*
X76492605Y-87892895D01*
X76606807Y-87986619D01*
X76737099Y-88056261D01*
X76878474Y-88099147D01*
X77025500Y-88113628D01*
X78930500Y-88113628D01*
X79077526Y-88099147D01*
X79218901Y-88056261D01*
X79349193Y-87986619D01*
X79463395Y-87892895D01*
X79557119Y-87778693D01*
X79626761Y-87648401D01*
X79669647Y-87507026D01*
X79684128Y-87360000D01*
X79684128Y-86421639D01*
X80175303Y-85930464D01*
X80175308Y-85930458D01*
X86292492Y-79813275D01*
X86297105Y-79818895D01*
X86411307Y-79912619D01*
X86541599Y-79982261D01*
X86682974Y-80025147D01*
X86830000Y-80039628D01*
X88430000Y-80039628D01*
X88577026Y-80025147D01*
X88718401Y-79982261D01*
X88848693Y-79912619D01*
X88962895Y-79818895D01*
X89056619Y-79704693D01*
X89126261Y-79574401D01*
X89169147Y-79433026D01*
X89183628Y-79286000D01*
X89183628Y-77686000D01*
X89169147Y-77538974D01*
X89126261Y-77397599D01*
X89056619Y-77267307D01*
X88962895Y-77153105D01*
X88848693Y-77059381D01*
X88718401Y-76989739D01*
X88577026Y-76946853D01*
X88430000Y-76932372D01*
X87844139Y-76932372D01*
X85561628Y-74649862D01*
X85561628Y-73434000D01*
X85547147Y-73286974D01*
X85504261Y-73145599D01*
X85434619Y-73015307D01*
X85340895Y-72901105D01*
X85226693Y-72807381D01*
X85096401Y-72737739D01*
X84955026Y-72694853D01*
X84808000Y-72680372D01*
X81308000Y-72680372D01*
X81160974Y-72694853D01*
X81019599Y-72737739D01*
X80889307Y-72807381D01*
X80775105Y-72901105D01*
X80681381Y-73015307D01*
X80611739Y-73145599D01*
X80568853Y-73286974D01*
X80554372Y-73434000D01*
X80554372Y-76934000D01*
X80568853Y-77081026D01*
X80611739Y-77222401D01*
X80681381Y-77352693D01*
X80704097Y-77380372D01*
X79183000Y-77380372D01*
X78865270Y-77411666D01*
X78559751Y-77504344D01*
X78278183Y-77654845D01*
X78031386Y-77857386D01*
X77828845Y-78104183D01*
X77678344Y-78385751D01*
X77585666Y-78691270D01*
X77554372Y-79009000D01*
X77554372Y-80759000D01*
X77585666Y-81076730D01*
X77678344Y-81382249D01*
X77828845Y-81663817D01*
X78031386Y-81910614D01*
X78278183Y-82113155D01*
X78559751Y-82263656D01*
X78865270Y-82356334D01*
X79183000Y-82387628D01*
X80182606Y-82387628D01*
X78407542Y-84162692D01*
X78407536Y-84162697D01*
X77963861Y-84606372D01*
X77025500Y-84606372D01*
X76878474Y-84620853D01*
X76737099Y-84663739D01*
X76606807Y-84733381D01*
X76492605Y-84827105D01*
X76398881Y-84941307D01*
X76329239Y-85071599D01*
X76286353Y-85212974D01*
X76271872Y-85360000D01*
X75705000Y-85360000D01*
X75705000Y-70117000D01*
X77558865Y-70117000D01*
X77593351Y-70113604D01*
X77612320Y-70113736D01*
X77623089Y-70112680D01*
X78214697Y-70050499D01*
X78283519Y-70036372D01*
X78352500Y-70023213D01*
X78362859Y-70020086D01*
X78931121Y-69844180D01*
X78995890Y-69816954D01*
X79061002Y-69790647D01*
X79070557Y-69785567D01*
X79593829Y-69502635D01*
X79652063Y-69463355D01*
X79710838Y-69424894D01*
X79719224Y-69418055D01*
X80177576Y-69038873D01*
X80227085Y-68989016D01*
X80277256Y-68939885D01*
X80284154Y-68931547D01*
X80660126Y-68470560D01*
X80699004Y-68412044D01*
X80738681Y-68354096D01*
X80743828Y-68344578D01*
X81023100Y-67819344D01*
X81049876Y-67754379D01*
X81077538Y-67689840D01*
X81080739Y-67679502D01*
X81252674Y-67110025D01*
X81266321Y-67041101D01*
X81280921Y-66972415D01*
X81282052Y-66961653D01*
X81340101Y-66369627D01*
X81340101Y-66369623D01*
X81343800Y-66332065D01*
X81343800Y-64275000D01*
X83179234Y-64275000D01*
X83051862Y-64402372D01*
%TA.AperFunction,Conductor*%
G36*
X83051862Y-64402372D02*
G01*
X82558000Y-64402372D01*
X82410974Y-64416853D01*
X82269599Y-64459739D01*
X82139307Y-64529381D01*
X82025105Y-64623105D01*
X81931381Y-64737307D01*
X81861739Y-64867599D01*
X81818853Y-65008974D01*
X81804372Y-65156000D01*
X81804372Y-66664000D01*
X81818853Y-66811026D01*
X81861739Y-66952401D01*
X81931381Y-67082693D01*
X82025105Y-67196895D01*
X82139307Y-67290619D01*
X82269599Y-67360261D01*
X82410974Y-67403147D01*
X82558000Y-67417628D01*
X84066000Y-67417628D01*
X84213026Y-67403147D01*
X84354401Y-67360261D01*
X84484693Y-67290619D01*
X84598895Y-67196895D01*
X84692619Y-67082693D01*
X84762261Y-66952401D01*
X84805147Y-66811026D01*
X84819628Y-66664000D01*
X84819628Y-66170138D01*
X85477767Y-65512000D01*
X89477702Y-65512000D01*
X89428000Y-65761869D01*
X89428000Y-66058131D01*
X89485798Y-66348701D01*
X89599173Y-66622411D01*
X89763767Y-66868744D01*
X89973256Y-67078233D01*
X90219589Y-67242827D01*
X90493299Y-67356202D01*
X90639521Y-67385287D01*
X94018684Y-70764451D01*
X94057828Y-70812148D01*
X94248165Y-70968354D01*
X94465319Y-71084425D01*
X94646104Y-71139265D01*
X94700944Y-71155901D01*
X94726526Y-71158421D01*
X94884583Y-71173988D01*
X94884589Y-71173988D01*
X94945987Y-71180035D01*
X95007385Y-71173988D01*
X95510577Y-71173988D01*
X95277800Y-71270408D01*
X95023932Y-71440036D01*
X94808036Y-71655932D01*
X94742000Y-71754763D01*
X94675964Y-71655932D01*
X94460068Y-71440036D01*
X94206200Y-71270408D01*
X93924118Y-71153565D01*
X93624662Y-71094000D01*
X93319338Y-71094000D01*
X93019882Y-71153565D01*
X92737800Y-71270408D01*
X92483932Y-71440036D01*
X92268036Y-71655932D01*
X92098408Y-71909800D01*
X91981565Y-72191882D01*
X91922000Y-72491338D01*
X91922000Y-72796662D01*
X91981565Y-73096118D01*
X92098408Y-73378200D01*
X92268036Y-73632068D01*
X92483932Y-73847964D01*
X92737800Y-74017592D01*
X93019882Y-74134435D01*
X93319338Y-74194000D01*
X93624662Y-74194000D01*
X93924118Y-74134435D01*
X94206200Y-74017592D01*
X94460068Y-73847964D01*
X94675964Y-73632068D01*
X94742000Y-73533237D01*
X94808036Y-73632068D01*
X95023932Y-73847964D01*
X95277800Y-74017592D01*
X95559882Y-74134435D01*
X95859338Y-74194000D01*
X96164662Y-74194000D01*
X96464118Y-74134435D01*
X96746200Y-74017592D01*
X97000068Y-73847964D01*
X97215964Y-73632068D01*
X97282000Y-73533237D01*
X97348036Y-73632068D01*
X97563932Y-73847964D01*
X97817800Y-74017592D01*
X98099882Y-74134435D01*
X98399338Y-74194000D01*
X98704662Y-74194000D01*
X99004118Y-74134435D01*
X99286200Y-74017592D01*
X99540068Y-73847964D01*
X99755964Y-73632068D01*
X99822000Y-73533237D01*
X99888036Y-73632068D01*
X100103932Y-73847964D01*
X100357800Y-74017592D01*
X100639882Y-74134435D01*
X100939338Y-74194000D01*
X101244662Y-74194000D01*
X101544118Y-74134435D01*
X101826200Y-74017592D01*
X102080068Y-73847964D01*
X102295964Y-73632068D01*
X102362000Y-73533237D01*
X102428036Y-73632068D01*
X102643932Y-73847964D01*
X102897800Y-74017592D01*
X103179882Y-74134435D01*
X103479338Y-74194000D01*
X103784662Y-74194000D01*
X104084118Y-74134435D01*
X104366200Y-74017592D01*
X104620068Y-73847964D01*
X104835964Y-73632068D01*
X104902000Y-73533237D01*
X104968036Y-73632068D01*
X105183932Y-73847964D01*
X105437800Y-74017592D01*
X105719882Y-74134435D01*
X106019338Y-74194000D01*
X106324662Y-74194000D01*
X106624118Y-74134435D01*
X106906200Y-74017592D01*
X107160068Y-73847964D01*
X107375964Y-73632068D01*
X107545592Y-73378200D01*
X107662435Y-73096118D01*
X107722000Y-72796662D01*
X107722000Y-72491338D01*
X107662435Y-72191882D01*
X107545592Y-71909800D01*
X107375964Y-71655932D01*
X107160068Y-71440036D01*
X106906200Y-71270408D01*
X106673423Y-71173988D01*
X110750577Y-71173988D01*
X110517800Y-71270408D01*
X110263932Y-71440036D01*
X110048036Y-71655932D01*
X109878408Y-71909800D01*
X109761565Y-72191882D01*
X109702000Y-72491338D01*
X109702000Y-72796662D01*
X109761565Y-73096118D01*
X109878408Y-73378200D01*
X110048036Y-73632068D01*
X110263932Y-73847964D01*
X110517800Y-74017592D01*
X110799882Y-74134435D01*
X111099338Y-74194000D01*
X111404662Y-74194000D01*
X111704118Y-74134435D01*
X111986200Y-74017592D01*
X112240068Y-73847964D01*
X112455964Y-73632068D01*
X112522000Y-73533237D01*
X112588036Y-73632068D01*
X112803932Y-73847964D01*
X113057800Y-74017592D01*
X113339882Y-74134435D01*
X113558068Y-74177835D01*
X114341000Y-74960767D01*
X100269266Y-74960767D01*
X100215232Y-74955445D01*
X100161198Y-74960767D01*
X100161197Y-74960767D01*
X99999595Y-74976683D01*
X99792245Y-75039583D01*
X99737168Y-75069022D01*
X99601148Y-75141725D01*
X99537631Y-75193853D01*
X99433652Y-75279186D01*
X99399204Y-75321161D01*
X96006366Y-78714000D01*
X95859338Y-78714000D01*
X95559882Y-78773565D01*
X95277800Y-78890408D01*
X95023932Y-79060036D01*
X94947399Y-79136569D01*
X94898619Y-79045307D01*
X94804895Y-78931105D01*
X94690693Y-78837381D01*
X94560401Y-78767739D01*
X94419026Y-78724853D01*
X94272000Y-78710372D01*
X92672000Y-78710372D01*
X92524974Y-78724853D01*
X92383599Y-78767739D01*
X92253307Y-78837381D01*
X92139105Y-78931105D01*
X92045381Y-79045307D01*
X91975739Y-79175599D01*
X91932853Y-79316974D01*
X91918372Y-79464000D01*
X91918372Y-81064000D01*
X91932853Y-81211026D01*
X91975739Y-81352401D01*
X92045381Y-81482693D01*
X92139105Y-81596895D01*
X92253307Y-81690619D01*
X92383599Y-81760261D01*
X92524974Y-81803147D01*
X92672000Y-81817628D01*
X94272000Y-81817628D01*
X94419026Y-81803147D01*
X94560401Y-81760261D01*
X94690693Y-81690619D01*
X94804895Y-81596895D01*
X94898619Y-81482693D01*
X94947399Y-81391431D01*
X95023932Y-81467964D01*
X95277800Y-81637592D01*
X95559882Y-81754435D01*
X95859338Y-81814000D01*
X96164662Y-81814000D01*
X96464118Y-81754435D01*
X96746200Y-81637592D01*
X97000068Y-81467964D01*
X97215964Y-81252068D01*
X97282000Y-81153237D01*
X97348036Y-81252068D01*
X97563932Y-81467964D01*
X97817800Y-81637592D01*
X98099882Y-81754435D01*
X98399338Y-81814000D01*
X98704662Y-81814000D01*
X99004118Y-81754435D01*
X99286200Y-81637592D01*
X99540068Y-81467964D01*
X99755964Y-81252068D01*
X99822000Y-81153237D01*
X99888036Y-81252068D01*
X100103932Y-81467964D01*
X100357800Y-81637592D01*
X100639882Y-81754435D01*
X100939338Y-81814000D01*
X101244662Y-81814000D01*
X101544118Y-81754435D01*
X101826200Y-81637592D01*
X102080068Y-81467964D01*
X102295964Y-81252068D01*
X102362000Y-81153237D01*
X102428036Y-81252068D01*
X102643932Y-81467964D01*
X102897800Y-81637592D01*
X103179882Y-81754435D01*
X103479338Y-81814000D01*
X103784662Y-81814000D01*
X104084118Y-81754435D01*
X104366200Y-81637592D01*
X104620068Y-81467964D01*
X104835964Y-81252068D01*
X104902000Y-81153237D01*
X104968036Y-81252068D01*
X105183932Y-81467964D01*
X105437800Y-81637592D01*
X105719882Y-81754435D01*
X106019338Y-81814000D01*
X106324662Y-81814000D01*
X106624118Y-81754435D01*
X106906200Y-81637592D01*
X107160068Y-81467964D01*
X107375964Y-81252068D01*
X107442000Y-81153237D01*
X107508036Y-81252068D01*
X107723932Y-81467964D01*
X107977800Y-81637592D01*
X108259882Y-81754435D01*
X108559338Y-81814000D01*
X108864662Y-81814000D01*
X109164118Y-81754435D01*
X109446200Y-81637592D01*
X109700068Y-81467964D01*
X109915964Y-81252068D01*
X110085592Y-80998200D01*
X110202435Y-80716118D01*
X110262000Y-80416662D01*
X110262000Y-80111338D01*
X110218133Y-79890800D01*
X112285867Y-79890800D01*
X112242000Y-80111338D01*
X112242000Y-80416662D01*
X112301565Y-80716118D01*
X112418408Y-80998200D01*
X112588036Y-81252068D01*
X112692000Y-81356032D01*
X112692001Y-83070364D01*
X111246366Y-84516000D01*
X111099338Y-84516000D01*
X110799882Y-84575565D01*
X110517800Y-84692408D01*
X110263932Y-84862036D01*
X110159968Y-84966000D01*
X107603635Y-84966000D01*
X107164000Y-84526366D01*
X107164000Y-84434263D01*
X107106356Y-84144466D01*
X106993283Y-83871483D01*
X106829126Y-83625806D01*
X106620194Y-83416874D01*
X106374517Y-83252717D01*
X106101534Y-83139644D01*
X105811737Y-83082000D01*
X105516263Y-83082000D01*
X105226466Y-83139644D01*
X104953483Y-83252717D01*
X104707806Y-83416874D01*
X104498874Y-83625806D01*
X104334717Y-83871483D01*
X104221644Y-84144466D01*
X104164000Y-84434263D01*
X104164000Y-84729737D01*
X104221644Y-85019534D01*
X104334717Y-85292517D01*
X104498874Y-85538194D01*
X104707806Y-85747126D01*
X104953483Y-85911283D01*
X105226466Y-86024356D01*
X105516263Y-86082000D01*
X105608366Y-86082000D01*
X105852366Y-86326001D01*
X104063636Y-86326001D01*
X102330029Y-84592395D01*
X102330025Y-84592390D01*
X102264000Y-84526365D01*
X102264000Y-84434263D01*
X102206356Y-84144466D01*
X102093283Y-83871483D01*
X101929126Y-83625806D01*
X101720194Y-83416874D01*
X101474517Y-83252717D01*
X101201534Y-83139644D01*
X100911737Y-83082000D01*
X100616263Y-83082000D01*
X100326466Y-83139644D01*
X100053483Y-83252717D01*
X99807806Y-83416874D01*
X99598874Y-83625806D01*
X99434717Y-83871483D01*
X99321644Y-84144466D01*
X99264000Y-84434263D01*
X99264000Y-84526366D01*
X99038366Y-84752000D01*
X95834032Y-84752000D01*
X95730068Y-84648036D01*
X95476200Y-84478408D01*
X95194118Y-84361565D01*
X94894662Y-84302000D01*
X94589338Y-84302000D01*
X94289882Y-84361565D01*
X94007800Y-84478408D01*
X93753932Y-84648036D01*
X93538036Y-84863932D01*
X93368408Y-85117800D01*
X93251565Y-85399882D01*
X93192000Y-85699338D01*
X93192000Y-86004662D01*
X93251565Y-86304118D01*
X93368408Y-86586200D01*
X93538036Y-86840068D01*
X93753932Y-87055964D01*
X94007800Y-87225592D01*
X94289882Y-87342435D01*
X94589338Y-87402000D01*
X94894662Y-87402000D01*
X95194118Y-87342435D01*
X95476200Y-87225592D01*
X95730068Y-87055964D01*
X95834032Y-86952000D01*
X99439966Y-86952000D01*
X99494000Y-86957322D01*
X99548034Y-86952000D01*
X99548036Y-86952000D01*
X99709638Y-86936084D01*
X99916988Y-86873184D01*
X100108084Y-86771042D01*
X100275581Y-86633581D01*
X100310033Y-86591601D01*
X100764000Y-86137635D01*
X100774390Y-86148025D01*
X100774395Y-86148029D01*
X102791972Y-88165607D01*
X102826420Y-88207582D01*
X102870898Y-88244084D01*
X102993916Y-88345043D01*
X103084056Y-88393223D01*
X103185013Y-88447185D01*
X103392363Y-88510085D01*
X103553965Y-88526001D01*
X103553966Y-88526001D01*
X103608000Y-88531323D01*
X103662034Y-88526001D01*
X112163965Y-88526001D01*
X112217999Y-88531323D01*
X112272033Y-88526001D01*
X112272035Y-88526001D01*
X112433637Y-88510085D01*
X112640987Y-88447185D01*
X112832083Y-88345043D01*
X112999580Y-88207582D01*
X113034032Y-88165602D01*
X113712372Y-87487262D01*
X113712372Y-88480000D01*
X113726853Y-88627026D01*
X113728665Y-88633000D01*
X90447813Y-88633000D01*
X90496401Y-88618261D01*
X90626693Y-88548619D01*
X90740895Y-88454895D01*
X90834619Y-88340693D01*
X90904261Y-88210401D01*
X90947147Y-88069026D01*
X90961628Y-87922000D01*
X90961628Y-86322000D01*
X90947147Y-86174974D01*
X90904261Y-86033599D01*
X90834619Y-85903307D01*
X90740895Y-85789105D01*
X90626693Y-85695381D01*
X90496401Y-85625739D01*
X90355026Y-85582853D01*
X90208000Y-85568372D01*
X89622138Y-85568372D01*
X89573309Y-85519543D01*
X89534160Y-85471840D01*
X89343823Y-85315634D01*
X89126669Y-85199563D01*
X88891043Y-85128087D01*
X88707405Y-85110000D01*
X88707398Y-85110000D01*
X88646000Y-85103953D01*
X88584602Y-85110000D01*
X84273562Y-85110000D01*
X84267674Y-85102826D01*
X84008434Y-84890074D01*
X83712670Y-84731985D01*
X83391747Y-84634634D01*
X83058000Y-84601763D01*
X82724252Y-84634634D01*
X82403329Y-84731985D01*
X82107565Y-84890074D01*
X81848326Y-85102826D01*
X81635574Y-85362066D01*
X81477485Y-85657830D01*
X81380134Y-85978753D01*
X81355500Y-86228869D01*
X81355500Y-86491132D01*
X81380134Y-86741248D01*
X81477485Y-87062171D01*
X81635574Y-87357935D01*
X81848326Y-87617174D01*
X82107566Y-87829926D01*
X82403330Y-87988015D01*
X82724253Y-88085366D01*
X83058000Y-88118237D01*
X83391748Y-88085366D01*
X83712671Y-87988015D01*
X84008435Y-87829926D01*
X84267674Y-87617174D01*
X84273562Y-87610000D01*
X87854372Y-87610000D01*
X87854372Y-87922000D01*
X87868853Y-88069026D01*
X87911739Y-88210401D01*
X87981381Y-88340693D01*
X88075105Y-88454895D01*
X88189307Y-88548619D01*
X88319599Y-88618261D01*
X88368187Y-88633000D01*
X75705000Y-88633000D01*
X75705000Y-85360000D01*
X76271872Y-85360000D01*
X76271872Y-87360000D01*
X76286353Y-87507026D01*
X76329239Y-87648401D01*
X76398881Y-87778693D01*
X76492605Y-87892895D01*
X76606807Y-87986619D01*
X76737099Y-88056261D01*
X76878474Y-88099147D01*
X77025500Y-88113628D01*
X78930500Y-88113628D01*
X79077526Y-88099147D01*
X79218901Y-88056261D01*
X79349193Y-87986619D01*
X79463395Y-87892895D01*
X79557119Y-87778693D01*
X79626761Y-87648401D01*
X79669647Y-87507026D01*
X79684128Y-87360000D01*
X79684128Y-86421639D01*
X80175303Y-85930464D01*
X80175308Y-85930458D01*
X86292492Y-79813275D01*
X86297105Y-79818895D01*
X86411307Y-79912619D01*
X86541599Y-79982261D01*
X86682974Y-80025147D01*
X86830000Y-80039628D01*
X88430000Y-80039628D01*
X88577026Y-80025147D01*
X88718401Y-79982261D01*
X88848693Y-79912619D01*
X88962895Y-79818895D01*
X89056619Y-79704693D01*
X89126261Y-79574401D01*
X89169147Y-79433026D01*
X89183628Y-79286000D01*
X89183628Y-77686000D01*
X89169147Y-77538974D01*
X89126261Y-77397599D01*
X89056619Y-77267307D01*
X88962895Y-77153105D01*
X88848693Y-77059381D01*
X88718401Y-76989739D01*
X88577026Y-76946853D01*
X88430000Y-76932372D01*
X87844139Y-76932372D01*
X85561628Y-74649862D01*
X85561628Y-73434000D01*
X85547147Y-73286974D01*
X85504261Y-73145599D01*
X85434619Y-73015307D01*
X85340895Y-72901105D01*
X85226693Y-72807381D01*
X85096401Y-72737739D01*
X84955026Y-72694853D01*
X84808000Y-72680372D01*
X81308000Y-72680372D01*
X81160974Y-72694853D01*
X81019599Y-72737739D01*
X80889307Y-72807381D01*
X80775105Y-72901105D01*
X80681381Y-73015307D01*
X80611739Y-73145599D01*
X80568853Y-73286974D01*
X80554372Y-73434000D01*
X80554372Y-76934000D01*
X80568853Y-77081026D01*
X80611739Y-77222401D01*
X80681381Y-77352693D01*
X80704097Y-77380372D01*
X79183000Y-77380372D01*
X78865270Y-77411666D01*
X78559751Y-77504344D01*
X78278183Y-77654845D01*
X78031386Y-77857386D01*
X77828845Y-78104183D01*
X77678344Y-78385751D01*
X77585666Y-78691270D01*
X77554372Y-79009000D01*
X77554372Y-80759000D01*
X77585666Y-81076730D01*
X77678344Y-81382249D01*
X77828845Y-81663817D01*
X78031386Y-81910614D01*
X78278183Y-82113155D01*
X78559751Y-82263656D01*
X78865270Y-82356334D01*
X79183000Y-82387628D01*
X80182606Y-82387628D01*
X78407542Y-84162692D01*
X78407536Y-84162697D01*
X77963861Y-84606372D01*
X77025500Y-84606372D01*
X76878474Y-84620853D01*
X76737099Y-84663739D01*
X76606807Y-84733381D01*
X76492605Y-84827105D01*
X76398881Y-84941307D01*
X76329239Y-85071599D01*
X76286353Y-85212974D01*
X76271872Y-85360000D01*
X75705000Y-85360000D01*
X75705000Y-70117000D01*
X77558865Y-70117000D01*
X77593351Y-70113604D01*
X77612320Y-70113736D01*
X77623089Y-70112680D01*
X78214697Y-70050499D01*
X78283519Y-70036372D01*
X78352500Y-70023213D01*
X78362859Y-70020086D01*
X78931121Y-69844180D01*
X78995890Y-69816954D01*
X79061002Y-69790647D01*
X79070557Y-69785567D01*
X79593829Y-69502635D01*
X79652063Y-69463355D01*
X79710838Y-69424894D01*
X79719224Y-69418055D01*
X80177576Y-69038873D01*
X80227085Y-68989016D01*
X80277256Y-68939885D01*
X80284154Y-68931547D01*
X80660126Y-68470560D01*
X80699004Y-68412044D01*
X80738681Y-68354096D01*
X80743828Y-68344578D01*
X81023100Y-67819344D01*
X81049876Y-67754379D01*
X81077538Y-67689840D01*
X81080739Y-67679502D01*
X81252674Y-67110025D01*
X81266321Y-67041101D01*
X81280921Y-66972415D01*
X81282052Y-66961653D01*
X81340101Y-66369627D01*
X81340101Y-66369623D01*
X81343800Y-66332065D01*
X81343800Y-64275000D01*
X83179234Y-64275000D01*
X83051862Y-64402372D01*
G37*
%TD.AperFunction*%
X117668036Y-81252068D02*
X117772000Y-81356032D01*
X117772001Y-83618364D01*
X115363994Y-86026372D01*
X115173263Y-86026372D01*
X115441617Y-85758018D01*
X115483592Y-85723570D01*
X115621053Y-85556073D01*
X115723195Y-85364977D01*
X115786095Y-85157627D01*
X115802011Y-84996025D01*
X115802011Y-84996024D01*
X115807333Y-84941990D01*
X115802011Y-84887956D01*
X115802011Y-82349623D01*
X116337634Y-81814000D01*
X116484662Y-81814000D01*
X116784118Y-81754435D01*
X117066200Y-81637592D01*
X117320068Y-81467964D01*
X117535964Y-81252068D01*
X117602000Y-81153237D01*
X117668036Y-81252068D01*
%TA.AperFunction,Conductor*%
G36*
X117668036Y-81252068D02*
G01*
X117772000Y-81356032D01*
X117772001Y-83618364D01*
X115363994Y-86026372D01*
X115173263Y-86026372D01*
X115441617Y-85758018D01*
X115483592Y-85723570D01*
X115621053Y-85556073D01*
X115723195Y-85364977D01*
X115786095Y-85157627D01*
X115802011Y-84996025D01*
X115802011Y-84996024D01*
X115807333Y-84941990D01*
X115802011Y-84887956D01*
X115802011Y-82349623D01*
X116337634Y-81814000D01*
X116484662Y-81814000D01*
X116784118Y-81754435D01*
X117066200Y-81637592D01*
X117320068Y-81467964D01*
X117535964Y-81252068D01*
X117602000Y-81153237D01*
X117668036Y-81252068D01*
G37*
%TD.AperFunction*%
X140853233Y-76581000D02*
X136857993Y-80576241D01*
X136669718Y-80633354D01*
X136525000Y-80710708D01*
X136380281Y-80633354D01*
X136139943Y-80560448D01*
X135890000Y-80535831D01*
X135640056Y-80560448D01*
X135466100Y-80613217D01*
X135433401Y-80595739D01*
X135292026Y-80552853D01*
X135145000Y-80538372D01*
X134099552Y-80538372D01*
X134015042Y-80380265D01*
X133997942Y-80359429D01*
X133877581Y-80212768D01*
X133835601Y-80178316D01*
X129278485Y-75621200D01*
X139893434Y-75621200D01*
X140853233Y-76581000D01*
%TA.AperFunction,Conductor*%
G36*
X140853233Y-76581000D02*
G01*
X136857993Y-80576241D01*
X136669718Y-80633354D01*
X136525000Y-80710708D01*
X136380281Y-80633354D01*
X136139943Y-80560448D01*
X135890000Y-80535831D01*
X135640056Y-80560448D01*
X135466100Y-80613217D01*
X135433401Y-80595739D01*
X135292026Y-80552853D01*
X135145000Y-80538372D01*
X134099552Y-80538372D01*
X134015042Y-80380265D01*
X133997942Y-80359429D01*
X133877581Y-80212768D01*
X133835601Y-80178316D01*
X129278485Y-75621200D01*
X139893434Y-75621200D01*
X140853233Y-76581000D01*
G37*
%TD.AperFunction*%
X138811518Y-64362223D02*
X138524875Y-64515438D01*
X138273630Y-64721629D01*
X138067438Y-64972874D01*
X137914223Y-65259517D01*
X137819875Y-65570544D01*
X137796000Y-65812948D01*
X137796000Y-66775051D01*
X137819875Y-67017455D01*
X137914223Y-67328482D01*
X137986647Y-67463977D01*
X135825353Y-67463977D01*
X135897777Y-67328483D01*
X135992125Y-67017456D01*
X136016000Y-66775052D01*
X136016000Y-65812949D01*
X135992125Y-65570544D01*
X135897777Y-65259517D01*
X135744562Y-64972874D01*
X135538371Y-64721629D01*
X135287126Y-64515438D01*
X135000483Y-64362223D01*
X134712944Y-64275000D01*
X139099057Y-64275000D01*
X138811518Y-64362223D01*
%TA.AperFunction,Conductor*%
G36*
X138811518Y-64362223D02*
G01*
X138524875Y-64515438D01*
X138273630Y-64721629D01*
X138067438Y-64972874D01*
X137914223Y-65259517D01*
X137819875Y-65570544D01*
X137796000Y-65812948D01*
X137796000Y-66775051D01*
X137819875Y-67017455D01*
X137914223Y-67328482D01*
X137986647Y-67463977D01*
X135825353Y-67463977D01*
X135897777Y-67328483D01*
X135992125Y-67017456D01*
X136016000Y-66775052D01*
X136016000Y-65812949D01*
X135992125Y-65570544D01*
X135897777Y-65259517D01*
X135744562Y-64972874D01*
X135538371Y-64721629D01*
X135287126Y-64515438D01*
X135000483Y-64362223D01*
X134712944Y-64275000D01*
X139099057Y-64275000D01*
X138811518Y-64362223D01*
G37*
%TD.AperFunction*%
X110871518Y-64362223D02*
X110584875Y-64515438D01*
X110333630Y-64721629D01*
X110127438Y-64972874D01*
X109974223Y-65259517D01*
X109879875Y-65570544D01*
X109856000Y-65812948D01*
X109856000Y-66775051D01*
X109879875Y-67017455D01*
X109974223Y-67328482D01*
X110046647Y-67463977D01*
X98441744Y-67463977D01*
X96739636Y-65761869D01*
X99588000Y-65761869D01*
X99588000Y-66058131D01*
X99645798Y-66348701D01*
X99759173Y-66622411D01*
X99923767Y-66868744D01*
X100133256Y-67078233D01*
X100379589Y-67242827D01*
X100653299Y-67356202D01*
X100943869Y-67414000D01*
X101240131Y-67414000D01*
X101530701Y-67356202D01*
X101804411Y-67242827D01*
X102050744Y-67078233D01*
X102260233Y-66868744D01*
X102424827Y-66622411D01*
X102538202Y-66348701D01*
X102596000Y-66058131D01*
X102596000Y-65761869D01*
X102538202Y-65471299D01*
X102424827Y-65197589D01*
X102260233Y-64951256D01*
X102050744Y-64741767D01*
X101804411Y-64577173D01*
X101530701Y-64463798D01*
X101240131Y-64406000D01*
X100943869Y-64406000D01*
X100653299Y-64463798D01*
X100379589Y-64577173D01*
X100133256Y-64741767D01*
X99923767Y-64951256D01*
X99759173Y-65197589D01*
X99645798Y-65471299D01*
X99588000Y-65761869D01*
X96739636Y-65761869D01*
X95252766Y-64275000D01*
X111159057Y-64275000D01*
X110871518Y-64362223D01*
%TA.AperFunction,Conductor*%
G36*
X110871518Y-64362223D02*
G01*
X110584875Y-64515438D01*
X110333630Y-64721629D01*
X110127438Y-64972874D01*
X109974223Y-65259517D01*
X109879875Y-65570544D01*
X109856000Y-65812948D01*
X109856000Y-66775051D01*
X109879875Y-67017455D01*
X109974223Y-67328482D01*
X110046647Y-67463977D01*
X98441744Y-67463977D01*
X96739636Y-65761869D01*
X99588000Y-65761869D01*
X99588000Y-66058131D01*
X99645798Y-66348701D01*
X99759173Y-66622411D01*
X99923767Y-66868744D01*
X100133256Y-67078233D01*
X100379589Y-67242827D01*
X100653299Y-67356202D01*
X100943869Y-67414000D01*
X101240131Y-67414000D01*
X101530701Y-67356202D01*
X101804411Y-67242827D01*
X102050744Y-67078233D01*
X102260233Y-66868744D01*
X102424827Y-66622411D01*
X102538202Y-66348701D01*
X102596000Y-66058131D01*
X102596000Y-65761869D01*
X102538202Y-65471299D01*
X102424827Y-65197589D01*
X102260233Y-64951256D01*
X102050744Y-64741767D01*
X101804411Y-64577173D01*
X101530701Y-64463798D01*
X101240131Y-64406000D01*
X100943869Y-64406000D01*
X100653299Y-64463798D01*
X100379589Y-64577173D01*
X100133256Y-64741767D01*
X99923767Y-64951256D01*
X99759173Y-65197589D01*
X99645798Y-65471299D01*
X99588000Y-65761869D01*
X96739636Y-65761869D01*
X95252766Y-64275000D01*
X111159057Y-64275000D01*
X110871518Y-64362223D01*
G37*
%TD.AperFunction*%
%TD*%
M02*
