%TF.GenerationSoftware,KiCad,Pcbnew,(5.1.9)-1*%
%TF.CreationDate,2021-03-27T12:54:39-03:00*%
%TF.ProjectId,layout3,6c61796f-7574-4332-9e6b-696361645f70,rev?*%
%TF.SameCoordinates,Original*%
%TF.FileFunction,Other,Fab,Top*%
%FSLAX46Y46*%
G04 Gerber Fmt 4.6, Leading zero omitted, Abs format (unit mm)*
G04 Created by KiCad (PCBNEW (5.1.9)-1) date 2021-03-27 12:54:39*
%MOMM*%
%LPD*%
G01*
G04 APERTURE LIST*
%ADD10C,0.100000*%
%ADD11C,0.150000*%
G04 APERTURE END LIST*
D10*
%TO.C,J1*%
X83054787Y-70678575D02*
X83858000Y-71434000D01*
X72858000Y-70684000D02*
X72858000Y-79684000D01*
X69358000Y-70684000D02*
X69358000Y-79684000D01*
X69358000Y-79684000D02*
X83858000Y-79684000D01*
X83858000Y-79684000D02*
X83858000Y-71434000D01*
X83058000Y-70684000D02*
X69358000Y-70684000D01*
%TO.C,C4*%
X91908000Y-85872000D02*
G75*
G03*
X91908000Y-85872000I-2500000J0D01*
G01*
X88320500Y-88005605D02*
X88320500Y-87505605D01*
X88070500Y-87755605D02*
X88570500Y-87755605D01*
%TO.C,R1*%
X116840000Y-83566000D02*
X117500000Y-83566000D01*
X124460000Y-83566000D02*
X123800000Y-83566000D01*
X117500000Y-84816000D02*
X123800000Y-84816000D01*
X117500000Y-82316000D02*
X117500000Y-84816000D01*
X123800000Y-82316000D02*
X117500000Y-82316000D01*
X123800000Y-84816000D02*
X123800000Y-82316000D01*
%TO.C,Q1*%
X134120000Y-83792000D02*
X137620000Y-83792000D01*
X137643625Y-83795625D02*
G75*
G03*
X135890000Y-79562000I-1753625J1753625D01*
G01*
X134136375Y-83795625D02*
G75*
G02*
X135890000Y-79562000I1753625J1753625D01*
G01*
%TO.C,J2*%
X133396000Y-87630000D02*
X132796000Y-87630000D01*
X133396000Y-89150000D02*
X133396000Y-87630000D01*
X132796000Y-87630000D02*
X132796000Y-89150000D01*
X130856000Y-87630000D02*
X130256000Y-87630000D01*
X130856000Y-89150000D02*
X130856000Y-87630000D01*
X130256000Y-87630000D02*
X130256000Y-89150000D01*
X128316000Y-87630000D02*
X127716000Y-87630000D01*
X128316000Y-89150000D02*
X128316000Y-87630000D01*
X127716000Y-87630000D02*
X127716000Y-89150000D01*
X125776000Y-87630000D02*
X125176000Y-87630000D01*
X125776000Y-89150000D02*
X125776000Y-87630000D01*
X125176000Y-87630000D02*
X125176000Y-89150000D01*
X123236000Y-87630000D02*
X122636000Y-87630000D01*
X123236000Y-89150000D02*
X123236000Y-87630000D01*
X122636000Y-87630000D02*
X122636000Y-89150000D01*
X120696000Y-87630000D02*
X120096000Y-87630000D01*
X120696000Y-89150000D02*
X120696000Y-87630000D01*
X120096000Y-87630000D02*
X120096000Y-89150000D01*
X118156000Y-87630000D02*
X117556000Y-87630000D01*
X118156000Y-89150000D02*
X118156000Y-87630000D01*
X117556000Y-87630000D02*
X117556000Y-89150000D01*
X115616000Y-87630000D02*
X115016000Y-87630000D01*
X115616000Y-89150000D02*
X115616000Y-87630000D01*
X115016000Y-87630000D02*
X115016000Y-89150000D01*
X134366000Y-97660000D02*
X114046000Y-97660000D01*
X134366000Y-89150000D02*
X134366000Y-97660000D01*
X115016000Y-89150000D02*
X134366000Y-89150000D01*
X114046000Y-90120000D02*
X115016000Y-89150000D01*
X114046000Y-97660000D02*
X114046000Y-90120000D01*
%TO.C,J3*%
X153680000Y-79880000D02*
X153680000Y-69980000D01*
X147380000Y-79930000D02*
X154880000Y-79930000D01*
X154880000Y-79930000D02*
X154880000Y-69930000D01*
X154880000Y-69930000D02*
X147380000Y-69930000D01*
X147380000Y-69930000D02*
X147380000Y-79930000D01*
%TO.C,J4*%
X139770000Y-87640000D02*
X154870000Y-87640000D01*
X139770000Y-81340000D02*
X154870000Y-81340000D01*
X154870000Y-81340000D02*
X154870000Y-88840000D01*
X154870000Y-88840000D02*
X139770000Y-88840000D01*
X139770000Y-88840000D02*
X139770000Y-81340000D01*
%TO.C,U2*%
X75518000Y-83210000D02*
X75518000Y-87610000D01*
X75518000Y-87610000D02*
X85518000Y-87610000D01*
X85518000Y-87610000D02*
X85518000Y-83210000D01*
X85518000Y-83210000D02*
X75518000Y-83210000D01*
X75518000Y-84480000D02*
X85518000Y-84480000D01*
X78668000Y-83210000D02*
X78668000Y-84480000D01*
X82368000Y-83210000D02*
X82368000Y-84480000D01*
%TO.C,Y1*%
X106214000Y-82582000D02*
X100214000Y-82582000D01*
X106214000Y-86582000D02*
X100214000Y-86582000D01*
X106339000Y-82257000D02*
X100089000Y-82257000D01*
X106339000Y-86907000D02*
X100089000Y-86907000D01*
X100214000Y-82582000D02*
G75*
G03*
X100214000Y-86582000I0J-2000000D01*
G01*
X106214000Y-82582000D02*
G75*
G02*
X106214000Y-86582000I0J-2000000D01*
G01*
X100089000Y-82257000D02*
G75*
G03*
X100089000Y-86907000I0J-2325000D01*
G01*
X106339000Y-82257000D02*
G75*
G02*
X106339000Y-86907000I0J-2325000D01*
G01*
%TO.C,C1*%
X112502000Y-87316000D02*
X112502000Y-82316000D01*
X110002000Y-87316000D02*
X112502000Y-87316000D01*
X110002000Y-82316000D02*
X110002000Y-87316000D01*
X112502000Y-82316000D02*
X110002000Y-82316000D01*
%TO.C,C2*%
X95992000Y-82102000D02*
X93492000Y-82102000D01*
X93492000Y-82102000D02*
X93492000Y-87102000D01*
X93492000Y-87102000D02*
X95992000Y-87102000D01*
X95992000Y-87102000D02*
X95992000Y-82102000D01*
%TO.C,C3*%
X88967500Y-77852395D02*
X88467500Y-77852395D01*
X88717500Y-77602395D02*
X88717500Y-78102395D01*
X90130000Y-79736000D02*
G75*
G03*
X90130000Y-79736000I-2500000J0D01*
G01*
%TO.C,U1*%
X92202000Y-78629000D02*
X92202000Y-73279000D01*
X92202000Y-73279000D02*
X127762000Y-73279000D01*
X127762000Y-73279000D02*
X127762000Y-79629000D01*
X127762000Y-79629000D02*
X93202000Y-79629000D01*
X93202000Y-79629000D02*
X92202000Y-78629000D01*
%TO.C,RV1*%
X143248000Y-74208000D02*
G75*
G03*
X143248000Y-74208000I-3000000J0D01*
G01*
X137048000Y-77808000D02*
X143448000Y-77808000D01*
X138348000Y-78008000D02*
X138348000Y-77808000D01*
X137148000Y-78008000D02*
X138338000Y-78008000D01*
X137148000Y-77808000D02*
X137148000Y-78008000D01*
X142148000Y-78008000D02*
X142148000Y-77808000D01*
X143348000Y-78008000D02*
X142148000Y-78008000D01*
X143348000Y-77808000D02*
X143348000Y-78008000D01*
X143448000Y-72208000D02*
X143448000Y-77808000D01*
X137048000Y-72208000D02*
X137048000Y-77808000D01*
X142248000Y-71008000D02*
X138248000Y-71008000D01*
X142248000Y-71008000D02*
G75*
G02*
X143448000Y-72208000I0J-1200000D01*
G01*
X137048000Y-72208000D02*
G75*
G02*
X138248000Y-71008000I1200000J0D01*
G01*
%TD*%
%TO.C,J1*%
D11*
X85202780Y-77082304D02*
X85917066Y-77082304D01*
X86059923Y-77129923D01*
X86155161Y-77225161D01*
X86202780Y-77368019D01*
X86202780Y-77463257D01*
X86202780Y-76177542D02*
X85678971Y-76177542D01*
X85583733Y-76225161D01*
X85536114Y-76320400D01*
X85536114Y-76510876D01*
X85583733Y-76606114D01*
X86155161Y-76177542D02*
X86202780Y-76272780D01*
X86202780Y-76510876D01*
X86155161Y-76606114D01*
X86059923Y-76653733D01*
X85964685Y-76653733D01*
X85869447Y-76606114D01*
X85821828Y-76510876D01*
X85821828Y-76272780D01*
X85774209Y-76177542D01*
X86155161Y-75272780D02*
X86202780Y-75368019D01*
X86202780Y-75558495D01*
X86155161Y-75653733D01*
X86107542Y-75701352D01*
X86012304Y-75748971D01*
X85726590Y-75748971D01*
X85631352Y-75701352D01*
X85583733Y-75653733D01*
X85536114Y-75558495D01*
X85536114Y-75368019D01*
X85583733Y-75272780D01*
X86202780Y-74844209D02*
X85202780Y-74844209D01*
X85821828Y-74748971D02*
X86202780Y-74463257D01*
X85536114Y-74463257D02*
X85917066Y-74844209D01*
X85821828Y-74034685D02*
X85821828Y-73272780D01*
X86202780Y-72796590D02*
X85202780Y-72796590D01*
X85202780Y-72558495D01*
X85250400Y-72415638D01*
X85345638Y-72320400D01*
X85440876Y-72272780D01*
X85631352Y-72225161D01*
X85774209Y-72225161D01*
X85964685Y-72272780D01*
X86059923Y-72320400D01*
X86155161Y-72415638D01*
X86202780Y-72558495D01*
X86202780Y-72796590D01*
X86107542Y-71225161D02*
X86155161Y-71272780D01*
X86202780Y-71415638D01*
X86202780Y-71510876D01*
X86155161Y-71653733D01*
X86059923Y-71748971D01*
X85964685Y-71796590D01*
X85774209Y-71844209D01*
X85631352Y-71844209D01*
X85440876Y-71796590D01*
X85345638Y-71748971D01*
X85250400Y-71653733D01*
X85202780Y-71510876D01*
X85202780Y-71415638D01*
X85250400Y-71272780D01*
X85298019Y-71225161D01*
X79724666Y-71686380D02*
X79724666Y-72400666D01*
X79677047Y-72543523D01*
X79581809Y-72638761D01*
X79438952Y-72686380D01*
X79343714Y-72686380D01*
X80724666Y-72686380D02*
X80153238Y-72686380D01*
X80438952Y-72686380D02*
X80438952Y-71686380D01*
X80343714Y-71829238D01*
X80248476Y-71924476D01*
X80153238Y-71972095D01*
%TO.C,C4*%
X93515142Y-85562476D02*
X93562761Y-85610095D01*
X93610380Y-85752952D01*
X93610380Y-85848190D01*
X93562761Y-85991047D01*
X93467523Y-86086285D01*
X93372285Y-86133904D01*
X93181809Y-86181523D01*
X93038952Y-86181523D01*
X92848476Y-86133904D01*
X92753238Y-86086285D01*
X92658000Y-85991047D01*
X92610380Y-85848190D01*
X92610380Y-85752952D01*
X92658000Y-85610095D01*
X92705619Y-85562476D01*
X86564742Y-86171066D02*
X86612361Y-86218685D01*
X86659980Y-86361542D01*
X86659980Y-86456780D01*
X86612361Y-86599638D01*
X86517123Y-86694876D01*
X86421885Y-86742495D01*
X86231409Y-86790114D01*
X86088552Y-86790114D01*
X85898076Y-86742495D01*
X85802838Y-86694876D01*
X85707600Y-86599638D01*
X85659980Y-86456780D01*
X85659980Y-86361542D01*
X85707600Y-86218685D01*
X85755219Y-86171066D01*
X85993314Y-85313923D02*
X86659980Y-85313923D01*
X85612361Y-85552019D02*
X86326647Y-85790114D01*
X86326647Y-85171066D01*
%TO.C,R1*%
X120959523Y-81648380D02*
X120626190Y-81172190D01*
X120388095Y-81648380D02*
X120388095Y-80648380D01*
X120769047Y-80648380D01*
X120864285Y-80696000D01*
X120911904Y-80743619D01*
X120959523Y-80838857D01*
X120959523Y-80981714D01*
X120911904Y-81076952D01*
X120864285Y-81124571D01*
X120769047Y-81172190D01*
X120388095Y-81172190D01*
X120483333Y-84018380D02*
X120150000Y-83542190D01*
X119911904Y-84018380D02*
X119911904Y-83018380D01*
X120292857Y-83018380D01*
X120388095Y-83066000D01*
X120435714Y-83113619D01*
X120483333Y-83208857D01*
X120483333Y-83351714D01*
X120435714Y-83446952D01*
X120388095Y-83494571D01*
X120292857Y-83542190D01*
X119911904Y-83542190D01*
X121435714Y-84018380D02*
X120864285Y-84018380D01*
X121150000Y-84018380D02*
X121150000Y-83018380D01*
X121054761Y-83161238D01*
X120959523Y-83256476D01*
X120864285Y-83304095D01*
%TO.C,Q1*%
X133175714Y-84379619D02*
X133223333Y-84332000D01*
X133318571Y-84284380D01*
X133556666Y-84284380D01*
X133651904Y-84332000D01*
X133699523Y-84379619D01*
X133747142Y-84474857D01*
X133747142Y-84570095D01*
X133699523Y-84712952D01*
X133128095Y-85284380D01*
X133747142Y-85284380D01*
X134175714Y-85284380D02*
X134175714Y-84284380D01*
X134747142Y-85284380D01*
X134747142Y-84284380D01*
X135128095Y-84284380D02*
X135794761Y-84284380D01*
X135366190Y-85284380D01*
X136366190Y-84284380D02*
X136461428Y-84284380D01*
X136556666Y-84332000D01*
X136604285Y-84379619D01*
X136651904Y-84474857D01*
X136699523Y-84665333D01*
X136699523Y-84903428D01*
X136651904Y-85093904D01*
X136604285Y-85189142D01*
X136556666Y-85236761D01*
X136461428Y-85284380D01*
X136366190Y-85284380D01*
X136270952Y-85236761D01*
X136223333Y-85189142D01*
X136175714Y-85093904D01*
X136128095Y-84903428D01*
X136128095Y-84665333D01*
X136175714Y-84474857D01*
X136223333Y-84379619D01*
X136270952Y-84332000D01*
X136366190Y-84284380D01*
X137318571Y-84284380D02*
X137413809Y-84284380D01*
X137509047Y-84332000D01*
X137556666Y-84379619D01*
X137604285Y-84474857D01*
X137651904Y-84665333D01*
X137651904Y-84903428D01*
X137604285Y-85093904D01*
X137556666Y-85189142D01*
X137509047Y-85236761D01*
X137413809Y-85284380D01*
X137318571Y-85284380D01*
X137223333Y-85236761D01*
X137175714Y-85189142D01*
X137128095Y-85093904D01*
X137080476Y-84903428D01*
X137080476Y-84665333D01*
X137128095Y-84474857D01*
X137175714Y-84379619D01*
X137223333Y-84332000D01*
X137318571Y-84284380D01*
X138270952Y-84284380D02*
X138366190Y-84284380D01*
X138461428Y-84332000D01*
X138509047Y-84379619D01*
X138556666Y-84474857D01*
X138604285Y-84665333D01*
X138604285Y-84903428D01*
X138556666Y-85093904D01*
X138509047Y-85189142D01*
X138461428Y-85236761D01*
X138366190Y-85284380D01*
X138270952Y-85284380D01*
X138175714Y-85236761D01*
X138128095Y-85189142D01*
X138080476Y-85093904D01*
X138032857Y-84903428D01*
X138032857Y-84665333D01*
X138080476Y-84474857D01*
X138128095Y-84379619D01*
X138175714Y-84332000D01*
X138270952Y-84284380D01*
X135794761Y-82589619D02*
X135699523Y-82542000D01*
X135604285Y-82446761D01*
X135461428Y-82303904D01*
X135366190Y-82256285D01*
X135270952Y-82256285D01*
X135318571Y-82494380D02*
X135223333Y-82446761D01*
X135128095Y-82351523D01*
X135080476Y-82161047D01*
X135080476Y-81827714D01*
X135128095Y-81637238D01*
X135223333Y-81542000D01*
X135318571Y-81494380D01*
X135509047Y-81494380D01*
X135604285Y-81542000D01*
X135699523Y-81637238D01*
X135747142Y-81827714D01*
X135747142Y-82161047D01*
X135699523Y-82351523D01*
X135604285Y-82446761D01*
X135509047Y-82494380D01*
X135318571Y-82494380D01*
X136699523Y-82494380D02*
X136128095Y-82494380D01*
X136413809Y-82494380D02*
X136413809Y-81494380D01*
X136318571Y-81637238D01*
X136223333Y-81732476D01*
X136128095Y-81780095D01*
%TO.C,J2*%
X135318380Y-98486190D02*
X135318380Y-97914761D01*
X136318380Y-98200476D02*
X135318380Y-98200476D01*
X136270761Y-97200476D02*
X136318380Y-97295714D01*
X136318380Y-97486190D01*
X136270761Y-97581428D01*
X136175523Y-97629047D01*
X135794571Y-97629047D01*
X135699333Y-97581428D01*
X135651714Y-97486190D01*
X135651714Y-97295714D01*
X135699333Y-97200476D01*
X135794571Y-97152857D01*
X135889809Y-97152857D01*
X135985047Y-97629047D01*
X136270761Y-96295714D02*
X136318380Y-96390952D01*
X136318380Y-96581428D01*
X136270761Y-96676666D01*
X136223142Y-96724285D01*
X136127904Y-96771904D01*
X135842190Y-96771904D01*
X135746952Y-96724285D01*
X135699333Y-96676666D01*
X135651714Y-96581428D01*
X135651714Y-96390952D01*
X135699333Y-96295714D01*
X136318380Y-95724285D02*
X136270761Y-95819523D01*
X136175523Y-95867142D01*
X135318380Y-95867142D01*
X136318380Y-94914761D02*
X135794571Y-94914761D01*
X135699333Y-94962380D01*
X135651714Y-95057619D01*
X135651714Y-95248095D01*
X135699333Y-95343333D01*
X136270761Y-94914761D02*
X136318380Y-95010000D01*
X136318380Y-95248095D01*
X136270761Y-95343333D01*
X136175523Y-95390952D01*
X136080285Y-95390952D01*
X135985047Y-95343333D01*
X135937428Y-95248095D01*
X135937428Y-95010000D01*
X135889809Y-94914761D01*
X136318380Y-94010000D02*
X135318380Y-94010000D01*
X136270761Y-94010000D02*
X136318380Y-94105238D01*
X136318380Y-94295714D01*
X136270761Y-94390952D01*
X136223142Y-94438571D01*
X136127904Y-94486190D01*
X135842190Y-94486190D01*
X135746952Y-94438571D01*
X135699333Y-94390952D01*
X135651714Y-94295714D01*
X135651714Y-94105238D01*
X135699333Y-94010000D01*
X136318380Y-93390952D02*
X136270761Y-93486190D01*
X136223142Y-93533809D01*
X136127904Y-93581428D01*
X135842190Y-93581428D01*
X135746952Y-93533809D01*
X135699333Y-93486190D01*
X135651714Y-93390952D01*
X135651714Y-93248095D01*
X135699333Y-93152857D01*
X135746952Y-93105238D01*
X135842190Y-93057619D01*
X136127904Y-93057619D01*
X136223142Y-93105238D01*
X136270761Y-93152857D01*
X136318380Y-93248095D01*
X136318380Y-93390952D01*
X136318380Y-91867142D02*
X135651714Y-91867142D01*
X135746952Y-91867142D02*
X135699333Y-91819523D01*
X135651714Y-91724285D01*
X135651714Y-91581428D01*
X135699333Y-91486190D01*
X135794571Y-91438571D01*
X136318380Y-91438571D01*
X135794571Y-91438571D02*
X135699333Y-91390952D01*
X135651714Y-91295714D01*
X135651714Y-91152857D01*
X135699333Y-91057619D01*
X135794571Y-91010000D01*
X136318380Y-91010000D01*
X136318380Y-90105238D02*
X135794571Y-90105238D01*
X135699333Y-90152857D01*
X135651714Y-90248095D01*
X135651714Y-90438571D01*
X135699333Y-90533809D01*
X136270761Y-90105238D02*
X136318380Y-90200476D01*
X136318380Y-90438571D01*
X136270761Y-90533809D01*
X136175523Y-90581428D01*
X136080285Y-90581428D01*
X135985047Y-90533809D01*
X135937428Y-90438571D01*
X135937428Y-90200476D01*
X135889809Y-90105238D01*
X135651714Y-89771904D02*
X135651714Y-89390952D01*
X135318380Y-89629047D02*
X136175523Y-89629047D01*
X136270761Y-89581428D01*
X136318380Y-89486190D01*
X136318380Y-89390952D01*
X136318380Y-89057619D02*
X135651714Y-89057619D01*
X135842190Y-89057619D02*
X135746952Y-89010000D01*
X135699333Y-88962380D01*
X135651714Y-88867142D01*
X135651714Y-88771904D01*
X136318380Y-88438571D02*
X135651714Y-88438571D01*
X135318380Y-88438571D02*
X135366000Y-88486190D01*
X135413619Y-88438571D01*
X135366000Y-88390952D01*
X135318380Y-88438571D01*
X135413619Y-88438571D01*
X136270761Y-87533809D02*
X136318380Y-87629047D01*
X136318380Y-87819523D01*
X136270761Y-87914761D01*
X136223142Y-87962380D01*
X136127904Y-88010000D01*
X135842190Y-88010000D01*
X135746952Y-87962380D01*
X135699333Y-87914761D01*
X135651714Y-87819523D01*
X135651714Y-87629047D01*
X135699333Y-87533809D01*
X136318380Y-87105238D02*
X135651714Y-87105238D01*
X135318380Y-87105238D02*
X135366000Y-87152857D01*
X135413619Y-87105238D01*
X135366000Y-87057619D01*
X135318380Y-87105238D01*
X135413619Y-87105238D01*
X136318380Y-86200476D02*
X135794571Y-86200476D01*
X135699333Y-86248095D01*
X135651714Y-86343333D01*
X135651714Y-86533809D01*
X135699333Y-86629047D01*
X136270761Y-86200476D02*
X136318380Y-86295714D01*
X136318380Y-86533809D01*
X136270761Y-86629047D01*
X136175523Y-86676666D01*
X136080285Y-86676666D01*
X135985047Y-86629047D01*
X135937428Y-86533809D01*
X135937428Y-86295714D01*
X135889809Y-86200476D01*
X136318380Y-85581428D02*
X136270761Y-85676666D01*
X136175523Y-85724285D01*
X135318380Y-85724285D01*
X123872666Y-92857380D02*
X123872666Y-93571666D01*
X123825047Y-93714523D01*
X123729809Y-93809761D01*
X123586952Y-93857380D01*
X123491714Y-93857380D01*
X124301238Y-92952619D02*
X124348857Y-92905000D01*
X124444095Y-92857380D01*
X124682190Y-92857380D01*
X124777428Y-92905000D01*
X124825047Y-92952619D01*
X124872666Y-93047857D01*
X124872666Y-93143095D01*
X124825047Y-93285952D01*
X124253619Y-93857380D01*
X124872666Y-93857380D01*
%TO.C,J3*%
X148947142Y-78668095D02*
X148994761Y-78715714D01*
X149042380Y-78858571D01*
X149042380Y-78953809D01*
X148994761Y-79096666D01*
X148899523Y-79191904D01*
X148804285Y-79239523D01*
X148613809Y-79287142D01*
X148470952Y-79287142D01*
X148280476Y-79239523D01*
X148185238Y-79191904D01*
X148090000Y-79096666D01*
X148042380Y-78953809D01*
X148042380Y-78858571D01*
X148090000Y-78715714D01*
X148137619Y-78668095D01*
X149042380Y-78096666D02*
X148994761Y-78191904D01*
X148947142Y-78239523D01*
X148851904Y-78287142D01*
X148566190Y-78287142D01*
X148470952Y-78239523D01*
X148423333Y-78191904D01*
X148375714Y-78096666D01*
X148375714Y-77953809D01*
X148423333Y-77858571D01*
X148470952Y-77810952D01*
X148566190Y-77763333D01*
X148851904Y-77763333D01*
X148947142Y-77810952D01*
X148994761Y-77858571D01*
X149042380Y-77953809D01*
X149042380Y-78096666D01*
X148375714Y-77334761D02*
X149042380Y-77334761D01*
X148470952Y-77334761D02*
X148423333Y-77287142D01*
X148375714Y-77191904D01*
X148375714Y-77049047D01*
X148423333Y-76953809D01*
X148518571Y-76906190D01*
X149042380Y-76906190D01*
X148375714Y-76430000D02*
X149042380Y-76430000D01*
X148470952Y-76430000D02*
X148423333Y-76382380D01*
X148375714Y-76287142D01*
X148375714Y-76144285D01*
X148423333Y-76049047D01*
X148518571Y-76001428D01*
X149042380Y-76001428D01*
X149137619Y-75763333D02*
X149137619Y-75001428D01*
X148042380Y-74572857D02*
X148042380Y-74477619D01*
X148090000Y-74382380D01*
X148137619Y-74334761D01*
X148232857Y-74287142D01*
X148423333Y-74239523D01*
X148661428Y-74239523D01*
X148851904Y-74287142D01*
X148947142Y-74334761D01*
X148994761Y-74382380D01*
X149042380Y-74477619D01*
X149042380Y-74572857D01*
X148994761Y-74668095D01*
X148947142Y-74715714D01*
X148851904Y-74763333D01*
X148661428Y-74810952D01*
X148423333Y-74810952D01*
X148232857Y-74763333D01*
X148137619Y-74715714D01*
X148090000Y-74668095D01*
X148042380Y-74572857D01*
X149042380Y-73287142D02*
X149042380Y-73858571D01*
X149042380Y-73572857D02*
X148042380Y-73572857D01*
X148185238Y-73668095D01*
X148280476Y-73763333D01*
X148328095Y-73858571D01*
X149042380Y-72953809D02*
X148375714Y-72430000D01*
X148375714Y-72953809D02*
X149042380Y-72430000D01*
X148042380Y-71858571D02*
X148042380Y-71763333D01*
X148090000Y-71668095D01*
X148137619Y-71620476D01*
X148232857Y-71572857D01*
X148423333Y-71525238D01*
X148661428Y-71525238D01*
X148851904Y-71572857D01*
X148947142Y-71620476D01*
X148994761Y-71668095D01*
X149042380Y-71763333D01*
X149042380Y-71858571D01*
X148994761Y-71953809D01*
X148947142Y-72001428D01*
X148851904Y-72049047D01*
X148661428Y-72096666D01*
X148423333Y-72096666D01*
X148232857Y-72049047D01*
X148137619Y-72001428D01*
X148090000Y-71953809D01*
X148042380Y-71858571D01*
X148137619Y-71144285D02*
X148090000Y-71096666D01*
X148042380Y-71001428D01*
X148042380Y-70763333D01*
X148090000Y-70668095D01*
X148137619Y-70620476D01*
X148232857Y-70572857D01*
X148328095Y-70572857D01*
X148470952Y-70620476D01*
X149042380Y-71191904D01*
X149042380Y-70572857D01*
X150582380Y-75263333D02*
X151296666Y-75263333D01*
X151439523Y-75310952D01*
X151534761Y-75406190D01*
X151582380Y-75549047D01*
X151582380Y-75644285D01*
X150582380Y-74882380D02*
X150582380Y-74263333D01*
X150963333Y-74596666D01*
X150963333Y-74453809D01*
X151010952Y-74358571D01*
X151058571Y-74310952D01*
X151153809Y-74263333D01*
X151391904Y-74263333D01*
X151487142Y-74310952D01*
X151534761Y-74358571D01*
X151582380Y-74453809D01*
X151582380Y-74739523D01*
X151534761Y-74834761D01*
X151487142Y-74882380D01*
%TO.C,J4*%
X143429504Y-82653142D02*
X143381885Y-82700761D01*
X143239028Y-82748380D01*
X143143790Y-82748380D01*
X143000933Y-82700761D01*
X142905695Y-82605523D01*
X142858076Y-82510285D01*
X142810457Y-82319809D01*
X142810457Y-82176952D01*
X142858076Y-81986476D01*
X142905695Y-81891238D01*
X143000933Y-81796000D01*
X143143790Y-81748380D01*
X143239028Y-81748380D01*
X143381885Y-81796000D01*
X143429504Y-81843619D01*
X144000933Y-82748380D02*
X143905695Y-82700761D01*
X143858076Y-82653142D01*
X143810457Y-82557904D01*
X143810457Y-82272190D01*
X143858076Y-82176952D01*
X143905695Y-82129333D01*
X144000933Y-82081714D01*
X144143790Y-82081714D01*
X144239028Y-82129333D01*
X144286647Y-82176952D01*
X144334266Y-82272190D01*
X144334266Y-82557904D01*
X144286647Y-82653142D01*
X144239028Y-82700761D01*
X144143790Y-82748380D01*
X144000933Y-82748380D01*
X144762838Y-82081714D02*
X144762838Y-82748380D01*
X144762838Y-82176952D02*
X144810457Y-82129333D01*
X144905695Y-82081714D01*
X145048552Y-82081714D01*
X145143790Y-82129333D01*
X145191409Y-82224571D01*
X145191409Y-82748380D01*
X145667600Y-82081714D02*
X145667600Y-82748380D01*
X145667600Y-82176952D02*
X145715219Y-82129333D01*
X145810457Y-82081714D01*
X145953314Y-82081714D01*
X146048552Y-82129333D01*
X146096171Y-82224571D01*
X146096171Y-82748380D01*
X146334266Y-82843619D02*
X147096171Y-82843619D01*
X147524742Y-81748380D02*
X147619980Y-81748380D01*
X147715219Y-81796000D01*
X147762838Y-81843619D01*
X147810457Y-81938857D01*
X147858076Y-82129333D01*
X147858076Y-82367428D01*
X147810457Y-82557904D01*
X147762838Y-82653142D01*
X147715219Y-82700761D01*
X147619980Y-82748380D01*
X147524742Y-82748380D01*
X147429504Y-82700761D01*
X147381885Y-82653142D01*
X147334266Y-82557904D01*
X147286647Y-82367428D01*
X147286647Y-82129333D01*
X147334266Y-81938857D01*
X147381885Y-81843619D01*
X147429504Y-81796000D01*
X147524742Y-81748380D01*
X148810457Y-82748380D02*
X148239028Y-82748380D01*
X148524742Y-82748380D02*
X148524742Y-81748380D01*
X148429504Y-81891238D01*
X148334266Y-81986476D01*
X148239028Y-82034095D01*
X149143790Y-82748380D02*
X149667600Y-82081714D01*
X149143790Y-82081714D02*
X149667600Y-82748380D01*
X150239028Y-81748380D02*
X150334266Y-81748380D01*
X150429504Y-81796000D01*
X150477123Y-81843619D01*
X150524742Y-81938857D01*
X150572361Y-82129333D01*
X150572361Y-82367428D01*
X150524742Y-82557904D01*
X150477123Y-82653142D01*
X150429504Y-82700761D01*
X150334266Y-82748380D01*
X150239028Y-82748380D01*
X150143790Y-82700761D01*
X150096171Y-82653142D01*
X150048552Y-82557904D01*
X150000933Y-82367428D01*
X150000933Y-82129333D01*
X150048552Y-81938857D01*
X150096171Y-81843619D01*
X150143790Y-81796000D01*
X150239028Y-81748380D01*
X150905695Y-81748380D02*
X151524742Y-81748380D01*
X151191409Y-82129333D01*
X151334266Y-82129333D01*
X151429504Y-82176952D01*
X151477123Y-82224571D01*
X151524742Y-82319809D01*
X151524742Y-82557904D01*
X151477123Y-82653142D01*
X151429504Y-82700761D01*
X151334266Y-82748380D01*
X151048552Y-82748380D01*
X150953314Y-82700761D01*
X150905695Y-82653142D01*
X146986666Y-84542380D02*
X146986666Y-85256666D01*
X146939047Y-85399523D01*
X146843809Y-85494761D01*
X146700952Y-85542380D01*
X146605714Y-85542380D01*
X147891428Y-84875714D02*
X147891428Y-85542380D01*
X147653333Y-84494761D02*
X147415238Y-85209047D01*
X148034285Y-85209047D01*
%TO.C,U2*%
X75840247Y-88996780D02*
X75364057Y-88996780D01*
X75364057Y-87996780D01*
X76173580Y-88996780D02*
X76173580Y-87996780D01*
X76506914Y-88711066D01*
X76840247Y-87996780D01*
X76840247Y-88996780D01*
X77221200Y-87996780D02*
X77887866Y-87996780D01*
X77459295Y-88996780D01*
X78411676Y-88425352D02*
X78316438Y-88377733D01*
X78268819Y-88330114D01*
X78221200Y-88234876D01*
X78221200Y-88187257D01*
X78268819Y-88092019D01*
X78316438Y-88044400D01*
X78411676Y-87996780D01*
X78602152Y-87996780D01*
X78697390Y-88044400D01*
X78745009Y-88092019D01*
X78792628Y-88187257D01*
X78792628Y-88234876D01*
X78745009Y-88330114D01*
X78697390Y-88377733D01*
X78602152Y-88425352D01*
X78411676Y-88425352D01*
X78316438Y-88472971D01*
X78268819Y-88520590D01*
X78221200Y-88615828D01*
X78221200Y-88806304D01*
X78268819Y-88901542D01*
X78316438Y-88949161D01*
X78411676Y-88996780D01*
X78602152Y-88996780D01*
X78697390Y-88949161D01*
X78745009Y-88901542D01*
X78792628Y-88806304D01*
X78792628Y-88615828D01*
X78745009Y-88520590D01*
X78697390Y-88472971D01*
X78602152Y-88425352D01*
X79411676Y-87996780D02*
X79506914Y-87996780D01*
X79602152Y-88044400D01*
X79649771Y-88092019D01*
X79697390Y-88187257D01*
X79745009Y-88377733D01*
X79745009Y-88615828D01*
X79697390Y-88806304D01*
X79649771Y-88901542D01*
X79602152Y-88949161D01*
X79506914Y-88996780D01*
X79411676Y-88996780D01*
X79316438Y-88949161D01*
X79268819Y-88901542D01*
X79221200Y-88806304D01*
X79173580Y-88615828D01*
X79173580Y-88377733D01*
X79221200Y-88187257D01*
X79268819Y-88092019D01*
X79316438Y-88044400D01*
X79411676Y-87996780D01*
X80649771Y-87996780D02*
X80173580Y-87996780D01*
X80125961Y-88472971D01*
X80173580Y-88425352D01*
X80268819Y-88377733D01*
X80506914Y-88377733D01*
X80602152Y-88425352D01*
X80649771Y-88472971D01*
X80697390Y-88568209D01*
X80697390Y-88806304D01*
X80649771Y-88901542D01*
X80602152Y-88949161D01*
X80506914Y-88996780D01*
X80268819Y-88996780D01*
X80173580Y-88949161D01*
X80125961Y-88901542D01*
X80887866Y-89092019D02*
X81649771Y-89092019D01*
X81745009Y-87996780D02*
X82316438Y-87996780D01*
X82030723Y-88996780D02*
X82030723Y-87996780D01*
X82840247Y-87996780D02*
X83030723Y-87996780D01*
X83125961Y-88044400D01*
X83221200Y-88139638D01*
X83268819Y-88330114D01*
X83268819Y-88663447D01*
X83221200Y-88853923D01*
X83125961Y-88949161D01*
X83030723Y-88996780D01*
X82840247Y-88996780D01*
X82745009Y-88949161D01*
X82649771Y-88853923D01*
X82602152Y-88663447D01*
X82602152Y-88330114D01*
X82649771Y-88139638D01*
X82745009Y-88044400D01*
X82840247Y-87996780D01*
X83649771Y-88092019D02*
X83697390Y-88044400D01*
X83792628Y-87996780D01*
X84030723Y-87996780D01*
X84125961Y-88044400D01*
X84173580Y-88092019D01*
X84221200Y-88187257D01*
X84221200Y-88282495D01*
X84173580Y-88425352D01*
X83602152Y-88996780D01*
X84221200Y-88996780D01*
X84602152Y-88092019D02*
X84649771Y-88044400D01*
X84745009Y-87996780D01*
X84983104Y-87996780D01*
X85078342Y-88044400D01*
X85125961Y-88092019D01*
X85173580Y-88187257D01*
X85173580Y-88282495D01*
X85125961Y-88425352D01*
X84554533Y-88996780D01*
X85173580Y-88996780D01*
X85792628Y-87996780D02*
X85887866Y-87996780D01*
X85983104Y-88044400D01*
X86030723Y-88092019D01*
X86078342Y-88187257D01*
X86125961Y-88377733D01*
X86125961Y-88615828D01*
X86078342Y-88806304D01*
X86030723Y-88901542D01*
X85983104Y-88949161D01*
X85887866Y-88996780D01*
X85792628Y-88996780D01*
X85697390Y-88949161D01*
X85649771Y-88901542D01*
X85602152Y-88806304D01*
X85554533Y-88615828D01*
X85554533Y-88377733D01*
X85602152Y-88187257D01*
X85649771Y-88092019D01*
X85697390Y-88044400D01*
X85792628Y-87996780D01*
X81584895Y-82002380D02*
X81584895Y-82811904D01*
X81632514Y-82907142D01*
X81680133Y-82954761D01*
X81775371Y-83002380D01*
X81965847Y-83002380D01*
X82061085Y-82954761D01*
X82108704Y-82907142D01*
X82156323Y-82811904D01*
X82156323Y-82002380D01*
X82584895Y-82097619D02*
X82632514Y-82050000D01*
X82727752Y-82002380D01*
X82965847Y-82002380D01*
X83061085Y-82050000D01*
X83108704Y-82097619D01*
X83156323Y-82192857D01*
X83156323Y-82288095D01*
X83108704Y-82430952D01*
X82537276Y-83002380D01*
X83156323Y-83002380D01*
%TO.C,Y1*%
X101643085Y-88088742D02*
X101595466Y-88136361D01*
X101452609Y-88183980D01*
X101357371Y-88183980D01*
X101214514Y-88136361D01*
X101119276Y-88041123D01*
X101071657Y-87945885D01*
X101024038Y-87755409D01*
X101024038Y-87612552D01*
X101071657Y-87422076D01*
X101119276Y-87326838D01*
X101214514Y-87231600D01*
X101357371Y-87183980D01*
X101452609Y-87183980D01*
X101595466Y-87231600D01*
X101643085Y-87279219D01*
X102071657Y-88183980D02*
X102071657Y-87517314D01*
X102071657Y-87707790D02*
X102119276Y-87612552D01*
X102166895Y-87564933D01*
X102262133Y-87517314D01*
X102357371Y-87517314D01*
X102595466Y-87517314D02*
X102833561Y-88183980D01*
X103071657Y-87517314D02*
X102833561Y-88183980D01*
X102738323Y-88422076D01*
X102690704Y-88469695D01*
X102595466Y-88517314D01*
X103404990Y-88136361D02*
X103500228Y-88183980D01*
X103690704Y-88183980D01*
X103785942Y-88136361D01*
X103833561Y-88041123D01*
X103833561Y-87993504D01*
X103785942Y-87898266D01*
X103690704Y-87850647D01*
X103547847Y-87850647D01*
X103452609Y-87803028D01*
X103404990Y-87707790D01*
X103404990Y-87660171D01*
X103452609Y-87564933D01*
X103547847Y-87517314D01*
X103690704Y-87517314D01*
X103785942Y-87564933D01*
X104119276Y-87517314D02*
X104500228Y-87517314D01*
X104262133Y-87183980D02*
X104262133Y-88041123D01*
X104309752Y-88136361D01*
X104404990Y-88183980D01*
X104500228Y-88183980D01*
X105262133Y-88183980D02*
X105262133Y-87660171D01*
X105214514Y-87564933D01*
X105119276Y-87517314D01*
X104928800Y-87517314D01*
X104833561Y-87564933D01*
X105262133Y-88136361D02*
X105166895Y-88183980D01*
X104928800Y-88183980D01*
X104833561Y-88136361D01*
X104785942Y-88041123D01*
X104785942Y-87945885D01*
X104833561Y-87850647D01*
X104928800Y-87803028D01*
X105166895Y-87803028D01*
X105262133Y-87755409D01*
X105881180Y-88183980D02*
X105785942Y-88136361D01*
X105738323Y-88041123D01*
X105738323Y-87183980D01*
X102737809Y-84558190D02*
X102737809Y-85034380D01*
X102404476Y-84034380D02*
X102737809Y-84558190D01*
X103071142Y-84034380D01*
X103928285Y-85034380D02*
X103356857Y-85034380D01*
X103642571Y-85034380D02*
X103642571Y-84034380D01*
X103547333Y-84177238D01*
X103452095Y-84272476D01*
X103356857Y-84320095D01*
%TO.C,C1*%
X109109142Y-84506476D02*
X109156761Y-84554095D01*
X109204380Y-84696952D01*
X109204380Y-84792190D01*
X109156761Y-84935047D01*
X109061523Y-85030285D01*
X108966285Y-85077904D01*
X108775809Y-85125523D01*
X108632952Y-85125523D01*
X108442476Y-85077904D01*
X108347238Y-85030285D01*
X108252000Y-84935047D01*
X108204380Y-84792190D01*
X108204380Y-84696952D01*
X108252000Y-84554095D01*
X108299619Y-84506476D01*
X113691942Y-84850266D02*
X113739561Y-84897885D01*
X113787180Y-85040742D01*
X113787180Y-85135980D01*
X113739561Y-85278838D01*
X113644323Y-85374076D01*
X113549085Y-85421695D01*
X113358609Y-85469314D01*
X113215752Y-85469314D01*
X113025276Y-85421695D01*
X112930038Y-85374076D01*
X112834800Y-85278838D01*
X112787180Y-85135980D01*
X112787180Y-85040742D01*
X112834800Y-84897885D01*
X112882419Y-84850266D01*
X113787180Y-83897885D02*
X113787180Y-84469314D01*
X113787180Y-84183600D02*
X112787180Y-84183600D01*
X112930038Y-84278838D01*
X113025276Y-84374076D01*
X113072895Y-84469314D01*
%TO.C,C2*%
X92599142Y-84292476D02*
X92646761Y-84340095D01*
X92694380Y-84482952D01*
X92694380Y-84578190D01*
X92646761Y-84721047D01*
X92551523Y-84816285D01*
X92456285Y-84863904D01*
X92265809Y-84911523D01*
X92122952Y-84911523D01*
X91932476Y-84863904D01*
X91837238Y-84816285D01*
X91742000Y-84721047D01*
X91694380Y-84578190D01*
X91694380Y-84482952D01*
X91742000Y-84340095D01*
X91789619Y-84292476D01*
X97181942Y-84647066D02*
X97229561Y-84694685D01*
X97277180Y-84837542D01*
X97277180Y-84932780D01*
X97229561Y-85075638D01*
X97134323Y-85170876D01*
X97039085Y-85218495D01*
X96848609Y-85266114D01*
X96705752Y-85266114D01*
X96515276Y-85218495D01*
X96420038Y-85170876D01*
X96324800Y-85075638D01*
X96277180Y-84932780D01*
X96277180Y-84837542D01*
X96324800Y-84694685D01*
X96372419Y-84647066D01*
X96372419Y-84266114D02*
X96324800Y-84218495D01*
X96277180Y-84123257D01*
X96277180Y-83885161D01*
X96324800Y-83789923D01*
X96372419Y-83742304D01*
X96467657Y-83694685D01*
X96562895Y-83694685D01*
X96705752Y-83742304D01*
X97277180Y-84313733D01*
X97277180Y-83694685D01*
%TO.C,C3*%
X88139542Y-75687276D02*
X88187161Y-75734895D01*
X88234780Y-75877752D01*
X88234780Y-75972990D01*
X88187161Y-76115847D01*
X88091923Y-76211085D01*
X87996685Y-76258704D01*
X87806209Y-76306323D01*
X87663352Y-76306323D01*
X87472876Y-76258704D01*
X87377638Y-76211085D01*
X87282400Y-76115847D01*
X87234780Y-75972990D01*
X87234780Y-75877752D01*
X87282400Y-75734895D01*
X87330019Y-75687276D01*
X91238342Y-79821066D02*
X91285961Y-79868685D01*
X91333580Y-80011542D01*
X91333580Y-80106780D01*
X91285961Y-80249638D01*
X91190723Y-80344876D01*
X91095485Y-80392495D01*
X90905009Y-80440114D01*
X90762152Y-80440114D01*
X90571676Y-80392495D01*
X90476438Y-80344876D01*
X90381200Y-80249638D01*
X90333580Y-80106780D01*
X90333580Y-80011542D01*
X90381200Y-79868685D01*
X90428819Y-79821066D01*
X90333580Y-79487733D02*
X90333580Y-78868685D01*
X90714533Y-79202019D01*
X90714533Y-79059161D01*
X90762152Y-78963923D01*
X90809771Y-78916304D01*
X90905009Y-78868685D01*
X91143104Y-78868685D01*
X91238342Y-78916304D01*
X91285961Y-78963923D01*
X91333580Y-79059161D01*
X91333580Y-79344876D01*
X91285961Y-79440114D01*
X91238342Y-79487733D01*
%TO.C,U1*%
X128988666Y-82144476D02*
X128988666Y-81668285D01*
X129274380Y-82239714D02*
X128274380Y-81906380D01*
X129274380Y-81573047D01*
X128274380Y-81382571D02*
X128274380Y-80811142D01*
X129274380Y-81096857D02*
X128274380Y-81096857D01*
X129274380Y-80477809D02*
X128607714Y-80477809D01*
X128702952Y-80477809D02*
X128655333Y-80430190D01*
X128607714Y-80334952D01*
X128607714Y-80192095D01*
X128655333Y-80096857D01*
X128750571Y-80049238D01*
X129274380Y-80049238D01*
X128750571Y-80049238D02*
X128655333Y-80001619D01*
X128607714Y-79906380D01*
X128607714Y-79763523D01*
X128655333Y-79668285D01*
X128750571Y-79620666D01*
X129274380Y-79620666D01*
X129226761Y-78763523D02*
X129274380Y-78858761D01*
X129274380Y-79049238D01*
X129226761Y-79144476D01*
X129131523Y-79192095D01*
X128750571Y-79192095D01*
X128655333Y-79144476D01*
X128607714Y-79049238D01*
X128607714Y-78858761D01*
X128655333Y-78763523D01*
X128750571Y-78715904D01*
X128845809Y-78715904D01*
X128941047Y-79192095D01*
X128607714Y-77858761D02*
X129417238Y-77858761D01*
X129512476Y-77906380D01*
X129560095Y-77954000D01*
X129607714Y-78049238D01*
X129607714Y-78192095D01*
X129560095Y-78287333D01*
X129226761Y-77858761D02*
X129274380Y-77954000D01*
X129274380Y-78144476D01*
X129226761Y-78239714D01*
X129179142Y-78287333D01*
X129083904Y-78334952D01*
X128798190Y-78334952D01*
X128702952Y-78287333D01*
X128655333Y-78239714D01*
X128607714Y-78144476D01*
X128607714Y-77954000D01*
X128655333Y-77858761D01*
X129274380Y-76954000D02*
X128750571Y-76954000D01*
X128655333Y-77001619D01*
X128607714Y-77096857D01*
X128607714Y-77287333D01*
X128655333Y-77382571D01*
X129226761Y-76954000D02*
X129274380Y-77049238D01*
X129274380Y-77287333D01*
X129226761Y-77382571D01*
X129131523Y-77430190D01*
X129036285Y-77430190D01*
X128941047Y-77382571D01*
X128893428Y-77287333D01*
X128893428Y-77049238D01*
X128845809Y-76954000D01*
X128274380Y-76573047D02*
X128274380Y-75954000D01*
X128655333Y-76287333D01*
X128655333Y-76144476D01*
X128702952Y-76049238D01*
X128750571Y-76001619D01*
X128845809Y-75954000D01*
X129083904Y-75954000D01*
X129179142Y-76001619D01*
X129226761Y-76049238D01*
X129274380Y-76144476D01*
X129274380Y-76430190D01*
X129226761Y-76525428D01*
X129179142Y-76573047D01*
X128369619Y-75573047D02*
X128322000Y-75525428D01*
X128274380Y-75430190D01*
X128274380Y-75192095D01*
X128322000Y-75096857D01*
X128369619Y-75049238D01*
X128464857Y-75001619D01*
X128560095Y-75001619D01*
X128702952Y-75049238D01*
X129274380Y-75620666D01*
X129274380Y-75001619D01*
X128702952Y-74430190D02*
X128655333Y-74525428D01*
X128607714Y-74573047D01*
X128512476Y-74620666D01*
X128464857Y-74620666D01*
X128369619Y-74573047D01*
X128322000Y-74525428D01*
X128274380Y-74430190D01*
X128274380Y-74239714D01*
X128322000Y-74144476D01*
X128369619Y-74096857D01*
X128464857Y-74049238D01*
X128512476Y-74049238D01*
X128607714Y-74096857D01*
X128655333Y-74144476D01*
X128702952Y-74239714D01*
X128702952Y-74430190D01*
X128750571Y-74525428D01*
X128798190Y-74573047D01*
X128893428Y-74620666D01*
X129083904Y-74620666D01*
X129179142Y-74573047D01*
X129226761Y-74525428D01*
X129274380Y-74430190D01*
X129274380Y-74239714D01*
X129226761Y-74144476D01*
X129179142Y-74096857D01*
X129083904Y-74049238D01*
X128893428Y-74049238D01*
X128798190Y-74096857D01*
X128750571Y-74144476D01*
X128702952Y-74239714D01*
X128893428Y-73620666D02*
X128893428Y-72858761D01*
X129274380Y-72382571D02*
X128274380Y-72382571D01*
X128274380Y-72001619D01*
X128322000Y-71906380D01*
X128369619Y-71858761D01*
X128464857Y-71811142D01*
X128607714Y-71811142D01*
X128702952Y-71858761D01*
X128750571Y-71906380D01*
X128798190Y-72001619D01*
X128798190Y-72382571D01*
X128274380Y-71382571D02*
X129083904Y-71382571D01*
X129179142Y-71334952D01*
X129226761Y-71287333D01*
X129274380Y-71192095D01*
X129274380Y-71001619D01*
X129226761Y-70906380D01*
X129179142Y-70858761D01*
X129083904Y-70811142D01*
X128274380Y-70811142D01*
X109434380Y-77215904D02*
X110243904Y-77215904D01*
X110339142Y-77168285D01*
X110386761Y-77120666D01*
X110434380Y-77025428D01*
X110434380Y-76834952D01*
X110386761Y-76739714D01*
X110339142Y-76692095D01*
X110243904Y-76644476D01*
X109434380Y-76644476D01*
X110434380Y-75644476D02*
X110434380Y-76215904D01*
X110434380Y-75930190D02*
X109434380Y-75930190D01*
X109577238Y-76025428D01*
X109672476Y-76120666D01*
X109720095Y-76215904D01*
%TO.C,RV1*%
X138671809Y-69760380D02*
X138338476Y-69284190D01*
X138100380Y-69760380D02*
X138100380Y-68760380D01*
X138481333Y-68760380D01*
X138576571Y-68808000D01*
X138624190Y-68855619D01*
X138671809Y-68950857D01*
X138671809Y-69093714D01*
X138624190Y-69188952D01*
X138576571Y-69236571D01*
X138481333Y-69284190D01*
X138100380Y-69284190D01*
X138862285Y-69855619D02*
X139624190Y-69855619D01*
X139862285Y-69760380D02*
X139862285Y-68760380D01*
X140243238Y-68760380D01*
X140338476Y-68808000D01*
X140386095Y-68855619D01*
X140433714Y-68950857D01*
X140433714Y-69093714D01*
X140386095Y-69188952D01*
X140338476Y-69236571D01*
X140243238Y-69284190D01*
X139862285Y-69284190D01*
X141052761Y-68760380D02*
X141243238Y-68760380D01*
X141338476Y-68808000D01*
X141433714Y-68903238D01*
X141481333Y-69093714D01*
X141481333Y-69427047D01*
X141433714Y-69617523D01*
X141338476Y-69712761D01*
X141243238Y-69760380D01*
X141052761Y-69760380D01*
X140957523Y-69712761D01*
X140862285Y-69617523D01*
X140814666Y-69427047D01*
X140814666Y-69093714D01*
X140862285Y-68903238D01*
X140957523Y-68808000D01*
X141052761Y-68760380D01*
X141767047Y-68760380D02*
X142338476Y-68760380D01*
X142052761Y-69760380D02*
X142052761Y-68760380D01*
X139652761Y-74660380D02*
X139319428Y-74184190D01*
X139081333Y-74660380D02*
X139081333Y-73660380D01*
X139462285Y-73660380D01*
X139557523Y-73708000D01*
X139605142Y-73755619D01*
X139652761Y-73850857D01*
X139652761Y-73993714D01*
X139605142Y-74088952D01*
X139557523Y-74136571D01*
X139462285Y-74184190D01*
X139081333Y-74184190D01*
X139938476Y-73660380D02*
X140271809Y-74660380D01*
X140605142Y-73660380D01*
X141462285Y-74660380D02*
X140890857Y-74660380D01*
X141176571Y-74660380D02*
X141176571Y-73660380D01*
X141081333Y-73803238D01*
X140986095Y-73898476D01*
X140890857Y-73946095D01*
%TD*%
M02*
