%TF.GenerationSoftware,KiCad,Pcbnew,(5.1.9)-1*%
%TF.CreationDate,2021-03-27T12:54:39-03:00*%
%TF.ProjectId,layout3,6c61796f-7574-4332-9e6b-696361645f70,rev?*%
%TF.SameCoordinates,Original*%
%TF.FileFunction,Copper,L1,Top*%
%TF.FilePolarity,Positive*%
%FSLAX46Y46*%
G04 Gerber Fmt 4.6, Leading zero omitted, Abs format (unit mm)*
G04 Created by KiCad (PCBNEW (5.1.9)-1) date 2021-03-27 12:54:39*
%MOMM*%
%LPD*%
G01*
G04 APERTURE LIST*
%TA.AperFunction,ComponentPad*%
%ADD10R,3.500000X3.500000*%
%TD*%
%TA.AperFunction,ComponentPad*%
%ADD11R,1.508000X1.508000*%
%TD*%
%TA.AperFunction,ComponentPad*%
%ADD12C,1.508000*%
%TD*%
%TA.AperFunction,ComponentPad*%
%ADD13C,1.600000*%
%TD*%
%TA.AperFunction,ComponentPad*%
%ADD14R,1.600000X1.600000*%
%TD*%
%TA.AperFunction,ComponentPad*%
%ADD15O,1.600000X1.600000*%
%TD*%
%TA.AperFunction,ComponentPad*%
%ADD16R,1.800000X2.600000*%
%TD*%
%TA.AperFunction,ComponentPad*%
%ADD17O,1.800000X2.600000*%
%TD*%
%TA.AperFunction,ComponentPad*%
%ADD18C,3.000000*%
%TD*%
%TA.AperFunction,ComponentPad*%
%ADD19O,1.050000X1.500000*%
%TD*%
%TA.AperFunction,ComponentPad*%
%ADD20R,1.050000X1.500000*%
%TD*%
%TA.AperFunction,ComponentPad*%
%ADD21O,1.700000X1.700000*%
%TD*%
%TA.AperFunction,ComponentPad*%
%ADD22R,1.700000X1.700000*%
%TD*%
%TA.AperFunction,ComponentPad*%
%ADD23R,3.000000X3.000000*%
%TD*%
%TA.AperFunction,ComponentPad*%
%ADD24R,1.905000X2.000000*%
%TD*%
%TA.AperFunction,ComponentPad*%
%ADD25O,1.905000X2.000000*%
%TD*%
%TA.AperFunction,ComponentPad*%
%ADD26C,1.500000*%
%TD*%
%TA.AperFunction,ComponentPad*%
%ADD27C,1.550000*%
%TD*%
%TA.AperFunction,ComponentPad*%
%ADD28R,1.550000X1.550000*%
%TD*%
%TA.AperFunction,ViaPad*%
%ADD29C,1.500000*%
%TD*%
%TA.AperFunction,Conductor*%
%ADD30C,0.700000*%
%TD*%
%TA.AperFunction,Conductor*%
%ADD31C,1.000000*%
%TD*%
%TA.AperFunction,Conductor*%
%ADD32C,0.500000*%
%TD*%
G04 APERTURE END LIST*
D10*
%TO.P,J1,1*%
%TO.N,vcc_12v*%
X83058000Y-75184000D03*
%TO.P,J1,2*%
%TO.N,GND*%
%TA.AperFunction,ComponentPad*%
G36*
G01*
X75558000Y-76184000D02*
X75558000Y-74184000D01*
G75*
G02*
X76308000Y-73434000I750000J0D01*
G01*
X77808000Y-73434000D01*
G75*
G02*
X78558000Y-74184000I0J-750000D01*
G01*
X78558000Y-76184000D01*
G75*
G02*
X77808000Y-76934000I-750000J0D01*
G01*
X76308000Y-76934000D01*
G75*
G02*
X75558000Y-76184000I0J750000D01*
G01*
G37*
%TD.AperFunction*%
%TO.P,J1,3*%
%TO.N,N/C*%
%TA.AperFunction,ComponentPad*%
G36*
G01*
X78308000Y-80759000D02*
X78308000Y-79009000D01*
G75*
G02*
X79183000Y-78134000I875000J0D01*
G01*
X80933000Y-78134000D01*
G75*
G02*
X81808000Y-79009000I0J-875000D01*
G01*
X81808000Y-80759000D01*
G75*
G02*
X80933000Y-81634000I-875000J0D01*
G01*
X79183000Y-81634000D01*
G75*
G02*
X78308000Y-80759000I0J875000D01*
G01*
G37*
%TD.AperFunction*%
%TD*%
D11*
%TO.P,K1,1*%
%TO.N,Net-(J3-Pad2)*%
X83312000Y-65910000D03*
D12*
%TO.P,K1,2*%
%TO.N,Net-(J3-Pad1)*%
X90932000Y-65910000D03*
%TO.P,K1,3*%
%TO.N,Pino_13*%
X101092000Y-65910000D03*
%TO.P,K1,4*%
%TO.N,GND*%
X103632000Y-65910000D03*
%TD*%
D13*
%TO.P,C4,2*%
%TO.N,GND*%
X89408000Y-84622000D03*
D14*
%TO.P,C4,1*%
%TO.N,vcc*%
X89408000Y-87122000D03*
%TD*%
D13*
%TO.P,R1,1*%
%TO.N,Pino_2_int*%
X124460000Y-83566000D03*
D15*
%TO.P,R1,2*%
%TO.N,GND*%
X116840000Y-83566000D03*
%TD*%
D16*
%TO.P,DS1,1*%
%TO.N,GND*%
X147066000Y-66294000D03*
D17*
%TO.P,DS1,2*%
%TO.N,vcc*%
X144526000Y-66294000D03*
%TO.P,DS1,3*%
%TO.N,Net-(DS1-Pad3)*%
X141986000Y-66294000D03*
%TO.P,DS1,4*%
%TO.N,Pino_12*%
X139446000Y-66294000D03*
%TO.P,DS1,5*%
%TO.N,GND*%
X136906000Y-66294000D03*
%TO.P,DS1,6*%
%TO.N,Pino_11*%
X134366000Y-66294000D03*
%TO.P,DS1,7*%
%TO.N,Net-(DS1-Pad7)*%
X131826000Y-66294000D03*
%TO.P,DS1,8*%
%TO.N,Net-(DS1-Pad8)*%
X129286000Y-66294000D03*
%TO.P,DS1,9*%
%TO.N,Net-(DS1-Pad9)*%
X126746000Y-66294000D03*
%TO.P,DS1,10*%
%TO.N,Net-(DS1-Pad10)*%
X124206000Y-66294000D03*
%TO.P,DS1,11*%
%TO.N,Pino_16_A2*%
X121666000Y-66294000D03*
%TO.P,DS1,12*%
%TO.N,Pino_17_A3*%
X119126000Y-66294000D03*
%TO.P,DS1,13*%
%TO.N,Pino_18_A4*%
X116586000Y-66294000D03*
%TO.P,DS1,14*%
%TO.N,Pino_19_A5*%
X114046000Y-66294000D03*
%TO.P,DS1,15*%
%TO.N,LCD_A*%
X111506000Y-66294000D03*
%TO.P,DS1,16*%
%TO.N,GND*%
X108966000Y-66294000D03*
D18*
%TO.P,DS1,*%
%TO.N,*%
X152565100Y-66294000D03*
X152565100Y-97294700D03*
X77566520Y-97294700D03*
X77566000Y-66294000D03*
%TD*%
D19*
%TO.P,Q1,2*%
%TO.N,Net-(J4-Pad2)*%
X135890000Y-82042000D03*
%TO.P,Q1,3*%
%TO.N,vcc*%
X137160000Y-82042000D03*
D20*
%TO.P,Q1,1*%
%TO.N,Pino_2_int*%
X134620000Y-82042000D03*
%TD*%
D21*
%TO.P,J2,8*%
%TO.N,Pino_3*%
X133096000Y-87630000D03*
%TO.P,J2,7*%
%TO.N,Pino_4*%
X130556000Y-87630000D03*
%TO.P,J2,6*%
%TO.N,Pino_5*%
X128016000Y-87630000D03*
%TO.P,J2,5*%
%TO.N,Pino_6*%
X125476000Y-87630000D03*
%TO.P,J2,4*%
%TO.N,Pino_7*%
X122936000Y-87630000D03*
%TO.P,J2,3*%
%TO.N,Pino_8*%
X120396000Y-87630000D03*
%TO.P,J2,2*%
%TO.N,Pino_9*%
X117856000Y-87630000D03*
D22*
%TO.P,J2,1*%
%TO.N,Pino_10*%
X115316000Y-87630000D03*
%TD*%
D23*
%TO.P,J3,1*%
%TO.N,Net-(J3-Pad1)*%
X151130000Y-77470000D03*
D18*
%TO.P,J3,2*%
%TO.N,Net-(J3-Pad2)*%
X151130000Y-72390000D03*
%TD*%
D23*
%TO.P,J4,1*%
%TO.N,vcc_12v*%
X142240000Y-85090000D03*
D18*
%TO.P,J4,2*%
%TO.N,Net-(J4-Pad2)*%
X147320000Y-85090000D03*
%TO.P,J4,3*%
%TO.N,GND*%
X152400000Y-85090000D03*
%TD*%
D24*
%TO.P,U2,1*%
%TO.N,vcc_12v*%
X77978000Y-86360000D03*
D25*
%TO.P,U2,2*%
%TO.N,GND*%
X80518000Y-86360000D03*
%TO.P,U2,3*%
%TO.N,vcc*%
X83058000Y-86360000D03*
%TD*%
D26*
%TO.P,Y1,2*%
%TO.N,Net-(C2-Pad2)*%
X100764000Y-84582000D03*
%TO.P,Y1,1*%
%TO.N,Net-(C1-Pad2)*%
X105664000Y-84582000D03*
%TD*%
D13*
%TO.P,C1,1*%
%TO.N,GND*%
X111252000Y-83566000D03*
%TO.P,C1,2*%
%TO.N,Net-(C1-Pad2)*%
X111252000Y-86066000D03*
%TD*%
%TO.P,C2,2*%
%TO.N,Net-(C2-Pad2)*%
X94742000Y-85852000D03*
%TO.P,C2,1*%
%TO.N,GND*%
X94742000Y-83352000D03*
%TD*%
D14*
%TO.P,C3,1*%
%TO.N,vcc_12v*%
X87630000Y-78486000D03*
D13*
%TO.P,C3,2*%
%TO.N,GND*%
X87630000Y-80986000D03*
%TD*%
D15*
%TO.P,U1,28*%
%TO.N,Pino_19_A5*%
X93472000Y-72644000D03*
%TO.P,U1,14*%
%TO.N,Pino_7*%
X126492000Y-80264000D03*
%TO.P,U1,27*%
%TO.N,Pino_18_A4*%
X96012000Y-72644000D03*
%TO.P,U1,13*%
%TO.N,Pino_8*%
X123952000Y-80264000D03*
%TO.P,U1,26*%
%TO.N,Pino_17_A3*%
X98552000Y-72644000D03*
%TO.P,U1,12*%
%TO.N,Pino_9*%
X121412000Y-80264000D03*
%TO.P,U1,25*%
%TO.N,Pino_16_A2*%
X101092000Y-72644000D03*
%TO.P,U1,11*%
%TO.N,Pino_10*%
X118872000Y-80264000D03*
%TO.P,U1,24*%
%TO.N,Net-(U1-Pad24)*%
X103632000Y-72644000D03*
%TO.P,U1,10*%
%TO.N,Net-(C2-Pad2)*%
X116332000Y-80264000D03*
%TO.P,U1,23*%
%TO.N,Net-(U1-Pad23)*%
X106172000Y-72644000D03*
%TO.P,U1,9*%
%TO.N,Net-(C1-Pad2)*%
X113792000Y-80264000D03*
%TO.P,U1,22*%
%TO.N,GND*%
X108712000Y-72644000D03*
%TO.P,U1,8*%
X111252000Y-80264000D03*
%TO.P,U1,21*%
%TO.N,Net-(U1-Pad21)*%
X111252000Y-72644000D03*
%TO.P,U1,7*%
%TO.N,vcc*%
X108712000Y-80264000D03*
%TO.P,U1,20*%
X113792000Y-72644000D03*
%TO.P,U1,6*%
%TO.N,Pino_6*%
X106172000Y-80264000D03*
%TO.P,U1,19*%
%TO.N,Pino_13*%
X116332000Y-72644000D03*
%TO.P,U1,5*%
%TO.N,Pino_5*%
X103632000Y-80264000D03*
%TO.P,U1,18*%
%TO.N,Pino_12*%
X118872000Y-72644000D03*
%TO.P,U1,4*%
%TO.N,Pino_2_int*%
X101092000Y-80264000D03*
%TO.P,U1,17*%
%TO.N,Pino_11*%
X121412000Y-72644000D03*
%TO.P,U1,3*%
%TO.N,Pino_4*%
X98552000Y-80264000D03*
%TO.P,U1,16*%
%TO.N,LCD_A*%
X123952000Y-72644000D03*
%TO.P,U1,2*%
%TO.N,Pino_3*%
X96012000Y-80264000D03*
%TO.P,U1,15*%
%TO.N,Net-(U1-Pad15)*%
X126492000Y-72644000D03*
D14*
%TO.P,U1,1*%
%TO.N,vcc*%
X93472000Y-80264000D03*
%TD*%
D27*
%TO.P,RV1,3*%
%TO.N,GND*%
X137748000Y-76708000D03*
D28*
%TO.P,RV1,1*%
%TO.N,vcc*%
X142748000Y-76708000D03*
D27*
%TO.P,RV1,2*%
%TO.N,Net-(DS1-Pad3)*%
X140248000Y-71708000D03*
%TD*%
D29*
%TO.N,LCD_A*%
X129184400Y-69088000D03*
%TD*%
D30*
%TO.N,Pino_2_int*%
X124714000Y-83820000D02*
X124968000Y-83566000D01*
X102889988Y-82061988D02*
X101092000Y-80264000D01*
X122955988Y-82061988D02*
X102889988Y-82061988D01*
X124460000Y-83566000D02*
X122955988Y-82061988D01*
X125984000Y-82042000D02*
X124460000Y-83566000D01*
X134620000Y-82042000D02*
X125984000Y-82042000D01*
D31*
%TO.N,vcc_12v*%
X93843985Y-78486000D02*
X87630000Y-78486000D01*
X94875965Y-77454020D02*
X93843985Y-78486000D01*
X136342020Y-77454020D02*
X94875965Y-77454020D01*
X142240000Y-83352000D02*
X136342020Y-77454020D01*
X142240000Y-85090000D02*
X142240000Y-83352000D01*
%TO.N,vcc*%
X91948000Y-81788000D02*
X93472000Y-80264000D01*
X91948000Y-84582000D02*
X91948000Y-81788000D01*
X89408000Y-87122000D02*
X91948000Y-84582000D01*
X144526000Y-74930000D02*
X144526000Y-66040000D01*
X142748000Y-76708000D02*
X144526000Y-74930000D01*
X95361186Y-78680011D02*
X93777197Y-80264000D01*
X108712000Y-80264000D02*
X107128011Y-78680011D01*
X107128011Y-78680011D02*
X95361186Y-78680011D01*
X93777197Y-80264000D02*
X93472000Y-80264000D01*
X89916000Y-87630000D02*
X89408000Y-87122000D01*
X112268000Y-87630000D02*
X89916000Y-87630000D01*
X114300000Y-85598000D02*
X112268000Y-87630000D01*
X135817998Y-85598000D02*
X114300000Y-85598000D01*
X137160000Y-84255998D02*
X135817998Y-85598000D01*
X137160000Y-82042000D02*
X137160000Y-84255998D01*
D30*
%TO.N,Pino_12*%
X118872000Y-72644000D02*
X121407611Y-75179611D01*
X121407611Y-75179611D02*
X131830389Y-75179611D01*
X131830389Y-75179611D02*
X139446000Y-67564000D01*
X139446000Y-67564000D02*
X139446000Y-66040000D01*
%TO.N,Pino_11*%
X134366000Y-66294000D02*
X134366000Y-66040000D01*
X134366000Y-66294000D02*
X134366000Y-68732400D01*
X134366000Y-68732400D02*
X128828800Y-74269600D01*
X123037600Y-74269600D02*
X121412000Y-72644000D01*
X128828800Y-74269600D02*
X123037600Y-74269600D01*
%TO.N,Pino_16_A2*%
X121666000Y-67564000D02*
X121666000Y-66294000D01*
X117946001Y-71283999D02*
X121666000Y-67564000D01*
X102979199Y-71283999D02*
X117946001Y-71283999D01*
X101619198Y-72644000D02*
X102979199Y-71283999D01*
X101092000Y-72644000D02*
X101619198Y-72644000D01*
%TO.N,Pino_17_A3*%
X119126000Y-68072000D02*
X119126000Y-66294000D01*
X116824012Y-70373988D02*
X119126000Y-68072000D01*
X100822012Y-70373988D02*
X116824012Y-70373988D01*
X98552000Y-72644000D02*
X100822012Y-70373988D01*
%TO.N,Pino_18_A4*%
X116586000Y-68072000D02*
X116586000Y-66294000D01*
X115194023Y-69463977D02*
X116586000Y-68072000D01*
X99192023Y-69463977D02*
X115194023Y-69463977D01*
X96012000Y-72644000D02*
X99192023Y-69463977D01*
%TO.N,Pino_19_A5*%
X114046000Y-67818000D02*
X114046000Y-66294000D01*
X113310034Y-68553966D02*
X114046000Y-67818000D01*
X97562034Y-68553966D02*
X113310034Y-68553966D01*
X93472000Y-72644000D02*
X97562034Y-68553966D01*
D31*
%TO.N,Net-(J3-Pad2)*%
X151130000Y-72390000D02*
X151000000Y-72390000D01*
%TO.N,Pino_13*%
X116332000Y-72644000D02*
X113792000Y-75184000D01*
X113792000Y-75184000D02*
X92964000Y-75184000D01*
X92964000Y-75184000D02*
X91186000Y-73406000D01*
X91186000Y-73406000D02*
X91186000Y-71374000D01*
X91186000Y-71374000D02*
X96650000Y-65910000D01*
X96650000Y-65910000D02*
X101092000Y-65910000D01*
%TO.N,GND*%
X116840000Y-83566000D02*
X111252000Y-83566000D01*
X136906000Y-66040000D02*
X136906000Y-65903103D01*
X142320000Y-81280000D02*
X137748000Y-76708000D01*
X147828000Y-81280000D02*
X142320000Y-81280000D01*
X151638000Y-85090000D02*
X147828000Y-81280000D01*
X152400000Y-85090000D02*
X151638000Y-85090000D01*
X103762000Y-66040000D02*
X103632000Y-65910000D01*
X108582000Y-65910000D02*
X108966000Y-66294000D01*
X103632000Y-65910000D02*
X108582000Y-65910000D01*
X108966000Y-65786000D02*
X108966000Y-66294000D01*
X147066000Y-65903103D02*
X147066000Y-66040000D01*
X138547103Y-64262000D02*
X145424897Y-64262000D01*
X145424897Y-64262000D02*
X147066000Y-65903103D01*
X136906000Y-65903103D02*
X138547103Y-64262000D01*
X80518000Y-84360000D02*
X80518000Y-86360000D01*
X77058000Y-80900000D02*
X80518000Y-84360000D01*
X77058000Y-74950002D02*
X77058000Y-80900000D01*
X87746002Y-64262000D02*
X77058000Y-74950002D01*
X102616000Y-64262000D02*
X87746002Y-64262000D01*
X103632000Y-65278000D02*
X102616000Y-64262000D01*
X103632000Y-65910000D02*
X103632000Y-65278000D01*
X147066000Y-79756000D02*
X152400000Y-85090000D01*
X147066000Y-66294000D02*
X147066000Y-79756000D01*
X135237907Y-64235010D02*
X136906000Y-65903103D01*
X109940542Y-64235010D02*
X135237907Y-64235010D01*
X108966000Y-65209552D02*
X109940542Y-64235010D01*
X108966000Y-66294000D02*
X108966000Y-65209552D01*
D30*
%TO.N,Net-(DS1-Pad3)*%
X141986000Y-66294000D02*
X141986000Y-66040000D01*
X141986000Y-67310000D02*
X141986000Y-66294000D01*
X140248000Y-69048000D02*
X141986000Y-67310000D01*
X140248000Y-71708000D02*
X140248000Y-69048000D01*
%TO.N,LCD_A*%
X123952000Y-72644000D02*
X127508000Y-69088000D01*
X127508000Y-69088000D02*
X129184400Y-69088000D01*
%TD*%
D32*
%TO.N,GND*%
X148780200Y-66332064D02*
X148783596Y-66366550D01*
X148783464Y-66385520D01*
X148784520Y-66396289D01*
X148846701Y-66987897D01*
X148860828Y-67056719D01*
X148873987Y-67125700D01*
X148877114Y-67136059D01*
X149053020Y-67704321D01*
X149080246Y-67769090D01*
X149106553Y-67834202D01*
X149111633Y-67843757D01*
X149394565Y-68367029D01*
X149433845Y-68425263D01*
X149472306Y-68484038D01*
X149479145Y-68492424D01*
X149858327Y-68950776D01*
X149908184Y-69000285D01*
X149957315Y-69050456D01*
X149965653Y-69057354D01*
X150426640Y-69433326D01*
X150485156Y-69472204D01*
X150543104Y-69511881D01*
X150552622Y-69517028D01*
X151077856Y-69796300D01*
X151142821Y-69823076D01*
X151207360Y-69850738D01*
X151217698Y-69853939D01*
X151787175Y-70025874D01*
X151856099Y-70039521D01*
X151924785Y-70054121D01*
X151935547Y-70055252D01*
X152527573Y-70113301D01*
X152527577Y-70113301D01*
X152565135Y-70117000D01*
X154419000Y-70117000D01*
X154419001Y-88633000D01*
X134350121Y-88633000D01*
X134513902Y-88387884D01*
X134634513Y-88096703D01*
X134696000Y-87787586D01*
X134696000Y-87472414D01*
X134634513Y-87163297D01*
X134513902Y-86872116D01*
X134497788Y-86848000D01*
X135756600Y-86848000D01*
X135817998Y-86854047D01*
X135879396Y-86848000D01*
X135879403Y-86848000D01*
X136063041Y-86829913D01*
X136298667Y-86758437D01*
X136515821Y-86642366D01*
X136706158Y-86486160D01*
X136745306Y-86438458D01*
X138000462Y-85183302D01*
X138048160Y-85144158D01*
X138204366Y-84953821D01*
X138320437Y-84736667D01*
X138387375Y-84516000D01*
X138391913Y-84501042D01*
X138406986Y-84348000D01*
X138410000Y-84317403D01*
X138410000Y-84317397D01*
X138416047Y-84255999D01*
X138410000Y-84194601D01*
X138410000Y-82538542D01*
X138416552Y-82516943D01*
X138435000Y-82329635D01*
X138435000Y-81754364D01*
X138416552Y-81567056D01*
X138343646Y-81326718D01*
X138225253Y-81105221D01*
X138224331Y-81104097D01*
X140193687Y-83073454D01*
X140113381Y-83171307D01*
X140043739Y-83301599D01*
X140000853Y-83442974D01*
X139986372Y-83590000D01*
X139986372Y-86590000D01*
X140000853Y-86737026D01*
X140043739Y-86878401D01*
X140113381Y-87008693D01*
X140207105Y-87122895D01*
X140321307Y-87216619D01*
X140451599Y-87286261D01*
X140592974Y-87329147D01*
X140740000Y-87343628D01*
X143740000Y-87343628D01*
X143887026Y-87329147D01*
X144028401Y-87286261D01*
X144158693Y-87216619D01*
X144272895Y-87122895D01*
X144366619Y-87008693D01*
X144436261Y-86878401D01*
X144479147Y-86737026D01*
X144493628Y-86590000D01*
X144493628Y-84868394D01*
X145070000Y-84868394D01*
X145070000Y-85311606D01*
X145156466Y-85746301D01*
X145326076Y-86155775D01*
X145572311Y-86524292D01*
X145885708Y-86837689D01*
X146254225Y-87083924D01*
X146663699Y-87253534D01*
X147098394Y-87340000D01*
X147541606Y-87340000D01*
X147976301Y-87253534D01*
X148385775Y-87083924D01*
X148754292Y-86837689D01*
X149067689Y-86524292D01*
X149313924Y-86155775D01*
X149483534Y-85746301D01*
X149570000Y-85311606D01*
X149570000Y-84868394D01*
X149483534Y-84433699D01*
X149313924Y-84024225D01*
X149067689Y-83655708D01*
X148754292Y-83342311D01*
X148385775Y-83096076D01*
X147976301Y-82926466D01*
X147541606Y-82840000D01*
X147098394Y-82840000D01*
X146663699Y-82926466D01*
X146254225Y-83096076D01*
X145885708Y-83342311D01*
X145572311Y-83655708D01*
X145326076Y-84024225D01*
X145156466Y-84433699D01*
X145070000Y-84868394D01*
X144493628Y-84868394D01*
X144493628Y-83590000D01*
X144479147Y-83442974D01*
X144436261Y-83301599D01*
X144366619Y-83171307D01*
X144272895Y-83057105D01*
X144158693Y-82963381D01*
X144028401Y-82893739D01*
X143887026Y-82850853D01*
X143740000Y-82836372D01*
X143381751Y-82836372D01*
X143284366Y-82654177D01*
X143128160Y-82463840D01*
X143080463Y-82424696D01*
X137269329Y-76613563D01*
X137230180Y-76565860D01*
X137039843Y-76409654D01*
X136822689Y-76293583D01*
X136587063Y-76222107D01*
X136403425Y-76204020D01*
X136403418Y-76204020D01*
X136342020Y-76197973D01*
X136280622Y-76204020D01*
X132242746Y-76204020D01*
X132253377Y-76200795D01*
X132444473Y-76098653D01*
X132611970Y-75961192D01*
X132646422Y-75919212D01*
X139148001Y-69417634D01*
X139148000Y-70651324D01*
X139063455Y-70735869D01*
X138896562Y-70985642D01*
X138781605Y-71263174D01*
X138723000Y-71557801D01*
X138723000Y-71858199D01*
X138781605Y-72152826D01*
X138896562Y-72430358D01*
X139063455Y-72680131D01*
X139275869Y-72892545D01*
X139525642Y-73059438D01*
X139803174Y-73174395D01*
X140097801Y-73233000D01*
X140398199Y-73233000D01*
X140692826Y-73174395D01*
X140970358Y-73059438D01*
X141220131Y-72892545D01*
X141432545Y-72680131D01*
X141599438Y-72430358D01*
X141714395Y-72152826D01*
X141773000Y-71858199D01*
X141773000Y-71557801D01*
X141714395Y-71263174D01*
X141599438Y-70985642D01*
X141432545Y-70735869D01*
X141348000Y-70651324D01*
X141348000Y-69503634D01*
X142632031Y-68219604D01*
X142907125Y-68072562D01*
X143158371Y-67866371D01*
X143256000Y-67747409D01*
X143276001Y-67771780D01*
X143276000Y-74412233D01*
X142508862Y-75179372D01*
X141973000Y-75179372D01*
X141825974Y-75193853D01*
X141684599Y-75236739D01*
X141554307Y-75306381D01*
X141440105Y-75400105D01*
X141346381Y-75514307D01*
X141276739Y-75644599D01*
X141233853Y-75785974D01*
X141219372Y-75933000D01*
X141219372Y-77483000D01*
X141233853Y-77630026D01*
X141276739Y-77771401D01*
X141346381Y-77901693D01*
X141440105Y-78015895D01*
X141554307Y-78109619D01*
X141684599Y-78179261D01*
X141825974Y-78222147D01*
X141973000Y-78236628D01*
X143523000Y-78236628D01*
X143670026Y-78222147D01*
X143811401Y-78179261D01*
X143941693Y-78109619D01*
X144055895Y-78015895D01*
X144149619Y-77901693D01*
X144219261Y-77771401D01*
X144262147Y-77630026D01*
X144276628Y-77483000D01*
X144276628Y-76947138D01*
X145253766Y-75970000D01*
X148876372Y-75970000D01*
X148876372Y-78970000D01*
X148890853Y-79117026D01*
X148933739Y-79258401D01*
X149003381Y-79388693D01*
X149097105Y-79502895D01*
X149211307Y-79596619D01*
X149341599Y-79666261D01*
X149482974Y-79709147D01*
X149630000Y-79723628D01*
X152630000Y-79723628D01*
X152777026Y-79709147D01*
X152918401Y-79666261D01*
X153048693Y-79596619D01*
X153162895Y-79502895D01*
X153256619Y-79388693D01*
X153326261Y-79258401D01*
X153369147Y-79117026D01*
X153383628Y-78970000D01*
X153383628Y-75970000D01*
X153369147Y-75822974D01*
X153326261Y-75681599D01*
X153256619Y-75551307D01*
X153162895Y-75437105D01*
X153048693Y-75343381D01*
X152918401Y-75273739D01*
X152777026Y-75230853D01*
X152630000Y-75216372D01*
X149630000Y-75216372D01*
X149482974Y-75230853D01*
X149341599Y-75273739D01*
X149211307Y-75343381D01*
X149097105Y-75437105D01*
X149003381Y-75551307D01*
X148933739Y-75681599D01*
X148890853Y-75822974D01*
X148876372Y-75970000D01*
X145253766Y-75970000D01*
X145366464Y-75857303D01*
X145414160Y-75818160D01*
X145570366Y-75627823D01*
X145686437Y-75410669D01*
X145757913Y-75175043D01*
X145776000Y-74991405D01*
X145776000Y-74991404D01*
X145782048Y-74930000D01*
X145776000Y-74868595D01*
X145776000Y-72168394D01*
X148880000Y-72168394D01*
X148880000Y-72611606D01*
X148966466Y-73046301D01*
X149136076Y-73455775D01*
X149382311Y-73824292D01*
X149695708Y-74137689D01*
X150064225Y-74383924D01*
X150473699Y-74553534D01*
X150908394Y-74640000D01*
X151351606Y-74640000D01*
X151786301Y-74553534D01*
X152195775Y-74383924D01*
X152564292Y-74137689D01*
X152877689Y-73824292D01*
X153123924Y-73455775D01*
X153293534Y-73046301D01*
X153380000Y-72611606D01*
X153380000Y-72168394D01*
X153293534Y-71733699D01*
X153123924Y-71324225D01*
X152877689Y-70955708D01*
X152564292Y-70642311D01*
X152195775Y-70396076D01*
X151786301Y-70226466D01*
X151351606Y-70140000D01*
X150908394Y-70140000D01*
X150473699Y-70226466D01*
X150064225Y-70396076D01*
X149695708Y-70642311D01*
X149382311Y-70955708D01*
X149136076Y-71324225D01*
X148966466Y-71733699D01*
X148880000Y-72168394D01*
X145776000Y-72168394D01*
X145776000Y-67771780D01*
X145904562Y-67615126D01*
X146057777Y-67328483D01*
X146152125Y-67017456D01*
X146176000Y-66775052D01*
X146176000Y-65812949D01*
X146152125Y-65570544D01*
X146057777Y-65259517D01*
X145904562Y-64972874D01*
X145698371Y-64721629D01*
X145447126Y-64515438D01*
X145160483Y-64362223D01*
X144872944Y-64275000D01*
X148780201Y-64275000D01*
X148780200Y-66332064D01*
%TA.AperFunction,Conductor*%
G36*
X148780200Y-66332064D02*
G01*
X148783596Y-66366550D01*
X148783464Y-66385520D01*
X148784520Y-66396289D01*
X148846701Y-66987897D01*
X148860828Y-67056719D01*
X148873987Y-67125700D01*
X148877114Y-67136059D01*
X149053020Y-67704321D01*
X149080246Y-67769090D01*
X149106553Y-67834202D01*
X149111633Y-67843757D01*
X149394565Y-68367029D01*
X149433845Y-68425263D01*
X149472306Y-68484038D01*
X149479145Y-68492424D01*
X149858327Y-68950776D01*
X149908184Y-69000285D01*
X149957315Y-69050456D01*
X149965653Y-69057354D01*
X150426640Y-69433326D01*
X150485156Y-69472204D01*
X150543104Y-69511881D01*
X150552622Y-69517028D01*
X151077856Y-69796300D01*
X151142821Y-69823076D01*
X151207360Y-69850738D01*
X151217698Y-69853939D01*
X151787175Y-70025874D01*
X151856099Y-70039521D01*
X151924785Y-70054121D01*
X151935547Y-70055252D01*
X152527573Y-70113301D01*
X152527577Y-70113301D01*
X152565135Y-70117000D01*
X154419000Y-70117000D01*
X154419001Y-88633000D01*
X134350121Y-88633000D01*
X134513902Y-88387884D01*
X134634513Y-88096703D01*
X134696000Y-87787586D01*
X134696000Y-87472414D01*
X134634513Y-87163297D01*
X134513902Y-86872116D01*
X134497788Y-86848000D01*
X135756600Y-86848000D01*
X135817998Y-86854047D01*
X135879396Y-86848000D01*
X135879403Y-86848000D01*
X136063041Y-86829913D01*
X136298667Y-86758437D01*
X136515821Y-86642366D01*
X136706158Y-86486160D01*
X136745306Y-86438458D01*
X138000462Y-85183302D01*
X138048160Y-85144158D01*
X138204366Y-84953821D01*
X138320437Y-84736667D01*
X138387375Y-84516000D01*
X138391913Y-84501042D01*
X138406986Y-84348000D01*
X138410000Y-84317403D01*
X138410000Y-84317397D01*
X138416047Y-84255999D01*
X138410000Y-84194601D01*
X138410000Y-82538542D01*
X138416552Y-82516943D01*
X138435000Y-82329635D01*
X138435000Y-81754364D01*
X138416552Y-81567056D01*
X138343646Y-81326718D01*
X138225253Y-81105221D01*
X138224331Y-81104097D01*
X140193687Y-83073454D01*
X140113381Y-83171307D01*
X140043739Y-83301599D01*
X140000853Y-83442974D01*
X139986372Y-83590000D01*
X139986372Y-86590000D01*
X140000853Y-86737026D01*
X140043739Y-86878401D01*
X140113381Y-87008693D01*
X140207105Y-87122895D01*
X140321307Y-87216619D01*
X140451599Y-87286261D01*
X140592974Y-87329147D01*
X140740000Y-87343628D01*
X143740000Y-87343628D01*
X143887026Y-87329147D01*
X144028401Y-87286261D01*
X144158693Y-87216619D01*
X144272895Y-87122895D01*
X144366619Y-87008693D01*
X144436261Y-86878401D01*
X144479147Y-86737026D01*
X144493628Y-86590000D01*
X144493628Y-84868394D01*
X145070000Y-84868394D01*
X145070000Y-85311606D01*
X145156466Y-85746301D01*
X145326076Y-86155775D01*
X145572311Y-86524292D01*
X145885708Y-86837689D01*
X146254225Y-87083924D01*
X146663699Y-87253534D01*
X147098394Y-87340000D01*
X147541606Y-87340000D01*
X147976301Y-87253534D01*
X148385775Y-87083924D01*
X148754292Y-86837689D01*
X149067689Y-86524292D01*
X149313924Y-86155775D01*
X149483534Y-85746301D01*
X149570000Y-85311606D01*
X149570000Y-84868394D01*
X149483534Y-84433699D01*
X149313924Y-84024225D01*
X149067689Y-83655708D01*
X148754292Y-83342311D01*
X148385775Y-83096076D01*
X147976301Y-82926466D01*
X147541606Y-82840000D01*
X147098394Y-82840000D01*
X146663699Y-82926466D01*
X146254225Y-83096076D01*
X145885708Y-83342311D01*
X145572311Y-83655708D01*
X145326076Y-84024225D01*
X145156466Y-84433699D01*
X145070000Y-84868394D01*
X144493628Y-84868394D01*
X144493628Y-83590000D01*
X144479147Y-83442974D01*
X144436261Y-83301599D01*
X144366619Y-83171307D01*
X144272895Y-83057105D01*
X144158693Y-82963381D01*
X144028401Y-82893739D01*
X143887026Y-82850853D01*
X143740000Y-82836372D01*
X143381751Y-82836372D01*
X143284366Y-82654177D01*
X143128160Y-82463840D01*
X143080463Y-82424696D01*
X137269329Y-76613563D01*
X137230180Y-76565860D01*
X137039843Y-76409654D01*
X136822689Y-76293583D01*
X136587063Y-76222107D01*
X136403425Y-76204020D01*
X136403418Y-76204020D01*
X136342020Y-76197973D01*
X136280622Y-76204020D01*
X132242746Y-76204020D01*
X132253377Y-76200795D01*
X132444473Y-76098653D01*
X132611970Y-75961192D01*
X132646422Y-75919212D01*
X139148001Y-69417634D01*
X139148000Y-70651324D01*
X139063455Y-70735869D01*
X138896562Y-70985642D01*
X138781605Y-71263174D01*
X138723000Y-71557801D01*
X138723000Y-71858199D01*
X138781605Y-72152826D01*
X138896562Y-72430358D01*
X139063455Y-72680131D01*
X139275869Y-72892545D01*
X139525642Y-73059438D01*
X139803174Y-73174395D01*
X140097801Y-73233000D01*
X140398199Y-73233000D01*
X140692826Y-73174395D01*
X140970358Y-73059438D01*
X141220131Y-72892545D01*
X141432545Y-72680131D01*
X141599438Y-72430358D01*
X141714395Y-72152826D01*
X141773000Y-71858199D01*
X141773000Y-71557801D01*
X141714395Y-71263174D01*
X141599438Y-70985642D01*
X141432545Y-70735869D01*
X141348000Y-70651324D01*
X141348000Y-69503634D01*
X142632031Y-68219604D01*
X142907125Y-68072562D01*
X143158371Y-67866371D01*
X143256000Y-67747409D01*
X143276001Y-67771780D01*
X143276000Y-74412233D01*
X142508862Y-75179372D01*
X141973000Y-75179372D01*
X141825974Y-75193853D01*
X141684599Y-75236739D01*
X141554307Y-75306381D01*
X141440105Y-75400105D01*
X141346381Y-75514307D01*
X141276739Y-75644599D01*
X141233853Y-75785974D01*
X141219372Y-75933000D01*
X141219372Y-77483000D01*
X141233853Y-77630026D01*
X141276739Y-77771401D01*
X141346381Y-77901693D01*
X141440105Y-78015895D01*
X141554307Y-78109619D01*
X141684599Y-78179261D01*
X141825974Y-78222147D01*
X141973000Y-78236628D01*
X143523000Y-78236628D01*
X143670026Y-78222147D01*
X143811401Y-78179261D01*
X143941693Y-78109619D01*
X144055895Y-78015895D01*
X144149619Y-77901693D01*
X144219261Y-77771401D01*
X144262147Y-77630026D01*
X144276628Y-77483000D01*
X144276628Y-76947138D01*
X145253766Y-75970000D01*
X148876372Y-75970000D01*
X148876372Y-78970000D01*
X148890853Y-79117026D01*
X148933739Y-79258401D01*
X149003381Y-79388693D01*
X149097105Y-79502895D01*
X149211307Y-79596619D01*
X149341599Y-79666261D01*
X149482974Y-79709147D01*
X149630000Y-79723628D01*
X152630000Y-79723628D01*
X152777026Y-79709147D01*
X152918401Y-79666261D01*
X153048693Y-79596619D01*
X153162895Y-79502895D01*
X153256619Y-79388693D01*
X153326261Y-79258401D01*
X153369147Y-79117026D01*
X153383628Y-78970000D01*
X153383628Y-75970000D01*
X153369147Y-75822974D01*
X153326261Y-75681599D01*
X153256619Y-75551307D01*
X153162895Y-75437105D01*
X153048693Y-75343381D01*
X152918401Y-75273739D01*
X152777026Y-75230853D01*
X152630000Y-75216372D01*
X149630000Y-75216372D01*
X149482974Y-75230853D01*
X149341599Y-75273739D01*
X149211307Y-75343381D01*
X149097105Y-75437105D01*
X149003381Y-75551307D01*
X148933739Y-75681599D01*
X148890853Y-75822974D01*
X148876372Y-75970000D01*
X145253766Y-75970000D01*
X145366464Y-75857303D01*
X145414160Y-75818160D01*
X145570366Y-75627823D01*
X145686437Y-75410669D01*
X145757913Y-75175043D01*
X145776000Y-74991405D01*
X145776000Y-74991404D01*
X145782048Y-74930000D01*
X145776000Y-74868595D01*
X145776000Y-72168394D01*
X148880000Y-72168394D01*
X148880000Y-72611606D01*
X148966466Y-73046301D01*
X149136076Y-73455775D01*
X149382311Y-73824292D01*
X149695708Y-74137689D01*
X150064225Y-74383924D01*
X150473699Y-74553534D01*
X150908394Y-74640000D01*
X151351606Y-74640000D01*
X151786301Y-74553534D01*
X152195775Y-74383924D01*
X152564292Y-74137689D01*
X152877689Y-73824292D01*
X153123924Y-73455775D01*
X153293534Y-73046301D01*
X153380000Y-72611606D01*
X153380000Y-72168394D01*
X153293534Y-71733699D01*
X153123924Y-71324225D01*
X152877689Y-70955708D01*
X152564292Y-70642311D01*
X152195775Y-70396076D01*
X151786301Y-70226466D01*
X151351606Y-70140000D01*
X150908394Y-70140000D01*
X150473699Y-70226466D01*
X150064225Y-70396076D01*
X149695708Y-70642311D01*
X149382311Y-70955708D01*
X149136076Y-71324225D01*
X148966466Y-71733699D01*
X148880000Y-72168394D01*
X145776000Y-72168394D01*
X145776000Y-67771780D01*
X145904562Y-67615126D01*
X146057777Y-67328483D01*
X146152125Y-67017456D01*
X146176000Y-66775052D01*
X146176000Y-65812949D01*
X146152125Y-65570544D01*
X146057777Y-65259517D01*
X145904562Y-64972874D01*
X145698371Y-64721629D01*
X145447126Y-64515438D01*
X145160483Y-64362223D01*
X144872944Y-64275000D01*
X148780201Y-64275000D01*
X148780200Y-66332064D01*
G37*
%TD.AperFunction*%
X110871518Y-64362223D02*
X110584875Y-64515438D01*
X110333630Y-64721629D01*
X110127438Y-64972874D01*
X109974223Y-65259517D01*
X109879875Y-65570544D01*
X109856000Y-65812948D01*
X109856000Y-66775051D01*
X109879875Y-67017455D01*
X109974223Y-67328482D01*
X110041296Y-67453966D01*
X97616070Y-67453966D01*
X97562034Y-67448644D01*
X97346396Y-67469882D01*
X97139045Y-67532782D01*
X96963959Y-67626367D01*
X96947950Y-67634924D01*
X96780453Y-67772385D01*
X96746001Y-67814365D01*
X93466366Y-71094000D01*
X93319338Y-71094000D01*
X93212519Y-71115247D01*
X97167767Y-67160000D01*
X100255629Y-67160000D01*
X100379589Y-67242827D01*
X100653299Y-67356202D01*
X100943869Y-67414000D01*
X101240131Y-67414000D01*
X101530701Y-67356202D01*
X101804411Y-67242827D01*
X102050744Y-67078233D01*
X102260233Y-66868744D01*
X102424827Y-66622411D01*
X102538202Y-66348701D01*
X102596000Y-66058131D01*
X102596000Y-65761869D01*
X102538202Y-65471299D01*
X102424827Y-65197589D01*
X102260233Y-64951256D01*
X102050744Y-64741767D01*
X101804411Y-64577173D01*
X101530701Y-64463798D01*
X101240131Y-64406000D01*
X100943869Y-64406000D01*
X100653299Y-64463798D01*
X100379589Y-64577173D01*
X100255629Y-64660000D01*
X96711398Y-64660000D01*
X96650000Y-64653953D01*
X96588602Y-64660000D01*
X96588595Y-64660000D01*
X96404957Y-64678087D01*
X96169331Y-64749563D01*
X95952177Y-64865634D01*
X95761840Y-65021840D01*
X95722696Y-65069537D01*
X90345538Y-70446696D01*
X90297841Y-70485840D01*
X90141635Y-70676177D01*
X90109729Y-70735869D01*
X90025563Y-70893332D01*
X89954087Y-71128958D01*
X89929953Y-71374000D01*
X89936001Y-71435407D01*
X89936000Y-73344602D01*
X89929953Y-73406000D01*
X89936000Y-73467398D01*
X89936000Y-73467404D01*
X89954087Y-73651042D01*
X90025563Y-73886668D01*
X90141634Y-74103822D01*
X90297840Y-74294160D01*
X90345542Y-74333309D01*
X92036696Y-76024463D01*
X92075840Y-76072160D01*
X92266177Y-76228366D01*
X92388190Y-76293583D01*
X92483331Y-76344437D01*
X92718957Y-76415913D01*
X92964000Y-76440048D01*
X93025405Y-76434000D01*
X94148476Y-76434000D01*
X93987805Y-76565860D01*
X93948660Y-76613558D01*
X93326219Y-77236000D01*
X89030926Y-77236000D01*
X88962895Y-77153105D01*
X88848693Y-77059381D01*
X88718401Y-76989739D01*
X88577026Y-76946853D01*
X88430000Y-76932372D01*
X86830000Y-76932372D01*
X86682974Y-76946853D01*
X86541599Y-76989739D01*
X86411307Y-77059381D01*
X86297105Y-77153105D01*
X86203381Y-77267307D01*
X86133739Y-77397599D01*
X86090853Y-77538974D01*
X86076372Y-77686000D01*
X86076372Y-79286000D01*
X86090853Y-79433026D01*
X86133739Y-79574401D01*
X86203381Y-79704693D01*
X86297105Y-79818895D01*
X86411307Y-79912619D01*
X86541599Y-79982261D01*
X86682974Y-80025147D01*
X86830000Y-80039628D01*
X88430000Y-80039628D01*
X88577026Y-80025147D01*
X88718401Y-79982261D01*
X88848693Y-79912619D01*
X88962895Y-79818895D01*
X89030926Y-79736000D01*
X91918372Y-79736000D01*
X91918372Y-80049861D01*
X91107538Y-80860696D01*
X91059841Y-80899840D01*
X90903635Y-81090177D01*
X90849582Y-81191303D01*
X90787563Y-81307332D01*
X90716087Y-81542958D01*
X90691953Y-81788000D01*
X90698001Y-81849407D01*
X90698000Y-84064233D01*
X89193862Y-85568372D01*
X88608000Y-85568372D01*
X88460974Y-85582853D01*
X88319599Y-85625739D01*
X88189307Y-85695381D01*
X88075105Y-85789105D01*
X87981381Y-85903307D01*
X87911739Y-86033599D01*
X87868853Y-86174974D01*
X87854372Y-86322000D01*
X87854372Y-87922000D01*
X87868853Y-88069026D01*
X87911739Y-88210401D01*
X87981381Y-88340693D01*
X88075105Y-88454895D01*
X88189307Y-88548619D01*
X88319599Y-88618261D01*
X88368187Y-88633000D01*
X75705000Y-88633000D01*
X75705000Y-85360000D01*
X76271872Y-85360000D01*
X76271872Y-87360000D01*
X76286353Y-87507026D01*
X76329239Y-87648401D01*
X76398881Y-87778693D01*
X76492605Y-87892895D01*
X76606807Y-87986619D01*
X76737099Y-88056261D01*
X76878474Y-88099147D01*
X77025500Y-88113628D01*
X78930500Y-88113628D01*
X79077526Y-88099147D01*
X79218901Y-88056261D01*
X79349193Y-87986619D01*
X79463395Y-87892895D01*
X79557119Y-87778693D01*
X79626761Y-87648401D01*
X79669647Y-87507026D01*
X79684128Y-87360000D01*
X79684128Y-86228869D01*
X81355500Y-86228869D01*
X81355500Y-86491132D01*
X81380134Y-86741248D01*
X81477485Y-87062171D01*
X81635574Y-87357935D01*
X81848326Y-87617174D01*
X82107566Y-87829926D01*
X82403330Y-87988015D01*
X82724253Y-88085366D01*
X83058000Y-88118237D01*
X83391748Y-88085366D01*
X83712671Y-87988015D01*
X84008435Y-87829926D01*
X84267674Y-87617174D01*
X84480426Y-87357934D01*
X84638515Y-87062170D01*
X84735866Y-86741247D01*
X84760500Y-86491131D01*
X84760500Y-86228868D01*
X84735866Y-85978752D01*
X84638515Y-85657829D01*
X84480426Y-85362065D01*
X84267674Y-85102826D01*
X84008434Y-84890074D01*
X83712670Y-84731985D01*
X83391747Y-84634634D01*
X83058000Y-84601763D01*
X82724252Y-84634634D01*
X82403329Y-84731985D01*
X82107565Y-84890074D01*
X81848326Y-85102826D01*
X81635574Y-85362066D01*
X81477485Y-85657830D01*
X81380134Y-85978753D01*
X81355500Y-86228869D01*
X79684128Y-86228869D01*
X79684128Y-85360000D01*
X79669647Y-85212974D01*
X79626761Y-85071599D01*
X79557119Y-84941307D01*
X79463395Y-84827105D01*
X79349193Y-84733381D01*
X79218901Y-84663739D01*
X79077526Y-84620853D01*
X78930500Y-84606372D01*
X77025500Y-84606372D01*
X76878474Y-84620853D01*
X76737099Y-84663739D01*
X76606807Y-84733381D01*
X76492605Y-84827105D01*
X76398881Y-84941307D01*
X76329239Y-85071599D01*
X76286353Y-85212974D01*
X76271872Y-85360000D01*
X75705000Y-85360000D01*
X75705000Y-79009000D01*
X77554372Y-79009000D01*
X77554372Y-80759000D01*
X77585666Y-81076730D01*
X77678344Y-81382249D01*
X77828845Y-81663817D01*
X78031386Y-81910614D01*
X78278183Y-82113155D01*
X78559751Y-82263656D01*
X78865270Y-82356334D01*
X79183000Y-82387628D01*
X80933000Y-82387628D01*
X81250730Y-82356334D01*
X81556249Y-82263656D01*
X81837817Y-82113155D01*
X82084614Y-81910614D01*
X82287155Y-81663817D01*
X82437656Y-81382249D01*
X82530334Y-81076730D01*
X82561628Y-80759000D01*
X82561628Y-79009000D01*
X82530334Y-78691270D01*
X82437656Y-78385751D01*
X82287155Y-78104183D01*
X82084614Y-77857386D01*
X81877763Y-77687628D01*
X84808000Y-77687628D01*
X84955026Y-77673147D01*
X85096401Y-77630261D01*
X85226693Y-77560619D01*
X85340895Y-77466895D01*
X85434619Y-77352693D01*
X85504261Y-77222401D01*
X85547147Y-77081026D01*
X85561628Y-76934000D01*
X85561628Y-73434000D01*
X85547147Y-73286974D01*
X85504261Y-73145599D01*
X85434619Y-73015307D01*
X85340895Y-72901105D01*
X85226693Y-72807381D01*
X85096401Y-72737739D01*
X84955026Y-72694853D01*
X84808000Y-72680372D01*
X81308000Y-72680372D01*
X81160974Y-72694853D01*
X81019599Y-72737739D01*
X80889307Y-72807381D01*
X80775105Y-72901105D01*
X80681381Y-73015307D01*
X80611739Y-73145599D01*
X80568853Y-73286974D01*
X80554372Y-73434000D01*
X80554372Y-76934000D01*
X80568853Y-77081026D01*
X80611739Y-77222401D01*
X80681381Y-77352693D01*
X80704097Y-77380372D01*
X79183000Y-77380372D01*
X78865270Y-77411666D01*
X78559751Y-77504344D01*
X78278183Y-77654845D01*
X78031386Y-77857386D01*
X77828845Y-78104183D01*
X77678344Y-78385751D01*
X77585666Y-78691270D01*
X77554372Y-79009000D01*
X75705000Y-79009000D01*
X75705000Y-70117000D01*
X77558865Y-70117000D01*
X77593351Y-70113604D01*
X77612320Y-70113736D01*
X77623089Y-70112680D01*
X78214697Y-70050499D01*
X78283519Y-70036372D01*
X78352500Y-70023213D01*
X78362859Y-70020086D01*
X78931121Y-69844180D01*
X78995890Y-69816954D01*
X79061002Y-69790647D01*
X79070557Y-69785567D01*
X79593829Y-69502635D01*
X79652063Y-69463355D01*
X79710838Y-69424894D01*
X79719224Y-69418055D01*
X80177576Y-69038873D01*
X80227085Y-68989016D01*
X80277256Y-68939885D01*
X80284154Y-68931547D01*
X80660126Y-68470560D01*
X80699004Y-68412044D01*
X80738681Y-68354096D01*
X80743828Y-68344578D01*
X81023100Y-67819344D01*
X81049876Y-67754379D01*
X81077538Y-67689840D01*
X81080739Y-67679502D01*
X81252674Y-67110025D01*
X81266321Y-67041101D01*
X81280921Y-66972415D01*
X81282052Y-66961653D01*
X81340101Y-66369627D01*
X81340101Y-66369623D01*
X81343800Y-66332065D01*
X81343800Y-65156000D01*
X81804372Y-65156000D01*
X81804372Y-66664000D01*
X81818853Y-66811026D01*
X81861739Y-66952401D01*
X81931381Y-67082693D01*
X82025105Y-67196895D01*
X82139307Y-67290619D01*
X82269599Y-67360261D01*
X82410974Y-67403147D01*
X82558000Y-67417628D01*
X84066000Y-67417628D01*
X84213026Y-67403147D01*
X84354401Y-67360261D01*
X84484693Y-67290619D01*
X84598895Y-67196895D01*
X84692619Y-67082693D01*
X84762261Y-66952401D01*
X84805147Y-66811026D01*
X84819628Y-66664000D01*
X84819628Y-65761869D01*
X89428000Y-65761869D01*
X89428000Y-66058131D01*
X89485798Y-66348701D01*
X89599173Y-66622411D01*
X89763767Y-66868744D01*
X89973256Y-67078233D01*
X90219589Y-67242827D01*
X90493299Y-67356202D01*
X90783869Y-67414000D01*
X91080131Y-67414000D01*
X91370701Y-67356202D01*
X91644411Y-67242827D01*
X91890744Y-67078233D01*
X92100233Y-66868744D01*
X92264827Y-66622411D01*
X92378202Y-66348701D01*
X92436000Y-66058131D01*
X92436000Y-65761869D01*
X92378202Y-65471299D01*
X92264827Y-65197589D01*
X92100233Y-64951256D01*
X91890744Y-64741767D01*
X91644411Y-64577173D01*
X91370701Y-64463798D01*
X91080131Y-64406000D01*
X90783869Y-64406000D01*
X90493299Y-64463798D01*
X90219589Y-64577173D01*
X89973256Y-64741767D01*
X89763767Y-64951256D01*
X89599173Y-65197589D01*
X89485798Y-65471299D01*
X89428000Y-65761869D01*
X84819628Y-65761869D01*
X84819628Y-65156000D01*
X84805147Y-65008974D01*
X84762261Y-64867599D01*
X84692619Y-64737307D01*
X84598895Y-64623105D01*
X84484693Y-64529381D01*
X84354401Y-64459739D01*
X84213026Y-64416853D01*
X84066000Y-64402372D01*
X82558000Y-64402372D01*
X82410974Y-64416853D01*
X82269599Y-64459739D01*
X82139307Y-64529381D01*
X82025105Y-64623105D01*
X81931381Y-64737307D01*
X81861739Y-64867599D01*
X81818853Y-65008974D01*
X81804372Y-65156000D01*
X81343800Y-65156000D01*
X81343800Y-64275000D01*
X111159057Y-64275000D01*
X110871518Y-64362223D01*
%TA.AperFunction,Conductor*%
G36*
X110871518Y-64362223D02*
G01*
X110584875Y-64515438D01*
X110333630Y-64721629D01*
X110127438Y-64972874D01*
X109974223Y-65259517D01*
X109879875Y-65570544D01*
X109856000Y-65812948D01*
X109856000Y-66775051D01*
X109879875Y-67017455D01*
X109974223Y-67328482D01*
X110041296Y-67453966D01*
X97616070Y-67453966D01*
X97562034Y-67448644D01*
X97346396Y-67469882D01*
X97139045Y-67532782D01*
X96963959Y-67626367D01*
X96947950Y-67634924D01*
X96780453Y-67772385D01*
X96746001Y-67814365D01*
X93466366Y-71094000D01*
X93319338Y-71094000D01*
X93212519Y-71115247D01*
X97167767Y-67160000D01*
X100255629Y-67160000D01*
X100379589Y-67242827D01*
X100653299Y-67356202D01*
X100943869Y-67414000D01*
X101240131Y-67414000D01*
X101530701Y-67356202D01*
X101804411Y-67242827D01*
X102050744Y-67078233D01*
X102260233Y-66868744D01*
X102424827Y-66622411D01*
X102538202Y-66348701D01*
X102596000Y-66058131D01*
X102596000Y-65761869D01*
X102538202Y-65471299D01*
X102424827Y-65197589D01*
X102260233Y-64951256D01*
X102050744Y-64741767D01*
X101804411Y-64577173D01*
X101530701Y-64463798D01*
X101240131Y-64406000D01*
X100943869Y-64406000D01*
X100653299Y-64463798D01*
X100379589Y-64577173D01*
X100255629Y-64660000D01*
X96711398Y-64660000D01*
X96650000Y-64653953D01*
X96588602Y-64660000D01*
X96588595Y-64660000D01*
X96404957Y-64678087D01*
X96169331Y-64749563D01*
X95952177Y-64865634D01*
X95761840Y-65021840D01*
X95722696Y-65069537D01*
X90345538Y-70446696D01*
X90297841Y-70485840D01*
X90141635Y-70676177D01*
X90109729Y-70735869D01*
X90025563Y-70893332D01*
X89954087Y-71128958D01*
X89929953Y-71374000D01*
X89936001Y-71435407D01*
X89936000Y-73344602D01*
X89929953Y-73406000D01*
X89936000Y-73467398D01*
X89936000Y-73467404D01*
X89954087Y-73651042D01*
X90025563Y-73886668D01*
X90141634Y-74103822D01*
X90297840Y-74294160D01*
X90345542Y-74333309D01*
X92036696Y-76024463D01*
X92075840Y-76072160D01*
X92266177Y-76228366D01*
X92388190Y-76293583D01*
X92483331Y-76344437D01*
X92718957Y-76415913D01*
X92964000Y-76440048D01*
X93025405Y-76434000D01*
X94148476Y-76434000D01*
X93987805Y-76565860D01*
X93948660Y-76613558D01*
X93326219Y-77236000D01*
X89030926Y-77236000D01*
X88962895Y-77153105D01*
X88848693Y-77059381D01*
X88718401Y-76989739D01*
X88577026Y-76946853D01*
X88430000Y-76932372D01*
X86830000Y-76932372D01*
X86682974Y-76946853D01*
X86541599Y-76989739D01*
X86411307Y-77059381D01*
X86297105Y-77153105D01*
X86203381Y-77267307D01*
X86133739Y-77397599D01*
X86090853Y-77538974D01*
X86076372Y-77686000D01*
X86076372Y-79286000D01*
X86090853Y-79433026D01*
X86133739Y-79574401D01*
X86203381Y-79704693D01*
X86297105Y-79818895D01*
X86411307Y-79912619D01*
X86541599Y-79982261D01*
X86682974Y-80025147D01*
X86830000Y-80039628D01*
X88430000Y-80039628D01*
X88577026Y-80025147D01*
X88718401Y-79982261D01*
X88848693Y-79912619D01*
X88962895Y-79818895D01*
X89030926Y-79736000D01*
X91918372Y-79736000D01*
X91918372Y-80049861D01*
X91107538Y-80860696D01*
X91059841Y-80899840D01*
X90903635Y-81090177D01*
X90849582Y-81191303D01*
X90787563Y-81307332D01*
X90716087Y-81542958D01*
X90691953Y-81788000D01*
X90698001Y-81849407D01*
X90698000Y-84064233D01*
X89193862Y-85568372D01*
X88608000Y-85568372D01*
X88460974Y-85582853D01*
X88319599Y-85625739D01*
X88189307Y-85695381D01*
X88075105Y-85789105D01*
X87981381Y-85903307D01*
X87911739Y-86033599D01*
X87868853Y-86174974D01*
X87854372Y-86322000D01*
X87854372Y-87922000D01*
X87868853Y-88069026D01*
X87911739Y-88210401D01*
X87981381Y-88340693D01*
X88075105Y-88454895D01*
X88189307Y-88548619D01*
X88319599Y-88618261D01*
X88368187Y-88633000D01*
X75705000Y-88633000D01*
X75705000Y-85360000D01*
X76271872Y-85360000D01*
X76271872Y-87360000D01*
X76286353Y-87507026D01*
X76329239Y-87648401D01*
X76398881Y-87778693D01*
X76492605Y-87892895D01*
X76606807Y-87986619D01*
X76737099Y-88056261D01*
X76878474Y-88099147D01*
X77025500Y-88113628D01*
X78930500Y-88113628D01*
X79077526Y-88099147D01*
X79218901Y-88056261D01*
X79349193Y-87986619D01*
X79463395Y-87892895D01*
X79557119Y-87778693D01*
X79626761Y-87648401D01*
X79669647Y-87507026D01*
X79684128Y-87360000D01*
X79684128Y-86228869D01*
X81355500Y-86228869D01*
X81355500Y-86491132D01*
X81380134Y-86741248D01*
X81477485Y-87062171D01*
X81635574Y-87357935D01*
X81848326Y-87617174D01*
X82107566Y-87829926D01*
X82403330Y-87988015D01*
X82724253Y-88085366D01*
X83058000Y-88118237D01*
X83391748Y-88085366D01*
X83712671Y-87988015D01*
X84008435Y-87829926D01*
X84267674Y-87617174D01*
X84480426Y-87357934D01*
X84638515Y-87062170D01*
X84735866Y-86741247D01*
X84760500Y-86491131D01*
X84760500Y-86228868D01*
X84735866Y-85978752D01*
X84638515Y-85657829D01*
X84480426Y-85362065D01*
X84267674Y-85102826D01*
X84008434Y-84890074D01*
X83712670Y-84731985D01*
X83391747Y-84634634D01*
X83058000Y-84601763D01*
X82724252Y-84634634D01*
X82403329Y-84731985D01*
X82107565Y-84890074D01*
X81848326Y-85102826D01*
X81635574Y-85362066D01*
X81477485Y-85657830D01*
X81380134Y-85978753D01*
X81355500Y-86228869D01*
X79684128Y-86228869D01*
X79684128Y-85360000D01*
X79669647Y-85212974D01*
X79626761Y-85071599D01*
X79557119Y-84941307D01*
X79463395Y-84827105D01*
X79349193Y-84733381D01*
X79218901Y-84663739D01*
X79077526Y-84620853D01*
X78930500Y-84606372D01*
X77025500Y-84606372D01*
X76878474Y-84620853D01*
X76737099Y-84663739D01*
X76606807Y-84733381D01*
X76492605Y-84827105D01*
X76398881Y-84941307D01*
X76329239Y-85071599D01*
X76286353Y-85212974D01*
X76271872Y-85360000D01*
X75705000Y-85360000D01*
X75705000Y-79009000D01*
X77554372Y-79009000D01*
X77554372Y-80759000D01*
X77585666Y-81076730D01*
X77678344Y-81382249D01*
X77828845Y-81663817D01*
X78031386Y-81910614D01*
X78278183Y-82113155D01*
X78559751Y-82263656D01*
X78865270Y-82356334D01*
X79183000Y-82387628D01*
X80933000Y-82387628D01*
X81250730Y-82356334D01*
X81556249Y-82263656D01*
X81837817Y-82113155D01*
X82084614Y-81910614D01*
X82287155Y-81663817D01*
X82437656Y-81382249D01*
X82530334Y-81076730D01*
X82561628Y-80759000D01*
X82561628Y-79009000D01*
X82530334Y-78691270D01*
X82437656Y-78385751D01*
X82287155Y-78104183D01*
X82084614Y-77857386D01*
X81877763Y-77687628D01*
X84808000Y-77687628D01*
X84955026Y-77673147D01*
X85096401Y-77630261D01*
X85226693Y-77560619D01*
X85340895Y-77466895D01*
X85434619Y-77352693D01*
X85504261Y-77222401D01*
X85547147Y-77081026D01*
X85561628Y-76934000D01*
X85561628Y-73434000D01*
X85547147Y-73286974D01*
X85504261Y-73145599D01*
X85434619Y-73015307D01*
X85340895Y-72901105D01*
X85226693Y-72807381D01*
X85096401Y-72737739D01*
X84955026Y-72694853D01*
X84808000Y-72680372D01*
X81308000Y-72680372D01*
X81160974Y-72694853D01*
X81019599Y-72737739D01*
X80889307Y-72807381D01*
X80775105Y-72901105D01*
X80681381Y-73015307D01*
X80611739Y-73145599D01*
X80568853Y-73286974D01*
X80554372Y-73434000D01*
X80554372Y-76934000D01*
X80568853Y-77081026D01*
X80611739Y-77222401D01*
X80681381Y-77352693D01*
X80704097Y-77380372D01*
X79183000Y-77380372D01*
X78865270Y-77411666D01*
X78559751Y-77504344D01*
X78278183Y-77654845D01*
X78031386Y-77857386D01*
X77828845Y-78104183D01*
X77678344Y-78385751D01*
X77585666Y-78691270D01*
X77554372Y-79009000D01*
X75705000Y-79009000D01*
X75705000Y-70117000D01*
X77558865Y-70117000D01*
X77593351Y-70113604D01*
X77612320Y-70113736D01*
X77623089Y-70112680D01*
X78214697Y-70050499D01*
X78283519Y-70036372D01*
X78352500Y-70023213D01*
X78362859Y-70020086D01*
X78931121Y-69844180D01*
X78995890Y-69816954D01*
X79061002Y-69790647D01*
X79070557Y-69785567D01*
X79593829Y-69502635D01*
X79652063Y-69463355D01*
X79710838Y-69424894D01*
X79719224Y-69418055D01*
X80177576Y-69038873D01*
X80227085Y-68989016D01*
X80277256Y-68939885D01*
X80284154Y-68931547D01*
X80660126Y-68470560D01*
X80699004Y-68412044D01*
X80738681Y-68354096D01*
X80743828Y-68344578D01*
X81023100Y-67819344D01*
X81049876Y-67754379D01*
X81077538Y-67689840D01*
X81080739Y-67679502D01*
X81252674Y-67110025D01*
X81266321Y-67041101D01*
X81280921Y-66972415D01*
X81282052Y-66961653D01*
X81340101Y-66369627D01*
X81340101Y-66369623D01*
X81343800Y-66332065D01*
X81343800Y-65156000D01*
X81804372Y-65156000D01*
X81804372Y-66664000D01*
X81818853Y-66811026D01*
X81861739Y-66952401D01*
X81931381Y-67082693D01*
X82025105Y-67196895D01*
X82139307Y-67290619D01*
X82269599Y-67360261D01*
X82410974Y-67403147D01*
X82558000Y-67417628D01*
X84066000Y-67417628D01*
X84213026Y-67403147D01*
X84354401Y-67360261D01*
X84484693Y-67290619D01*
X84598895Y-67196895D01*
X84692619Y-67082693D01*
X84762261Y-66952401D01*
X84805147Y-66811026D01*
X84819628Y-66664000D01*
X84819628Y-65761869D01*
X89428000Y-65761869D01*
X89428000Y-66058131D01*
X89485798Y-66348701D01*
X89599173Y-66622411D01*
X89763767Y-66868744D01*
X89973256Y-67078233D01*
X90219589Y-67242827D01*
X90493299Y-67356202D01*
X90783869Y-67414000D01*
X91080131Y-67414000D01*
X91370701Y-67356202D01*
X91644411Y-67242827D01*
X91890744Y-67078233D01*
X92100233Y-66868744D01*
X92264827Y-66622411D01*
X92378202Y-66348701D01*
X92436000Y-66058131D01*
X92436000Y-65761869D01*
X92378202Y-65471299D01*
X92264827Y-65197589D01*
X92100233Y-64951256D01*
X91890744Y-64741767D01*
X91644411Y-64577173D01*
X91370701Y-64463798D01*
X91080131Y-64406000D01*
X90783869Y-64406000D01*
X90493299Y-64463798D01*
X90219589Y-64577173D01*
X89973256Y-64741767D01*
X89763767Y-64951256D01*
X89599173Y-65197589D01*
X89485798Y-65471299D01*
X89428000Y-65761869D01*
X84819628Y-65761869D01*
X84819628Y-65156000D01*
X84805147Y-65008974D01*
X84762261Y-64867599D01*
X84692619Y-64737307D01*
X84598895Y-64623105D01*
X84484693Y-64529381D01*
X84354401Y-64459739D01*
X84213026Y-64416853D01*
X84066000Y-64402372D01*
X82558000Y-64402372D01*
X82410974Y-64416853D01*
X82269599Y-64459739D01*
X82139307Y-64529381D01*
X82025105Y-64623105D01*
X81931381Y-64737307D01*
X81861739Y-64867599D01*
X81818853Y-65008974D01*
X81804372Y-65156000D01*
X81343800Y-65156000D01*
X81343800Y-64275000D01*
X111159057Y-64275000D01*
X110871518Y-64362223D01*
G37*
%TD.AperFunction*%
X99888036Y-81252068D02*
X100103932Y-81467964D01*
X100357800Y-81637592D01*
X100639882Y-81754435D01*
X100939338Y-81814000D01*
X101086366Y-81814000D01*
X102073959Y-82801594D01*
X102108407Y-82843569D01*
X102196164Y-82915589D01*
X102275903Y-82981030D01*
X102356455Y-83024085D01*
X102467000Y-83083172D01*
X102674350Y-83146072D01*
X102835952Y-83161988D01*
X102835953Y-83161988D01*
X102889987Y-83167310D01*
X102944021Y-83161988D01*
X105172523Y-83161988D01*
X104953483Y-83252717D01*
X104707806Y-83416874D01*
X104498874Y-83625806D01*
X104334717Y-83871483D01*
X104221644Y-84144466D01*
X104164000Y-84434263D01*
X104164000Y-84729737D01*
X104221644Y-85019534D01*
X104334717Y-85292517D01*
X104498874Y-85538194D01*
X104707806Y-85747126D01*
X104953483Y-85911283D01*
X105226466Y-86024356D01*
X105516263Y-86082000D01*
X105811737Y-86082000D01*
X106101534Y-86024356D01*
X106374517Y-85911283D01*
X106620194Y-85747126D01*
X106829126Y-85538194D01*
X106993283Y-85292517D01*
X107106356Y-85019534D01*
X107164000Y-84729737D01*
X107164000Y-84434263D01*
X107106356Y-84144466D01*
X106993283Y-83871483D01*
X106829126Y-83625806D01*
X106620194Y-83416874D01*
X106374517Y-83252717D01*
X106155477Y-83161988D01*
X122500354Y-83161988D01*
X122910000Y-83571634D01*
X122910000Y-83718662D01*
X122969565Y-84018118D01*
X123086408Y-84300200D01*
X123118347Y-84348000D01*
X114361398Y-84348000D01*
X114300000Y-84341953D01*
X114238602Y-84348000D01*
X114238595Y-84348000D01*
X114054957Y-84366087D01*
X113819331Y-84437563D01*
X113602177Y-84553634D01*
X113411840Y-84709840D01*
X113372696Y-84757537D01*
X112676216Y-85454017D01*
X112625592Y-85331800D01*
X112455964Y-85077932D01*
X112240068Y-84862036D01*
X111986200Y-84692408D01*
X111704118Y-84575565D01*
X111404662Y-84516000D01*
X111099338Y-84516000D01*
X110799882Y-84575565D01*
X110517800Y-84692408D01*
X110263932Y-84862036D01*
X110048036Y-85077932D01*
X109878408Y-85331800D01*
X109761565Y-85613882D01*
X109702000Y-85913338D01*
X109702000Y-86218662D01*
X109734092Y-86380000D01*
X96201003Y-86380000D01*
X96232435Y-86304118D01*
X96292000Y-86004662D01*
X96292000Y-85699338D01*
X96232435Y-85399882D01*
X96115592Y-85117800D01*
X95945964Y-84863932D01*
X95730068Y-84648036D01*
X95476200Y-84478408D01*
X95369626Y-84434263D01*
X99264000Y-84434263D01*
X99264000Y-84729737D01*
X99321644Y-85019534D01*
X99434717Y-85292517D01*
X99598874Y-85538194D01*
X99807806Y-85747126D01*
X100053483Y-85911283D01*
X100326466Y-86024356D01*
X100616263Y-86082000D01*
X100911737Y-86082000D01*
X101201534Y-86024356D01*
X101474517Y-85911283D01*
X101720194Y-85747126D01*
X101929126Y-85538194D01*
X102093283Y-85292517D01*
X102206356Y-85019534D01*
X102264000Y-84729737D01*
X102264000Y-84434263D01*
X102206356Y-84144466D01*
X102093283Y-83871483D01*
X101929126Y-83625806D01*
X101720194Y-83416874D01*
X101474517Y-83252717D01*
X101201534Y-83139644D01*
X100911737Y-83082000D01*
X100616263Y-83082000D01*
X100326466Y-83139644D01*
X100053483Y-83252717D01*
X99807806Y-83416874D01*
X99598874Y-83625806D01*
X99434717Y-83871483D01*
X99321644Y-84144466D01*
X99264000Y-84434263D01*
X95369626Y-84434263D01*
X95194118Y-84361565D01*
X94894662Y-84302000D01*
X94589338Y-84302000D01*
X94289882Y-84361565D01*
X94007800Y-84478408D01*
X93753932Y-84648036D01*
X93538036Y-84863932D01*
X93368408Y-85117800D01*
X93251565Y-85399882D01*
X93192000Y-85699338D01*
X93192000Y-86004662D01*
X93251565Y-86304118D01*
X93282997Y-86380000D01*
X91917767Y-86380000D01*
X92788464Y-85509303D01*
X92836160Y-85470160D01*
X92992366Y-85279823D01*
X93108437Y-85062669D01*
X93179913Y-84827043D01*
X93198000Y-84643405D01*
X93198000Y-84643399D01*
X93204047Y-84582001D01*
X93198000Y-84520603D01*
X93198000Y-82305766D01*
X93686139Y-81817628D01*
X94272000Y-81817628D01*
X94419026Y-81803147D01*
X94560401Y-81760261D01*
X94690693Y-81690619D01*
X94804895Y-81596895D01*
X94898619Y-81482693D01*
X94947399Y-81391431D01*
X95023932Y-81467964D01*
X95277800Y-81637592D01*
X95559882Y-81754435D01*
X95859338Y-81814000D01*
X96164662Y-81814000D01*
X96464118Y-81754435D01*
X96746200Y-81637592D01*
X97000068Y-81467964D01*
X97215964Y-81252068D01*
X97282000Y-81153237D01*
X97348036Y-81252068D01*
X97563932Y-81467964D01*
X97817800Y-81637592D01*
X98099882Y-81754435D01*
X98399338Y-81814000D01*
X98704662Y-81814000D01*
X99004118Y-81754435D01*
X99286200Y-81637592D01*
X99540068Y-81467964D01*
X99755964Y-81252068D01*
X99822000Y-81153237D01*
X99888036Y-81252068D01*
%TA.AperFunction,Conductor*%
G36*
X99888036Y-81252068D02*
G01*
X100103932Y-81467964D01*
X100357800Y-81637592D01*
X100639882Y-81754435D01*
X100939338Y-81814000D01*
X101086366Y-81814000D01*
X102073959Y-82801594D01*
X102108407Y-82843569D01*
X102196164Y-82915589D01*
X102275903Y-82981030D01*
X102356455Y-83024085D01*
X102467000Y-83083172D01*
X102674350Y-83146072D01*
X102835952Y-83161988D01*
X102835953Y-83161988D01*
X102889987Y-83167310D01*
X102944021Y-83161988D01*
X105172523Y-83161988D01*
X104953483Y-83252717D01*
X104707806Y-83416874D01*
X104498874Y-83625806D01*
X104334717Y-83871483D01*
X104221644Y-84144466D01*
X104164000Y-84434263D01*
X104164000Y-84729737D01*
X104221644Y-85019534D01*
X104334717Y-85292517D01*
X104498874Y-85538194D01*
X104707806Y-85747126D01*
X104953483Y-85911283D01*
X105226466Y-86024356D01*
X105516263Y-86082000D01*
X105811737Y-86082000D01*
X106101534Y-86024356D01*
X106374517Y-85911283D01*
X106620194Y-85747126D01*
X106829126Y-85538194D01*
X106993283Y-85292517D01*
X107106356Y-85019534D01*
X107164000Y-84729737D01*
X107164000Y-84434263D01*
X107106356Y-84144466D01*
X106993283Y-83871483D01*
X106829126Y-83625806D01*
X106620194Y-83416874D01*
X106374517Y-83252717D01*
X106155477Y-83161988D01*
X122500354Y-83161988D01*
X122910000Y-83571634D01*
X122910000Y-83718662D01*
X122969565Y-84018118D01*
X123086408Y-84300200D01*
X123118347Y-84348000D01*
X114361398Y-84348000D01*
X114300000Y-84341953D01*
X114238602Y-84348000D01*
X114238595Y-84348000D01*
X114054957Y-84366087D01*
X113819331Y-84437563D01*
X113602177Y-84553634D01*
X113411840Y-84709840D01*
X113372696Y-84757537D01*
X112676216Y-85454017D01*
X112625592Y-85331800D01*
X112455964Y-85077932D01*
X112240068Y-84862036D01*
X111986200Y-84692408D01*
X111704118Y-84575565D01*
X111404662Y-84516000D01*
X111099338Y-84516000D01*
X110799882Y-84575565D01*
X110517800Y-84692408D01*
X110263932Y-84862036D01*
X110048036Y-85077932D01*
X109878408Y-85331800D01*
X109761565Y-85613882D01*
X109702000Y-85913338D01*
X109702000Y-86218662D01*
X109734092Y-86380000D01*
X96201003Y-86380000D01*
X96232435Y-86304118D01*
X96292000Y-86004662D01*
X96292000Y-85699338D01*
X96232435Y-85399882D01*
X96115592Y-85117800D01*
X95945964Y-84863932D01*
X95730068Y-84648036D01*
X95476200Y-84478408D01*
X95369626Y-84434263D01*
X99264000Y-84434263D01*
X99264000Y-84729737D01*
X99321644Y-85019534D01*
X99434717Y-85292517D01*
X99598874Y-85538194D01*
X99807806Y-85747126D01*
X100053483Y-85911283D01*
X100326466Y-86024356D01*
X100616263Y-86082000D01*
X100911737Y-86082000D01*
X101201534Y-86024356D01*
X101474517Y-85911283D01*
X101720194Y-85747126D01*
X101929126Y-85538194D01*
X102093283Y-85292517D01*
X102206356Y-85019534D01*
X102264000Y-84729737D01*
X102264000Y-84434263D01*
X102206356Y-84144466D01*
X102093283Y-83871483D01*
X101929126Y-83625806D01*
X101720194Y-83416874D01*
X101474517Y-83252717D01*
X101201534Y-83139644D01*
X100911737Y-83082000D01*
X100616263Y-83082000D01*
X100326466Y-83139644D01*
X100053483Y-83252717D01*
X99807806Y-83416874D01*
X99598874Y-83625806D01*
X99434717Y-83871483D01*
X99321644Y-84144466D01*
X99264000Y-84434263D01*
X95369626Y-84434263D01*
X95194118Y-84361565D01*
X94894662Y-84302000D01*
X94589338Y-84302000D01*
X94289882Y-84361565D01*
X94007800Y-84478408D01*
X93753932Y-84648036D01*
X93538036Y-84863932D01*
X93368408Y-85117800D01*
X93251565Y-85399882D01*
X93192000Y-85699338D01*
X93192000Y-86004662D01*
X93251565Y-86304118D01*
X93282997Y-86380000D01*
X91917767Y-86380000D01*
X92788464Y-85509303D01*
X92836160Y-85470160D01*
X92992366Y-85279823D01*
X93108437Y-85062669D01*
X93179913Y-84827043D01*
X93198000Y-84643405D01*
X93198000Y-84643399D01*
X93204047Y-84582001D01*
X93198000Y-84520603D01*
X93198000Y-82305766D01*
X93686139Y-81817628D01*
X94272000Y-81817628D01*
X94419026Y-81803147D01*
X94560401Y-81760261D01*
X94690693Y-81690619D01*
X94804895Y-81596895D01*
X94898619Y-81482693D01*
X94947399Y-81391431D01*
X95023932Y-81467964D01*
X95277800Y-81637592D01*
X95559882Y-81754435D01*
X95859338Y-81814000D01*
X96164662Y-81814000D01*
X96464118Y-81754435D01*
X96746200Y-81637592D01*
X97000068Y-81467964D01*
X97215964Y-81252068D01*
X97282000Y-81153237D01*
X97348036Y-81252068D01*
X97563932Y-81467964D01*
X97817800Y-81637592D01*
X98099882Y-81754435D01*
X98399338Y-81814000D01*
X98704662Y-81814000D01*
X99004118Y-81754435D01*
X99286200Y-81637592D01*
X99540068Y-81467964D01*
X99755964Y-81252068D01*
X99822000Y-81153237D01*
X99888036Y-81252068D01*
G37*
%TD.AperFunction*%
X137872908Y-80752674D02*
X137871778Y-80751747D01*
X137650281Y-80633354D01*
X137409943Y-80560448D01*
X137160000Y-80535831D01*
X136910056Y-80560448D01*
X136669718Y-80633354D01*
X136525000Y-80710708D01*
X136380281Y-80633354D01*
X136139943Y-80560448D01*
X135890000Y-80535831D01*
X135640056Y-80560448D01*
X135466100Y-80613217D01*
X135433401Y-80595739D01*
X135292026Y-80552853D01*
X135145000Y-80538372D01*
X134095000Y-80538372D01*
X133947974Y-80552853D01*
X133806599Y-80595739D01*
X133676307Y-80665381D01*
X133562105Y-80759105D01*
X133468381Y-80873307D01*
X133431664Y-80942000D01*
X127888871Y-80942000D01*
X127982435Y-80716118D01*
X128042000Y-80416662D01*
X128042000Y-80111338D01*
X127982435Y-79811882D01*
X127865592Y-79529800D01*
X127695964Y-79275932D01*
X127480068Y-79060036D01*
X127226200Y-78890408D01*
X126944118Y-78773565D01*
X126644662Y-78714000D01*
X126339338Y-78714000D01*
X126039882Y-78773565D01*
X125757800Y-78890408D01*
X125503932Y-79060036D01*
X125288036Y-79275932D01*
X125222000Y-79374763D01*
X125155964Y-79275932D01*
X124940068Y-79060036D01*
X124686200Y-78890408D01*
X124404118Y-78773565D01*
X124104662Y-78714000D01*
X123799338Y-78714000D01*
X123499882Y-78773565D01*
X123217800Y-78890408D01*
X122963932Y-79060036D01*
X122748036Y-79275932D01*
X122682000Y-79374763D01*
X122615964Y-79275932D01*
X122400068Y-79060036D01*
X122146200Y-78890408D01*
X121864118Y-78773565D01*
X121564662Y-78714000D01*
X121259338Y-78714000D01*
X120959882Y-78773565D01*
X120677800Y-78890408D01*
X120423932Y-79060036D01*
X120208036Y-79275932D01*
X120142000Y-79374763D01*
X120075964Y-79275932D01*
X119860068Y-79060036D01*
X119606200Y-78890408D01*
X119324118Y-78773565D01*
X119024662Y-78714000D01*
X118719338Y-78714000D01*
X118419882Y-78773565D01*
X118137800Y-78890408D01*
X117883932Y-79060036D01*
X117668036Y-79275932D01*
X117602000Y-79374763D01*
X117535964Y-79275932D01*
X117320068Y-79060036D01*
X117066200Y-78890408D01*
X116784118Y-78773565D01*
X116484662Y-78714000D01*
X116179338Y-78714000D01*
X115879882Y-78773565D01*
X115597800Y-78890408D01*
X115343932Y-79060036D01*
X115128036Y-79275932D01*
X115062000Y-79374763D01*
X114995964Y-79275932D01*
X114780068Y-79060036D01*
X114526200Y-78890408D01*
X114244118Y-78773565D01*
X113944662Y-78714000D01*
X113639338Y-78714000D01*
X113339882Y-78773565D01*
X113057800Y-78890408D01*
X112803932Y-79060036D01*
X112588036Y-79275932D01*
X112418408Y-79529800D01*
X112301565Y-79811882D01*
X112242000Y-80111338D01*
X112242000Y-80416662D01*
X112301565Y-80716118D01*
X112403408Y-80961988D01*
X110100592Y-80961988D01*
X110202435Y-80716118D01*
X110262000Y-80416662D01*
X110262000Y-80111338D01*
X110202435Y-79811882D01*
X110085592Y-79529800D01*
X109915964Y-79275932D01*
X109700068Y-79060036D01*
X109446200Y-78890408D01*
X109164118Y-78773565D01*
X108945932Y-78730165D01*
X108919787Y-78704020D01*
X135824254Y-78704020D01*
X137872908Y-80752674D01*
%TA.AperFunction,Conductor*%
G36*
X137872908Y-80752674D02*
G01*
X137871778Y-80751747D01*
X137650281Y-80633354D01*
X137409943Y-80560448D01*
X137160000Y-80535831D01*
X136910056Y-80560448D01*
X136669718Y-80633354D01*
X136525000Y-80710708D01*
X136380281Y-80633354D01*
X136139943Y-80560448D01*
X135890000Y-80535831D01*
X135640056Y-80560448D01*
X135466100Y-80613217D01*
X135433401Y-80595739D01*
X135292026Y-80552853D01*
X135145000Y-80538372D01*
X134095000Y-80538372D01*
X133947974Y-80552853D01*
X133806599Y-80595739D01*
X133676307Y-80665381D01*
X133562105Y-80759105D01*
X133468381Y-80873307D01*
X133431664Y-80942000D01*
X127888871Y-80942000D01*
X127982435Y-80716118D01*
X128042000Y-80416662D01*
X128042000Y-80111338D01*
X127982435Y-79811882D01*
X127865592Y-79529800D01*
X127695964Y-79275932D01*
X127480068Y-79060036D01*
X127226200Y-78890408D01*
X126944118Y-78773565D01*
X126644662Y-78714000D01*
X126339338Y-78714000D01*
X126039882Y-78773565D01*
X125757800Y-78890408D01*
X125503932Y-79060036D01*
X125288036Y-79275932D01*
X125222000Y-79374763D01*
X125155964Y-79275932D01*
X124940068Y-79060036D01*
X124686200Y-78890408D01*
X124404118Y-78773565D01*
X124104662Y-78714000D01*
X123799338Y-78714000D01*
X123499882Y-78773565D01*
X123217800Y-78890408D01*
X122963932Y-79060036D01*
X122748036Y-79275932D01*
X122682000Y-79374763D01*
X122615964Y-79275932D01*
X122400068Y-79060036D01*
X122146200Y-78890408D01*
X121864118Y-78773565D01*
X121564662Y-78714000D01*
X121259338Y-78714000D01*
X120959882Y-78773565D01*
X120677800Y-78890408D01*
X120423932Y-79060036D01*
X120208036Y-79275932D01*
X120142000Y-79374763D01*
X120075964Y-79275932D01*
X119860068Y-79060036D01*
X119606200Y-78890408D01*
X119324118Y-78773565D01*
X119024662Y-78714000D01*
X118719338Y-78714000D01*
X118419882Y-78773565D01*
X118137800Y-78890408D01*
X117883932Y-79060036D01*
X117668036Y-79275932D01*
X117602000Y-79374763D01*
X117535964Y-79275932D01*
X117320068Y-79060036D01*
X117066200Y-78890408D01*
X116784118Y-78773565D01*
X116484662Y-78714000D01*
X116179338Y-78714000D01*
X115879882Y-78773565D01*
X115597800Y-78890408D01*
X115343932Y-79060036D01*
X115128036Y-79275932D01*
X115062000Y-79374763D01*
X114995964Y-79275932D01*
X114780068Y-79060036D01*
X114526200Y-78890408D01*
X114244118Y-78773565D01*
X113944662Y-78714000D01*
X113639338Y-78714000D01*
X113339882Y-78773565D01*
X113057800Y-78890408D01*
X112803932Y-79060036D01*
X112588036Y-79275932D01*
X112418408Y-79529800D01*
X112301565Y-79811882D01*
X112242000Y-80111338D01*
X112242000Y-80416662D01*
X112301565Y-80716118D01*
X112403408Y-80961988D01*
X110100592Y-80961988D01*
X110202435Y-80716118D01*
X110262000Y-80416662D01*
X110262000Y-80111338D01*
X110202435Y-79811882D01*
X110085592Y-79529800D01*
X109915964Y-79275932D01*
X109700068Y-79060036D01*
X109446200Y-78890408D01*
X109164118Y-78773565D01*
X108945932Y-78730165D01*
X108919787Y-78704020D01*
X135824254Y-78704020D01*
X137872908Y-80752674D01*
G37*
%TD.AperFunction*%
X138811518Y-64362223D02*
X138524875Y-64515438D01*
X138273630Y-64721629D01*
X138067438Y-64972874D01*
X137914223Y-65259517D01*
X137819875Y-65570544D01*
X137796000Y-65812948D01*
X137796000Y-66775051D01*
X137819875Y-67017455D01*
X137914223Y-67328482D01*
X137987950Y-67466415D01*
X131374755Y-74079611D01*
X130574423Y-74079611D01*
X135105606Y-69548429D01*
X135147581Y-69513981D01*
X135222401Y-69422812D01*
X135285042Y-69346485D01*
X135350092Y-69224783D01*
X135387184Y-69155388D01*
X135450084Y-68948038D01*
X135466000Y-68786436D01*
X135466000Y-68786435D01*
X135471322Y-68732401D01*
X135466000Y-68678367D01*
X135466000Y-67925764D01*
X135538371Y-67866371D01*
X135744562Y-67615126D01*
X135897777Y-67328483D01*
X135992125Y-67017456D01*
X136016000Y-66775052D01*
X136016000Y-65812949D01*
X135992125Y-65570544D01*
X135897777Y-65259517D01*
X135744562Y-64972874D01*
X135538371Y-64721629D01*
X135287126Y-64515438D01*
X135000483Y-64362223D01*
X134712944Y-64275000D01*
X139099057Y-64275000D01*
X138811518Y-64362223D01*
%TA.AperFunction,Conductor*%
G36*
X138811518Y-64362223D02*
G01*
X138524875Y-64515438D01*
X138273630Y-64721629D01*
X138067438Y-64972874D01*
X137914223Y-65259517D01*
X137819875Y-65570544D01*
X137796000Y-65812948D01*
X137796000Y-66775051D01*
X137819875Y-67017455D01*
X137914223Y-67328482D01*
X137987950Y-67466415D01*
X131374755Y-74079611D01*
X130574423Y-74079611D01*
X135105606Y-69548429D01*
X135147581Y-69513981D01*
X135222401Y-69422812D01*
X135285042Y-69346485D01*
X135350092Y-69224783D01*
X135387184Y-69155388D01*
X135450084Y-68948038D01*
X135466000Y-68786436D01*
X135466000Y-68786435D01*
X135471322Y-68732401D01*
X135466000Y-68678367D01*
X135466000Y-67925764D01*
X135538371Y-67866371D01*
X135744562Y-67615126D01*
X135897777Y-67328483D01*
X135992125Y-67017456D01*
X136016000Y-66775052D01*
X136016000Y-65812949D01*
X135992125Y-65570544D01*
X135897777Y-65259517D01*
X135744562Y-64972874D01*
X135538371Y-64721629D01*
X135287126Y-64515438D01*
X135000483Y-64362223D01*
X134712944Y-64275000D01*
X139099057Y-64275000D01*
X138811518Y-64362223D01*
G37*
%TD.AperFunction*%
X109702000Y-72491338D02*
X109702000Y-72796662D01*
X109761565Y-73096118D01*
X109878408Y-73378200D01*
X110048036Y-73632068D01*
X110263932Y-73847964D01*
X110392695Y-73934000D01*
X107031305Y-73934000D01*
X107160068Y-73847964D01*
X107375964Y-73632068D01*
X107545592Y-73378200D01*
X107662435Y-73096118D01*
X107722000Y-72796662D01*
X107722000Y-72491338D01*
X107700649Y-72383999D01*
X109723351Y-72383999D01*
X109702000Y-72491338D01*
%TA.AperFunction,Conductor*%
G36*
X109702000Y-72491338D02*
G01*
X109702000Y-72796662D01*
X109761565Y-73096118D01*
X109878408Y-73378200D01*
X110048036Y-73632068D01*
X110263932Y-73847964D01*
X110392695Y-73934000D01*
X107031305Y-73934000D01*
X107160068Y-73847964D01*
X107375964Y-73632068D01*
X107545592Y-73378200D01*
X107662435Y-73096118D01*
X107722000Y-72796662D01*
X107722000Y-72491338D01*
X107700649Y-72383999D01*
X109723351Y-72383999D01*
X109702000Y-72491338D01*
G37*
%TD.AperFunction*%
%TD*%
M02*
